<svg width="90" height="91" viewBox="0 0 90 91" fill="none" xmlns="http://www.w3.org/2000/svg">
<path d="M72.9946 35.9394H63.5014C58.3442 35.9394 54.1584 31.7588 54.1584 26.5963V17.0226C54.1584 9.27882 47.8796 3 40.1358 3C37.5599 3 35.4724 5.08752 35.4724 7.66341V26.5909C35.4724 31.7481 31.2919 35.934 26.1294 35.934H7.2019C4.626 35.934 2.53845 38.0215 2.53845 40.5974C2.53845 48.3412 8.81721 54.6199 16.561 54.6199H26.1348C31.2919 54.6199 35.4777 58.8004 35.4777 63.9629V73.4562C35.4777 81.2429 41.7887 87.5538 49.5754 87.5538C52.1084 87.5538 54.1584 85.5038 54.1584 82.9709V63.9629C54.1584 58.8058 58.3388 54.6199 63.5014 54.6199H82.5093C85.0423 54.6199 87.0923 52.5699 87.0923 50.0369C87.0923 42.2555 80.7814 35.9394 72.9946 35.9394Z" stroke="#E3185A" stroke-width="5" stroke-miterlimit="10"/>
</svg>
