<svg width="553" height="535" viewBox="0 0 553 535" fill="none" xmlns="http://www.w3.org/2000/svg">
<path d="M552.49 474.26C552.17 472.18 551.47 470.23 550.6 468.39C546.95 461.28 542.76 454.58 537.89 448.3C533.04 442.03 527.53 436.26 521.47 431.14C515.38 426.05 508.72 421.66 501.67 418.01C498.13 416.23 494.51 414.6 490.8 413.18C487.09 411.79 483.31 410.58 479.47 409.58C475.63 408.58 471.74 407.79 467.81 407.24C464.44 406.78 461.08 406.45 457.65 406.4C456.21 392.67 453.18 381.45 452.64 379.51C454.17 374.9 455.47 355.12 453.31 342.88C451.1 330.35 450.24 279.87 455.38 274.32C455.69 273.98 455.89 274 455.95 274.01C457.9 274.2 459.52 273.68 460.79 272.46C463.91 269.44 463.54 263.16 463.52 262.84L463.44 259.38L462.08 262.01C461.93 262.02 461.74 262.03 461.52 262.05C460.61 261.12 458.23 256.98 455.49 238.72C452.72 220.25 446.15 212.11 442.22 207.25C439.83 204.29 438.8 202.91 439.41 201.29C439.77 200.32 440.89 199.22 442.48 198.06C442.5 198.05 442.52 198.04 442.54 198.03C442.58 198.01 442.61 197.97 442.65 197.94C448.4 193.83 460 189.11 465.09 187.26L465.32 187.18L465.48 187C479.59 170.48 495.68 153.27 498.12 153.06C500.74 153.58 503.83 152.19 507.42 150.57C509.36 149.7 511.56 148.71 513.89 147.93C522.29 145.13 522.53 123.96 522.53 121.55C522.53 118.92 522.27 116.92 520.98 115.71C519.2 114.04 515.99 114.24 509.6 114.64C508.78 114.69 507.91 114.75 506.98 114.8C499.94 115.21 496.99 119.3 493.87 123.63C491.17 127.36 488.12 131.6 481.87 134.56C470.48 139.95 453.52 150.86 447.92 154.52C452.68 127.65 423.9 107.39 407.58 100.3C400.77 97.34 396.23 94.91 392.58 92.96C387.28 90.13 384.36 88.57 380.25 88.57C378.63 88.57 376.92 86.95 375.69 84.24C374.06 80.65 373.76 76.19 375.06 74.7C375.34 74.37 375.86 73.98 377.07 74.34C382.77 76.05 384.02 73.48 385.02 71.42C385.46 70.51 385.88 69.66 386.63 69.09C389.4 67.01 395.66 52.54 395.48 45.94C395.43 44.06 394.89 42.76 393.87 42.09C389.87 39.43 383.35 28.03 383.35 22.45C383.35 18.07 379.94 11.33 376.05 8.03999C374.36 6.60999 372.77 6.00001 371.34 6.24001C367.9 6.81001 349.53 2.23999 342.73 0.429993L342.41 0.339996L342.11 0.479996C341.14 0.929996 318.36 11.61 311.74 20.44C305.12 29.27 305.59 31.14 307.28 34.52C308.53 37.02 307.98 49.67 307.2 54.36C306.6 57.98 306.95 68.08 307.12 71.97C303.57 71.07 296.33 72.96 285.16 77.71C264.73 86.39 250.28 113.1 242.52 127.45C240.33 131.5 238.07 135.69 237.06 136.63C234.32 133.93 232.9 133.18 232.74 133.1L232.49 132.98L232.22 133.01C180.63 139.14 172.78 132.72 167.59 128.46C165.56 126.8 163.77 125.34 160.13 125.04C157.72 121.76 155.28 118.5 152.79 115.28C152.2 114.51 151.59 113.76 150.99 112.99C151.09 106.84 150.81 100.68 150.26 94.58C149.26 83.57 147.71 72.42 143.65 61.92C142.62 59.3 141.39 56.76 139.93 54.32C138.47 51.89 136.73 49.58 134.63 47.6C132.53 45.62 130.04 43.99 127.28 42.97C125.91 42.43 124.47 42.14 123.02 41.91C121.56 41.76 120.1 41.69 118.65 41.83C112.81 42.3 107.48 44.86 102.85 48.05C100.12 49.93 97.61 52.06 95.26 54.35C92.88 52.45 90.42 50.64 87.73 49.11C87.05 48.71 86.32 48.37 85.61 48C84.88 47.67 84.13 47.36 83.37 47.09C81.83 46.58 80.14 46.23 78.37 46.5C77.93 46.6 77.4799 46.63 77.0699 46.85C76.6499 47.04 76.22 47.19 75.86 47.49C75.49 47.76 75.1099 48.02 74.8399 48.37C74.5399 48.7 74.23 49.03 74.03 49.41C73.1 50.88 72.62 52.51 72.37 54.1C71.82 57.3 71.9599 60.46 72.1899 63.59C72.3599 65.55 72.61 67.5 72.9 69.44C71.1 68.74 69.2899 68.08 67.4399 67.48C64.7599 66.61 62.0099 65.93 59.2099 65.41C57.8099 65.15 56.3799 64.97 54.9499 64.83L50.72 64.62C45.08 64.51 39.4799 64.98 33.9499 65.74C28.4199 66.52 22.94 67.61 17.54 68.94C12.12 70.28 6.79996 71.8 1.47996 73.65C0.57996 73.96 0.110033 74.95 0.430033 75.84C0.740033 76.74 1.72997 77.21 2.61997 76.89L2.66001 76.88C7.76001 75.09 13.06 73.55 18.36 72.23C23.67 70.91 29.03 69.82 34.43 69.04C39.82 68.27 45.26 67.81 50.66 67.9L54.6999 68.09C56.0199 68.22 57.33 68.37 58.65 68.61C61.28 69.09 63.9 69.73 66.48 70.56C68.86 71.32 71.21 72.18 73.53 73.13C74.21 76.76 75.02 80.36 75.9 83.94C75.29 85.48 74.71 87.03 74.18 88.61C72.44 93.94 71.2 99.46 70.79 105.1C70.58 107.91 70.5699 110.75 70.8199 113.58C71.0699 116.42 71.5599 119.17 72.1999 121.93C74.7599 132.9 80.17 143.24 88 151.4C91.91 155.48 96.41 159.03 101.49 161.64C104.03 162.95 106.72 163.99 109.53 164.67C112.34 165.32 115.3 165.63 118.26 165.21C120.58 164.9 122.9 164.11 124.93 162.84C128.78 161.86 132.45 160.13 135.59 157.68C140.04 154.07 143.39 149.26 145.55 144.07C147.77 138.88 149.1 133.39 149.92 127.87C150.46 123.89 150.78 119.89 150.93 115.88C151.07 116.06 151.21 116.23 151.34 116.4C153.62 119.34 155.85 122.31 158.06 125.31C157.92 125.47 157.83 125.67 157.83 125.9C157.83 126.41 158.24 126.82 158.75 126.82C158.9 126.82 159.03 126.83 159.17 126.83C163.89 133.29 168.47 139.85 172.82 146.57C179.55 156.91 185.94 167.53 191.55 178.46L191.57 178.49C191.8 178.94 192.36 179.12 192.81 178.89C193.26 178.66 193.44 178.1 193.21 177.65C190.45 172.27 187.51 166.99 184.45 161.8C214.55 177.89 242.49 172.64 245.42 172.03C253.84 174.5 263.61 171.07 266.27 170.02C281.63 191.58 256.54 245.36 256.28 245.91L256.19 246.1L257.09 297.54C244.44 288.71 231.57 280.28 218.4 272.27C211.66 268.18 204.84 264.22 197.88 260.48C190.92 256.75 183.84 253.21 176.49 250.21C172.81 248.72 169.05 247.37 165.14 246.37C163.19 245.88 161.2 245.47 159.14 245.27C157.09 245.08 154.95 245.05 152.79 245.63C151.71 245.93 150.63 246.4 149.68 247.13C148.72 247.85 147.94 248.83 147.44 249.89C146.44 252.04 146.37 254.3 146.55 256.38C146.73 258.48 147.2 260.48 147.78 262.42C148.35 264.36 149.05 266.25 149.82 268.1C152.89 275.49 156.82 282.38 160.92 289.13C165.05 295.87 169.43 302.43 173.94 308.9C178.45 315.35 183.06 321.77 188.02 327.94C192.98 334.09 198.18 340.05 203.62 345.77C214.48 357.24 226.2 367.86 238.45 377.79C241.2 380.01 243.97 382.18 246.77 384.33C246.66 387.42 246.7 389.86 246.73 390.78C239.49 399.08 238.15 426.59 236.97 450.89C236.25 465.7 235.57 479.69 233.65 487.07C230 501.16 229.68 519.44 237.22 528.5C240.37 532.28 244.59 534.19 249.78 534.19C250.3 534.19 250.83 534.17 251.37 534.13C256.06 533.8 259.61 532.28 261.91 529.62C266.12 524.75 265.56 517.12 265.06 510.38C264.78 506.53 264.51 502.89 265.29 500.73C268.27 492.53 288.66 460.73 291.31 458.08C293.53 455.86 303.06 435.91 308.4 424.52C311.42 426.2 314.45 427.86 317.5 429.49C321.22 431.48 324.97 433.42 328.73 435.33C327.85 436.31 326.99 437.31 326.17 438.33C323.52 441.64 321.15 445.19 319.09 448.93C318.08 450.81 317.13 452.73 316.28 454.71C315.86 455.7 315.45 456.7 315.08 457.73C314.89 458.24 314.71 458.76 314.54 459.29C314.36 459.84 314.21 460.32 314.04 461C314.02 461.07 314.01 461.14 313.99 461.21C313.6 463.19 314.89 465.11 316.87 465.5C318.85 465.89 320.77 464.6 321.16 462.62L321.17 462.58C321.23 462.27 321.35 461.77 321.47 461.34C321.59 460.89 321.72 460.44 321.85 459.99C322.12 459.09 322.43 458.18 322.75 457.28C323.41 455.48 324.16 453.7 324.99 451.95C326.66 448.46 328.65 445.09 330.91 441.92C331.88 440.55 332.92 439.23 334 437.94C356.7 449.19 380.08 459.08 403.96 467.52C404.78 467.81 405.6 468.09 406.43 468.38C410.03 476.68 412.97 482.79 413.52 483.94C414.13 487.35 423.01 534.13 446.08 534.13C446.26 534.13 446.44 534.13 446.62 534.12C451.5 533.97 454.89 532.4 456.7 529.45C461.18 522.17 454.66 508.18 450.77 499.82C449.48 497.05 448.36 494.66 448.23 493.73C447.84 490.98 448.8 485.67 449.72 481.56C464.79 485.44 480.04 488.66 495.51 490.62C503.34 491.59 511.23 492.26 519.16 492.24C523.12 492.24 527.1 492.04 531.05 491.56C535 491.04 538.97 490.28 542.75 488.74C544.63 487.97 546.47 486.99 548.1 485.66C548.93 485.02 549.66 484.22 550.33 483.4C550.95 482.53 551.53 481.6 551.9 480.58C552.7 478.56 552.79 476.33 552.49 474.26ZM104.21 50C108.61 46.95 113.61 44.58 118.84 44.15C124.07 43.6 129.26 45.63 133.07 49.26C136.92 52.89 139.55 57.74 141.58 62.74C143.58 67.78 144.93 73.1 145.97 78.46C146.48 81.15 146.9 83.86 147.25 86.57C147.59 89.29 147.85 92.03 148.15 94.76C148.64 99.94 148.93 105.15 148.95 110.35C134.85 92.55 119.31 75.89 102.49 60.62C100.76 59.01 98.99 57.4 97.16 55.87C99.35 53.73 101.7 51.74 104.21 50ZM74.02 63.42C73.79 60.39 73.67 57.31 74.18 54.4C74.4 52.94 74.8499 51.54 75.5699 50.4C76.2899 49.26 77.36 48.49 78.66 48.31C79.96 48.12 81.39 48.37 82.77 48.83C83.46 49.08 84.1399 49.36 84.8199 49.66C85.4799 50.01 86.16 50.31 86.81 50.7C89.31 52.11 91.6599 53.84 93.9399 55.65C92.7399 56.88 91.59 58.15 90.48 59.45C86.92 63.66 83.7799 68.21 81.0799 73C79.0399 72 76.97 71.06 74.86 70.19C74.51 67.95 74.21 65.69 74.02 63.42ZM75.5699 73.99C76.9199 74.57 78.2599 75.19 79.5899 75.83C78.6999 77.54 77.8599 79.28 77.0899 81.05C76.5299 78.71 76.0299 76.35 75.5699 73.99ZM124.68 159.5C123.54 160.45 122.23 161.16 120.82 161.66C120.44 161.71 120.05 161.76 119.67 161.79C114.76 162.21 109.76 161.57 105.01 160.18C104.68 160.04 104.36 159.9 104.04 159.75C99.4 148.53 95.03 137.17 90.91 125.74C86.74 114.11 82.82 102.39 79.52 90.5C79.03 88.73 78.57 86.96 78.11 85.19C79.2 82.38 80.4599 79.62 81.8399 76.94C86.5699 79.37 91.14 82.15 95.48 85.21C104.36 91.49 112.4 99.05 118.66 107.9C124.89 116.74 129.18 126.99 130.29 137.72C130.62 140.4 130.72 143.08 130.54 145.73C130.34 148.36 129.9 150.99 128.95 153.37C128.03 155.78 126.58 157.91 124.68 159.5ZM89.9599 149.49C82.4699 141.73 77.24 131.83 74.76 121.31C74.14 118.69 73.66 115.99 73.42 113.33C73.18 110.66 73.18 107.96 73.37 105.27C73.74 99.88 74.9199 94.55 76.5899 89.39C76.7199 89 76.87 88.62 77 88.24C77.24 89.16 77.49 90.08 77.74 90.99C81.06 102.95 84.99 114.71 89.17 126.37C93.06 137.16 97.18 147.87 101.53 158.49C97.26 156.12 93.3699 153.03 89.9599 149.49ZM147.91 127.57C147.12 132.96 145.84 138.29 143.73 143.27C141.67 148.26 138.51 152.77 134.39 156.15C132.63 157.52 130.7 158.65 128.66 159.55C129.94 158.01 130.94 156.26 131.63 154.43C132.73 151.68 133.21 148.79 133.44 145.93C133.64 143.07 133.54 140.21 133.21 137.41C132.08 126.12 127.59 115.35 121.14 106.15C114.66 96.93 106.39 89.13 97.29 82.64C92.84 79.49 88.1799 76.63 83.3299 74.12C85.9299 69.49 88.95 65.09 92.36 61.03C93.48 59.71 94.64 58.42 95.85 57.18C97.7 58.72 99.48 60.34 101.25 61.98C118.55 77.69 134.5 94.89 148.92 113.3C148.84 118.08 148.54 122.85 147.91 127.57ZM445.68 156.29L445.12 158.58L447.08 157.27C447.3 157.12 469.04 142.66 482.67 136.21C489.35 133.05 492.55 128.61 495.38 124.69C498.49 120.38 500.94 116.98 507.11 116.62C508.04 116.57 508.92 116.51 509.73 116.46C515.4 116.1 518.53 115.91 519.73 117.04C520.42 117.69 520.7 118.99 520.7 121.53C520.7 130.44 518.73 144.35 513.31 146.16C510.89 146.97 508.64 147.98 506.67 148.87C503.37 150.36 500.52 151.64 498.48 151.23C497.51 151.03 495.69 150.67 479.49 168.36C472.28 176.24 465.36 184.29 464.23 185.6C461.62 186.56 448.55 191.48 441.7 196.38C441.69 196.38 441.68 196.38 441.68 196.39C429.82 202.66 423.76 201.74 422.89 201.56C396.89 184 403.39 126.6 403.46 126.02C403.52 125.52 403.16 125.06 402.65 125C402.14 124.94 401.69 125.3 401.63 125.81C401.51 126.83 400.28 137.68 400.97 151.2C389.32 136.63 384.27 123.57 386 112.36C387.47 102.84 393.59 97.69 395.24 96.45C398.27 98.03 402.03 99.89 406.84 101.98C425.77 110.19 451.72 131.44 445.68 156.29ZM267.47 168.52C262.47 143.66 309.83 84.08 310.31 83.48C310.63 83.08 310.56 82.5 310.17 82.19C309.77 81.87 309.19 81.94 308.87 82.33C306.9 84.79 261.18 142.32 265.56 168.31C263 169.3 253.52 172.58 245.74 170.19L245.5 170.12L245.26 170.18C244.96 170.25 214.67 177.16 182.59 158.65C179.93 154.24 177.19 149.88 174.39 145.56C170.33 139.3 166.08 133.17 161.69 127.13C163.68 127.61 164.92 128.62 166.46 129.88C171.88 134.32 180.08 141.03 232.17 134.87C232.66 135.18 233.98 136.1 236.09 138.21C236.35 138.47 236.67 138.6 237.02 138.6C237.09 138.6 237.15 138.6 237.22 138.59C238.67 138.38 240.14 135.78 244.18 128.31C251.83 114.16 266.08 87.82 285.92 79.38C302.87 72.17 306.68 73.37 307.52 74.1C307.53 74.11 307.55 74.12 307.56 74.13C307.58 74.15 307.6 74.17 307.62 74.19C308.19 74.84 307.61 76.18 307.36 76.6C307.1 77.04 307.24 77.6 307.68 77.86C308.12 78.12 308.68 77.98 308.94 77.54C309.54 76.53 310.23 74.48 309.05 73.05C308.95 70.88 308.41 58.5 309.05 54.63C309.68 50.87 310.67 37.07 308.97 33.66C307.64 31.01 307.04 29.8 313.25 21.51C319.2 13.58 339.88 3.56999 342.62 2.25999C346.34 3.23999 367.4 8.74 371.68 8.02C372.53 7.88 373.67 8.37 374.89 9.41C378.31 12.3 381.53 18.62 381.53 22.42C381.53 28.73 388.39 40.6 392.87 43.59C393.35 43.91 393.62 44.73 393.66 45.96C393.84 52.54 387.46 66.15 385.54 67.59C384.43 68.42 383.87 69.57 383.38 70.59C382.44 72.53 381.81 73.81 377.61 72.55C376.01 72.07 374.61 72.39 373.68 73.46C371.67 75.76 372.27 81.12 374.02 84.97C375.58 88.41 377.86 90.38 380.26 90.38C381.03 90.38 381.76 90.45 382.48 90.58C377.76 97.88 374.34 104.11 371.32 109.62C361.2 128.08 357.42 134.99 330.08 132.26C312.32 130.48 306.64 125.78 305.01 122.15C303.15 118.03 305.94 114.08 305.96 114.05L306.03 113.96L318.44 83.25C318.63 82.78 318.4 82.24 317.93 82.05C317.46 81.86 316.92 82.09 316.73 82.56L304.4 113.07C303.91 113.8 301.19 118.14 303.32 122.89C305.98 128.83 314.92 132.6 329.9 134.1C333.74 134.48 337.14 134.68 340.17 134.68C359.7 134.68 364.07 126.7 372.94 110.52C376.02 104.9 379.51 98.54 384.37 91.07C386.46 91.75 388.68 92.94 391.73 94.57C392.27 94.86 392.86 95.18 393.48 95.5C391.04 97.49 385.67 102.79 384.22 112.02C382.31 124.25 387.97 138.43 401.05 154.18C401.09 154.23 401.14 154.25 401.19 154.29C401.72 161.6 402.85 169.49 405.01 176.94C403.55 177.87 401.86 178.66 400.2 179.33C398.29 180.09 396.31 180.65 394.31 181.13C390.29 182.04 386.15 182.4 382.03 182.29C377.9 182.17 373.79 181.6 369.74 180.75C365.71 179.8 361.76 178.59 357.95 176.98C354.14 175.37 350.48 173.39 346.75 171.41C343.02 169.43 339.16 167.48 335.07 166.02C333.04 165.24 330.94 164.69 328.84 164.13L325.65 163.47C324.59 163.23 323.51 163.15 322.44 162.99C320.3 162.64 318.14 162.58 315.99 162.41C313.84 162.3 311.69 162.35 309.54 162.32C309.53 162.32 309.51 162.32 309.5 162.32C308.42 162.32 307.55 163.2 307.56 164.27C307.56 165.35 308.44 166.22 309.51 166.21H309.66C311.72 166.2 313.79 166.11 315.85 166.17C317.9 166.29 319.97 166.3 322 166.6C323.01 166.74 324.05 166.79 325.05 166.99L328.06 167.55C330.04 168.04 332.03 168.51 333.96 169.2C341.73 171.76 348.85 176.44 356.86 179.62C360.86 181.21 365.01 182.4 369.2 183.29C373.42 184.08 377.69 184.59 381.99 184.62C386.29 184.65 390.6 184.18 394.79 183.15C398.55 182.17 402.2 180.88 405.57 178.76C408.73 188.72 413.85 197.7 422.02 203.16L422.26 203.27C422.35 203.3 423.18 203.54 424.8 203.54C427.27 203.54 431.58 202.98 437.86 200.26C437.8 200.38 437.74 200.5 437.7 200.61C436.7 203.29 438.42 205.42 440.8 208.37C444.61 213.09 450.98 220.98 453.68 238.95C455.88 253.61 457.91 259.63 459.39 262.16C448.29 263 411.76 266.4 402.22 275.3C391.73 285.09 343.13 278.77 342.64 278.7C342.14 278.64 341.67 278.99 341.61 279.49C341.54 279.99 341.9 280.46 342.4 280.52C343.52 280.67 358.51 282.62 373.63 282.62C386.01 282.62 398.48 281.31 403.49 276.64C412.93 267.83 452.33 264.51 460.98 263.89C461.19 263.99 461.36 264.04 461.5 264.07C461.57 264.09 461.64 264.1 461.7 264.11C461.66 265.92 461.32 269.36 459.51 271.11C458.64 271.95 457.54 272.29 456.14 272.15C455.61 272.1 454.81 272.21 454.04 273.04C447.77 279.8 449.77 333.34 451.5 343.17C453.7 355.63 452.19 375.69 450.82 379.1L450.7 379.4L450.79 379.71C450.85 379.92 454.25 391.68 455.82 406.37C455.35 406.42 454.99 406.81 454.99 407.28C455 407.79 455.41 408.2 455.92 408.19H455.97C455.98 408.19 455.99 408.19 456 408.19C457.03 419.16 456.96 431.51 453.71 441.83C446.47 464.88 448.64 473.88 449.25 475.67C449.11 476.2 448.79 477.4 448.41 478.95C434.64 475.32 421.03 471.09 407.58 466.41C399.44 447.49 388.35 418.38 393.42 410.55L393.8 409.96L393.33 409.43C393.12 409.2 372.49 386.26 373.89 372.98L373.92 372.69L373.78 372.44C368.78 363.27 361.21 347.44 362.2 343.99L362.31 343.6L358.82 338.02C361.29 335.21 361.86 331.43 361.43 328.01C360.97 324.29 359.4 320.93 357.61 317.8C355.68 314.76 353.51 311.89 351.1 309.26L349.28 307.3L348.37 306.32C348.06 306 347.73 305.71 347.41 305.4L343.54 301.74L343.23 301.45L342.7 301.37C336.83 300.55 330.85 299.08 325.04 297.4C319.21 295.7 313.46 293.69 307.79 291.47C304.99 290.29 302.14 289.19 299.38 287.89L295.22 286L291.12 283.98L289.07 282.97L287.05 281.9L283.02 279.74C280.35 278.27 277.73 276.7 275.09 275.18L275.05 275.16C274.62 274.91 274.06 275.06 273.8 275.49C273.54 275.93 273.68 276.49 274.12 276.75C276.76 278.32 279.37 279.96 282.04 281.49L286.07 283.74L288.09 284.86L290.14 285.92L294.25 288.03L298.42 290.02C301.18 291.38 304.04 292.54 306.86 293.79C312.55 296.14 318.35 298.28 324.24 300.11C330 301.87 335.75 303.42 341.82 304.41L345.37 307.56C345.69 307.85 346.02 308.13 346.33 308.42L347.24 309.34L349.05 311.17C351.46 313.63 353.59 316.3 355.51 319.11C357.27 321.98 358.8 325.05 359.3 328.3L359.48 329.51V330.72V331.33L359.39 331.93C359.32 332.32 359.3 332.73 359.19 333.12L358.86 334.27L358.38 335.36C358.18 335.69 358 336.04 357.78 336.35L357.27 335.53L356.81 337.57C356.75 337.69 356.72 337.83 356.72 337.96C355.9 341.5 346.12 382.74 335.4 388.1L335.15 388.22L335.01 388.46C334.88 388.68 321.91 410.85 310.66 415.77L310.34 415.91L310.19 416.23C309.43 417.88 308.61 419.63 307.77 421.44C287.22 409.85 267.37 397.01 248.67 382.65C248.99 376.37 249.96 368.28 252.73 364.72L252.96 364.42L252.92 364.05C252.89 363.79 250.16 338.18 259.19 329.85L259.49 329.57L258.03 246.47C260.01 242.29 283.76 190.25 267.47 168.52ZM240.02 375.84C227.86 365.95 216.23 355.39 205.48 344C200.09 338.32 194.95 332.41 190.04 326.31C185.15 320.21 180.58 313.84 176.1 307.4C171.62 300.96 167.27 294.43 163.2 287.75C159.15 281.07 155.28 274.23 152.33 267.08C150.89 263.52 149.61 259.82 149.28 256.16C149.11 254.35 149.24 252.53 149.92 251.09C150.59 249.66 151.89 248.73 153.54 248.29C155.18 247.85 157.05 247.84 158.9 248.02C160.76 248.2 162.63 248.58 164.49 249.05C168.21 250 171.87 251.32 175.47 252.78C182.68 255.73 189.68 259.24 196.57 262.95C203.46 266.67 210.24 270.62 216.94 274.69C230.33 282.86 243.47 291.49 256.3 300.5L256.32 300.51C256.58 300.69 256.88 300.77 257.17 300.77L257.66 328.79C248.81 337.51 250.75 360.58 251.08 363.89C248.37 367.69 247.32 375.12 246.92 381.27C244.6 379.49 242.3 377.68 240.02 375.84ZM289.99 456.78C286.81 459.96 266.35 492.38 263.54 500.11C262.62 502.64 262.89 506.3 263.2 510.53C263.67 516.91 264.2 524.14 260.5 528.43C258.51 530.74 255.47 532 251.23 532.31C245.93 532.68 241.69 531.01 238.63 527.33C231.51 518.77 231.89 501.18 235.43 487.54C237.39 479.98 238.08 465.9 238.8 450.99C239.98 426.72 241.32 399.2 248.32 391.76L248.58 391.48L248.57 391.1C248.57 391.03 248.5 388.85 248.57 385.72C267.03 399.74 286.57 412.29 306.77 423.63C300.02 438.02 291.73 455.04 289.99 456.78ZM309.4 422.35C310.49 420.02 311.32 418.23 311.74 417.32C322.95 412.14 335 392.15 336.48 389.63C346.92 383.94 355.86 349.44 358.07 340.29L360.35 343.94C359.54 349.74 370.22 369.75 372.04 373.1C371.02 385.32 386.06 403.83 390.67 409.2C383.12 409.44 375.55 410.37 368.14 412.21C360.09 414.17 352.27 417.33 345.09 421.69C339.73 424.97 334.77 428.95 330.38 433.52C326.44 431.52 322.51 429.48 318.61 427.39C315.52 425.75 312.45 424.06 309.4 422.35ZM404.68 465.42C381.08 457.04 357.99 447.25 335.56 436.12C339.12 432.16 343.15 428.59 347.57 425.53C354.08 421.07 361.34 417.63 368.99 415.31C376.14 413.1 383.6 411.76 391.13 411.12C387.63 420.99 397.45 447.4 405.2 465.6C405.03 465.54 404.86 465.48 404.68 465.42ZM449.08 500.61C452.82 508.63 459.08 522.06 455.11 528.5C453.64 530.89 450.76 532.16 446.54 532.29C446.38 532.3 446.23 532.3 446.07 532.3C424.16 532.3 415.37 484 415.28 483.51L415.2 483.27C415.11 483.09 412.36 477.39 408.79 469.23C421.68 473.65 434.72 477.65 447.91 481.1C446.96 485.37 445.95 490.96 446.38 494C446.56 495.2 447.62 497.47 449.08 500.61ZM550.01 479.86C549.71 480.69 549.23 481.45 548.72 482.17C548.15 482.86 547.54 483.53 546.81 484.09C545.39 485.25 543.72 486.14 541.97 486.85C538.45 488.28 534.62 489.02 530.79 489.51C526.94 489.98 523.05 490.16 519.15 490.16C511.35 490.17 503.53 489.5 495.77 488.52C480.41 486.55 465.21 483.32 450.21 479.43C450.71 477.36 451.1 475.93 451.12 475.88L451.2 475.56L451.07 475.26C451.04 475.18 447.73 467.05 455.48 442.39C458.78 431.88 458.88 419.34 457.85 408.22C461.07 408.29 464.35 408.61 467.57 409.06C471.43 409.61 475.25 410.39 479.02 411.37C482.79 412.36 486.5 413.56 490.15 414.93C493.79 416.33 497.34 417.93 500.82 419.69C507.73 423.29 514.27 427.61 520.24 432.61C526.19 437.64 531.59 443.32 536.35 449.49C541.11 455.65 545.27 462.34 548.8 469.23C549.6 470.95 550.23 472.73 550.51 474.55C550.75 476.37 550.66 478.21 550.01 479.86Z" fill="url(#paint0_linear)"/>
<defs>
<linearGradient id="paint0_linear" x1="531.687" y1="461.827" x2="197.24" y2="155.796" gradientUnits="userSpaceOnUse">
<stop stop-color="white"/>
<stop offset="1"/>
</linearGradient>
</defs>
</svg>
