<svg width="352" height="812" viewBox="0 0 352 812" fill="none" xmlns="http://www.w3.org/2000/svg">
<g opacity="0.2">
<path d="M164.315 74.4979C164.464 74.56 164.613 74.5973 164.762 74.5973C165.209 74.5973 165.632 74.3363 165.818 73.9013C166.067 73.3171 165.794 72.6458 165.222 72.3972C160.673 70.4457 158 68.2705 157.702 66.2569C157.466 64.6907 158.721 63.5844 158.796 63.5223C159.28 63.1245 159.342 62.4036 158.945 61.9188C158.547 61.4341 157.826 61.3595 157.329 61.7697C157.229 61.8443 155.017 63.7087 155.427 66.5676C155.837 69.4762 158.833 72.1486 164.315 74.4979Z" fill="url(#paint0_linear)"/>
<path d="M117.777 429.421C114.396 428.191 116.385 421.093 116.41 421.019C116.584 420.409 116.236 419.776 115.639 419.601C115.042 419.427 114.396 419.763 114.222 420.372C114.11 420.745 111.549 429.595 117.006 431.571C117.13 431.621 117.267 431.634 117.392 431.634C117.864 431.634 118.299 431.348 118.473 430.875C118.684 430.291 118.374 429.632 117.777 429.421Z" fill="url(#paint1_linear)"/>
<path d="M126.266 427.134C122.885 425.904 124.874 418.806 124.899 418.732C125.073 418.123 124.738 417.489 124.128 417.315C123.519 417.128 122.886 417.476 122.712 418.085C122.6 418.458 120.039 427.308 125.496 429.285C125.62 429.334 125.757 429.347 125.881 429.347C126.354 429.347 126.788 429.061 126.963 428.589C127.174 428.004 126.863 427.346 126.266 427.134Z" fill="url(#paint2_linear)"/>
<path d="M292.02 236.161C291.647 236.049 282.722 233.451 276.457 234.359C276.109 232.407 280.609 222.836 288.825 210.083C289.173 209.549 289.011 208.84 288.477 208.504C287.942 208.156 287.234 208.318 286.898 208.852C282.436 215.776 272.318 232.246 274.568 235.751C274.829 236.161 275.475 236.82 276.78 236.633C282.548 235.801 291.286 238.336 291.373 238.361C291.485 238.398 291.585 238.411 291.696 238.411C292.194 238.411 292.653 238.088 292.79 237.59C292.977 236.981 292.629 236.335 292.02 236.161Z" fill="url(#paint3_linear)"/>
<path d="M288.067 272.096C267.968 270.356 268.887 256.049 268.937 255.415C268.987 254.781 268.527 254.235 267.893 254.172C267.272 254.123 266.712 254.583 266.65 255.216C266.638 255.391 266.302 259.629 268.788 264.129C271.063 268.243 276.221 273.364 287.868 274.371C287.905 274.371 287.93 274.371 287.967 274.371C288.552 274.371 289.061 273.924 289.111 273.327C289.161 272.705 288.701 272.158 288.067 272.096Z" fill="url(#paint4_linear)"/>
<path d="M332.665 220.959C332.193 221.369 332.131 222.103 332.553 222.575C332.963 223.047 333.684 223.097 334.169 222.687C334.467 222.426 341.627 216.348 347.531 222.239C348.414 223.122 348.787 224.116 348.65 225.297C348.116 230.195 339.415 236.733 336.096 238.833C335.561 239.169 335.4 239.877 335.748 240.412C335.971 240.76 336.332 240.946 336.717 240.946C336.929 240.946 337.14 240.884 337.326 240.772C337.848 240.437 350.166 232.544 350.925 225.558C351.136 223.669 350.527 222.016 349.147 220.636C343.231 214.719 335.785 218.249 332.665 220.959Z" fill="url(#paint5_linear)"/>
<path d="M140.449 24.057C141.145 24.6288 141.816 25.0639 142.487 25.4741C143.83 26.2696 145.185 26.9159 146.54 27.525C149.249 28.7307 151.972 29.7624 154.743 30.7195C155.278 30.9059 155.887 30.6698 156.148 30.1477C156.434 29.5759 156.198 28.8923 155.626 28.6064L155.601 28.594C153.065 27.3261 150.53 25.9588 148.131 24.4921C146.937 23.7587 145.769 22.9756 144.725 22.1677C144.215 21.7575 143.718 21.3349 143.357 20.9371C143.208 20.788 143.109 20.6388 143.034 20.5269C142.935 19.3585 141.965 18.4387 140.772 18.4387C139.517 18.4387 138.497 19.458 138.497 20.7134C138.572 21.9191 139.044 22.4909 139.38 22.9881C139.74 23.4355 140.101 23.7836 140.449 24.057ZM143.009 20.4897C142.997 20.4648 142.972 20.4399 142.96 20.4151C142.923 20.3405 142.972 20.2783 143.009 20.4897Z" fill="url(#paint6_linear)"/>
<path d="M181.977 31.9997C183.556 31.6517 185.072 31.2539 186.614 30.8064C188.143 30.3465 189.659 29.8369 191.163 29.2278C192.667 28.6063 194.159 27.9103 195.613 26.9656C196.334 26.4808 197.055 25.9339 197.738 25.213C198.397 24.492 199.069 23.5722 199.354 22.3168L199.417 22.0433C199.442 21.9066 199.466 21.7699 199.466 21.6332C199.479 20.5269 198.596 19.6319 197.49 19.6195C196.384 19.6071 195.489 20.4896 195.476 21.5959C195.476 22.1801 194.631 23.2863 193.55 24.1067C192.468 24.9644 191.188 25.7226 189.858 26.4062C187.198 27.7611 184.302 28.8922 181.418 29.7996L181.381 29.812C180.821 29.9861 180.486 30.5578 180.61 31.142C180.747 31.7511 181.356 32.1364 181.977 31.9997Z" fill="url(#paint7_linear)"/>
<path d="M171.549 18.6004C172.158 18.7869 172.804 18.4512 172.99 17.8546L177.105 4.86535C177.155 4.70376 177.192 4.51732 177.217 4.3433C177.353 2.92629 176.322 1.67086 174.905 1.53413C173.488 1.39741 172.232 2.42909 172.096 3.8461L170.753 17.4071C170.703 17.9168 171.027 18.4388 171.549 18.6004Z" fill="url(#paint8_linear)"/>
<path d="M444.447 595.821C443.502 594.292 441.501 593.807 439.973 594.739H439.96C435.523 597.449 431.048 599.985 426.374 601.762C421.713 603.565 416.828 604.571 411.819 604.733C406.809 604.907 401.701 604.285 396.629 603.303C392.614 602.545 388.612 601.476 384.635 600.32C385.032 597.548 385.244 594.627 385.194 591.557C385.07 582.67 382.472 576.865 377.45 574.317C367.469 569.246 351.161 578.891 346.002 582.26C343.964 564.187 343.032 546.101 344.71 532.155L344.859 532.055L344.772 531.359C341.59 506.474 355.263 420.037 356.469 412.455C373.659 402.013 369.967 386.402 369.11 383.53C370.862 379.428 385.206 344.96 385.206 314.221C385.206 286.39 357.152 271.487 347.929 267.348C347.83 267.286 347.718 267.236 347.606 267.199C346.624 266.764 345.878 266.465 345.455 266.291C343.355 262.314 340.546 255.515 341.466 253.029C341.627 252.581 341.876 252.444 342.062 252.37L342.323 252.233C350.937 246.006 353.013 239.666 355.648 231.637L355.847 231.04C355.847 231.04 355.847 231.04 355.847 231.028C357.413 226.13 358.072 226.192 358.917 226.267C360.222 226.379 361.652 226.304 363.404 224.067C365.679 221.158 365.194 217.777 364.809 215.068C364.523 213.017 364.274 211.239 365.182 210.22C367.096 208.094 365.766 205.198 364.237 201.855C362.882 198.909 361.353 195.553 361.353 191.811C361.353 186.529 357.711 184.987 354.181 183.496C351.422 182.327 348.289 180.997 346.002 177.778C343.119 173.738 340.981 173.925 338.47 174.571C336.481 175.093 334.43 175.628 330.378 171.588C324.809 166.057 323.156 165.969 319.228 166.504C317.277 166.765 314.604 167.125 309.98 166.504C302.075 165.435 294.99 168.12 288.726 170.482C284.561 172.048 280.981 173.403 277.886 173.403C272.405 173.403 271.572 176.759 270.776 180.003C270.18 182.414 269.509 185.136 266.998 187.535C265.543 188.928 264.91 190.593 265.158 192.371C265.829 197.069 272.504 201.308 275.139 202.799C272.927 207.386 270.777 212.644 268.838 217.815C266.861 219.319 256.122 227.97 257.986 237.466C257.998 237.528 258.011 237.603 258.023 237.665C249.049 229.039 234.979 212.532 233.027 210.22C230.889 190.258 221.281 157.032 211.461 151.824C204.488 148.12 194.357 128.991 186.216 113.627C184.389 110.184 182.624 106.853 180.97 103.82C177.067 96.6852 175.912 92.7076 175.775 87.9967C175.775 87.9842 175.775 87.9718 175.775 87.9718C175.713 85.6474 175.899 83.1366 176.135 79.9794C176.533 74.6097 177.092 67.2636 176.695 55.8654C175.601 25.0765 175.613 24.5047 170.094 24.5295H169.659C169.137 24.5295 168.366 24.6911 167.608 25.4494C164.339 28.7433 163.941 42.3789 163.904 47.152C156.048 45.4367 153.152 48.6933 152.233 50.3216C147.223 50.4086 143.942 54.3986 142.86 55.9151C137.851 56.0021 135.676 60.6509 135.228 63.2114L134.992 64.5539H136.347C137.366 64.5539 140.263 64.9019 141.356 66.3935C141.903 67.1393 141.965 68.1212 141.568 69.3891C139.517 75.9769 144.887 94.2365 145.123 95.0196L145.16 95.0942C145.172 95.1314 145.185 95.1563 145.21 95.1936L145.259 95.3055C145.321 95.4049 151.748 105.597 151.797 117.754C151.797 117.766 151.797 117.766 151.797 117.779C151.014 143.036 160.076 166.765 160.175 167.001L160.25 167.15C172.742 189.35 191.312 224.303 191.312 229.548C191.312 250.928 212.841 282.525 216.445 287.658C193.09 320.921 194.507 365.445 194.83 371.598C180.175 381.467 169.299 388.328 169.038 388.49L168.727 388.689L168.59 389.024C168.553 389.124 164.277 398.757 139.542 400.224C113.874 401.752 87.5225 402.411 87.2614 402.411L86.9631 402.424L86.7022 402.585C85.8942 403.07 81.8793 405.655 82.3392 408.477C82.7246 410.901 85.9813 411.634 87.0502 411.87C93.7251 413.387 100.499 412.654 103.557 412.169C102.575 417.762 100.934 429.707 104.353 431.97C105.049 432.43 105.77 433.063 106.602 433.809C109.697 436.556 113.924 440.323 122.997 440.323L123.146 440.31C126.279 439.912 133.302 438.719 134.669 435.81C135.949 435.326 138.584 434.132 139.653 432.342C142.699 432.865 151.698 433.039 161.381 420.037L190.144 418.732C186.912 421.28 183.382 425.593 180.175 431.05C174.88 440.061 171.623 450.204 171.226 458.88C170.691 470.502 171.487 478.942 172.419 488.712C172.966 494.529 173.587 501.117 173.972 509.11C172.27 513.311 149.324 570.861 149.97 609.68C148.479 612.452 137.329 633.757 138.1 648.859C138.137 649.543 138.224 650.202 138.373 650.86L142.55 681.463C143.159 685.9 136.732 696.068 133.811 700.182H133.513L133.24 700.928C133.19 701.052 128.392 714.216 124.924 740.095C124.017 746.844 125.545 752.512 129.448 756.95C138.336 767.055 156.384 767.254 157.764 767.254C157.789 767.254 157.814 767.254 157.826 767.254H158.112L158.36 767.117C158.87 766.844 170.703 760.169 170.753 740.256C170.803 721.512 175.824 705.651 176.036 705.005C176.322 704.321 179.889 695.496 180.523 688.374L202.474 659.412C218.459 651.494 223.829 652.501 225.594 653.819C227.036 654.9 226.75 656.727 226.737 656.789L228.95 657.336L242.175 615.087C245.705 625.118 255.836 652.526 262.1 656.466C265.469 658.592 270.528 670.91 274.978 681.786C280.385 694.999 283.853 703.153 286.836 704.359C289.683 705.502 302.162 707.839 316.941 707.976C318.209 709.356 323.02 714.551 328.066 719.585C336.419 727.901 339.875 730.287 341.553 730.834L341.801 737.149C341.354 744.122 340.397 752.239 339.601 753.73C335.35 755.023 319.39 768.435 313.063 775.744C309.098 780.33 307.706 783.425 308.688 785.464C310.453 789.131 316.084 796.228 325.928 799.497C329.533 800.69 333.336 801.3 337.339 801.3C345.592 801.3 354.666 798.751 364.461 793.68C399.426 775.545 403.888 763.861 404.062 763.376L404.212 762.978L404.05 762.58C402.906 759.697 392.838 734.29 390.452 731.481C390.452 731.481 390.439 731.481 390.439 731.468C386.412 726.882 376.12 713.532 376.866 706.957C376.903 706.633 376.791 706.323 376.592 706.086C375.996 700.853 374.355 694.726 370.924 688.088C372.192 685.627 372.826 683.041 372.839 680.332C372.901 668.66 361.279 658.803 359.116 657.063C358.755 655.559 357.413 649.766 355.673 641.289C359.812 639.027 378.507 627.629 383.789 604.783C387.655 606.038 391.571 607.206 395.598 608.114C400.881 609.32 406.325 610.19 411.906 610.19C417.487 610.215 423.155 609.233 428.425 607.393C433.72 605.566 438.593 603.005 443.279 600.358C443.304 600.345 443.341 600.32 443.378 600.308C444.895 599.363 445.379 597.362 444.447 595.821ZM376.418 576.355C380.62 578.493 382.807 583.615 382.907 591.594C382.944 594.429 382.758 597.113 382.41 599.674C382.099 599.587 381.801 599.5 381.49 599.401C378.967 598.605 376.555 597.809 373.833 597.039C373.174 596.828 372.49 596.703 371.807 596.554C371.123 596.417 370.452 596.243 369.756 596.144C368.364 595.97 366.984 595.734 365.579 595.721C359.974 595.361 354.156 596.827 349.396 599.823C349.048 600.034 348.724 600.271 348.401 600.494C347.643 595.361 346.935 590.103 346.313 584.82C349.644 582.558 366.897 571.533 376.418 576.355ZM354.828 410.764L354.368 411.038L354.281 411.572C353.672 415.351 339.415 503.727 342.398 530.887C340.185 532.03 331.223 535.809 309.073 536.803C306.525 507.63 314.393 493.398 325.555 473.187C328.849 467.221 332.578 460.471 336.319 452.765C351.534 421.379 344.014 405.071 341.354 400.82C339.079 397.203 336.058 395.04 333.274 395.04C330.975 395.04 325.58 390.926 317.923 379.354C315.674 375.96 313.535 372.331 311.559 368.652C315.077 366.837 318.57 365.035 321.963 363.282C323.666 365.196 328.886 370.777 336.071 375.911C344.946 382.262 353.535 385.507 361.304 385.507C363.305 385.507 365.231 385.283 367.108 384.848C368.09 388.502 370.328 401.628 354.828 410.764ZM382.907 314.221C382.907 344.227 368.998 377.937 367.059 382.486C348.426 387.197 328.601 367.11 324.076 362.176C342.808 352.542 358.308 344.662 358.619 344.513C359.178 344.227 359.402 343.531 359.116 342.971C358.83 342.412 358.134 342.188 357.575 342.474C357.202 342.661 334.306 354.307 310.465 366.613C307.01 359.938 304.126 353.127 302.249 347.036C301.006 343.009 300.608 339.814 301.019 337.589C301.938 340.125 303.467 341.84 305.593 342.735C309.359 344.301 312.106 344.326 313.747 342.797C316.481 340.249 314.716 334.656 314.505 334.034L314.343 333.574L313.896 333.363C313.573 333.214 306.811 330.106 302.324 332.207C301.727 320.871 308.775 302.624 312.852 298.783C315.313 296.459 319.377 287.609 323.256 277.64C337.786 270.244 345.617 269.536 347.009 269.473C355.934 273.451 382.907 287.745 382.907 314.221ZM302.635 334.681C305.17 332.754 310.217 334.258 312.504 335.215C312.926 336.756 313.486 339.926 312.205 341.107C311.311 341.952 309.272 341.766 306.488 340.61C304.499 339.777 303.206 337.788 302.635 334.706C302.635 334.693 302.635 334.693 302.635 334.681ZM321.515 275.85C312.926 280.287 302.137 287 289.048 297.142C286.252 296.384 283.095 295.874 279.589 295.613C283.542 293.078 288.029 289.883 293.237 285.844C302.684 278.51 313.66 274.246 323.044 271.773C322.535 273.14 322.025 274.507 321.515 275.85ZM325.742 271.089C330.577 269.946 334.865 269.274 338.134 268.889C334.629 269.933 330.117 271.624 324.548 274.321C324.958 273.252 325.356 272.171 325.742 271.089ZM320.173 279.256C316.668 288.056 313.287 295.241 311.311 297.105C309.247 299.044 306.513 304.128 304.25 310.256C303.766 308.478 302.908 306.49 301.379 304.563C299.129 301.704 295.897 299.516 291.721 298C302.933 289.448 312.404 283.457 320.173 279.256ZM341.08 250.294C340.26 250.654 339.638 251.326 339.315 252.233C338.022 255.751 341.192 262.886 342.808 266.155C339.974 266.341 334.032 266.9 326.674 268.529C326.897 267.882 327.134 267.236 327.357 266.602C331.012 256.099 336.779 238.051 334.318 235.092C333.983 234.694 333.983 234.409 334.02 234.197C334.182 233.265 335.45 232.184 336.867 231.202C337.14 231.711 337.451 232.233 337.786 232.793L338.196 233.476L338.98 233.327C342.41 232.656 343.293 231.164 343.442 230.021C343.554 229.151 343.23 228.268 342.572 227.411C342.833 227.038 342.883 226.665 342.696 226.192C342.534 225.782 342.199 225.484 341.764 225.372C341.565 225.322 341.217 225.223 340.421 225.509C339.874 225.148 339.265 224.8 338.582 224.477C337.19 223.818 336.145 223.843 335.474 224.577C334.803 225.31 334.865 226.677 335.636 228.629C335.524 228.852 335.474 229.101 335.512 229.337C333.672 230.605 332.056 232.097 331.758 233.787C331.584 234.757 331.857 235.714 332.529 236.522C333.821 238.747 329.334 254.296 323.989 269.15C314.045 271.624 302.075 276.049 291.833 284.004C285.419 288.976 280.173 292.643 275.699 295.34C269.509 294.644 260.199 291.176 255.376 285.247C252.517 281.729 251.535 277.764 252.442 273.451C253.661 267.634 255.326 262.45 256.793 257.889C258.073 253.886 259.266 250.17 259.963 246.627C260.808 245.521 261.492 244.651 261.951 244.067L262.386 244.39L262.846 242.811C262.946 242.488 270.18 218.026 277.6 202.899C277.613 202.886 277.625 202.874 277.638 202.861C277.65 202.837 277.65 202.824 277.65 202.799C280.024 197.977 282.411 194.111 284.586 192.296C293.014 185.286 303.48 178.089 321.18 181.296C330.726 183.023 344.374 189.238 351.409 201.072C356.468 209.574 357.227 219.418 353.647 230.319L353.448 230.916C350.875 238.821 348.998 244.539 341.08 250.294ZM337.314 226.429C337.388 226.466 337.488 226.503 337.587 226.553C337.749 226.627 337.873 226.702 338.022 226.777C337.861 226.876 337.687 227 337.513 227.112C337.426 226.864 337.351 226.627 337.314 226.429ZM341.155 229.747C341.117 230.083 340.595 230.555 339.303 230.903C339.129 230.593 338.954 230.282 338.793 229.971C339.166 229.747 339.526 229.536 339.837 229.35C340.173 229.151 340.471 228.977 340.745 228.815C341.068 229.213 341.18 229.536 341.155 229.747ZM253.599 286.714C258.26 292.456 266.277 295.862 272.554 297.167C263.219 302.251 257.315 302.823 250.367 302.823C245.072 301.12 241.852 298.137 240.547 293.724C237.017 281.742 248.664 262.5 256.37 251.549C255.848 253.339 255.239 255.216 254.605 257.193C253.126 261.817 251.436 267.062 250.193 272.991C249.149 278.025 250.292 282.637 253.599 286.714ZM267.408 192.06C267.259 191.028 267.644 190.096 268.564 189.213C271.56 186.355 272.343 183.148 272.977 180.575C273.772 177.343 274.17 175.727 277.861 175.727C281.367 175.727 285.32 174.235 289.508 172.657C295.512 170.395 302.324 167.822 309.645 168.816C314.58 169.475 317.426 169.089 319.502 168.816C322.709 168.381 323.691 168.244 328.737 173.266C333.722 178.213 336.792 177.417 339.029 176.833C340.894 176.348 341.913 176.075 344.113 179.158C346.785 182.899 350.378 184.428 353.262 185.646C357.053 187.249 359.041 188.256 359.041 191.861C359.041 196.1 360.757 199.841 362.124 202.849C363.504 205.87 364.312 207.771 363.442 208.728C361.826 210.543 362.174 213.017 362.509 215.416C362.87 217.939 363.23 220.549 361.565 222.687C360.433 224.129 359.862 224.079 359.079 224.017C358.519 223.967 358.022 223.98 357.55 224.117C359.066 215.279 357.674 207.162 353.373 199.928C345.94 187.436 331.596 180.885 321.578 179.071C302.908 175.69 291.932 183.222 283.107 190.568C280.87 192.433 278.483 196.162 276.121 200.786C273.176 199.045 267.88 195.341 267.408 192.06ZM260.211 237.044C259.08 231.301 263.779 225.583 267.184 222.289C264.326 230.269 262.1 237.404 261.143 240.549C260.957 240.387 260.758 240.213 260.559 240.039C260.509 239.02 260.41 238.026 260.211 237.044ZM143.171 65.0138C141.841 63.2114 139.367 62.5775 137.789 62.3538C138.386 60.6882 139.877 57.9536 143.357 58.1897L144.054 58.227L144.414 57.6304C144.451 57.5807 147.658 52.2607 152.842 52.5963L153.749 52.6584L154.01 51.7883C154.022 51.7386 155.527 47.1644 164.7 49.7001L166.166 50.0979L166.154 48.5814C166.092 41.4964 166.875 29.3896 169.199 27.0404C169.435 26.8042 169.572 26.8042 169.622 26.8042H170.082C172.083 26.7918 172.381 26.7918 172.903 29.6134C173.587 33.3672 173.873 41.3845 174.382 55.9275C174.78 67.2014 174.233 74.4854 173.836 79.7929C173.624 82.6021 173.45 84.9638 173.463 87.1763C160.113 92.4466 149.983 93.3291 147.062 93.4783C145.446 87.8227 142.289 74.7091 143.743 70.0354C144.352 68.0591 144.166 66.3686 143.171 65.0138ZM148.131 95.7405C151.996 95.4671 161.344 94.3484 173.55 89.625C173.91 93.9755 175.265 98.2265 178.932 104.939C179.815 106.555 180.722 108.245 181.654 109.998C172.046 115.715 158.012 116.511 154.022 116.623C153.699 107.101 149.958 99.0842 148.131 95.7405ZM193.562 229.524C193.562 222.028 165.657 172.135 162.251 166.081C161.704 164.64 153.575 142.614 154.035 118.897C158.174 118.81 172.518 118.04 182.736 112.011C183.208 112.894 183.68 113.801 184.165 114.709C192.878 131.178 202.76 149.835 210.355 153.863C218.484 158.176 228.527 189.313 230.752 210.829L230.79 211.177L231.013 211.451C231.784 212.37 247.918 231.438 257.464 240.35C252.368 245.956 224.513 276.67 217.8 285.657C213.313 279.082 193.562 249.2 193.562 229.524ZM218.733 288.305L219.205 287.633L219.192 287.621C224.413 280.275 251.088 250.779 258.185 242.948C258.111 243.83 257.974 244.725 257.812 245.633C250.677 255.055 233.897 279.33 238.347 294.37C239.876 299.541 243.742 303.134 249.832 305.06L250.18 305.11C257.961 305.11 264.711 304.426 276.159 297.702C276.743 297.751 277.302 297.789 277.8 297.789C281.093 297.95 284.077 298.323 286.737 298.92C278.496 305.421 269.397 313.227 259.378 322.661C243.418 337.689 217.117 356.433 196.993 370.069C196.682 360.485 196.632 319.205 218.733 288.305ZM168.23 393.176C168.043 398.968 168.441 409.969 173.363 417.178L164.128 417.601C164.103 417.601 164.066 417.601 164.041 417.601C160.934 417.601 158.435 407.01 157.615 399.267C163.059 397.377 166.328 395.053 168.23 393.176ZM159.777 418.222C149.05 432.939 139.629 430.031 139.243 429.906L137.938 429.459L137.727 430.814C137.565 431.845 135.054 433.225 133.289 433.822L132.606 434.058L132.519 434.779C132.394 435.823 127.708 437.389 122.836 438.011C114.682 437.986 110.99 434.717 108.032 432.069C107.174 431.298 106.354 430.577 105.521 430.031C103.83 428.912 104.415 419.266 106.018 410.938L106.341 409.235L104.651 409.596C104.564 409.621 95.7758 411.473 87.4726 409.596C85.4093 409.123 84.5891 408.502 84.5269 408.067C84.4026 407.271 85.9812 405.68 87.5722 404.661C90.6299 404.587 115.427 403.903 139.629 402.473C146.117 402.088 151.276 401.156 155.377 399.963C155.837 404.102 157.217 413.524 160.461 417.75L160.113 417.762L159.777 418.222ZM176.123 417.054C169.498 408.999 170.442 393.213 170.703 390.093C172.941 388.676 183.133 382.2 196.359 373.276C196.545 373.213 196.707 373.102 196.831 372.952C217.204 359.192 244.512 339.814 260.969 324.327C271.485 314.432 281.006 306.316 289.558 299.666C293.983 301.045 297.327 303.134 299.552 305.943C302.908 310.169 302.56 314.768 302.435 315.762C300.633 322.002 299.552 328.64 300.186 333.885C298.098 336.52 298.048 341.169 300.061 347.707C301.963 353.91 304.971 360.908 308.464 367.645C293.672 375.289 278.769 383.07 268.85 388.428C243.257 402.262 197.614 415.438 194.942 416.208L176.123 417.054ZM173.438 458.967C174.283 440.671 188.105 419.763 195.352 418.471V418.458C195.389 418.446 195.427 418.458 195.464 418.446C195.936 418.309 243.505 404.748 269.956 390.441C279.863 385.084 294.766 377.315 309.546 369.671C317.451 384.375 327.482 397.327 333.262 397.327C335.226 397.327 337.587 399.13 339.402 402.038C349.309 417.849 337.96 444.101 334.244 451.77C330.54 459.427 326.984 465.854 323.541 472.081C312.578 491.931 304.263 506.972 306.786 536.89C303.318 537.015 299.552 537.065 295.45 537.027C283.095 536.928 268.44 536.89 254.294 536.89C226.601 536.89 200.858 537.027 198.285 537.04C196.247 536.269 177.105 528.475 176.198 509.209C175.812 501.055 175.178 494.368 174.619 488.464C173.699 478.781 172.904 470.415 173.438 458.967ZM178.82 686.808C175.501 686.994 156.546 687.74 144.663 680.593L141.431 656.914C142.861 658.567 144.725 660.083 147.012 661.426C157.963 667.827 178.509 669.605 198.074 661.401L178.82 686.808ZM144.7 683.253C154.209 688.411 166.912 689.244 174.06 689.244C175.8 689.244 177.192 689.194 178.149 689.144C177.44 694.763 175.004 701.338 174.184 703.464H165.831L167.099 695.981H140.151V700.17H136.509C138.982 696.54 143.979 688.647 144.7 683.253ZM168.466 740.231C168.441 749.902 165.396 756.154 162.848 759.684C160.548 762.866 158.236 764.482 157.503 764.955C155.079 764.905 138.933 764.258 131.164 755.433C127.721 751.518 126.378 746.459 127.199 740.393C130.169 718.243 134.097 705.552 135.141 702.457H142.463V698.268H164.414L163.146 705.751H173.438C172.121 710.226 168.503 724.209 168.466 740.231ZM376.655 715.272C379.762 721.959 385.43 729.057 387.73 731.816C386.897 733.072 386.213 735.769 385.02 740.94C384.088 745.005 382.161 753.357 380.645 754.165C380.471 753.867 380.234 753.183 380.048 752.612C378.395 747.714 374.541 736.316 344.076 736.043L343.864 730.586C345.381 730.213 348.464 729.678 351.708 729.119C366.325 726.608 373.51 725.005 374.765 722.643C375.412 721.413 376.245 718.84 376.655 715.272ZM340.123 753.643C340.21 753.643 340.297 753.656 340.384 753.681C340.235 753.631 340.036 753.643 339.787 753.705C339.874 753.668 339.999 753.643 340.123 753.643ZM363.417 791.679C349.445 798.925 337.09 800.84 326.674 797.372C317.55 794.339 312.392 787.863 310.776 784.507C310.689 784.333 310.552 783.773 311.174 782.443C315.027 774.153 337.214 756.925 340.023 755.93C340.347 755.955 340.67 755.868 340.956 755.669C342.286 754.762 343.317 748.932 344.051 738.33C372.913 738.566 376.269 748.535 377.885 753.345C378.457 755.048 379.103 756.975 381.154 756.415C383.802 755.707 385.219 750.287 387.257 741.45C387.866 738.814 388.649 735.396 389.271 733.805C391.546 737.795 397.723 752.761 401.763 762.978C400.719 765.029 394.193 775.706 363.417 791.679ZM372.727 721.587C371.608 723.401 357.898 725.751 351.31 726.882C346.4 727.727 343.504 728.237 342.348 728.659C340.098 728.423 329.62 718.305 320.061 707.963C335.114 707.777 351.944 705.167 363.218 696.739C365.865 694.75 367.966 692.637 369.532 690.4C377.338 706.459 374.081 719.026 372.727 721.587ZM357.078 658.393L357.401 658.641C357.537 658.741 370.614 668.859 370.551 680.332C370.527 685.701 367.593 690.599 361.838 694.899C339.427 711.667 292.74 704.259 287.706 702.221C285.469 701.313 280.832 690.002 277.116 680.904C272.082 668.623 267.333 657.026 263.331 654.502C257.762 651.009 246.924 621.936 243.207 611.035L242.076 607.716L227.943 652.886C227.682 652.563 227.371 652.252 226.998 651.967C223.095 649.021 214.432 650.86 201.219 657.436C181.182 667.405 159.367 665.988 148.168 659.437C145.11 657.647 141.493 654.689 140.536 650.376L140.3 648.66C139.554 633.483 151.922 610.699 152.046 610.463L152.195 610.19V609.891C151.536 576.331 168.976 528.165 174.482 513.845C178.136 532.229 197.515 539.178 197.726 539.24L197.913 539.302H198.111C198.708 539.302 257.837 538.979 295.462 539.289C299.651 539.327 303.492 539.265 307.035 539.14C307.37 542.459 307.83 545.952 308.427 549.656C307.358 549.519 306.127 549.42 304.685 549.333C298.781 549.01 295.524 549.631 294.418 551.297C294.008 551.906 293.983 552.552 294.107 553.025V555.61C291.597 555.51 289.235 555.349 287.209 555.075C286.575 554.988 286.003 555.436 285.916 556.057C285.829 556.679 286.277 557.263 286.898 557.35C290.627 557.847 295.375 558.009 300.061 558.009C304.971 558.009 309.794 557.822 313.262 557.648C313.312 557.648 313.349 557.673 313.399 557.673C313.411 557.673 313.436 557.673 313.448 557.673C313.511 557.673 313.56 557.648 313.622 557.636C316.32 557.499 318.122 557.375 318.358 557.35C318.992 557.3 319.465 556.753 319.415 556.132C319.365 555.498 318.818 555.026 318.197 555.075C318.147 555.075 316.767 555.175 314.567 555.299C314.567 555.237 314.579 555.162 314.579 555.1C314.654 553.969 314.741 552.701 313.797 551.632C313.2 550.949 312.255 550.451 310.801 550.091C310.154 546.188 309.657 542.521 309.297 539.066C329.06 538.183 338.52 535.125 342.248 533.485C340.757 547.816 341.826 566.113 343.939 584.236C343.939 584.348 343.939 584.472 343.976 584.584C344.66 590.463 345.468 596.33 346.313 602.036C342.982 604.783 340.272 608.201 338.134 611.818C335.375 616.541 333.361 621.563 332.118 626.908C331.981 627.505 332.342 628.114 332.938 628.275C333.548 628.437 334.182 628.076 334.343 627.467L334.356 627.405C335.673 622.483 337.799 617.623 340.533 613.297C342.323 610.5 344.436 607.903 346.885 605.752C348.973 619.152 351.322 631.445 353.224 640.742C353.224 640.767 353.237 640.78 353.237 640.805C355.362 651.146 356.928 657.759 356.99 657.995L357.078 658.393ZM312.28 554.976C312.268 555.125 312.268 555.287 312.255 555.436C307.979 555.635 301.988 555.821 296.382 555.709V552.602L296.345 552.54C296.569 552.304 297.961 551.284 304.536 551.645C308.85 551.881 311.385 552.391 312.069 553.174C312.367 553.509 312.342 554.019 312.28 554.976ZM355.188 638.953C353.274 629.543 350.962 617.324 348.936 604.111C349.644 603.602 350.365 603.105 351.124 602.67C355.412 600.184 360.396 599.09 365.343 599.574C366.586 599.624 367.817 599.885 369.047 600.072C369.656 600.184 370.266 600.37 370.875 600.507C371.484 600.668 372.093 600.793 372.689 601.004C375.039 601.75 377.624 602.694 380.122 603.577C380.62 603.739 381.117 603.9 381.614 604.074C376.804 625.205 360.036 636.181 355.188 638.953Z" fill="url(#paint9_linear)"/>
<path d="M81.5312 405.892L81.4938 405.879C76.0247 404.127 70.5929 401.951 65.4718 399.341C62.9237 398.011 60.4254 396.582 58.1258 394.916C55.8387 393.25 53.7008 391.361 52.2092 389.136C51.4882 388.017 50.966 386.812 50.7671 385.581C50.6304 384.947 50.6803 384.4 50.6803 383.679C50.73 382.896 50.7301 382.126 50.6928 381.367C50.5809 378.993 50.27 376.706 49.9593 374.444C50.3571 374.543 50.7672 374.643 51.165 374.742C56.833 376.147 62.5881 377.415 68.0076 379.018L68.0573 379.031H68.0698C69.437 379.428 70.8787 378.633 71.264 377.266C71.6618 375.898 70.8664 374.456 69.4991 374.071C63.6943 372.393 58.0262 371.175 52.3457 369.795C51.3141 369.547 50.2824 369.298 49.2507 369.049C49.0643 367.346 48.9399 365.644 48.9151 363.965C48.8654 361.144 49.2134 358.36 50.1207 355.811C51.0654 353.288 52.6689 351.076 54.7944 349.398C56.7708 347.856 59.12 346.75 61.5935 345.93C62.1031 346.8 62.5882 347.67 63.0978 348.54C66.1307 353.587 69.2008 358.596 72.9049 363.381C73.8495 364.575 74.8316 365.755 76.0745 366.887C77.2678 367.968 78.5728 368.888 79.9401 369.696C82.6747 371.299 85.6456 372.443 88.8028 372.99C90.3814 373.263 92.0096 373.375 93.6752 373.251C95.3408 373.114 97.0811 372.741 98.7218 371.784C99.5546 371.336 100.3 370.653 100.959 369.907C101.556 369.112 102.09 368.217 102.339 367.272C102.911 365.382 102.786 363.543 102.438 361.902C102.078 360.261 101.531 358.733 100.847 357.316C100.537 356.595 100.064 355.874 99.6789 355.153C99.219 354.494 98.759 353.835 98.2866 353.201C96.3227 350.715 94.0729 348.639 91.7236 346.725C90.1574 345.457 88.5168 344.289 86.8636 343.158C87.2365 343.121 87.6096 343.096 87.9701 343.046C89.4368 342.884 90.9157 342.797 92.3824 342.574L96.7702 341.878C102.6 340.796 108.417 339.292 113.886 336.707C119.293 334.134 124.489 330.38 127.733 324.923C129.275 322.164 130.169 319.019 130.269 315.837C130.244 315.041 130.281 314.233 130.194 313.45L129.797 311.101C129.635 310.231 129.15 309.199 128.591 308.528C128.019 307.82 127.385 307.211 126.726 306.726C124.066 304.762 121.208 303.718 118.349 302.748C115.49 301.828 112.594 301.107 109.698 300.498C103.905 299.28 98.063 298.435 92.221 297.764C80.5369 296.446 68.8154 295.75 57.0443 295.626C54.0984 295.613 51.1527 295.626 48.1819 295.75C46.6903 295.825 45.211 295.899 43.6572 296.098C43.2719 296.148 42.8742 296.198 42.4516 296.285C42.2527 296.322 42.0289 296.372 41.7803 296.446C41.6684 296.471 41.5441 296.508 41.3825 296.571L41.1464 296.658C41.0842 296.682 40.9972 296.72 40.8356 296.819C40.5746 296.981 40.3386 297.142 40.0651 297.528C39.7917 297.938 39.7668 298.124 39.6922 298.385C39.6176 298.671 39.6299 298.771 39.6051 298.97C39.5927 299.156 39.5927 299.293 39.6051 299.417C39.6299 299.976 39.7047 300.387 39.7917 300.809C40.1522 302.437 40.6492 303.842 41.1713 305.259C41.6933 306.664 42.2528 308.043 42.8245 309.411C43.9805 312.133 45.211 314.818 46.4664 317.465C48.219 321.12 50.0464 324.749 51.8984 328.341C48.7412 327.658 45.5343 327.148 42.2901 326.862C36.2989 326.315 30.146 326.44 24.1423 327.807C18.1387 329.062 12.3216 331.76 7.4615 335.687C5.07496 337.664 2.73805 339.926 1.15945 343.096C0.3888 344.674 -0.0958692 346.576 0.016 348.515C0.140299 350.454 0.873615 352.281 1.83072 353.761C3.79464 356.731 6.42985 358.658 9.04013 360.324C11.6753 361.964 14.4096 363.294 17.1815 364.475C22.7128 366.824 28.3685 368.652 34.0365 370.292C38.4243 371.56 42.8246 372.704 47.2248 373.798C47.5977 376.395 47.9954 378.968 48.1197 381.479C48.1446 382.175 48.157 382.871 48.1197 383.543C48.1197 384.276 48.0698 385.208 48.2438 386.004C48.5297 387.657 49.2257 389.173 50.0834 390.503C51.8733 393.126 54.2102 395.14 56.6464 396.905C59.0951 398.657 61.6932 400.124 64.3283 401.479C69.6359 404.139 75.1051 406.302 80.7731 408.079C81.3697 408.266 82.016 407.943 82.2024 407.333C82.4634 406.724 82.1278 406.078 81.5312 405.892ZM59.8908 335.066C64.9373 336.645 69.8597 338.621 74.5955 340.983C73.1287 341.057 71.6495 341.169 70.1952 341.331C68.1443 341.592 66.0934 341.927 64.0549 342.4C62.6379 339.963 61.2581 337.515 59.8908 335.066ZM89.0389 350.019C91.239 351.772 93.3024 353.686 94.9804 355.787C95.3782 356.321 95.7634 356.856 96.1363 357.39C96.4346 357.962 96.7951 358.447 97.0561 359.081C97.6527 360.299 98.0878 361.529 98.3613 362.735C98.6348 363.941 98.6596 365.109 98.3737 366.029C98.2619 366.514 98.0008 366.887 97.7522 367.259C97.4291 367.595 97.106 367.943 96.6461 368.179C95.7636 368.714 94.5826 369.012 93.352 369.111C92.109 369.211 90.8041 369.136 89.4989 368.913C86.8886 368.478 84.3156 367.508 82.0036 366.166C80.8477 365.494 79.7537 364.724 78.7717 363.841C77.8395 363.008 76.9322 361.952 76.0621 360.858C72.5817 356.408 69.4867 351.449 66.4787 346.501C66.1555 345.955 65.8447 345.408 65.5216 344.861C67.1623 344.525 68.8404 344.264 70.506 344.053C73.3773 343.742 76.1864 343.68 79.1447 343.543C79.2441 343.543 79.3311 343.531 79.4306 343.531C82.7991 345.495 86.0433 347.633 89.0389 350.019ZM49.8971 315.837C48.6417 313.227 47.4236 310.591 46.2801 307.944C45.7083 306.614 45.1613 305.284 44.6641 303.954C44.1669 302.636 43.6946 301.269 43.4212 300.038C43.4087 299.951 43.3838 299.864 43.3714 299.777C43.62 299.728 43.9057 299.69 44.1792 299.653C45.5341 299.479 46.9637 299.38 48.3931 299.305C51.2644 299.168 54.1606 299.131 57.0692 299.131C68.6787 299.181 80.338 299.827 91.8854 301.07C97.6528 301.704 103.408 302.512 109.064 303.668C111.885 304.252 114.682 304.936 117.392 305.794C120.064 306.676 122.761 307.708 124.825 309.224C125.347 309.597 125.769 310.02 126.117 310.442C126.279 310.654 126.428 310.865 126.527 311.089C126.602 311.188 126.614 311.3 126.652 311.412C126.689 311.511 126.726 311.611 126.751 311.797L127.087 313.774C127.162 314.432 127.124 315.104 127.161 315.762C127.087 318.41 126.366 321.033 125.073 323.394C122.326 328.068 117.702 331.561 112.618 333.985C107.51 336.433 101.929 337.912 96.2856 338.994L92.0222 339.69C90.5928 339.901 89.1507 340.001 87.7212 340.162C86.1178 340.361 84.4896 340.473 82.8737 340.56C80.8103 339.317 78.722 338.149 76.5716 337.067C71.2392 334.37 65.6956 332.133 59.9779 330.392C58.9586 330.082 57.927 329.783 56.8953 329.51C54.459 324.998 52.122 320.448 49.8971 315.837ZM19.1579 359.951C16.5477 358.844 13.9995 357.626 11.6751 356.184C9.36315 354.755 7.2005 353.064 5.93265 351.125C5.31115 350.156 4.93812 349.174 4.86354 348.192C4.81382 347.21 5.03761 346.178 5.53481 345.122C6.54163 343.021 8.431 341.032 10.5317 339.305C14.7454 335.874 19.8042 333.463 25.2236 332.294C30.6306 331.039 36.3113 330.865 41.9545 331.362C46.2428 331.722 50.4939 332.493 54.6952 333.562C56.4851 336.906 58.3371 340.224 60.2264 343.518C57.728 344.413 55.2918 345.594 53.1414 347.285C50.6679 349.236 48.741 351.933 47.6596 354.892C46.6155 357.862 46.2677 360.982 46.3299 363.99C46.3547 365.47 46.4541 366.936 46.5908 368.391C42.8619 367.471 39.1454 366.514 35.4661 365.47C29.91 363.891 24.4034 362.151 19.1579 359.951Z" fill="url(#paint10_linear)"/>
<path opacity="0.07" d="M455.622 597.064C454.367 595.013 452.39 593.583 450.066 593.024C447.729 592.465 445.318 592.85 443.267 594.105C439.55 596.38 435.15 598.941 430.613 600.668C426.511 602.247 422.248 603.117 417.922 603.254C413.895 603.403 409.358 602.956 403.988 601.911C401.627 601.464 399.277 600.905 397.115 600.333C397.214 598.792 397.251 597.25 397.226 595.709C397.04 581.775 391.21 575.908 386.35 573.435C377.401 568.885 365.965 572.564 357.102 577.076C355.735 562.011 355.499 549.432 356.431 539.588L357.289 539.004L356.755 534.852C354.331 515.884 362.522 454.977 368.028 420.074C381.067 410.951 383.504 397.825 381.428 388.192C384.921 379.665 397.226 347.533 397.226 318.435C397.226 287.31 366.624 270.903 356.817 266.453C356.543 266.304 356.27 266.18 355.971 266.08C355.947 266.068 355.934 266.068 355.909 266.055C354.766 263.631 353.945 261.369 353.548 259.89C362.36 252.917 364.797 245.484 367.37 237.641L367.556 237.181L367.656 236.758C367.743 236.485 367.83 236.248 367.904 236.037C369.756 235.639 372.056 234.558 374.194 231.811C377.96 226.988 377.214 221.681 376.754 218.486C376.692 218.076 376.618 217.566 376.58 217.168C379.738 212.507 377.339 207.262 375.71 203.707C374.554 201.171 373.348 198.548 373.348 196.05C373.348 186.989 366.413 184.043 362.684 182.464C360.322 181.47 358.283 180.6 356.929 178.698C352.143 171.998 347.134 172.284 343.293 173.278C343.107 173.328 342.883 173.39 342.721 173.415C342.473 173.291 341.814 172.893 340.683 171.762C334.443 165.572 331.161 164.192 324.735 165.062C322.933 165.311 320.882 165.584 317.016 165.062C307.681 163.807 299.527 166.877 292.977 169.351C289.496 170.668 286.202 171.911 284.164 171.911C274.195 171.911 272.306 179.58 271.498 182.862C270.938 185.112 270.566 186.442 269.323 187.635C266.526 190.32 265.258 193.788 265.78 197.405C266.464 202.203 270.143 206.168 274.17 209.139C272.927 211.985 271.635 215.13 270.329 218.548C267.669 220.748 263.406 224.813 260.746 230.033C254.295 223.098 247.533 215.267 244.786 212.06C242.474 193.589 233.201 157.778 220.411 150.992C214.991 148.12 203.643 126.679 197.54 115.169C195.7 111.701 193.935 108.345 192.257 105.299C188.603 98.612 187.869 95.604 187.757 92.1236V91.962C187.708 89.8862 187.894 87.4499 188.105 84.6159C188.516 79.1219 189.087 71.5894 188.677 59.868L188.653 59.1098C188.392 51.714 188.193 46.2075 187.969 41.9689C187.981 41.9689 188.006 41.9689 188.019 41.9689C188.503 41.9689 189.001 41.9192 189.485 41.8073C191.138 41.4468 192.792 41.0242 194.544 40.5022C196.372 39.9553 198.025 39.3835 199.628 38.7371C201.791 37.8546 203.457 36.9969 205.072 35.9404C206.303 35.12 207.297 34.2996 208.23 33.3053C209.783 31.6272 210.765 29.8249 211.225 27.7988L211.287 27.5005C211.412 26.966 211.474 26.4191 211.474 25.8846C211.499 23.8212 210.715 21.8822 209.274 20.403C207.832 18.9363 205.905 18.1035 203.842 18.091C203.817 18.091 203.792 18.091 203.767 18.091C201.741 18.091 199.827 18.8741 198.373 20.2911C197.366 21.2731 196.67 22.4788 196.322 23.7964C196.322 23.7964 196.309 23.7964 196.309 23.8088C195.638 24.3433 194.706 24.9151 193.575 25.4993C191.387 26.618 188.839 27.6372 186.067 28.5197L185.968 28.557C185.396 27.2643 184.7 26.2699 183.929 25.5117C184.277 24.9896 184.575 24.4303 184.774 23.7964L188.901 10.7698C189.063 10.2353 189.175 9.68843 189.237 9.11665C189.46 6.91656 188.802 4.75376 187.397 3.03843C185.993 1.3231 184.004 0.266563 181.804 0.0428247C179.591 -0.180914 177.441 0.477866 175.725 1.88245C174.01 3.28703 172.954 5.27581 172.73 7.4759L171.387 21.0245C171.275 22.0935 171.45 23.1376 171.81 24.1071C171.101 24.5049 170.43 25.0145 169.834 25.6111C169.212 26.2326 168.156 27.314 167.136 29.9989C166.49 29.0418 165.595 28.2339 164.489 27.6745C161.891 26.3818 159.529 25.0891 157.478 23.8337C156.248 23.0754 155.328 22.4415 154.607 21.8822C154.557 21.8325 154.495 21.7952 154.458 21.7579C153.24 18.8741 150.406 16.9102 147.099 16.9102C142.687 16.9102 139.094 20.5024 139.094 24.9151L139.107 25.2631C139.268 27.9977 140.437 29.6509 140.996 30.4464L141.245 30.782C141.816 31.4905 142.438 32.1244 143.147 32.6962C144.141 33.5166 145.086 34.1132 145.918 34.6228C147.422 35.5054 148.877 36.2139 150.07 36.7608L156.969 47.9104C156.434 48.3082 155.949 48.7183 155.539 49.1161C151.214 50.0111 148.069 52.6213 146.117 54.7593C140.263 56.1887 136.745 61.4839 135.875 66.4185L134.47 74.4483L141.879 74.4731C140.897 82.4656 144.29 95.2808 145.943 100.849L146.093 101.322L146.714 102.565C146.764 102.652 152.307 111.639 152.369 121.918C151.574 148.257 161.033 173.03 161.133 173.278L161.555 174.161C177.453 202.427 190.977 229.114 191.884 233.974C192.008 254.147 208.839 281.431 215.824 291.885C196.098 322.487 195.004 359.814 195.29 372.828C182.002 381.728 172.382 387.781 172.208 387.893L170.418 389.062L169.722 390.752C169.187 391.51 164.402 397.589 145.496 398.707C120.362 400.199 94.4958 400.87 93.402 400.895L91.5873 400.945L90.0335 401.889C89.3126 402.324 88.3058 402.996 87.2866 403.878C82.7497 402.324 78.424 400.522 74.4588 398.496C71.7367 397.079 69.6359 395.811 67.8336 394.506C65.7578 393.002 64.2912 391.597 63.3466 390.218C62.9115 389.522 62.7873 389.087 62.7624 388.875L62.7375 388.751C62.7375 388.651 62.7375 388.564 62.7375 388.465V388.105C62.7748 387.471 62.7873 386.824 62.7748 386.128C66.2303 386.961 69.5489 387.794 72.8304 388.763C74.9684 389.385 77.2059 389.124 79.1449 388.055C81.084 386.986 82.5009 385.221 83.11 383.095C83.5326 381.641 83.5451 380.149 83.1846 378.72C83.2592 378.757 83.3213 378.807 83.3959 378.844C86.8141 380.845 90.4438 382.188 94.1977 382.834C96.3978 383.207 98.4609 383.319 100.499 383.157C103.321 382.934 105.745 382.213 107.895 380.97C109.213 380.236 110.431 379.23 111.624 377.887L111.898 377.552C113.029 376.048 113.787 374.568 114.21 373.052C114.968 370.516 115.03 367.856 114.396 364.873C113.961 362.897 113.29 360.97 112.42 359.143C112.084 358.385 111.699 357.726 111.388 357.191C111.276 357.005 111.164 356.818 111.065 356.632L110.767 356.135C110.269 355.401 109.747 354.681 109.225 353.972L109.138 353.86C108.417 352.953 107.659 352.083 106.839 351.213C113.041 349.907 118.138 348.267 122.712 346.116C130.083 342.624 135.577 337.9 139.032 332.083L139.107 331.959C141.12 328.366 142.251 324.314 142.376 320.25V320.076V319.902C142.363 319.678 142.364 319.467 142.364 319.243C142.364 318.609 142.351 317.9 142.276 317.092L141.816 314.258C141.468 312.444 140.561 310.517 139.455 309.175C138.585 308.093 137.603 307.136 136.534 306.353C133.265 303.929 129.834 302.661 126.515 301.53C123.744 300.635 120.81 299.865 117.292 299.119C111.923 297.988 106.205 297.093 99.2813 296.297C87.5351 294.98 75.5029 294.246 63.4956 294.122C59.8287 294.097 57.0073 294.147 54.3473 294.259C52.9054 294.321 51.2025 294.42 49.3629 294.644C48.8409 294.706 48.3188 294.793 47.8465 294.88C47.486 294.942 47.1005 295.029 46.6654 295.154C46.3795 295.228 46.0815 295.315 45.6713 295.489L45.522 295.551C45.0745 295.725 44.6767 295.924 44.2168 296.21C43.7569 296.496 42.7003 297.167 41.7681 298.547C41.0969 299.529 40.8236 300.325 40.6495 300.958L40.5998 301.133C40.4257 301.766 40.3761 302.264 40.3512 302.637V302.699C40.3015 303.283 40.3263 303.73 40.3263 303.867C40.3636 304.824 40.5003 305.57 40.6122 306.129L40.6371 306.279C41.0846 308.342 41.7185 310.07 42.2406 311.487C42.7378 312.817 43.2846 314.209 43.9931 315.887C45.0869 318.46 46.3175 321.169 47.747 324.178C47.9334 324.563 48.1074 324.936 48.3062 325.333C41.3952 324.774 35.1803 325.147 29.4253 326.452C22.4148 327.919 15.8022 331.051 10.2709 335.526C7.77249 337.602 4.6277 340.523 2.47732 344.848C1.20947 347.484 0.612693 350.33 0.774281 353.127C0.9483 355.874 1.89292 358.633 3.52124 361.169C6.10666 365.059 9.47541 367.508 12.471 369.422C15.0192 371.013 17.8531 372.455 21.3956 373.984C27.7597 376.694 34.0863 378.633 38.8967 380.038C41.8177 380.883 44.9377 381.728 48.5299 382.648C48.6791 383.804 48.7909 384.91 48.8406 385.967C48.8655 386.538 48.8655 387.036 48.8406 387.471L48.8285 388.092C48.8161 388.888 48.8036 390.081 49.0646 391.336C49.4624 393.561 50.3572 395.749 51.7245 397.862L51.7991 397.974C54.31 401.653 57.5416 404.201 59.7666 405.805C62.1531 407.508 64.8132 409.099 68.2065 410.851C73.4271 413.474 78.8466 415.649 84.6886 417.526C86.0186 419.254 88.2933 420.832 92.1092 421.703C95.9998 422.585 99.8533 422.796 103.209 422.734C101.942 435.363 104.751 439.154 107.523 440.994C107.883 441.23 108.517 441.789 109.126 442.336C112.469 445.319 118.075 450.304 129.324 450.304L130.182 450.254C139.132 449.123 142.985 446.637 144.75 444.685C145.918 444.126 147.149 443.405 148.255 442.51C153.439 442.473 161.903 440.422 170.579 429.906L183.482 429.322C182.823 430.317 182.189 431.348 181.555 432.43C175.812 442.212 172.257 453.312 171.822 462.895C171.263 474.915 172.083 483.541 173.028 493.523C173.538 498.954 174.122 505.07 174.507 512.416C170.455 522.609 150.468 574.889 150.542 612.564C147.298 618.828 137.926 638.356 138.684 653.421C138.734 654.303 138.846 655.211 139.032 656.106L143.171 686.422C143.109 688.1 140.698 693.246 137.093 698.74H135.925L134.272 703.228C134.247 703.277 133.414 705.577 132.196 710.039L132.096 710.188H132.158C130.368 716.764 127.758 727.963 125.658 743.625C124.539 751.965 126.577 759.361 131.549 765.017C142.015 776.925 161.928 777.26 164.24 777.26L165.98 777.248L167.497 776.415C169.063 775.557 182.823 767.428 182.885 744.532C182.935 727.503 187.235 713.109 187.832 711.22C188.491 709.567 191.474 701.935 192.443 694.85L212.63 668.225C220.373 664.484 224.736 663.34 226.999 663.017L226.588 665.329L235.14 667.454L236.57 669.282L236.992 667.927L239.217 668.486L249.062 637.014C258.546 660.742 263.406 664.297 265.308 665.515C267.744 667.865 273.163 681.115 276.097 688.262C282.958 705.005 285.941 711.879 291.1 713.967C294.841 715.484 306.985 717.609 320.807 717.957C322.982 720.294 326.637 724.16 330.44 727.951C336.282 733.768 339.9 736.863 342.373 738.578L342.485 741.4C342.112 746.969 341.553 751.63 341.13 754.116C333.461 758.59 320.086 770.635 315.139 776.353C312.666 779.212 306.873 785.911 309.956 792.288C312.641 797.857 319.639 805.638 330.54 809.267C334.704 810.659 339.154 811.355 343.753 811.355C352.914 811.355 362.932 808.571 373.51 803.09C409.109 784.631 415.051 771.953 415.871 769.616L416.729 767.192L415.784 764.805C409.047 747.727 404.436 737.149 402.049 733.283L401.863 732.711L401.042 731.891C394.653 724.57 388.687 714.713 388.973 711.929C389.097 710.847 388.948 709.753 388.575 708.747C387.829 703.228 386.176 697.696 383.653 692.264C384.535 689.828 384.983 687.292 384.995 684.695C385.058 672.364 375.462 662.433 370.689 658.244C370.229 656.243 369.47 652.849 368.526 648.399C375.288 643.912 388.103 633.546 394.094 616.305C396.48 617.001 398.643 617.561 400.744 618.021C407.357 619.537 412.95 620.233 418.295 620.233H418.308C424.423 620.295 430.824 619.177 436.716 617.113C442.645 615.075 448.027 612.191 452.602 609.593L452.788 609.481C454.839 608.226 456.269 606.249 456.828 603.925C457.263 601.526 456.877 599.115 455.622 597.064ZM138.871 430.988C138.523 429.409 137.64 427.967 136.323 426.96C136.36 426.24 136.497 425.282 136.683 424.586C137.752 420.957 135.676 417.128 132.047 416.059C130.294 415.537 128.43 415.736 126.826 416.606C125.882 417.116 125.098 417.849 124.502 418.707C124.203 418.57 123.893 418.446 123.569 418.346C121.804 417.824 119.952 418.011 118.336 418.881C118.001 419.067 117.69 419.291 117.392 419.515C117.553 418.458 117.74 417.377 117.951 416.258L118.424 413.797C126.851 413.462 136.596 413.002 146.266 412.43C150.058 412.206 153.613 411.784 156.919 411.187C157.565 414.642 158.485 418.197 159.79 421.218C152.941 429.484 147.858 428.788 147.236 428.663L139.604 426.028L138.871 430.988ZM372.951 705.564C373.199 705.378 373.46 705.179 373.697 704.993C376.021 713.259 375.027 719.299 374.368 721.835C371.695 722.693 365.754 723.911 356.643 725.477C353.212 726.061 350.999 726.459 349.421 726.782C347.532 725.328 343.915 722.059 339.042 717.174C350.627 715.894 363.38 712.724 372.951 705.564ZM346.313 760.157C346.326 760.157 346.338 760.157 346.338 760.157L346.599 760.989L346.313 760.157L346.077 763.587C345.717 763.562 345.369 763.5 345.021 763.388L345.965 760.318C346.102 760.244 346.226 760.194 346.313 760.157ZM348.079 765.688C348.936 765.489 349.757 765.129 350.49 764.619C353.026 762.879 354.542 759.796 355.611 748.46C375.449 749.604 377.649 756.142 378.756 759.411C381.416 767.304 386.773 766.769 388.948 766.185C393.249 765.029 395.374 761.076 397.065 755.321C398.556 758.889 400.135 762.754 401.639 766.521C398.693 770.212 390.004 778.938 367.109 790.821C354.567 797.322 343.691 799.124 334.803 796.154C328.961 794.202 325.17 790.56 323.306 787.962C327.47 781.474 343.852 768.236 348.079 765.688ZM387.469 737.037C386.959 738.727 386.437 740.903 385.741 743.898C385.679 744.172 385.617 744.458 385.555 744.719C382.435 741.723 377.712 738.827 370.415 736.9C377.525 735.434 381.515 734.116 383.889 732.227C385.157 734.041 386.4 735.682 387.469 737.037ZM364.722 694.564C345.717 708.771 304.86 703.489 297.041 701.438C295.04 698.442 290.976 688.511 288.713 682.992C282.063 666.758 278.036 657.374 272.791 653.993C269.695 651.283 261.38 632.402 254.929 613.459L248.154 593.546L230.715 649.282C224.724 648.486 216.433 650.873 204.973 656.578C186.95 665.54 166.987 664.397 157.354 658.766C155.788 657.846 153.103 655.969 152.457 653.583L152.295 652.402C151.872 641.19 160.113 623.415 163.358 617.461L164.228 615.858L164.19 614.031C163.693 588.462 174.209 553.683 181.319 533.236C189.473 544.436 201.952 548.861 202.102 548.91L203.22 549.308L204.414 549.296C204.985 549.296 262.063 548.985 299.639 549.271C298.135 549.979 296.855 550.986 295.91 552.415C295.624 552.851 295.376 553.323 295.177 553.795C294.854 553.758 294.53 553.721 294.232 553.683C290.478 553.174 287.023 555.821 286.513 559.575C286.016 563.329 288.651 566.784 292.405 567.294C295.948 567.766 300.634 568.003 306.314 568.003C311.187 568.003 315.984 567.829 319.303 567.667C319.415 567.679 319.539 567.679 319.651 567.679L320.012 567.667C320.248 567.655 320.459 567.63 320.658 567.605C323.169 567.468 324.822 567.356 325.034 567.344C326.861 567.219 328.539 566.374 329.732 564.995C330.938 563.602 331.522 561.837 331.385 560.01C331.261 558.171 330.416 556.492 329.011 555.299C327.992 554.417 326.761 553.87 325.456 553.696C325.158 553.161 324.797 552.639 324.337 552.117C323.728 551.434 323.02 550.837 322.212 550.34C322.125 549.793 322.05 549.246 321.976 548.699C330.863 548.04 337.451 546.922 342.224 545.766C341.776 557.549 342.522 572.018 344.486 588.91C344.499 589.208 344.536 589.494 344.586 589.78C345.133 594.379 345.754 599.189 346.475 604.112C343.865 606.685 341.515 609.717 339.464 613.198C336.407 618.418 334.17 624.037 332.802 629.891C331.957 633.521 334.12 637.113 337.712 638.083C341.366 639.064 345.145 636.877 346.139 633.16C346.972 630.04 348.178 626.958 349.669 624.061C350.912 631.184 352.305 638.443 353.796 645.789L353.933 646.435C356.096 656.939 357.674 663.551 357.687 663.614L358.259 665.988L360.173 667.454C363.218 669.816 371.136 677.51 371.099 684.583C371.123 688.063 369.023 691.345 364.722 694.564ZM162.003 763.376C155.862 762.953 146.304 761.039 141.767 755.881C139.43 753.221 138.585 749.79 139.181 745.39C141.369 729.094 144.042 718.156 145.682 712.413H154.483V708.224H163.929L162.661 715.707H172.382C170.816 722.755 169.088 733.059 169.063 744.458C169.038 752.612 166.589 757.72 164.526 760.567C163.594 761.835 162.699 762.754 162.003 763.376ZM175.551 101.434C176.508 104.504 177.963 107.76 180.063 111.614C175.539 113.279 170.281 114.274 165.483 114.771C164.886 110.992 163.892 107.562 162.823 104.64C166.366 104.007 170.666 103 175.551 101.434ZM156.098 71.7758C156.894 76.7975 160.909 80.7875 168.367 83.982C169.225 84.3549 170.144 84.5413 171.089 84.5413C172.282 84.5413 173.426 84.2182 174.42 83.6588C174.321 84.9391 174.234 86.1945 174.159 87.4126C167.236 89.8489 161.493 91.0049 157.652 91.5518C155.8 83.9696 155.042 77.6925 155.514 75.9896C155.949 74.5601 156.136 73.1431 156.098 71.7758ZM174.967 60.9742C175.104 65.2377 175.104 68.8921 175.029 72.0741C174.644 71.8007 174.221 71.5521 173.774 71.3656C172.295 70.7317 171.276 70.1724 170.592 69.7249C171.648 67.4129 171.363 64.5913 169.635 62.4907C168.441 61.0488 166.788 60.2284 165.06 60.042L165.396 58.9357C165.993 58.8487 167.26 58.8363 169.473 59.4454L174.967 60.9742ZM155.576 64.9021C155.999 64.2433 157.553 62.4907 158.783 62.5528L158.945 62.5653C157.254 64.3925 155.862 67.1395 155.962 70.3961C155.751 69.0288 155.29 67.7485 154.57 66.5677L155.576 64.9021ZM186.589 123.845C197.701 144.777 205.756 158.798 213.985 163.161C218.758 165.771 228.95 192.172 231.374 215.664L231.598 217.765L232.965 219.381C233.574 220.102 246.128 234.956 255.861 244.825C248.291 253.19 233.276 269.884 224.612 280.201C215.091 265.135 205.607 245.981 205.607 233.762C205.607 226.18 188.354 193.862 173.786 167.909C172.742 165.05 166.788 147.872 166.117 128.543C171.723 128.046 179.442 126.815 186.589 123.845ZM284.848 186.168C284.885 186.007 284.935 185.833 284.972 185.646C288.838 185.485 292.753 184.13 296.569 182.7C292.653 184.925 289.111 187.585 285.767 190.37C284.052 191.799 282.362 193.838 280.584 196.622C280.423 196.473 280.273 196.324 280.137 196.187C283.269 192.57 284.201 188.779 284.848 186.168ZM239.168 300.238C240.609 305.135 244.425 311.623 254.432 314.768L254.854 314.905L256.06 315.091H256.495C261.566 315.091 266.501 314.855 272.591 312.854C269.024 316.011 265.407 319.317 261.778 322.736C248.291 335.439 227.098 350.952 209.137 363.394C209.858 347.372 213.549 318.447 229.696 295.875L230.715 294.458C232.368 292.27 235.476 288.553 239.466 283.93C238.036 289.672 237.713 295.266 239.168 300.238ZM342.684 531.359C339.005 532.54 332.168 534.144 320.708 534.989C319.714 511.235 326.674 498.619 336.867 480.185C340.198 474.169 343.964 467.345 347.768 459.49C348.079 458.843 348.377 458.209 348.675 457.575C345.269 483.38 341.913 514.268 342.684 531.359ZM262.847 301.033C261.094 301.257 259.391 301.319 257.614 301.331C253.872 299.939 252.841 298.037 252.343 296.347C251.796 294.495 251.784 292.171 252.269 289.448C253.077 291.226 254.133 292.941 255.451 294.557C257.614 297.217 260.199 299.343 262.847 301.033ZM311.87 299.243C311.112 300.25 310.379 301.394 309.707 302.574C309.334 302.226 308.949 301.891 308.551 301.568C309.67 300.784 310.776 300.001 311.87 299.243ZM267.943 265.769C268.378 267.423 269.037 269.262 270.081 271.139C273.027 276.472 279.515 283.097 293.598 284.315L293.872 284.327C288.9 288.156 284.586 291.226 280.783 293.625C275.649 292.618 269.285 289.809 266.116 285.906C264.35 283.743 263.791 281.506 264.338 278.895C265.345 274.122 266.687 269.747 267.943 265.769ZM296.867 310.393C298.819 311.3 300.335 312.419 301.379 313.736C303.045 315.837 303.132 318.087 303.095 318.957C301.715 323.842 300.31 330.529 300.646 336.744C298.607 340.858 298.694 346.427 300.907 353.624C302.398 358.459 304.524 363.829 307.159 369.385C291.92 377.278 280.261 383.406 272.455 387.632C248.565 400.534 206.29 413.027 200.337 414.754L185.421 415.426C182.922 410.516 182.4 402.983 182.562 397.589C186.9 394.817 195.253 389.41 205.545 382.486C205.942 382.275 206.328 382.014 206.676 381.716C226.962 368.005 254.506 348.453 271.199 332.729C280 324.451 288.626 316.943 296.867 310.393ZM202.611 428.353L207.931 427.383L207.869 426.849C220.56 423.045 256.831 411.684 278.981 399.714C286.762 395.513 298.371 389.41 313.561 381.542C320.012 392.641 329.968 406.787 339.092 407.271C339.427 407.495 340.123 408.117 340.869 409.31C347.507 419.9 342.398 439.08 335.412 453.511C331.77 461.031 328.253 467.395 324.847 473.548C314.356 492.541 305.916 507.805 307.023 535.536C305.32 535.548 303.579 535.561 301.814 535.548C290.863 535.461 277.029 535.411 260.696 535.411C235.948 535.411 212.456 535.523 205.694 535.548C201.816 533.87 188.876 527.245 188.217 513.174C187.82 504.871 187.186 498.109 186.614 492.155C185.719 482.684 184.948 474.517 185.458 463.455C186.229 446.848 198.758 429.62 202.611 428.353ZM381.788 595.796C381.043 595.56 380.346 595.411 379.787 595.299L379.228 595.174C379.029 595.137 378.83 595.087 378.631 595.05C378.059 594.926 377.488 594.802 376.904 594.714L375.984 594.59C374.828 594.429 373.522 594.255 372.105 594.23C367.743 593.969 363.343 594.603 359.253 596.032C359.067 594.652 358.892 593.297 358.718 591.943C366.785 587.083 376.046 583.627 380.123 585.703C382.944 587.132 383.442 592.713 383.479 595.908C383.479 596.032 383.479 596.169 383.479 596.293C382.932 596.119 382.373 595.957 381.788 595.796ZM358.234 410.068L356.232 411.249C355.101 406.675 353.498 403.617 352.503 402.014C349.284 396.88 344.859 393.847 340.26 393.561C338.93 392.815 334.953 389.435 328.999 380.423C327.917 378.782 326.836 377.054 325.754 375.24C326.189 375.016 326.624 374.792 327.059 374.568C329.831 377.365 333.971 381.169 339.042 384.798C349.21 392.07 359.042 395.662 368.352 395.451C368.103 399.764 366.027 405.469 358.234 410.068ZM369.271 381.629C359.75 382.449 348.626 375.724 339.999 367.918C355.599 359.914 367.395 353.922 367.519 353.86C370.887 352.145 372.242 348.006 370.527 344.625C368.811 341.256 364.66 339.901 361.229 341.654C358.979 342.798 340.049 352.431 319.341 363.108C317.849 359.914 316.544 356.794 315.462 353.81C319.601 354.233 322.299 352.791 323.977 351.225C329.086 346.464 327.022 338.721 326.264 336.458L325.332 333.662L322.659 332.419C321.739 331.984 318.545 330.604 314.729 330.144C316.121 320.573 320.944 309.262 323.119 307.186C324.163 306.204 327.258 303.283 334.12 286.018C343.852 281.27 349.931 279.939 352.392 279.567C361.242 283.78 383.491 296.558 383.491 318.472C383.491 343.755 373.025 372.232 369.271 381.629ZM335.226 220.86C332.367 223.334 332.056 227.672 334.542 230.555C334.828 230.879 335.139 231.165 335.475 231.426C334.07 232.867 332.827 234.707 332.417 237.044C332.069 239.02 332.379 240.997 333.299 242.749C333.001 245.807 330.664 255.092 325.916 268.641C316.519 271.239 308.141 274.856 300.87 279.417C300.994 278.982 301.081 278.535 301.118 278.075C301.28 276.248 300.721 274.47 299.527 273.066C298.346 271.661 296.693 270.804 294.854 270.642C281.094 269.449 280.845 261.643 280.932 260.164C281.094 258.336 280.534 256.559 279.341 255.154C278.16 253.75 276.507 252.892 274.717 252.73C274.282 252.693 273.86 252.693 273.437 252.73L274.158 250.269L274.655 248.579C274.817 248.057 275.388 246.143 276.259 243.371C277.961 245.757 280.833 246.975 283.89 246.528C287.184 246.056 293.101 247.224 296.059 248.094C296.681 248.281 297.34 248.368 297.986 248.368C301.019 248.368 303.716 246.341 304.574 243.445C305.096 241.68 304.897 239.828 304.014 238.212C303.132 236.596 301.69 235.428 299.925 234.906C299.266 234.707 295.425 233.613 290.851 233.041C292.678 229.362 295.624 224.092 299.913 217.417C300.907 215.876 301.243 214.036 300.845 212.246C300.46 210.456 299.39 208.915 297.862 207.933C296.32 206.939 294.481 206.603 292.678 206.988C291.485 207.249 290.416 207.834 289.534 208.642C292.405 202.986 294.071 201.32 294.53 200.935C302.299 194.471 311.162 188.393 326.438 191.165C335.462 192.806 347.109 198.71 352.777 208.231C354.629 211.326 355.76 214.67 356.195 218.237C349.259 214.036 340.782 216.037 335.226 220.86ZM156.235 681.165L155.116 672.936C165.508 677.274 178.112 677.634 189.56 675.733L182.214 685.428C176.856 685.515 164.862 685.192 156.235 681.165ZM365.418 633.521C363.964 625.938 362.646 618.48 361.49 611.234C364.449 609.804 367.817 609.195 371.099 609.506L371.409 609.531C371.993 609.556 372.74 609.68 373.523 609.817L374.343 609.954C374.591 610.003 374.84 610.065 375.089 610.128C375.337 610.19 375.598 610.252 375.847 610.314L376.282 610.426C376.555 610.488 376.878 610.575 377.015 610.625L377.264 610.712C378.42 611.072 379.663 611.507 380.931 611.955C377.351 622.098 370.726 629.17 365.418 633.521ZM158.957 40.2909C159.032 40.3157 159.106 40.3406 159.181 40.3654C161.195 41.0615 163.345 40.7508 165.048 39.6942C164.862 41.335 164.712 43.1622 164.613 45.2255C162.997 45.3498 161.593 45.673 160.362 46.1205L158.957 40.2909ZM169.647 390.839L169.573 391.026C169.573 391.026 169.597 390.951 169.647 390.839ZM46.9762 365.209C45.7083 364.873 44.5027 364.537 43.3343 364.202C36.8583 362.362 32.0357 360.734 27.6852 358.907C24.9382 357.751 22.8125 356.682 20.9853 355.551C18.3875 353.947 17.3808 352.779 17.0451 352.269C16.983 352.182 16.9456 352.108 16.9207 352.045C16.9332 351.996 16.9581 351.934 16.9954 351.846C17.2937 351.213 18.1514 349.883 20.4509 347.993C23.9562 345.134 28.2071 343.121 32.8311 342.126C37.2064 341.107 42.2281 340.834 47.7843 341.318C50.7799 341.567 53.9372 342.052 57.1814 342.785C57.6164 343.581 58.0637 344.389 58.5236 345.221C57.5914 345.781 56.7214 346.39 55.8886 347.049C52.6195 349.634 50.0339 353.226 48.5548 357.241C47.6971 359.702 47.1626 362.387 46.9762 365.209ZM61.8053 362.064C62.3895 360.498 63.3839 359.13 64.6393 358.148C64.9376 357.925 65.2484 357.701 65.584 357.49C68.4056 362.138 71.2767 366.7 74.7447 371.175C75.0306 371.535 75.3413 371.933 75.6769 372.319C71.8982 371.274 68.1942 370.404 64.5896 369.559C63.3839 369.273 62.1904 369 60.9847 368.701C60.9847 368.503 60.9723 368.304 60.9723 368.105C60.9225 365.78 61.2211 363.717 61.8053 362.064ZM83.7937 353.624L84.3032 353.599C87.0875 355.265 89.5487 356.955 91.7736 358.733C93.8743 360.411 95.515 361.989 96.758 363.543C97.0439 363.916 97.3051 364.301 97.5786 364.674C97.678 364.848 97.7775 365.022 97.8769 365.196C97.9515 365.321 98.0384 365.445 98.1005 365.582L98.225 365.855C98.5233 366.452 98.7592 367.061 98.9333 367.682C98.2745 367.707 97.5162 367.657 96.7207 367.533C94.8686 367.222 92.9421 366.526 91.1894 365.495C90.2696 364.96 89.4991 364.401 88.8652 363.829C88.1691 363.207 87.361 362.225 86.8514 361.592C84.8999 359.106 83.0728 356.421 81.3326 353.723C82.153 353.686 82.9609 353.649 83.7937 353.624ZM101.569 337.589L97.4542 338.261C96.6338 338.385 95.8134 338.46 94.9931 338.547C94.4462 338.596 93.8991 338.658 93.29 338.721C92.3826 338.832 91.4505 338.919 90.5679 338.982C88.8029 337.95 87.1126 337.042 85.447 336.21C79.7914 333.351 73.8871 330.977 67.9331 329.174C67.6472 329.087 67.3739 329 67.088 328.926C64.9997 324.973 63.1227 321.244 61.3452 317.602C59.9903 314.793 58.847 312.282 57.8278 309.933C57.7159 309.672 57.6164 309.423 57.5046 309.187C59.2199 309.137 61.1216 309.125 63.3341 309.125C74.8069 309.175 86.317 309.821 97.5413 311.027C103.992 311.735 109.275 312.543 114.185 313.538C117.156 314.147 119.691 314.793 121.891 315.489C123.731 316.098 126.018 316.918 127.559 317.987L127.696 318.771C127.709 318.945 127.709 319.131 127.709 319.305C127.709 319.541 127.709 319.777 127.721 320.014C127.647 321.667 127.187 323.32 126.379 324.811C123.967 328.851 119.654 331.536 116.435 333.065C112.432 334.979 107.696 336.421 101.569 337.589Z" fill="black"/>
</g>
<defs>
<linearGradient id="paint0_linear" x1="-0.256836" y1="50.9417" x2="401.168" y2="93.4007" gradientUnits="userSpaceOnUse">
<stop stop-color="white"/>
<stop offset="1"/>
</linearGradient>
<linearGradient id="paint1_linear" x1="-38.1512" y1="409.252" x2="363.263" y2="451.709" gradientUnits="userSpaceOnUse">
<stop stop-color="white"/>
<stop offset="1"/>
</linearGradient>
<linearGradient id="paint2_linear" x1="-37.8164" y1="406.101" x2="363.595" y2="448.557" gradientUnits="userSpaceOnUse">
<stop stop-color="white"/>
<stop offset="1"/>
</linearGradient>
<linearGradient id="paint3_linear" x1="-15.0795" y1="191.117" x2="386.338" y2="233.574" gradientUnits="userSpaceOnUse">
<stop stop-color="white"/>
<stop offset="1"/>
</linearGradient>
<linearGradient id="paint4_linear" x1="-19.4901" y1="232.833" x2="381.926" y2="275.29" gradientUnits="userSpaceOnUse">
<stop stop-color="white"/>
<stop offset="1"/>
</linearGradient>
<linearGradient id="paint5_linear" x1="-15.1386" y1="191.664" x2="386.28" y2="234.121" gradientUnits="userSpaceOnUse">
<stop stop-color="white"/>
<stop offset="1"/>
</linearGradient>
<linearGradient id="paint6_linear" x1="4.13999" y1="9.39335" x2="405.558" y2="51.851" gradientUnits="userSpaceOnUse">
<stop stop-color="white"/>
<stop offset="1"/>
</linearGradient>
<linearGradient id="paint7_linear" x1="4.47177" y1="6.23573" x2="405.895" y2="48.6945" gradientUnits="userSpaceOnUse">
<stop stop-color="white"/>
<stop offset="1"/>
</linearGradient>
<linearGradient id="paint8_linear" x1="5.94019" y1="-7.61589" x2="407.356" y2="34.8411" gradientUnits="userSpaceOnUse">
<stop stop-color="white"/>
<stop offset="1"/>
</linearGradient>
<linearGradient id="paint9_linear" x1="-35.3133" y1="382.405" x2="366.106" y2="424.863" gradientUnits="userSpaceOnUse">
<stop stop-color="white"/>
<stop offset="1"/>
</linearGradient>
<linearGradient id="paint10_linear" x1="-30.8799" y1="340.49" x2="370.539" y2="382.948" gradientUnits="userSpaceOnUse">
<stop stop-color="white"/>
<stop offset="1"/>
</linearGradient>
</defs>
</svg>
