<svg width="144" height="28" viewBox="0 0 144 28" fill="none" xmlns="http://www.w3.org/2000/svg">
<path d="M36.232 21.999C36.064 21.999 35.944 21.927 35.824 21.807C35.704 21.687 35.632 21.567 35.632 21.399V5.82302C35.632 5.65502 35.68 5.48702 35.8 5.36702C35.92 5.24702 36.064 5.19902 36.232 5.19902H43.024C45.112 5.19902 46.744 5.67902 47.92 6.61502C49.096 7.55102 49.696 8.94302 49.696 10.767C49.696 12.591 49.096 13.959 47.92 14.847C46.744 15.759 45.112 16.215 43.024 16.215H40.288V21.399C40.288 21.567 40.24 21.687 40.12 21.807C40 21.927 39.856 21.999 39.688 21.999H36.232ZM40.216 12.783H42.904C43.552 12.783 44.08 12.615 44.464 12.255C44.824 11.919 45.016 11.415 45.016 10.743C45.016 10.119 44.848 9.61502 44.512 9.23102C44.152 8.84702 43.624 8.65502 42.904 8.65502H40.216V12.783ZM51.6091 9.51902V9.44702V9.27902V6.30302C51.6091 5.99102 51.8971 5.70302 52.2331 5.70302H52.5931C54.3691 5.70302 55.8331 7.11902 55.8331 8.84702V9.27902L55.8811 21.399C55.8811 21.567 55.8331 21.687 55.7131 21.807C55.5931 21.927 55.4491 21.999 55.2811 21.999H52.2811C52.1131 21.999 51.9691 21.951 51.8491 21.831C51.7291 21.711 51.6571 21.567 51.6571 21.399C51.6571 21.399 51.6091 11.391 51.6091 9.56702V9.51902ZM63.202 22.239C61.786 22.239 60.658 21.759 59.794 20.823C58.93 19.887 58.498 18.543 58.498 16.815V10.119C58.498 9.95102 58.57 9.80702 58.69 9.68702C58.81 9.56702 58.93 9.51902 59.098 9.51902H62.29C62.458 9.51902 62.626 9.56702 62.746 9.68702C62.866 9.80702 62.914 9.95102 62.914 10.119V16.671C62.914 18.159 63.586 18.903 64.906 18.903C65.554 18.903 66.058 18.711 66.418 18.303C66.778 17.919 66.946 17.367 66.946 16.671V10.119C66.946 9.95102 67.018 9.80702 67.138 9.68702C67.258 9.56702 67.402 9.51902 67.57 9.51902H70.738C70.906 9.51902 71.05 9.56702 71.17 9.68702C71.29 9.80702 71.338 9.95102 71.338 10.119V21.399C71.338 21.567 71.29 21.687 71.17 21.807C71.05 21.927 70.906 21.999 70.738 21.999H67.81C67.642 21.999 67.498 21.951 67.378 21.831C67.258 21.711 67.186 21.567 67.186 21.399V20.487C66.346 21.663 65.026 22.239 63.202 22.239ZM79.2953 22.239C77.9753 22.239 76.8953 22.047 76.0073 21.687C75.1193 21.327 74.4713 20.871 74.0633 20.367C73.6313 19.863 73.4153 19.383 73.4153 18.975C73.4153 18.807 73.4873 18.687 73.6073 18.567C73.7273 18.471 73.8473 18.423 73.9913 18.423H76.8953C76.9913 18.423 77.0633 18.447 77.1353 18.519C77.3993 18.687 77.5673 18.807 77.5913 18.831C77.9033 19.047 78.1913 19.215 78.4553 19.335C78.7193 19.455 79.0313 19.527 79.3913 19.527C79.8233 19.527 80.1833 19.431 80.4713 19.263C80.7353 19.095 80.8793 18.879 80.8793 18.567C80.8793 18.303 80.8073 18.111 80.6633 17.943C80.4953 17.775 80.2073 17.631 79.7993 17.463C79.3673 17.319 78.7193 17.175 77.8553 17.007C75.0953 16.455 73.7033 15.159 73.7033 13.167C73.7033 12.519 73.9193 11.871 74.3513 11.271C74.7593 10.671 75.3833 10.191 76.2233 9.83102C77.0393 9.47102 78.0233 9.27902 79.1753 9.27902C80.3513 9.27902 81.3593 9.44702 82.2233 9.80702C83.0633 10.167 83.7113 10.599 84.1673 11.103C84.6233 11.607 84.8393 12.087 84.8393 12.495C84.8393 12.639 84.7913 12.759 84.6953 12.879C84.5753 12.999 84.4553 13.047 84.3113 13.047H81.6713C81.5273 13.047 81.4073 13.023 81.3353 12.951C81.1433 12.855 80.9513 12.735 80.7593 12.591C80.4713 12.399 80.2313 12.255 80.0153 12.135C79.7993 12.039 79.5113 11.991 79.1753 11.991C78.7673 11.991 78.4553 12.087 78.2393 12.255C78.0233 12.423 77.9033 12.663 77.9033 12.927C77.9033 13.167 77.9753 13.359 78.1193 13.503C78.2393 13.671 78.5273 13.815 78.9593 13.959C79.3673 14.103 80.0153 14.247 80.8793 14.415C82.4393 14.679 83.5913 15.159 84.3113 15.855C85.0073 16.551 85.3673 17.367 85.3673 18.303C85.3673 19.503 84.8393 20.463 83.7833 21.159C82.7033 21.879 81.2153 22.239 79.2953 22.239ZM93.7338 21.999C93.5658 21.999 93.4458 21.951 93.3498 21.831C93.2538 21.735 93.2058 21.615 93.2058 21.447V5.77502C93.2058 5.60702 93.2538 5.46302 93.3498 5.34302C93.4458 5.24702 93.5658 5.19902 93.7338 5.19902H99.8058C101.606 5.19902 103.046 5.63102 104.078 6.49502C105.11 7.38302 105.614 8.65502 105.614 10.311C105.614 11.967 105.11 13.239 104.078 14.103C103.046 14.967 101.606 15.399 99.8058 15.399H95.4858V21.447C95.4858 21.615 95.4378 21.735 95.3418 21.831C95.2218 21.951 95.1018 21.999 94.9338 21.999H93.7338ZM95.4858 13.455H99.6858C102.11 13.455 103.31 12.399 103.31 10.311C103.31 9.27902 103.022 8.51102 102.422 7.95902C101.822 7.40702 100.91 7.14302 99.6858 7.14302H95.4858V13.455ZM109.109 21.999C108.941 21.999 108.821 21.951 108.725 21.831C108.629 21.735 108.581 21.615 108.581 21.447V5.77502C108.581 5.60702 108.629 5.46302 108.725 5.34302C108.821 5.24702 108.941 5.19902 109.109 5.19902H115.181C116.981 5.19902 118.421 5.63102 119.453 6.49502C120.485 7.38302 120.989 8.65502 120.989 10.311C120.989 11.967 120.485 13.239 119.453 14.103C118.421 14.967 116.981 15.399 115.181 15.399H110.861V21.447C110.861 21.615 110.813 21.735 110.717 21.831C110.597 21.951 110.477 21.999 110.309 21.999H109.109ZM110.861 13.455H115.061C117.485 13.455 118.685 12.399 118.685 10.311C118.685 9.27902 118.397 8.51102 117.797 7.95902C117.197 7.40702 116.285 7.14302 115.061 7.14302H110.861V13.455ZM123.98 6.18302V4.28702C123.98 4.09502 124.124 3.95102 124.292 3.95102H124.508C125.468 3.95102 126.236 4.76702 126.236 5.77502V6.18302C126.236 6.20702 126.236 6.25502 126.236 6.27902C126.212 8.79902 126.212 19.983 126.212 19.983H134.228C134.396 19.983 134.54 20.031 134.66 20.127C134.756 20.247 134.804 20.367 134.804 20.535V21.447C134.804 21.615 134.756 21.735 134.636 21.831C134.516 21.951 134.396 21.999 134.228 21.999H124.484C124.316 21.999 124.196 21.951 124.1 21.831C124.004 21.735 123.956 21.615 123.956 21.447L123.98 6.30302C123.98 6.27902 123.98 6.23102 123.98 6.18302Z" fill="#333333"/>
<path d="M23.6905 20.8398H26.2169C24.9615 23.0768 23.1103 24.9351 20.877 26.1953V23.6533C20.877 22.0989 22.1372 20.8398 23.6905 20.8398Z" fill="#E50058"/>
<path d="M28 14.0003C28 14.2684 27.9929 14.5351 27.9762 14.7996C27.9702 14.9376 27.9606 15.076 27.9487 15.2129H23.6905C22.1372 15.2129 20.877 13.9538 20.877 12.4005V9.51786C20.877 7.18566 18.9867 5.29535 16.6556 5.29535C16.2673 5.29535 15.9172 5.45266 15.6621 5.70635C15.4084 5.96117 15.2511 6.31151 15.2511 6.69983V12.4005C15.2511 13.9538 13.9909 15.2129 12.4376 15.2129H6.73696C5.96145 15.2129 5.33248 15.8418 5.33248 16.6173C5.33248 17.7834 5.80527 18.8387 6.56888 19.6035C7.33362 20.3671 8.38889 20.8398 9.55499 20.8398H12.4376C13.9909 20.8398 15.2511 22.0989 15.2511 23.6533V27.9439C14.9759 27.9688 14.6984 27.9855 14.4186 27.994C14.3818 27.9952 14.3435 27.9963 14.3067 27.9977C14.2044 27.9989 14.1018 28 14.0006 28C6.26757 28 0 21.7321 0 14.0006C0 6.26899 6.26786 9.61146e-09 14.0006 9.61146e-09C21.7321 -0.000283437 28 6.26871 28 14.0003Z" fill="#E50058"/>
<path d="M9.73751 13.0117C11.7363 13.0117 13.3566 11.3914 13.3566 9.39261C13.3566 7.39386 11.7363 5.77356 9.73751 5.77356C7.73877 5.77356 6.11847 7.39386 6.11847 9.39261C6.11847 11.3914 7.73877 13.0117 9.73751 13.0117Z" fill="#F2F2F2"/>
<path d="M27.9376 15.2171C27.9376 15.229 27.9365 15.2421 27.9353 15.254C27.9353 15.2599 27.9342 15.267 27.9331 15.273C27.7783 17.0074 27.3052 18.6522 26.5739 20.146C26.5598 20.1757 26.5453 20.2055 26.53 20.2341C26.5289 20.2389 26.5263 20.2423 26.5241 20.246C26.4229 20.4473 26.318 20.6463 26.2072 20.8427H23.6808C22.1275 20.8427 20.8673 22.1029 20.8673 23.6562V26.1981C20.5589 26.3744 20.242 26.5377 19.9192 26.6888C19.9025 26.697 19.8846 26.7055 19.8667 26.7126C19.8239 26.7327 19.7809 26.7531 19.7381 26.7721C18.8149 27.1879 17.8393 27.5071 16.8234 27.7154C16.3064 27.8214 15.7789 27.8999 15.2415 27.9464V23.6559C15.2415 22.1026 13.9813 20.8424 12.428 20.8424H9.54532C8.37922 20.8424 7.32395 20.3696 6.55921 19.606C5.7956 18.8424 5.32281 17.7871 5.32281 16.621C5.32281 15.8455 5.95178 15.2165 6.72729 15.2165H12.428C13.9813 15.2165 15.2415 13.9575 15.2415 12.4031V6.70266C15.2415 6.31434 15.3988 5.96428 15.6525 5.71031C15.9073 5.45663 16.2588 5.29932 16.6459 5.29932C18.977 5.29932 20.8673 7.18962 20.8673 9.52069V12.4033C20.8673 13.9578 22.1275 15.2168 23.6808 15.2168H27.9376V15.2171Z" fill="#F2F2F2"/>
</svg>
