<svg width="60" height="60" viewBox="0 0 60 60" fill="none" xmlns="http://www.w3.org/2000/svg">
<g filter="url(#filter0_d)">
<path d="M43.8435 39.7712H47.4526C45.6592 42.9669 43.0146 45.6216 39.8242 47.4219V43.7905C39.8242 41.5699 41.6245 39.7712 43.8435 39.7712Z" fill="#E50058"/>
<path d="M50 30.0004C50 30.3835 49.9899 30.7645 49.966 31.1423C49.9575 31.3395 49.9437 31.5371 49.9267 31.7327H43.8435C41.6246 31.7327 39.8243 29.934 39.8243 27.715V23.5969C39.8243 20.2652 37.1238 17.5648 33.7937 17.5648C33.239 17.5648 32.7389 17.7895 32.3745 18.1519C32.0121 18.516 31.7873 19.0164 31.7873 19.5712V27.715C31.7873 29.934 29.987 31.7327 27.7681 31.7327H19.6242C18.5164 31.7327 17.6178 32.6312 17.6178 33.7391C17.6178 35.4049 18.2932 36.9125 19.3841 38.0049C20.4766 39.0958 21.9841 39.7712 23.65 39.7712H27.7681C29.987 39.7712 31.7873 41.5699 31.7873 43.7905V49.9198C31.3942 49.9555 30.9977 49.9794 30.5981 49.9915C30.5454 49.9931 30.4908 49.9947 30.4381 49.9968C30.292 49.9984 30.1454 50 30.0008 50C18.9537 50 10 41.0459 10 30.0008C10 18.9557 18.9541 10 30.0008 10C41.0459 9.9996 50 18.9553 50 30.0004Z" fill="#E50058"/>
<path d="M23.9108 28.5881C26.7661 28.5881 29.0809 26.2733 29.0809 23.418C29.0809 20.5626 26.7661 18.2479 23.9108 18.2479C21.0554 18.2479 18.7407 20.5626 18.7407 23.418C18.7407 26.2733 21.0554 28.5881 23.9108 28.5881Z" fill="#F2F2F2"/>
<path d="M49.911 31.7387C49.911 31.7557 49.9094 31.7744 49.9077 31.7914C49.9077 31.7999 49.9061 31.81 49.9045 31.8185C49.6834 34.2962 49.0076 36.646 47.9629 38.7799C47.9426 38.8225 47.922 38.865 47.9001 38.9059C47.8985 38.9128 47.8949 38.9176 47.8916 38.9229C47.7471 39.2104 47.5972 39.4946 47.4389 39.7752H43.8298C41.6109 39.7752 39.8106 41.5755 39.8106 43.7945V47.4259C39.37 47.6777 38.9173 47.911 38.4561 48.1268C38.4322 48.1385 38.4067 48.1507 38.3812 48.1608C38.32 48.1896 38.2585 48.2187 38.1973 48.2458C36.8785 48.8399 35.4848 49.2958 34.0335 49.5934C33.2949 49.7449 32.5414 49.857 31.7736 49.9235V43.7941C31.7736 41.5751 29.9733 39.7748 27.7544 39.7748H23.6363C21.9704 39.7748 20.4629 39.0994 19.3704 38.0086C18.2795 36.9177 17.6041 35.4102 17.6041 33.7443C17.6041 32.6364 18.5027 31.7379 19.6105 31.7379H27.7544C29.9733 31.7379 31.7736 29.9392 31.7736 27.7186V19.5752C31.7736 19.0205 31.9984 18.5204 32.3608 18.1576C32.7248 17.7952 33.2269 17.5704 33.78 17.5704C37.1101 17.5704 39.8106 20.2709 39.8106 23.601V27.719C39.8106 29.9396 41.6109 31.7383 43.8298 31.7383H49.911V31.7387Z" fill="#F2F2F2"/>
</g>
<defs>
<filter id="filter0_d" x="0" y="0" width="60" height="60" filterUnits="userSpaceOnUse" color-interpolation-filters="sRGB">
<feFlood flood-opacity="0" result="BackgroundImageFix"/>
<feColorMatrix in="SourceAlpha" type="matrix" values="0 0 0 0 0 0 0 0 0 0 0 0 0 0 0 0 0 0 127 0"/>
<feOffset/>
<feGaussianBlur stdDeviation="5"/>
<feColorMatrix type="matrix" values="0 0 0 0 0 0 0 0 0 0 0 0 0 0 0 0 0 0 0.15 0"/>
<feBlend mode="normal" in2="BackgroundImageFix" result="effect1_dropShadow"/>
<feBlend mode="normal" in="SourceGraphic" in2="effect1_dropShadow" result="shape"/>
</filter>
</defs>
</svg>
