<svg width="988" height="989" viewBox="0 0 988 989" fill="none" xmlns="http://www.w3.org/2000/svg">
<path d="M835.84 736.2H924.97C880.68 815.12 815.37 880.68 736.58 925.14V835.46C736.58 780.62 781.04 736.2 835.84 736.2Z" fill="#E50058"/>
<path d="M987.88 494.9C987.88 504.36 987.63 513.77 987.04 523.1C986.83 527.97 986.49 532.85 986.07 537.68H835.84C781.04 537.68 736.58 493.26 736.58 438.46V336.76C736.58 254.48 669.89 187.79 587.65 187.79C573.95 187.79 561.6 193.34 552.6 202.29C543.65 211.28 538.1 223.64 538.1 237.34V438.46C538.1 493.26 493.64 537.68 438.84 537.68H237.72C210.36 537.68 188.17 559.87 188.17 587.23C188.17 628.37 204.85 665.6 231.79 692.58C258.77 719.52 296 736.2 337.14 736.2H438.84C493.64 736.2 538.1 780.62 538.1 835.46V986.83C528.39 987.71 518.6 988.3 508.73 988.6C507.43 988.64 506.08 988.68 504.78 988.73C501.17 988.77 497.55 988.81 493.98 988.81C221.16 988.81 0.0400391 767.68 0.0400391 494.91C0.0400391 222.14 221.17 0.969971 493.98 0.969971C766.75 0.959971 987.88 222.13 987.88 494.9Z" fill="#E50058"/>
<path d="M343.58 460.02C414.096 460.02 471.26 402.856 471.26 332.34C471.26 261.824 414.096 204.66 343.58 204.66C273.064 204.66 215.9 261.824 215.9 332.34C215.9 402.856 273.064 460.02 343.58 460.02Z" fill="#F2F2F2"/>
<path d="M985.68 537.83C985.68 538.25 985.64 538.71 985.6 539.13C985.6 539.34 985.56 539.59 985.52 539.8C980.06 600.99 963.37 659.02 937.57 711.72C937.07 712.77 936.56 713.82 936.02 714.83C935.98 715 935.89 715.12 935.81 715.25C932.24 722.35 928.54 729.37 924.63 736.3H835.5C780.7 736.3 736.24 780.76 736.24 835.56V925.24C725.36 931.46 714.18 937.22 702.79 942.55C702.2 942.84 701.57 943.14 700.94 943.39C699.43 944.1 697.91 944.82 696.4 945.49C663.83 960.16 629.41 971.42 593.57 978.77C575.33 982.51 556.72 985.28 537.76 986.92V835.55C537.76 780.75 493.3 736.29 438.5 736.29H336.8C295.66 736.29 258.43 719.61 231.45 692.67C204.51 665.73 187.83 628.5 187.83 587.36C187.83 560 210.02 537.81 237.38 537.81H438.5C493.3 537.81 537.76 493.39 537.76 438.55V237.44C537.76 223.74 543.31 211.39 552.26 202.43C561.25 193.48 573.65 187.93 587.31 187.93C669.55 187.93 736.24 254.62 736.24 336.86V438.56C736.24 493.4 780.7 537.82 835.5 537.82H985.68V537.83Z" fill="#F2F2F2"/>
</svg>
