<svg width="561" height="562" viewBox="0 0 561 562" fill="none" xmlns="http://www.w3.org/2000/svg">
<path d="M97.2801 170.87C141.297 170.87 176.98 135.187 176.98 91.17C176.98 47.1529 141.297 11.47 97.2801 11.47C53.263 11.47 17.5801 47.1529 17.5801 91.17C17.5801 135.187 53.263 170.87 97.2801 170.87Z" fill="#E50058"/>
<path d="M467.5 219.36H404.54C370.33 219.36 342.59 191.62 342.59 157.41V93.9299C342.59 42.5799 300.96 0.949951 249.61 0.949951C232.53 0.949951 218.69 14.7899 218.69 31.8699V157.41C218.69 191.62 190.95 219.36 156.74 219.36H31.2C14.12 219.36 0.280029 233.2 0.280029 250.28C0.280029 301.63 41.91 343.26 93.26 343.26H156.74C190.95 343.26 218.69 371 218.69 405.21V468.17C218.69 519.81 260.55 561.67 312.19 561.67C328.98 561.67 342.59 548.06 342.59 531.27V405.21C342.59 371 370.33 343.26 404.54 343.26H530.6C547.39 343.26 561 329.65 561 312.86C561 261.22 519.14 219.36 467.5 219.36Z" fill="#E50058"/>
</svg>
