<svg width="239" height="60" viewBox="0 0 239 60" fill="none" xmlns="http://www.w3.org/2000/svg">
<path d="M80.348 43C80.096 43 79.916 42.892 79.736 42.712C79.556 42.532 79.448 42.352 79.448 42.1V18.736C79.448 18.484 79.52 18.232 79.7 18.052C79.88 17.872 80.096 17.8 80.348 17.8H90.536C93.668 17.8 96.116 18.52 97.88 19.924C99.644 21.328 100.544 23.416 100.544 26.152C100.544 28.888 99.644 30.94 97.88 32.272C96.116 33.64 93.668 34.324 90.536 34.324H86.432V42.1C86.432 42.352 86.36 42.532 86.18 42.712C86 42.892 85.784 43 85.532 43H80.348ZM86.324 29.176H90.356C91.328 29.176 92.12 28.924 92.696 28.384C93.236 27.88 93.524 27.124 93.524 26.116C93.524 25.18 93.272 24.424 92.768 23.848C92.228 23.272 91.436 22.984 90.356 22.984H86.324V29.176ZM103.414 24.28V24.172V23.92V19.456C103.414 18.988 103.846 18.556 104.35 18.556H104.89C107.554 18.556 109.75 20.68 109.75 23.272V23.92L109.822 42.1C109.822 42.352 109.75 42.532 109.57 42.712C109.39 42.892 109.174 43 108.922 43H104.422C104.17 43 103.954 42.928 103.774 42.748C103.594 42.568 103.486 42.352 103.486 42.1C103.486 42.1 103.414 27.088 103.414 24.352V24.28ZM120.803 43.36C118.679 43.36 116.987 42.64 115.691 41.236C114.395 39.832 113.747 37.816 113.747 35.224V25.18C113.747 24.928 113.855 24.712 114.035 24.532C114.215 24.352 114.395 24.28 114.647 24.28H119.435C119.687 24.28 119.939 24.352 120.119 24.532C120.299 24.712 120.371 24.928 120.371 25.18V35.008C120.371 37.24 121.379 38.356 123.359 38.356C124.331 38.356 125.087 38.068 125.627 37.456C126.167 36.88 126.419 36.052 126.419 35.008V25.18C126.419 24.928 126.527 24.712 126.707 24.532C126.887 24.352 127.103 24.28 127.355 24.28H132.107C132.359 24.28 132.575 24.352 132.755 24.532C132.935 24.712 133.007 24.928 133.007 25.18V42.1C133.007 42.352 132.935 42.532 132.755 42.712C132.575 42.892 132.359 43 132.107 43H127.715C127.463 43 127.247 42.928 127.067 42.748C126.887 42.568 126.779 42.352 126.779 42.1V40.732C125.519 42.496 123.539 43.36 120.803 43.36ZM144.943 43.36C142.963 43.36 141.343 43.072 140.011 42.532C138.679 41.992 137.707 41.308 137.095 40.552C136.447 39.796 136.123 39.076 136.123 38.464C136.123 38.212 136.231 38.032 136.411 37.852C136.591 37.708 136.771 37.636 136.987 37.636H141.343C141.487 37.636 141.595 37.672 141.703 37.78C142.099 38.032 142.351 38.212 142.387 38.248C142.855 38.572 143.287 38.824 143.683 39.004C144.079 39.184 144.547 39.292 145.087 39.292C145.735 39.292 146.275 39.148 146.707 38.896C147.103 38.644 147.319 38.32 147.319 37.852C147.319 37.456 147.211 37.168 146.995 36.916C146.743 36.664 146.311 36.448 145.699 36.196C145.051 35.98 144.079 35.764 142.783 35.512C138.643 34.684 136.555 32.74 136.555 29.752C136.555 28.78 136.879 27.808 137.527 26.908C138.139 26.008 139.075 25.288 140.335 24.748C141.559 24.208 143.035 23.92 144.763 23.92C146.527 23.92 148.039 24.172 149.335 24.712C150.595 25.252 151.567 25.9 152.251 26.656C152.935 27.412 153.259 28.132 153.259 28.744C153.259 28.96 153.187 29.14 153.043 29.32C152.863 29.5 152.683 29.572 152.467 29.572H148.507C148.291 29.572 148.111 29.536 148.003 29.428C147.715 29.284 147.427 29.104 147.139 28.888C146.707 28.6 146.347 28.384 146.023 28.204C145.699 28.06 145.267 27.988 144.763 27.988C144.151 27.988 143.683 28.132 143.359 28.384C143.035 28.636 142.855 28.996 142.855 29.392C142.855 29.752 142.963 30.04 143.179 30.256C143.359 30.508 143.791 30.724 144.439 30.94C145.051 31.156 146.023 31.372 147.319 31.624C149.659 32.02 151.387 32.74 152.467 33.784C153.511 34.828 154.051 36.052 154.051 37.456C154.051 39.256 153.259 40.696 151.675 41.74C150.055 42.82 147.823 43.36 144.943 43.36ZM167.901 43C167.649 43 167.469 42.928 167.325 42.748C167.181 42.604 167.109 42.424 167.109 42.172V18.664C167.109 18.412 167.181 18.196 167.325 18.016C167.469 17.872 167.649 17.8 167.901 17.8H177.009C179.709 17.8 181.869 18.448 183.417 19.744C184.965 21.076 185.721 22.984 185.721 25.468C185.721 27.952 184.965 29.86 183.417 31.156C181.869 32.452 179.709 33.1 177.009 33.1H170.529V42.172C170.529 42.424 170.457 42.604 170.313 42.748C170.133 42.928 169.953 43 169.701 43H167.901ZM170.529 30.184H176.829C180.465 30.184 182.265 28.6 182.265 25.468C182.265 23.92 181.833 22.768 180.933 21.94C180.033 21.112 178.665 20.716 176.829 20.716H170.529V30.184ZM190.964 43C190.712 43 190.532 42.928 190.388 42.748C190.244 42.604 190.172 42.424 190.172 42.172V18.664C190.172 18.412 190.244 18.196 190.388 18.016C190.532 17.872 190.712 17.8 190.964 17.8H200.072C202.772 17.8 204.932 18.448 206.48 19.744C208.028 21.076 208.784 22.984 208.784 25.468C208.784 27.952 208.028 29.86 206.48 31.156C204.932 32.452 202.772 33.1 200.072 33.1H193.592V42.172C193.592 42.424 193.52 42.604 193.376 42.748C193.196 42.928 193.016 43 192.764 43H190.964ZM193.592 30.184H199.892C203.528 30.184 205.328 28.6 205.328 25.468C205.328 23.92 204.896 22.768 203.996 21.94C203.096 21.112 201.728 20.716 199.892 20.716H193.592V30.184ZM213.27 19.276V16.432C213.27 16.144 213.486 15.928 213.738 15.928H214.062C215.502 15.928 216.654 17.152 216.654 18.664V19.276C216.654 19.312 216.654 19.384 216.654 19.42C216.618 23.2 216.618 39.976 216.618 39.976H228.642C228.894 39.976 229.11 40.048 229.29 40.192C229.434 40.372 229.506 40.552 229.506 40.804V42.172C229.506 42.424 229.434 42.604 229.254 42.748C229.074 42.928 228.894 43 228.642 43H214.026C213.774 43 213.594 42.928 213.45 42.748C213.306 42.604 213.234 42.424 213.234 42.172L213.27 19.456C213.27 19.42 213.27 19.348 213.27 19.276Z" fill="#FCFCFC"/>
<g filter="url(#filter0_d)">
<path d="M43.8435 39.7712H47.4526C45.6592 42.9669 43.0146 45.6216 39.8242 47.4219V43.7905C39.8242 41.5699 41.6245 39.7712 43.8435 39.7712Z" fill="#E50058"/>
<path d="M50 30.0004C50 30.3835 49.9899 30.7645 49.966 31.1423C49.9575 31.3395 49.9437 31.5371 49.9267 31.7327H43.8435C41.6246 31.7327 39.8243 29.934 39.8243 27.715V23.5969C39.8243 20.2652 37.1238 17.5648 33.7937 17.5648C33.239 17.5648 32.7389 17.7895 32.3745 18.1519C32.0121 18.516 31.7873 19.0164 31.7873 19.5712V27.715C31.7873 29.934 29.987 31.7327 27.7681 31.7327H19.6242C18.5164 31.7327 17.6178 32.6312 17.6178 33.7391C17.6178 35.4049 18.2932 36.9125 19.3841 38.0049C20.4766 39.0958 21.9841 39.7712 23.65 39.7712H27.7681C29.987 39.7712 31.7873 41.5699 31.7873 43.7905V49.9198C31.3942 49.9555 30.9977 49.9794 30.5981 49.9915C30.5454 49.9931 30.4908 49.9947 30.4381 49.9968C30.292 49.9984 30.1454 50 30.0008 50C18.9537 50 10 41.0459 10 30.0008C10 18.9557 18.9541 10 30.0008 10C41.0459 9.9996 50 18.9553 50 30.0004Z" fill="#E50058"/>
<path d="M23.9108 28.5879C26.7661 28.5879 29.0809 26.2732 29.0809 23.4179C29.0809 20.5625 26.7661 18.2478 23.9108 18.2478C21.0554 18.2478 18.7407 20.5625 18.7407 23.4179C18.7407 26.2732 21.0554 28.5879 23.9108 28.5879Z" fill="#F2F2F2"/>
<path d="M49.911 31.7388C49.911 31.7559 49.9093 31.7745 49.9077 31.7915C49.9077 31.8 49.9061 31.8101 49.9045 31.8186C49.6834 34.2963 49.0076 36.6461 47.9629 38.7801C47.9426 38.8226 47.922 38.8651 47.9001 38.906C47.8985 38.9129 47.8948 38.9177 47.8916 38.923C47.747 39.2105 47.5972 39.4948 47.4389 39.7754H43.8298C41.6108 39.7754 39.8105 41.5757 39.8105 43.7946V47.426C39.37 47.6779 38.9173 47.9111 38.4561 48.1269C38.4322 48.1387 38.4067 48.1508 38.3811 48.1609C38.32 48.1897 38.2585 48.2188 38.1973 48.246C36.8785 48.84 35.4847 49.2959 34.0335 49.5936C33.2949 49.745 32.5413 49.8572 31.7736 49.9236V43.7942C31.7736 41.5753 29.9733 39.775 27.7543 39.775H23.6363C21.9704 39.775 20.4629 39.0996 19.3704 38.0087C18.2795 36.9178 17.6041 35.4103 17.6041 33.7444C17.6041 32.6366 18.5026 31.738 19.6105 31.738H27.7543C29.9733 31.738 31.7736 29.9394 31.7736 27.7188V19.5753C31.7736 19.0206 31.9983 18.5205 32.3607 18.1577C32.7248 17.7953 33.2269 17.5706 33.78 17.5706C37.1101 17.5706 39.8105 20.271 39.8105 23.6011V27.7192C39.8105 29.9398 41.6108 31.7384 43.8298 31.7384H49.911V31.7388Z" fill="#F2F2F2"/>
</g>
<defs>
<filter id="filter0_d" x="0" y="0" width="60" height="60" filterUnits="userSpaceOnUse" color-interpolation-filters="sRGB">
<feFlood flood-opacity="0" result="BackgroundImageFix"/>
<feColorMatrix in="SourceAlpha" type="matrix" values="0 0 0 0 0 0 0 0 0 0 0 0 0 0 0 0 0 0 127 0"/>
<feOffset/>
<feGaussianBlur stdDeviation="5"/>
<feColorMatrix type="matrix" values="0 0 0 0 0 0 0 0 0 0 0 0 0 0 0 0 0 0 0.15 0"/>
<feBlend mode="normal" in2="BackgroundImageFix" result="effect1_dropShadow"/>
<feBlend mode="normal" in="SourceGraphic" in2="effect1_dropShadow" result="shape"/>
</filter>
</defs>
</svg>
