<svg width="308" height="101" viewBox="0 0 308 101" fill="none" xmlns="http://www.w3.org/2000/svg">
<path d="M79.0295 70.2836H86.3375C82.706 76.7544 77.3511 82.1299 70.8909 85.7753V78.4222C70.8909 73.9257 74.5363 70.2836 79.0295 70.2836Z" fill="#E50058"/>
<g filter="url(#filter0_d)">
<path d="M91.4958 50.4988C91.4958 51.2744 91.4754 52.046 91.427 52.811C91.4098 53.2103 91.3819 53.6104 91.3474 54.0064H79.0296C74.5364 54.0064 70.891 50.3643 70.891 45.8711V37.5324C70.891 30.786 65.4229 25.3179 58.6798 25.3179C57.5565 25.3179 56.5439 25.773 55.806 26.5068C55.0721 27.2439 54.6171 28.2574 54.6171 29.3807V45.8711C54.6171 50.3643 50.9717 54.0064 46.4785 54.0064H29.9881C27.7447 54.0064 25.9253 55.8258 25.9253 58.0692C25.9253 61.4423 27.293 64.4949 29.5019 66.7071C31.714 68.916 34.7666 70.2836 38.1398 70.2836H46.4785C50.9717 70.2836 54.6171 73.9258 54.6171 78.4222V90.8335C53.8209 90.9057 53.0182 90.954 52.209 90.9786C52.1024 90.9819 51.9917 90.9852 51.8851 90.9893C51.5891 90.9926 51.2923 90.9959 50.9996 90.9959C28.6303 90.9959 10.5 72.8648 10.5 50.4996C10.5 28.1344 28.6311 10 50.9996 10C73.3648 9.99918 91.4958 28.1336 91.4958 50.4988Z" fill="#E50058"/>
</g>
<path d="M38.6679 47.6386C44.4497 47.6386 49.1368 42.9516 49.1368 37.1698C49.1368 31.388 44.4497 26.7009 38.6679 26.7009C32.8862 26.7009 28.1991 31.388 28.1991 37.1698C28.1991 42.9516 32.8862 47.6386 38.6679 47.6386Z" fill="#F2F2F2"/>
<path d="M91.3154 54.0188C91.3154 54.0532 91.3121 54.0909 91.3088 54.1254C91.3088 54.1426 91.3055 54.1631 91.3023 54.1803C90.8546 59.1975 89.4861 63.9555 87.3707 68.2765C87.3297 68.3626 87.2879 68.4487 87.2436 68.5315C87.2403 68.5455 87.233 68.5553 87.2264 68.566C86.9337 69.1481 86.6303 69.7237 86.3097 70.2919H79.0017C74.5085 70.2919 70.8631 73.9373 70.8631 78.4305V85.7836C69.971 86.2936 69.0543 86.7659 68.1204 87.2029C68.072 87.2267 68.0204 87.2513 67.9687 87.2718C67.8449 87.33 67.7203 87.3891 67.5965 87.444C64.926 88.6468 62.1038 89.5701 59.1651 90.1727C57.6696 90.4794 56.1437 90.7065 54.5891 90.841V78.4297C54.5891 73.9365 50.9437 70.2911 46.4505 70.2911H38.1118C34.7386 70.2911 31.686 68.9235 29.4739 66.7146C27.265 64.5057 25.8973 61.4531 25.8973 58.0799C25.8973 55.8366 27.7168 54.0171 29.9601 54.0171H46.4505C50.9437 54.0171 54.5891 50.375 54.5891 45.8785V29.3889C54.5891 28.2656 55.0442 27.253 55.778 26.5184C56.5151 25.7845 57.5318 25.3295 58.6519 25.3295C65.395 25.3295 70.8631 30.7976 70.8631 37.5407V45.8793C70.8631 50.3758 74.5085 54.018 79.0017 54.018H91.3154V54.0188Z" fill="#F2F2F2"/>
<path d="M121.4 63.5892C121.148 63.5892 120.968 63.4812 120.788 63.3012C120.608 63.1212 120.5 62.9412 120.5 62.6892V39.3252C120.5 39.0732 120.572 38.8212 120.752 38.6412C120.932 38.4612 121.148 38.3892 121.4 38.3892H131.588C134.72 38.3892 137.168 39.1092 138.932 40.5132C140.696 41.9172 141.596 44.0052 141.596 46.7412C141.596 49.4772 140.696 51.5292 138.932 52.8612C137.168 54.2292 134.72 54.9132 131.588 54.9132H127.484V62.6892C127.484 62.9412 127.412 63.1212 127.232 63.3012C127.052 63.4812 126.836 63.5892 126.584 63.5892H121.4ZM127.376 49.7652H131.408C132.38 49.7652 133.172 49.5132 133.748 48.9732C134.288 48.4692 134.576 47.7132 134.576 46.7052C134.576 45.7692 134.324 45.0132 133.82 44.4372C133.28 43.8612 132.488 43.5732 131.408 43.5732H127.376V49.7652ZM144.465 44.8692V44.7612V44.5092V40.0452C144.465 39.5772 144.897 39.1452 145.401 39.1452H145.941C148.605 39.1452 150.801 41.2692 150.801 43.8612V44.5092L150.873 62.6892C150.873 62.9412 150.801 63.1212 150.621 63.3012C150.441 63.4812 150.225 63.5892 149.973 63.5892H145.473C145.221 63.5892 145.005 63.5172 144.825 63.3372C144.645 63.1572 144.537 62.9412 144.537 62.6892C144.537 62.6892 144.465 47.6772 144.465 44.9412V44.8692ZM161.855 63.9492C159.731 63.9492 158.039 63.2292 156.743 61.8252C155.447 60.4212 154.799 58.4052 154.799 55.8132V45.7692C154.799 45.5172 154.907 45.3012 155.087 45.1212C155.267 44.9412 155.447 44.8692 155.699 44.8692H160.487C160.739 44.8692 160.991 44.9412 161.171 45.1212C161.351 45.3012 161.423 45.5172 161.423 45.7692V55.5972C161.423 57.8292 162.431 58.9452 164.411 58.9452C165.383 58.9452 166.139 58.6572 166.679 58.0452C167.219 57.4692 167.471 56.6412 167.471 55.5972V45.7692C167.471 45.5172 167.579 45.3012 167.759 45.1212C167.939 44.9412 168.155 44.8692 168.407 44.8692H173.159C173.411 44.8692 173.627 44.9412 173.807 45.1212C173.987 45.3012 174.059 45.5172 174.059 45.7692V62.6892C174.059 62.9412 173.987 63.1212 173.807 63.3012C173.627 63.4812 173.411 63.5892 173.159 63.5892H168.767C168.515 63.5892 168.299 63.5172 168.119 63.3372C167.939 63.1572 167.831 62.9412 167.831 62.6892V61.3212C166.571 63.0852 164.591 63.9492 161.855 63.9492ZM185.995 63.9492C184.015 63.9492 182.395 63.6612 181.063 63.1212C179.731 62.5812 178.759 61.8972 178.147 61.1412C177.499 60.3852 177.175 59.6652 177.175 59.0532C177.175 58.8012 177.283 58.6212 177.463 58.4412C177.643 58.2972 177.823 58.2252 178.039 58.2252H182.395C182.539 58.2252 182.647 58.2612 182.755 58.3692C183.151 58.6212 183.403 58.8012 183.439 58.8372C183.907 59.1612 184.339 59.4132 184.735 59.5932C185.131 59.7732 185.599 59.8812 186.139 59.8812C186.787 59.8812 187.327 59.7372 187.759 59.4852C188.155 59.2332 188.371 58.9092 188.371 58.4412C188.371 58.0452 188.263 57.7572 188.047 57.5052C187.795 57.2532 187.363 57.0372 186.751 56.7852C186.103 56.5692 185.131 56.3532 183.835 56.1012C179.695 55.2732 177.607 53.3292 177.607 50.3412C177.607 49.3692 177.931 48.3972 178.579 47.4972C179.191 46.5972 180.127 45.8772 181.387 45.3372C182.611 44.7972 184.087 44.5092 185.815 44.5092C187.579 44.5092 189.091 44.7612 190.387 45.3012C191.647 45.8412 192.619 46.4892 193.303 47.2452C193.987 48.0012 194.311 48.7212 194.311 49.3332C194.311 49.5492 194.239 49.7292 194.095 49.9092C193.915 50.0892 193.735 50.1612 193.519 50.1612H189.559C189.343 50.1612 189.163 50.1252 189.055 50.0172C188.767 49.8732 188.479 49.6932 188.191 49.4772C187.759 49.1892 187.399 48.9732 187.075 48.7932C186.751 48.6492 186.319 48.5772 185.815 48.5772C185.203 48.5772 184.735 48.7212 184.411 48.9732C184.087 49.2252 183.907 49.5852 183.907 49.9812C183.907 50.3412 184.015 50.6292 184.231 50.8452C184.411 51.0972 184.843 51.3132 185.491 51.5292C186.103 51.7452 187.075 51.9612 188.371 52.2132C190.711 52.6092 192.439 53.3292 193.519 54.3732C194.563 55.4172 195.103 56.6412 195.103 58.0452C195.103 59.8452 194.311 61.2852 192.727 62.3292C191.107 63.4092 188.875 63.9492 185.995 63.9492ZM207.653 63.5892C207.401 63.5892 207.221 63.5172 207.077 63.3372C206.933 63.1932 206.861 63.0132 206.861 62.7612V39.2532C206.861 39.0012 206.933 38.7852 207.077 38.6052C207.221 38.4612 207.401 38.3892 207.653 38.3892H216.761C219.461 38.3892 221.621 39.0372 223.169 40.3332C224.717 41.6652 225.473 43.5732 225.473 46.0572C225.473 48.5412 224.717 50.4492 223.169 51.7452C221.621 53.0412 219.461 53.6892 216.761 53.6892H210.281V62.7612C210.281 63.0132 210.209 63.1932 210.065 63.3372C209.885 63.5172 209.705 63.5892 209.453 63.5892H207.653ZM210.281 50.7732H216.581C220.217 50.7732 222.017 49.1892 222.017 46.0572C222.017 44.5092 221.585 43.3572 220.685 42.5292C219.785 41.7012 218.417 41.3052 216.581 41.3052H210.281V50.7732ZM230.715 63.5892C230.463 63.5892 230.283 63.5172 230.139 63.3372C229.995 63.1932 229.923 63.0132 229.923 62.7612V39.2532C229.923 39.0012 229.995 38.7852 230.139 38.6052C230.283 38.4612 230.463 38.3892 230.715 38.3892H239.823C242.523 38.3892 244.683 39.0372 246.231 40.3332C247.779 41.6652 248.535 43.5732 248.535 46.0572C248.535 48.5412 247.779 50.4492 246.231 51.7452C244.683 53.0412 242.523 53.6892 239.823 53.6892H233.343V62.7612C233.343 63.0132 233.271 63.1932 233.127 63.3372C232.947 63.5172 232.767 63.5892 232.515 63.5892H230.715ZM233.343 50.7732H239.643C243.279 50.7732 245.079 49.1892 245.079 46.0572C245.079 44.5092 244.647 43.3572 243.747 42.5292C242.847 41.7012 241.479 41.3052 239.643 41.3052H233.343V50.7732ZM253.022 39.8652V37.0212C253.022 36.7332 253.238 36.5172 253.49 36.5172H253.814C255.254 36.5172 256.406 37.7412 256.406 39.2532V39.8652C256.406 39.9012 256.406 39.9732 256.406 40.0092C256.37 43.7892 256.37 60.5652 256.37 60.5652H268.394C268.646 60.5652 268.862 60.6372 269.042 60.7812C269.186 60.9612 269.258 61.1412 269.258 61.3932V62.7612C269.258 63.0132 269.186 63.1932 269.006 63.3372C268.826 63.5172 268.646 63.5892 268.394 63.5892H253.778C253.526 63.5892 253.346 63.5172 253.202 63.3372C253.058 63.1932 252.986 63.0132 252.986 62.7612L253.022 40.0452C253.022 40.0092 253.022 39.9372 253.022 39.8652Z" fill="white"/>
<defs>
<filter id="filter0_d" x="0.5" y="0" width="100.996" height="100.996" filterUnits="userSpaceOnUse" color-interpolation-filters="sRGB">
<feFlood flood-opacity="0" result="BackgroundImageFix"/>
<feColorMatrix in="SourceAlpha" type="matrix" values="0 0 0 0 0 0 0 0 0 0 0 0 0 0 0 0 0 0 127 0"/>
<feOffset/>
<feGaussianBlur stdDeviation="5"/>
<feColorMatrix type="matrix" values="0 0 0 0 0 0 0 0 0 0 0 0 0 0 0 0 0 0 0.15 0"/>
<feBlend mode="normal" in2="BackgroundImageFix" result="effect1_dropShadow"/>
<feBlend mode="normal" in="SourceGraphic" in2="effect1_dropShadow" result="shape"/>
</filter>
</defs>
</svg>
