<svg width="16" height="17" viewBox="0 0 16 17" fill="none" xmlns="http://www.w3.org/2000/svg">
<path d="M0 8.5C0 10.0621 1.26682 11.3333 2.82353 11.3333C3.57082 11.3333 4.24659 11.0358 4.752 10.5589L10.3906 13.7927C10.3736 13.9154 10.3529 14.0382 10.3529 14.1667C10.3529 15.7288 11.6198 17 13.1765 17C14.7332 17 16 15.7288 16 14.1667C16 12.6046 14.7332 11.3333 13.1765 11.3333C12.4292 11.3333 11.7534 11.6308 11.248 12.1078L5.60941 8.87494C5.62635 8.75122 5.64706 8.62844 5.64706 8.5C5.64706 8.37156 5.62635 8.24878 5.60941 8.12506L11.248 4.89222C11.7534 5.36917 12.4292 5.66667 13.1765 5.66667C14.7332 5.66667 16 4.39544 16 2.83333C16 1.27122 14.7332 0 13.1765 0C11.6198 0 10.3529 1.27122 10.3529 2.83333C10.3529 2.96178 10.3736 3.08456 10.3906 3.20828L4.752 6.44111C4.23153 5.94497 3.5414 5.66783 2.82353 5.66667C1.26682 5.66667 0 6.93789 0 8.5Z" fill="#333333"/>
</svg>
