<svg width="162" height="260" viewBox="0 0 162 260" fill="none" xmlns="http://www.w3.org/2000/svg">
<g opacity="0.4">
<g opacity="0.07">
<path opacity="0.07" d="M125.68 92.7361C115.817 98.7891 103.922 99.507 95.5497 99.0134C94.8497 99.3185 93.5754 99.7403 91.9377 99.7403C89.5371 99.7403 87.1949 98.8698 84.9649 97.1513L84.7675 96.9763C83.1881 95.3969 80.8863 95.4149 80.6843 95.4194L79.0107 95.5226L78.58 93.8758C78.4498 93.3688 78.0864 91.6054 78.9793 90.1517C79.1139 89.9363 79.2665 89.7344 79.4459 89.5549C79.4504 87.7511 80.0292 84.359 84.0047 82.7123L87.6436 81.2046C87.7109 81.1418 87.7827 81.088 87.859 81.0341C89.2455 80.056 90.5871 80.4374 96.124 84.7224L96.972 84.8705L97.0304 85.2609C98.206 85.1577 101.876 84.1885 110.855 77.5029C111.806 76.2196 115.4 71.607 120.47 67.8155C122.05 64.558 124.15 59.4922 124.15 57.8051C124.15 56.6654 125.078 55.7411 126.214 55.7411C127.353 55.7411 128.278 56.6699 128.278 57.8051C128.278 61.2825 124.392 69.2065 123.952 70.0994L123.728 70.5526L123.315 70.8532C117.935 74.7614 114.058 80.1233 114.018 80.1771L113.834 80.4374L113.578 80.6303C100.037 90.7664 96.4471 89.5683 95.267 89.1735C94.567 88.9402 93.9792 88.5229 93.5799 87.9755C91.2153 86.1493 89.9679 85.3327 89.3442 84.9737L85.5886 86.5307C83.1656 87.5358 83.5246 89.7344 83.6188 90.1517L84.0182 91.8118C85.1803 92.1932 86.4501 92.8483 87.5898 93.9521C91.2467 96.7116 93.9747 95.204 94.0735 95.1501L94.6298 94.8136L95.2805 94.8585C103.101 95.379 114.337 94.8271 123.459 89.2587C128.708 86.055 130.858 82.5821 130.876 82.5597C131.454 81.5815 132.72 81.254 133.702 81.8283C134.685 82.4071 135.013 83.6725 134.434 84.6551C134.326 84.8301 131.858 88.9447 125.68 92.7361Z" fill="white" stroke="white" stroke-width="6.4465" stroke-miterlimit="10"/>
<path opacity="0.07" d="M67.9817 84.0046C67.1471 85.4225 66.2093 86.8717 65.1235 88.4108C63.903 90.1338 62.6287 91.794 61.3275 93.342C58.4872 96.6892 55.4989 99.6372 52.4343 102.101C50.7741 103.433 49.0511 104.663 47.3012 105.766C45.484 106.884 43.5995 107.884 41.697 108.737C39.8394 109.553 37.8113 110.258 35.6531 110.832C33.6967 111.335 31.6238 111.671 29.2861 111.864C27.0695 111.994 24.9157 111.954 22.9056 111.752C22.5332 111.721 22.1742 111.667 21.8287 111.617C21.6582 111.595 21.4877 111.568 21.2992 111.546L20.5365 111.438L19.6839 111.272C19.5134 111.236 19.3384 111.2 19.1679 111.169C18.8224 111.101 18.4769 111.03 18.1359 110.949L16.57 110.527C12.0785 109.226 8.23318 107.157 5.13718 104.366C3.38727 102.751 1.96039 101.015 0.888 99.2019C-0.247192 97.2142 -1.05933 95.1143 -1.53943 92.9381C-2.35158 88.8999 -2.08685 84.4039 -0.767685 79.9349L-0.749725 79.8721C-0.637543 79.54 -0.525375 79.208 -0.417694 78.876C-0.206802 78.2298 0.0130463 77.5613 0.268799 76.9017L0.286774 76.8568C0.425858 76.5338 0.560455 76.2107 0.695068 75.8876C0.950821 75.264 1.22005 74.6223 1.53413 73.9493L2.91612 71.2122L4.5045 68.4931L4.52696 68.4572C6.61789 65.1144 9.0184 61.8524 11.8587 58.4872C12.2984 57.9577 12.756 57.4507 13.1958 56.9616C13.4291 56.7014 13.6669 56.4411 13.9137 56.1629C14.1021 55.952 14.2906 55.7412 14.479 55.5303C14.9681 54.9829 15.4707 54.4175 15.9822 53.897C17.2116 52.5823 18.6205 51.2048 20.4288 49.5446C23.9555 46.3858 27.2759 43.9718 30.5873 42.1636C34.7736 39.8752 38.9016 38.5471 42.8367 38.2195C47.1801 37.8112 51.6267 38.6368 55.6874 40.6021C59.2904 42.3296 62.7095 44.9545 65.8593 48.4005C67.2548 49.935 68.574 51.5997 69.7854 53.3631C70.5751 54.5207 71.2751 55.6335 71.8988 56.7283C73.8102 55.288 76.8165 52.6048 77.9652 49.2799C79.1004 45.982 82.1829 43.5052 85.6962 41.854C85.104 41.9706 84.5251 42.0469 83.9687 42.0783C83.713 42.0918 83.4572 42.1008 83.197 42.1008C81.9406 42.1008 80.6574 41.9213 79.3651 41.5713L79.2664 41.5444C78.6562 41.3514 78.1581 40.9342 77.8665 40.3643C77.5748 39.7945 77.5165 39.1483 77.7094 38.5381C77.9024 37.9279 78.3197 37.4298 78.8895 37.1382C79.4549 36.842 80.1055 36.7882 80.7202 36.9811C81.7701 37.3132 82.8066 37.4747 83.7893 37.4567C84.2694 37.4478 84.7719 37.3939 85.2969 37.2907C85.786 37.1875 86.2885 37.035 86.7866 36.842C87.7243 36.4696 88.6531 35.9132 89.5371 35.1953C90.412 34.4819 91.2107 33.6383 91.7895 32.8127L91.8165 32.7724C92.4536 31.866 93.6875 31.6237 94.6208 32.2249C95.0875 32.5211 95.406 32.9832 95.5227 33.5217C95.6394 34.0601 95.5406 34.612 95.24 35.0787C94.4593 36.2946 93.508 37.3984 92.3145 38.4663C91.471 39.2112 90.5781 39.8438 89.6537 40.3643C92.0094 39.6868 94.3112 39.3503 96.1643 39.3637L96.6579 36.8061L97.1066 37.367C97.0617 37.201 97.0034 37.026 96.9316 36.842C96.4784 35.6799 96.3752 34.3697 96.6175 32.9563C96.4919 31.2647 96.6355 29.1962 96.8553 28.1912C97.2457 26.3739 97.654 25.2612 98.2059 24.5881C98.2777 23.9599 98.3674 23.2465 98.4931 22.4748C98.2059 22.8741 97.7841 23.1747 97.2726 23.2869C97.1201 23.3228 96.9675 23.3363 96.8149 23.3363C96.4291 23.3363 96.0477 23.2286 95.7112 23.0132C95.2445 22.7171 94.9214 22.2594 94.7958 21.703C94.54 20.5633 94.2125 19.3473 93.7907 17.9968C93.3645 16.6417 92.9427 15.4571 92.503 14.3847C91.9376 13.0297 91.4261 11.9528 90.9011 11.0061C90.237 9.84393 89.5819 8.89269 88.9044 8.11645L88.864 8.07158C88.8416 8.04466 88.8192 8.01325 88.7967 7.99081C88.3884 7.47032 88.2089 6.8242 88.2897 6.1691C88.3705 5.51401 88.7025 4.9307 89.223 4.52239C90.2954 3.68332 91.8523 3.87626 92.6914 4.94865C94.7464 7.57801 95.931 10.508 96.7387 12.7694C97.1694 13.9854 97.5643 15.3046 97.9591 16.8077C98.3315 18.266 98.6097 19.5268 98.8251 20.7652C100.077 15.2956 103.68 8.25555 116.14 8.01325C120.757 7.91454 124.526 9.32344 127.371 12.1906C131.679 16.534 132.486 22.9773 132.625 25.7009C133.285 26.3874 133.819 27.5361 134.304 29.268C134.51 30.0084 134.797 32.0185 134.658 33.9165C135.354 33.8896 136.049 34.2082 136.462 34.8274L136.493 34.8723C136.668 35.137 136.928 35.4645 137.202 35.7696L137.243 35.819C137.323 35.9177 137.418 36.0075 137.507 36.0972L137.655 36.2498C137.821 36.4247 137.943 36.5414 138.086 36.6626L138.575 37.1023L139.096 37.5106L139.132 37.542C139.342 37.717 139.598 37.8875 139.863 38.067C139.966 38.1388 140.074 38.2061 140.15 38.2599C141.505 39.1483 143.112 39.9021 144.915 40.4989L146.221 40.8848C146.486 40.9566 146.755 41.0104 147.024 41.0688C147.204 41.1047 147.379 41.1405 147.589 41.1899C148.15 41.3335 148.752 41.4098 149.384 41.4905C149.676 41.5264 149.972 41.5668 150.241 41.6072L150.542 41.6476L152.933 41.7867L155.85 41.7508C155.899 41.7508 155.944 41.7508 155.998 41.7553C156.729 41.7867 157.407 42.1053 157.901 42.6437C158.394 43.1866 158.65 43.8866 158.618 44.618C158.551 46.0897 157.335 47.2428 155.877 47.2428C155.837 47.2428 155.796 47.2428 155.751 47.2383L152.709 47.1037L149.95 46.7852L149.452 46.6954C149.173 46.6371 148.9 46.5877 148.622 46.5339C148.393 46.4935 148.164 46.4486 147.935 46.4038C148.455 47.0409 148.936 47.7633 149.366 48.5979C153.499 56.652 154.576 61.1928 153.638 66.5951C152.727 71.8359 141.662 93.6022 137.956 99.6686C137.557 106.538 136.067 121.35 130.647 124.67C130.526 126.411 129.969 129.13 127.842 130.858C128.013 136.623 128.39 151.852 127.753 154.54C127.587 155.244 127.708 155.608 127.95 156.33C128.34 157.501 128.879 159.112 127.806 161.732C127.515 162.441 127.591 162.805 127.923 164.088C128.457 166.17 129.184 168.997 127.892 174.897C129.081 176.477 129.942 179.64 128.749 185.971C130.167 187.909 133.15 192.634 133.15 197.965C133.15 203.793 134.555 214.804 134.568 214.921L134.618 215.316L134.519 215.702C134.12 217.227 133.406 219.65 132.45 221.571C133.918 222.015 135.524 222.787 136.336 224.281C136.758 225.057 137.117 226.327 136.448 228C136.161 228.718 135.995 229.248 135.901 229.625L136.309 230.877C136.843 232.519 137.135 235.915 134.829 238.222C134.743 238.307 134.672 238.383 134.613 238.451L142.358 243.485L136.054 242.377C136.646 244.535 136.915 247.299 135.717 249.91C134.241 253.132 130.983 255.214 126.034 256.098C125.446 256.232 124.854 256.3 124.271 256.3C122.041 256.3 119.941 255.308 118.191 253.437C114.651 249.646 113.071 242.902 113.264 240.008C112.658 239.038 110.917 238.105 110.096 237.778L109.226 237.437L108.907 236.557C108.62 235.763 107.844 233.326 108.288 231.159C105.973 229.432 102.253 225.91 102.069 221.037C101.979 218.654 101.607 215.913 101.275 213.494C100.781 209.9 100.396 207.064 100.781 205.234C100.907 204.273 99.018 200.029 96.3079 195.784L96.106 195.371C93.2299 187.357 93.194 185.617 94.1766 184.629C94.6343 183.517 95.7336 178.164 94.6836 171.496C94.4099 169.76 93.9478 168.862 93.6606 168.494C93.1984 169.064 92.3325 170.908 92.5658 174.902C93.0683 183.633 91.6684 187.779 87.8769 188.766C87.85 188.771 87.8275 188.78 87.8051 188.784C87.8634 189.161 88.0384 189.902 88.5769 191.243C90.1294 195.12 89.8063 203.416 89.6134 206.629C90.946 208.63 92.0229 213.238 90.6095 223.787C90.5332 226.224 90.1832 231.9 88.6038 233.816L88.0698 234.462L87.5987 234.511C87.2218 236.777 86.127 240.362 82.9233 242.453C82.2413 243.687 80.4196 246.267 76.5832 247.501C75.7666 249.735 73.0026 253.276 63.7325 253.276C59.618 253.276 56.8899 252.095 55.6111 249.767C53.5785 246.06 56.4547 241.349 56.7912 240.82L56.9617 240.559L57.195 240.362C58.1687 239.532 60.4705 237.176 61.3634 234.771L61.2108 234.762L61.7897 232.366C62.0544 231.262 62.6287 228.916 63.0639 227.314C62.4089 226.825 61.7313 226.053 61.6775 224.855C61.5967 223.15 62.9338 221.737 64.3966 220.619C63.1896 217.923 61.323 213.063 61.3813 208.841C61.4442 203.825 59.5866 196.969 59.5686 196.901L59.4789 196.578L59.4968 196.246C59.5148 195.923 59.6853 193.141 60.7352 191.27C60.7083 190.57 60.0218 188.358 58.8776 186.101L58.7071 185.769L58.6667 185.401C58.5546 184.409 58.0296 179.339 58.7296 176.916C58.8866 176.203 58.4558 172.887 58.1687 170.693C57.6482 166.681 57.0604 162.136 57.4866 159.336C57.6123 158.506 57.6392 157.586 57.6257 156.613C57.5943 156.676 57.5585 156.738 57.527 156.801C56.5668 158.645 55.5348 160.422 54.4624 162.096C53.3497 163.814 52.1472 165.488 50.8773 167.081C49.6255 168.629 48.23 170.163 46.7045 171.662C45.3674 172.927 44.0751 174.027 42.7739 175.009L42.6841 176.661L42.3252 179.411L42.3207 179.451C42.2085 180.133 42.0694 180.806 41.9348 181.457C41.863 181.794 41.7957 182.13 41.7194 182.507C41.2618 184.558 40.7233 186.5 40.0727 188.461C39.6779 189.628 39.3144 190.575 38.9375 191.423C38.4484 192.553 37.9324 193.531 37.3671 194.402C37.0305 194.927 36.6536 195.425 36.2767 195.86C36.1062 196.062 35.9312 196.237 35.7742 196.39L35.6082 196.556L35.4736 196.677C35.4152 196.726 35.3569 196.776 35.2986 196.825C35.1326 196.964 34.9351 197.139 34.6749 197.301C34.0108 197.767 33.2301 198.104 32.4224 198.265C31.5609 198.44 30.6277 198.413 29.811 198.189C29.1245 198.005 28.456 197.709 27.7381 197.265C27.2041 196.915 26.6926 196.515 26.2215 196.076C25.4632 195.367 24.7677 194.564 23.9645 193.464C22.8607 191.934 21.8691 190.252 20.7473 188.004C19.8993 186.294 19.0872 184.459 18.2661 182.395C18.2436 182.337 18.2212 182.278 18.1987 182.22C18.1718 182.22 18.1449 182.215 18.118 182.215C15.7668 182.045 13.6893 181.663 11.7779 181.04C9.53441 180.313 7.54221 179.254 5.86856 177.899C4.12312 176.521 2.64691 174.65 1.59695 172.47C0.632263 170.383 0.102783 168.086 0.0713806 165.833C0.0489349 165.371 0.0713959 164.945 0.0938263 164.528L0.111771 164.164L0.152161 163.765C0.201523 163.316 0.255341 162.854 0.349564 162.405C0.582886 161.163 0.914932 160.072 1.36812 159.067C1.93347 157.811 2.55267 156.824 3.32443 155.962C4.32503 154.845 5.53201 154.217 6.40697 153.759L6.45186 153.737C8.27357 152.862 10.2613 152.251 12.7112 151.816C14.7528 151.462 16.884 151.296 19.0333 151.314C21.1781 151.332 23.3139 151.565 25.3824 152.014C27.5855 152.489 29.6495 153.189 31.534 154.105C33.5711 155.119 35.3928 156.415 36.9498 157.959C37.7978 158.757 38.4664 159.65 39.1215 160.521L40.0054 161.93C40.1669 162.172 40.2791 162.405 40.3644 162.594C40.3913 162.652 40.4182 162.706 40.4586 162.791L40.8041 163.514C40.84 163.59 40.8759 163.662 40.9118 163.738C41.0015 163.918 41.0868 164.101 41.1586 164.285L41.7374 165.946C41.8182 166.179 41.9079 166.439 41.9707 166.744L42.4015 168.611L42.5406 169.625C42.9309 169.284 43.3213 168.929 43.7206 168.557C45.1116 167.202 46.4038 165.798 47.548 164.398C48.7326 162.926 49.8588 161.373 50.8998 159.789C51.9093 158.237 52.883 156.572 53.7984 154.845C54.6868 153.167 55.5124 151.421 56.2617 149.662C57.1053 147.666 57.7514 145.92 58.2449 144.305C58.3571 143.937 58.5635 143.618 58.8372 143.372C59.0975 142.6 59.3891 141.855 59.7256 141.106C61.6954 136.713 61.7268 134.766 61.655 134.16L60.0846 132.98L61.9916 131.311C62.014 131.293 64.1722 129.292 63.6248 127.528C62.548 124.064 65.6619 118.981 67.2997 116.638C67.3759 115.907 67.5554 115.005 67.7708 113.91C68.4304 110.536 69.5342 104.887 68.6996 98.9148C67.5375 90.578 75.1967 81.8015 77.7453 79.1452C77.7184 78.8805 77.6915 78.5708 77.6646 78.2388C74.7391 80.5945 70.9162 83.2911 67.9817 84.0046ZM65.7382 133.352C66.1061 135.493 65.3568 138.66 63.5082 142.784C61.4486 147.374 61.5788 151.085 61.6999 154.674C61.7627 156.505 61.8256 158.237 61.5653 159.938C61.2288 162.163 61.8031 166.587 62.2608 170.145C62.8127 174.408 63.0819 176.696 62.696 178.034C62.373 179.142 62.4851 182.139 62.7274 184.562C64.7869 188.735 65.3344 191.651 64.3562 193.231C63.9883 193.828 63.7325 195.111 63.6383 196.147C64.0825 197.843 65.5722 203.91 65.5049 208.881C65.442 213.665 68.8073 220.292 68.8432 220.355L69.7002 222.019L68.1253 223.033C67.192 223.635 66.6176 224.092 66.2677 224.411C68.0221 225.506 67.5509 226.906 67.3445 227.332C67.2234 227.664 66.8106 229.212 66.2587 231.433C70.1534 233.134 76.1165 237.769 78.6023 239.765C83.547 238.854 83.6457 232.873 83.6457 232.609L83.6592 230.764L85.6424 230.549C86.0372 229.18 86.3962 226.25 86.477 223.54L86.4949 223.325C87.9442 212.615 86.5173 209.483 86.1988 208.94L85.3373 208.419L85.3597 208.137L85.2027 207.989L85.3911 207.755L85.436 207.149C85.6603 204.193 85.9699 195.842 84.7405 192.76C83.7444 190.274 83.2463 188.295 84.045 186.72C84.7674 185.289 86.2167 184.912 86.8404 184.751C87.8679 184.481 88.8326 181.812 88.4467 175.121C88.1506 169.984 89.5371 164.617 93.3061 164.214C95.4105 163.989 97.9501 165.618 98.7757 170.832C99.8571 177.688 98.9642 184.226 97.7662 186.64C97.9501 187.672 98.7937 190.543 99.9334 193.738C101.697 196.524 105.488 202.995 104.842 206.055C104.604 207.194 105.017 210.232 105.385 212.915C105.731 215.428 106.121 218.277 106.215 220.866C106.377 225.281 111.851 228.566 111.905 228.597L114.063 229.854L112.43 231.734C112.25 231.985 112.241 233.048 112.569 234.341C113.964 235.032 116.176 236.391 117.136 238.442C118.025 238.311 119.779 237.625 120.506 237.338C121.74 236.853 122.633 236.503 123.409 236.436C124.387 236.351 126.779 236.611 130.539 237.217C130.817 236.571 131.279 235.924 131.917 235.283C132.621 234.578 132.608 233.448 132.513 232.761C132.41 232.653 132.311 232.532 132.222 232.402C131.356 231.141 131.477 229.302 132.621 226.448C132.675 226.318 132.688 226.242 132.693 226.201C132.531 225.981 131.881 225.573 129.471 225.093C128.381 224.877 126.887 224.577 126.779 222.899C126.73 222.149 127.075 221.216 128.174 220.749C128.641 220.18 129.655 217.873 130.436 215.02C130.185 212.974 129.036 203.394 129.036 197.947C129.036 192.796 125.007 187.838 124.966 187.793L124.325 187.025L124.531 186.047C125.859 179.73 124.885 177.787 124.616 177.396L123.176 176.844L123.616 175.077C125.029 169.374 124.392 166.906 123.93 165.107C123.557 163.662 123.171 162.168 123.993 160.162C124.482 158.959 124.334 158.515 124.042 157.631C123.732 156.702 123.306 155.428 123.746 153.58C124.105 152.058 124.037 142.254 123.777 132.72C122.418 133.074 121.345 133.119 120.672 133.101C117.922 134.452 107.445 139.172 95.0067 139.172C81.1823 139.172 71.9975 125.361 70.4316 122.835C70.0816 122.557 69.597 122.135 69.1124 121.587C67.8157 123.961 67.3894 125.639 67.5958 126.29C68.5291 129.332 66.9138 131.952 65.7382 133.352ZM59.2276 247.779C59.7077 248.654 61.3051 249.139 63.7235 249.139C71.9033 249.139 72.7199 246.052 72.7783 245.742V244.149L74.4115 243.799C75.116 243.646 75.7307 243.436 76.2601 243.189C73.218 240.73 68.3765 237.127 65.4331 235.601C64.2934 239.303 61.1705 242.336 60.1295 243.27C59.4834 244.418 58.5815 246.603 59.2276 247.779ZM125.244 252.042C128.816 251.409 131.077 250.112 131.957 248.192C133.025 245.863 131.97 242.915 131.36 241.556C127.69 240.936 124.428 240.506 123.777 240.564C123.503 240.609 122.561 240.977 122 241.197C120.573 241.757 119.021 242.368 117.59 242.543C118.07 245.082 119.299 248.573 121.211 250.615C122.449 251.938 123.705 252.396 125.173 252.06L125.244 252.042ZM101.76 51.2856C103.37 53.1791 106 54.0944 109.594 53.9912C121.745 53.6547 125.886 44.4923 126.555 42.7693C126.577 42.5225 126.608 42.1097 126.649 41.5758C125.873 42.1322 125.092 42.5136 124.311 42.7155C122.943 43.0699 121.583 42.8725 120.385 42.1367C118.734 41.1271 117.666 39.8304 116.724 38.6817C116.558 38.4798 116.396 38.2868 116.239 38.0984C116.226 38.1343 116.217 38.1702 116.199 38.2061C115.714 39.2246 114.494 39.6599 113.471 39.1932C113.291 39.1214 110.837 38.2195 106.632 40.7233C106.314 40.9117 105.95 41.0149 105.578 41.0149C104.896 41.0149 104.259 40.6694 103.873 40.113C103.815 40.2028 103.765 40.288 103.738 40.3553C103.469 41.9392 102.114 43.8417 100.256 44.3487C100.068 44.3981 99.8751 44.434 99.6866 44.4564C99.6956 46.4217 100.046 49.2665 101.76 51.2856ZM101.217 36.8061C103.312 34.253 107.305 31.4173 111.972 31.5923C116.369 31.7538 118.334 34.1409 119.918 36.0613C120.726 37.0439 121.489 37.9683 122.548 38.6144C122.79 38.7625 122.996 38.7894 123.284 38.7176C124.464 38.4125 125.989 36.676 127.003 35.0787C127.115 31.3275 127.035 28.4065 126.757 26.4009C125.76 19.1948 123.266 14.6988 113.901 14.5418H113.704C109.742 14.5418 106.852 16.6058 105.12 20.6755C104.793 21.4472 104.537 22.2235 104.331 22.9683C105.066 22.8831 105.856 23.0132 106.637 23.4709C107.126 23.758 108.118 23.7446 108.508 23.6907C109.298 23.5741 110.047 23.933 110.482 24.5477C110.855 24.0183 111.469 23.6728 112.165 23.6728C113.381 23.6728 114.117 23.5875 114.359 23.4125C114.66 23.1972 115.22 22.7978 116.235 22.7171C117.787 22.6004 120.452 23.2779 120.753 23.3542C121.287 23.4933 121.736 23.8298 122.014 24.3054C122.292 24.7811 122.373 25.3374 122.234 25.8714C122.095 26.4053 121.754 26.854 121.278 27.1367C120.802 27.4149 120.246 27.4912 119.716 27.3521C118.707 27.0919 117.325 26.8361 116.679 26.8316C115.768 27.4598 114.74 27.8008 112.169 27.8008C111.474 27.8008 110.864 27.4553 110.491 26.9303C110.482 26.9438 110.478 26.9572 110.464 26.9707C110.132 27.4149 109.652 27.7021 109.105 27.7784C108.997 27.7963 108.575 27.8501 107.987 27.8501C107.113 27.8501 105.874 27.7245 104.779 27.1592C104.465 27.5136 104.043 27.7425 103.581 27.8187L103.568 28.3168L103.115 28.8642C103.115 28.8687 102.958 29.0571 102.724 29.3802C102.729 29.4969 102.733 29.618 102.733 29.7437L102.738 29.959L102.697 30.1744C102.5 31.1884 102.047 33.3646 101.508 34.787L101.481 35.0158L101.459 34.9126C101.342 35.2088 101.217 35.469 101.096 35.6709C101.06 35.7337 101.019 35.7921 100.979 35.8459C101.073 36.1735 101.154 36.4965 101.217 36.8061ZM140.653 46.6191C138.62 46.1929 136.511 46.4666 135.116 46.6505C133.779 46.8255 132.791 46.9512 131.97 46.2557C131.683 46.1301 130.88 45.8788 129.781 45.6096C127.968 49.1363 122.256 57.7738 109.711 58.1237C104.797 58.2628 101.073 56.8584 98.6097 53.9643C95.7695 50.626 95.4375 46.2422 95.5631 43.5142C91.0806 43.7071 83.2867 46.5249 81.8733 50.626C79.7959 56.643 73.7833 60.5602 72.3879 61.4037C72.2892 61.4755 72.1905 61.5383 72.0828 61.5922C71.9257 61.6684 71.7552 61.7268 71.5802 61.7627C68.5336 62.6735 64.7466 64.1856 63.8671 65.0606C62.3909 66.5368 58.6622 69.1482 56.679 70.4988C56.513 70.9251 56.1989 71.2795 55.7547 71.5308C54.974 71.9795 53.7311 72.0289 52.7843 70.7007L52.2234 69.9155C52.4657 71.0552 52.4837 71.9615 52.4837 72.1724C52.4837 73.3121 51.5594 74.2364 50.4197 74.2364H50.4152C49.8588 74.2364 49.3563 74.0121 48.9838 73.6531C49.0242 74.0794 49.0287 74.3845 49.0287 74.4967C49.0287 75.6364 48.1044 76.5607 46.9647 76.5607H46.9602C45.825 76.5607 44.8962 75.6364 44.8962 74.5057C44.8872 73.8012 44.6315 71.6116 43.5815 70.8488C43.1373 70.5257 42.8412 70.0456 42.7559 69.4982C42.6707 68.9508 42.8008 68.4079 43.1239 67.9637C43.4469 67.515 43.927 67.2233 44.4744 67.1381C45.0219 67.0528 45.5693 67.1829 46.009 67.5105C46.166 67.6271 46.3141 67.7528 46.4577 67.8784C46.3365 67.663 46.2468 67.4297 46.2064 67.1784C46.1211 66.6355 46.2513 66.0881 46.5743 65.6439C46.6327 65.5631 46.7045 65.4913 46.7763 65.4151C46.2603 65.4465 45.7263 65.608 45.0712 65.8323C44.5328 66.0163 43.9809 66.2048 43.3931 66.2586C43.0521 66.4919 42.2624 67.1964 41.2349 68.3271C41.9079 69.4399 42.4374 71.0462 42.8502 73.1865C43.5097 76.6056 45.5154 76.794 45.7084 76.803H46.1885L46.6192 77.0139C57.4059 82.3354 60.7397 81.4111 63.4139 80.6663C64.2799 80.424 65.2536 80.1548 66.3933 80.0785C66.4696 80.0695 66.5503 80.0605 66.6311 80.0605C69.072 79.8766 75.1519 75.1922 78.5081 72.0648L84.4399 66.5368L81.8733 74.2275C81.5727 75.1249 81.7342 77.9292 81.9586 79.6073L82.0977 80.6483L81.3439 81.3752C81.2496 81.4694 71.7373 90.7754 72.7917 98.336C73.7205 104.995 72.5315 111.07 71.8225 114.709C71.5982 115.853 71.3873 116.934 71.3873 117.356C71.3873 118.123 72.4417 119.232 73.1462 119.73L73.5231 119.99L73.7519 120.38C73.7744 120.416 76.0044 124.167 79.7465 127.811C83.1387 131.109 88.532 135.044 94.9798 135.044C108.041 135.044 119.151 129.238 119.268 129.17L119.891 128.847L120.556 128.96C120.573 128.96 122.305 129.179 124.805 127.932C126.716 126.976 126.523 123.458 126.519 123.432L126.362 121.475L128.305 121.215C128.511 121.188 130.351 120.717 132.078 112.681C133.101 107.911 133.671 102.289 133.846 98.9238L133.873 98.3853L134.16 97.9276C138.467 91.1254 148.859 69.8616 149.55 65.8952C150.313 61.5159 149.335 57.6302 145.674 50.4914C144.606 48.3691 142.959 47.1037 140.653 46.6191ZM43.2226 42.4777C39.8529 42.7693 36.2992 43.927 32.6557 45.9281C29.645 47.5793 26.5894 49.8094 23.3318 52.7349C21.5909 54.3412 20.2942 55.611 19.1096 56.8808C18.634 57.3654 18.1853 57.8725 17.7052 58.4064C17.5123 58.6218 17.3238 58.8372 17.1443 59.0346C16.9065 59.3038 16.6642 59.573 16.4219 59.8422C15.9867 60.3268 15.5784 60.78 15.179 61.2646C12.4689 64.4818 10.194 67.5868 8.22421 70.7411C6.05701 74.2364 4.4417 77.7408 3.42316 81.1553C2.31038 84.9379 2.08154 88.7024 2.75011 92.0138C3.12701 93.7234 3.7821 95.397 4.6795 96.9719C5.52306 98.3943 6.67619 99.7852 8.09409 101.095C10.6472 103.388 13.9989 105.174 17.768 106.26L19.1724 106.637C19.4551 106.704 19.7423 106.758 20.0294 106.816C20.2089 106.852 20.3839 106.888 20.5499 106.92L21.2319 107.054L21.905 107.148C22.0889 107.171 22.2684 107.198 22.4524 107.225C22.7395 107.265 23.0267 107.31 23.3318 107.337C25.1221 107.512 27.0291 107.543 28.9675 107.431C31.0808 107.247 32.9115 106.955 34.5538 106.543C36.4787 106.04 38.2914 105.421 39.9291 104.707C41.6476 103.945 43.3617 103.047 45.0039 102.047C46.6013 101.051 48.1897 99.9243 49.7287 98.7039C52.5869 96.4245 55.3912 93.683 58.07 90.5555C59.3398 89.0749 60.5647 87.5268 61.7089 85.9519C61.8973 85.6917 62.0813 85.4359 62.2608 85.1802C59.1244 85.7276 54.5657 85.4718 45.134 80.8682C43.8104 80.6663 39.8887 79.5939 38.8029 73.9493C38.4395 72.0603 38.0491 71.0956 37.8068 70.6379L33.4724 71.2571L36.7838 67.1695C40.7906 62.2203 42.4104 62.1306 43.0386 62.1261C43.1777 62.1037 43.5232 61.9825 43.7565 61.9062C44.9366 61.5069 46.8705 60.8473 49.1543 61.6325C51.178 61.3633 53.9016 62.337 55.5438 65.9939C55.5752 66.0612 55.6021 66.1285 55.6335 66.1913C58.2539 64.3606 60.1968 62.8799 60.9551 62.1216C62.3505 60.7262 65.6081 59.4025 68.1701 58.5141C67.6317 57.5943 67.0304 56.652 66.3753 55.7053C65.2671 54.1124 64.0601 52.5958 62.7903 51.2138C59.9949 48.1806 56.9976 45.8923 53.8746 44.4116C50.4825 42.8007 46.8122 42.1277 43.2226 42.4777ZM47.8352 69.6418C47.6692 69.2469 47.4538 68.8925 47.1756 68.6412C47.4269 68.9598 47.6467 69.2963 47.8352 69.6418ZM51.9049 68.722L52.1516 68.5559C52.044 68.3136 51.9183 68.0265 51.7703 67.6944C51.2184 66.465 50.6351 66.0028 50.2088 65.8323C51.0344 66.6894 51.5683 67.7258 51.9049 68.722ZM132.975 37.7349C132.913 37.7663 132.85 37.7978 132.782 37.8202L132.455 39.6778L131.706 37.9638C131.472 37.9369 131.243 37.874 131.028 37.7798C130.956 39.265 130.867 40.5886 130.795 41.5937C132.545 42.02 133.451 42.379 133.94 42.6302C134.102 42.6123 134.295 42.5854 134.429 42.5674L134.582 42.5495C135.425 42.4418 136.659 42.2802 138.086 42.2713C137.916 42.1501 137.745 42.0335 137.579 41.9078L137.296 41.6924C136.969 41.4412 136.628 41.1854 136.291 40.8713L135.73 40.3778L135.138 39.79C134.891 39.5522 134.676 39.3099 134.523 39.1259L134.402 38.9868C134.263 38.8298 134.106 38.6548 133.972 38.4708L133.868 38.3362C133.743 38.1747 133.599 37.9907 133.46 37.7843C133.397 37.6946 133.343 37.6138 133.29 37.5285C133.191 37.6093 133.088 37.6766 132.975 37.7349ZM37.8562 171.711C37.8562 171.595 37.8382 171.438 37.8158 171.272L37.6004 169.517L37.228 167.866L37.2145 167.799C37.2011 167.722 37.1562 167.597 37.1113 167.467L36.6312 166.053C36.5908 165.959 36.546 165.865 36.5011 165.771C36.4607 165.685 36.4203 165.6 36.3889 165.528L36.1062 164.923C36.0703 164.851 36.0344 164.775 36.003 164.698C35.9671 164.622 35.9223 164.523 35.8998 164.492L35.1595 163.294L35.0922 163.204C34.5941 162.54 34.123 161.912 33.5801 161.4L33.5442 161.369C32.3596 160.18 30.9642 159.175 29.4027 158.385C27.8861 157.64 26.19 157.057 24.3638 156.653C22.6094 156.263 20.7967 156.052 18.9615 156.029C17.0905 155.998 15.2553 156.133 13.5054 156.429C11.5535 156.761 9.85747 157.268 8.50241 157.905C7.86076 158.233 7.15182 158.623 6.76595 159.063C6.34418 159.525 5.93587 160.175 5.58588 160.947C5.28076 161.607 5.04295 162.383 4.87692 163.249L4.86795 163.289C4.80513 163.568 4.76924 163.873 4.73334 164.2L4.70193 164.469C4.69745 164.582 4.68848 164.698 4.68399 164.81C4.66605 165.12 4.6481 165.407 4.66156 165.667V165.73C4.67053 167.35 5.03847 169.01 5.72047 170.504C6.46083 172.048 7.49283 173.376 8.71329 174.35C9.96066 175.373 11.4638 176.176 13.1733 176.741C14.2009 177.082 15.2957 177.338 16.4892 177.518C16.3905 177.217 16.2918 176.921 16.1975 176.62C15.9867 175.961 16.045 175.256 16.3636 174.637C16.6821 174.018 17.2206 173.564 17.8846 173.354C19.2532 172.918 20.7159 173.672 21.1601 175.063C21.4473 175.965 21.7524 176.876 22.0755 177.782C24.6017 177.688 27.0874 177.343 29.479 176.737L30.1296 176.575L32.0949 175.938L34.0153 175.166L35.8819 174.26L37.1338 173.551C37.385 173.416 37.6408 173.259 37.901 173.089L37.8651 171.729L37.8562 171.711ZM29.6944 192.338C29.9367 192.571 30.2014 192.782 30.4841 192.971C30.7802 193.15 30.9911 193.231 31.0943 193.262C31.3276 193.321 31.5205 193.312 31.875 193.069C32.2474 192.827 32.6782 192.342 33.1538 191.629C33.5711 190.996 33.9615 190.261 34.3518 189.372C34.6749 188.659 34.989 187.851 35.339 186.832C35.9357 185.074 36.4517 183.238 36.869 181.417C36.9408 181.067 37.0126 180.721 37.0889 180.371C37.219 179.774 37.3402 179.214 37.4344 178.648L37.4792 178.334L35.837 179.142L33.6429 180.044L31.3904 180.793L30.5648 181.004C28.3438 181.574 26.0554 181.951 23.7401 182.135C24.2606 183.382 24.7991 184.576 25.351 185.711C26.3112 187.667 27.1861 189.179 28.1015 190.458C28.6803 191.27 29.1873 191.867 29.6944 192.338Z" fill="white" stroke="white" stroke-width="6.4465" stroke-miterlimit="10"/>
<path opacity="0.07" d="M39.6689 88.8551C41.0823 87.9711 42.3656 87.0603 43.4873 86.1494L43.5053 86.136C44.3802 85.427 45.6769 85.5572 46.3993 86.4231C47.1262 87.2981 47.0006 88.6038 46.1256 89.3307C44.8648 90.3761 43.4828 91.3723 41.9034 92.3863C40.342 93.3824 38.8478 94.208 37.3357 94.9125C35.5723 95.7336 33.9211 96.3259 32.2878 96.7207C30.8341 97.0707 29.4296 97.2457 28.106 97.2457C27.6124 97.2457 27.1323 97.2233 26.6612 97.1739C24.6106 96.972 22.6678 96.2675 21.039 95.1413C19.5134 94.0869 18.1853 92.6421 17.086 90.8428C15.022 87.4058 14.1784 83.5739 13.7253 80.9221L13.6849 80.6933L13.6669 80.5676C13.5458 79.3786 14.3803 78.2883 15.5739 78.1043C16.1751 78.0101 16.7719 78.1581 17.2565 78.5126C17.7456 78.8716 18.0641 79.3965 18.1584 79.9978C18.7237 83.6457 19.5897 86.3648 20.882 88.5589C21.6358 89.8287 22.5287 90.8293 23.5383 91.5428C24.5613 92.2607 25.7952 92.7183 27.1188 92.8664C28.3752 93.01 29.7796 92.9023 31.3007 92.5523C32.6558 92.2382 34.0512 91.7536 35.5678 91.0671C36.8915 90.4704 38.2734 89.7211 39.6689 88.8551Z" fill="white" stroke="white" stroke-width="6.4465" stroke-miterlimit="10"/>
<path opacity="0.07" d="M152.862 12.4598L152.821 12.4733C151.067 13.1553 149.582 13.8463 148.281 14.5911C146.625 15.5379 145.22 16.4442 143.973 17.3685C142.573 18.3916 141.218 19.4864 139.939 20.6216C138.544 21.8645 137.301 23.0805 136.233 24.256C135.825 24.7003 135.268 24.9291 134.707 24.9291C134.241 24.9291 133.774 24.772 133.388 24.4535C132.513 23.7266 132.388 22.4209 133.115 21.5459C134.223 20.2088 135.475 18.8627 136.946 17.4179C138.275 16.1257 139.688 14.8738 141.137 13.7027C142.474 12.6079 143.986 11.531 145.763 10.4003C147.249 9.45802 148.922 8.57857 150.896 7.7081C150.928 7.69464 150.968 7.67669 150.991 7.66771C151.632 7.42093 152.332 7.43439 152.96 7.71259C153.589 7.99078 154.073 8.49332 154.32 9.13495C154.845 10.4496 154.185 11.9438 152.862 12.4598Z" fill="white" stroke="white" stroke-width="6.4465" stroke-miterlimit="10"/>
<path opacity="0.07" d="M153.692 30.5738C153.678 30.5738 153.669 30.5738 153.656 30.5738L138.373 30.3404C137.252 30.3225 136.359 29.4296 136.341 28.3033C136.323 27.1637 137.238 26.2259 138.378 26.2079L153.696 25.9746H153.728C154.342 25.9836 154.917 26.2304 155.343 26.6701C155.769 27.1098 156.003 27.6931 155.994 28.3078C155.971 29.5642 154.944 30.5738 153.692 30.5738Z" fill="white" stroke="white" stroke-width="6.4465" stroke-miterlimit="10"/>
<path opacity="0.07" d="M95.4689 26.4233C95.2625 27.397 94.401 28.0655 93.4453 28.0655C93.3062 28.0655 93.1626 28.0521 93.019 28.0207L84.6822 26.2573C84.6104 26.2438 84.5386 26.2214 84.4668 26.199C83.8387 26.006 83.3227 25.5798 83.0175 24.9965C82.7124 24.4131 82.6496 23.7491 82.8426 23.1209C83.0355 22.4927 83.4618 21.9812 84.0451 21.6716C84.6284 21.3665 85.2924 21.3037 85.9206 21.4966L94.0645 24.0183C95.083 24.3458 95.6887 25.3778 95.4689 26.4233Z" fill="white" stroke="white" stroke-width="6.4465" stroke-miterlimit="10"/>
</g>
<path d="M116.257 37.578C116.226 37.5645 113.062 36.1152 107.889 39.1888C107.821 39.2292 107.75 39.2471 107.678 39.2471C107.539 39.2471 107.4 39.1753 107.323 39.0452C107.207 38.8478 107.27 38.5965 107.467 38.4798C113.017 35.1819 116.468 36.7658 116.611 36.8331C116.818 36.9318 116.903 37.1786 116.804 37.385C116.71 37.5869 116.463 37.6767 116.257 37.578Z" fill="url(#paint0_linear)"/>
<path d="M122.22 25.6336C122.193 25.6291 119.681 24.9785 118.514 25.0682C118.191 25.0951 118.088 25.1669 117.895 25.306C117.446 25.6291 116.885 26.0284 114.256 26.0284C114.027 26.0284 113.843 25.8445 113.843 25.6156C113.843 25.3868 114.027 25.2028 114.256 25.2028C116.62 25.2028 117.078 24.8753 117.415 24.633C117.643 24.4714 117.899 24.2875 118.451 24.2426C119.757 24.1439 122.319 24.8035 122.427 24.8304C122.646 24.8887 122.781 25.1131 122.723 25.3329C122.664 25.5573 122.44 25.6919 122.22 25.6336Z" fill="url(#paint1_linear)"/>
<path d="M110.953 26.0284C110.917 26.0329 110.567 26.0822 110.065 26.0822C109.338 26.0822 108.306 25.979 107.471 25.49C106.502 24.9201 105.681 25.8893 105.645 25.9297C105.502 26.1047 105.241 26.1361 105.062 25.988C104.887 25.8444 104.86 25.5842 105.004 25.4047C105.448 24.8618 106.619 24.0272 107.889 24.7765C109.042 25.4541 110.814 25.2118 110.837 25.2073C111.061 25.1759 111.272 25.3329 111.303 25.5573C111.335 25.7861 111.178 25.9925 110.953 26.0284Z" fill="url(#paint2_linear)"/>
<path d="M52.5151 72.4641C52.2862 72.4641 52.1023 72.2801 52.1023 72.0513C52.1023 72.0154 52.0753 68.5021 50.1056 67.0707C49.9216 66.9361 49.8812 66.6759 50.0158 66.4919C50.1504 66.308 50.4062 66.2676 50.5946 66.4022C52.9054 68.0803 52.9323 71.8898 52.9323 72.0513C52.9279 72.2756 52.7439 72.4641 52.5151 72.4641Z" fill="url(#paint3_linear)"/>
<path d="M49.0646 74.7884C48.8358 74.7884 48.6518 74.6045 48.6518 74.3756C48.6518 74.3397 48.6249 70.8264 46.6551 69.3951C46.4711 69.2605 46.4307 69.0002 46.5653 68.8163C46.7 68.6323 46.9557 68.5919 47.1442 68.7265C49.455 70.4046 49.4819 74.2141 49.4819 74.3756C49.4774 74.6045 49.2934 74.7884 49.0646 74.7884Z" fill="url(#paint4_linear)"/>
<path d="M86.7282 84.1258L90.7351 82.4656C90.771 82.3938 90.8248 82.322 90.9056 82.2682C91.2242 82.0438 91.7491 81.6714 97.4925 86.1315L97.5867 86.2212L97.6271 86.3289C97.6315 86.3379 97.7348 86.5891 98.2059 86.7237C99.2962 87.0333 103.029 86.8628 114.13 78.5619C114.556 77.9786 118.465 72.7379 123.862 68.7893C124.307 67.8829 127.887 60.4705 127.887 57.6886C127.887 57.4597 128.071 57.2758 128.3 57.2758C128.529 57.2758 128.713 57.4597 128.713 57.6886C128.713 60.8339 124.728 68.906 124.558 69.247L124.513 69.3367L124.432 69.3951C118.801 73.4872 114.803 79.0376 114.763 79.0959L114.673 79.1856C104.052 87.1365 99.6731 88.0878 97.8739 87.4865C97.2681 87.2846 97.0034 86.9256 96.8957 86.7237C93.3016 83.9328 91.9645 83.2239 91.4889 83.0444L87.0423 84.8886C83.2149 86.477 84.063 90.264 84.0988 90.4255L84.1976 90.8338L83.7848 90.9235C83.5111 90.9819 83.3136 91.1165 83.1835 91.3319C82.9277 91.7492 82.9502 92.3998 83.0085 92.8215C83.9642 92.8395 86.5712 93.0818 88.5948 95.0875C93.2164 98.6367 96.8643 96.5367 97.0168 96.447L97.129 96.3797L97.2591 96.3887C125.2 98.2463 134.299 83.4303 134.384 83.2822C134.501 83.0848 134.752 83.022 134.95 83.1342C135.147 83.2508 135.21 83.5021 135.098 83.6995C135.004 83.8566 132.742 87.6301 126.914 91.2107C117.271 97.129 105.524 97.7527 97.3264 97.2188C96.9495 97.4162 95.7515 97.9726 94.0375 97.9726C92.4177 97.9726 90.3447 97.479 88.0698 95.7246L88.0294 95.6887C85.8308 93.4901 82.7258 93.6471 82.6944 93.6516L82.3534 93.6696L82.2682 93.342C82.2502 93.2837 81.8913 91.8568 82.4746 90.9011C82.6585 90.6005 82.9143 90.3761 83.2284 90.237C83.0893 89.0974 82.9995 85.6693 86.7282 84.1258Z" fill="url(#paint5_linear)"/>
<path d="M66.0388 87.4596C64.8632 89.1198 63.6248 90.7351 62.3191 92.2921C59.6897 95.3926 56.8091 98.2956 53.6233 100.858C52.0305 102.136 50.3703 103.33 48.6383 104.42C46.8974 105.493 45.0846 106.457 43.2091 107.296C41.329 108.127 39.3772 108.786 37.385 109.316C35.3883 109.827 33.3422 110.137 31.2917 110.303C29.2366 110.424 27.1726 110.401 25.1221 110.195C24.6106 110.15 24.1036 110.06 23.592 109.993L22.8293 109.885L22.071 109.737C21.5684 109.63 21.0614 109.54 20.5589 109.423L19.0647 109.024C15.1117 107.88 11.3157 105.986 8.21069 103.191C6.68063 101.778 5.30315 100.18 4.23973 98.3719C3.20325 96.5502 2.42252 94.5849 1.97383 92.5388C1.14374 88.4288 1.55203 84.1706 2.71416 80.2311C3.05067 79.2619 3.34233 78.2703 3.71474 77.3146C4.11858 76.3723 4.48651 75.4121 4.92622 74.4878L6.30823 71.7507L7.85175 69.1079C10.0145 65.6529 12.4554 62.3909 15.0713 59.2904C15.7174 58.5097 16.4174 57.7738 17.0859 57.011C17.768 56.2572 18.423 55.4899 19.1365 54.763C20.523 53.2823 21.9947 51.8734 23.4933 50.5004C26.522 47.7858 29.7751 45.2776 33.3781 43.3123C36.9632 41.3515 40.9207 39.8843 45.0712 39.5388C49.2082 39.1484 53.4439 39.983 57.1636 41.7867C60.9012 43.5815 64.1363 46.2378 66.8913 49.253C68.2688 50.7652 69.5386 52.376 70.6963 54.0541C71.7597 55.6111 72.7378 57.204 73.5993 58.9045C75.2146 57.8501 79.9977 54.4175 81.6265 49.6928C83.7399 43.5636 94.6567 40.2387 99.6103 41.0015L99.7045 40.5214L99.9827 40.8714C100.535 40.2746 101.576 38.7132 100.57 36.1287C100.171 35.1056 100.167 34.0063 100.378 32.9384C100.238 31.3904 100.364 29.3758 100.57 28.42C101.091 26.015 101.553 25.4183 101.876 25.2837L101.908 24.9965C102.468 20.0743 103.64 9.83052 118.276 9.54336C122.418 9.46708 125.792 10.7055 128.3 13.2361C132.72 17.6917 133.088 24.6824 133.106 26.4592C133.469 26.54 134.102 27.0336 134.82 29.5956C135.353 31.5071 135.277 35.6486 134.321 36.1421C134.245 36.1825 134.151 36.2049 134.057 36.2049C133.886 36.2049 133.693 36.1287 133.527 35.9178C132.724 34.9172 131.822 31.359 131.719 30.9597L131.706 30.9058V30.8475C131.773 28.5502 131.979 27.4239 132.289 26.8855C132.289 26.872 132.28 26.8631 132.284 26.8496C132.289 26.7688 132.459 18.5981 127.721 13.8194C125.379 11.4548 122.207 10.2882 118.303 10.3735C104.389 10.6427 103.317 20.0429 102.738 25.0907L102.679 25.6067C102.841 25.9029 102.971 26.4503 103.065 27.4509C103.124 27.3746 103.173 27.3162 103.209 27.2669C103.294 25.6965 104.384 11.9349 115.799 11.9349C115.88 11.9349 115.961 11.9349 116.042 11.9349C127.824 12.1368 130.368 19.123 131.311 25.9343C132.051 31.2872 131.311 40.7502 131.14 42.7649C132.356 43.0206 134.932 43.6084 135.614 44.1783C135.802 44.2007 136.385 44.1289 136.901 44.0616C139.836 43.6802 146.701 42.7828 150.003 49.2216C153.947 56.9078 154.984 61.1884 154.118 66.1779C153.283 70.979 142.187 93.0548 138.436 99.0225C138.328 100.934 137.027 121.83 131.127 123.459C131.154 124.643 130.997 128.309 128.269 129.875C128.345 132.379 128.901 151.269 128.251 154.024C127.977 155.186 128.224 155.931 128.488 156.716C128.834 157.748 129.224 158.915 128.385 160.97C127.878 162.217 128.098 163.07 128.43 164.362C128.951 166.385 129.66 169.145 128.192 175.252C129 175.853 130.763 178.141 129.094 186.245C129.857 187.205 133.613 192.221 133.613 197.83C133.613 203.762 135.03 214.881 135.044 214.993L135.053 215.074L135.035 215.15C134.761 216.204 133.438 221.019 131.881 222.508C131.939 222.522 131.997 222.531 132.056 222.544C133.581 222.849 136.139 223.356 136.996 224.931C137.359 225.604 137.373 226.385 137.027 227.251C136.013 229.791 136.219 230.616 136.354 230.854C136.408 230.948 136.462 230.966 136.457 230.971L136.744 230.921L136.852 231.258C136.897 231.397 137.956 234.74 135.771 236.921C134.914 237.778 134.766 238.356 134.797 238.684C134.829 239.038 135.071 239.213 135.075 239.218L136.776 240.322L135.609 240.115C136.394 241.74 137.907 245.652 136.332 249.089C135.089 251.795 132.217 253.567 127.815 254.343C127.317 254.46 126.833 254.518 126.357 254.518C124.598 254.518 122.974 253.733 121.516 252.172C118.065 248.479 116.656 241.574 117.078 239.59C116.306 237.486 112.851 236.113 112.815 236.099L112.64 236.032L112.578 235.857C112.519 235.7 111.299 232.281 112.376 230.383C110.94 229.454 106.027 225.919 105.838 220.835C105.748 218.367 105.367 215.585 105.031 213.126C104.582 209.828 104.191 206.979 104.519 205.422C104.95 203.38 101.275 197.027 99.8212 194.752L99.7808 194.671C96.7431 186.209 97.3713 185.72 97.5956 185.545C98.1072 185.011 99.6552 178.864 98.4302 171.101C97.9097 167.817 96.6713 166.457 95.6707 166.56C93.5304 166.789 92.835 171.554 93.0279 174.861C93.4676 182.538 92.4042 186.294 89.5729 187.034C88.8505 187.223 88.5275 187.411 88.3659 187.725C88.0563 188.34 88.3076 189.61 89.1512 191.728C90.7351 195.69 90.1473 205.409 90.0351 207.015C90.7665 207.733 92.7721 210.919 91.0671 223.522C91.0402 224.38 90.8024 230.98 89.4338 232.631L89.3261 232.761L88.2179 232.882C88.1236 234.242 87.5179 238.989 83.7668 241.156C83.4617 241.829 81.8329 244.957 77.3325 246.038C77.1395 247.285 75.7531 251.494 65.8279 251.494C62.364 251.494 60.1205 250.601 59.1558 248.847C57.5494 245.917 60.1653 241.762 60.2775 241.587L60.3583 241.493C60.4076 241.448 65.2491 237.324 65.4734 233.107L65.3792 233.102L65.4958 232.622C65.7112 231.729 66.7163 227.574 67.1112 226.417C67.0439 226.381 66.9631 226.336 66.8958 226.304C66.3618 226.026 65.4734 225.564 65.4286 224.649C65.3837 223.648 66.3843 222.495 68.5784 221.037C67.8515 219.552 65.0696 213.548 65.1324 208.729C65.1997 203.466 63.2793 196.399 63.2613 196.327L63.2434 196.264L63.2479 196.197C63.2524 196.08 63.4049 193.348 64.3562 191.804C64.8991 190.929 63.5709 187.425 62.4492 185.217L62.4178 185.15L62.4088 185.078C62.3819 184.849 61.7762 179.447 62.4223 177.226C62.687 176.32 62.3101 173.416 61.9108 170.347C61.4037 166.444 60.8339 162.02 61.2198 159.449C61.4441 157.972 61.3858 156.353 61.3275 154.639C61.2691 153.001 61.2108 151.264 61.3634 149.398C61.2063 149.797 61.0448 150.192 60.8788 150.587C60.1115 152.422 59.2634 154.23 58.3436 155.994C57.4193 157.761 56.4277 159.489 55.3508 161.167C54.265 162.841 53.0984 164.465 51.8555 166.031C50.5991 167.588 49.244 169.064 47.8127 170.473C46.4397 171.77 44.9994 172.999 43.4693 174.112L43.4469 174.538L43.3661 176.064L43.3437 176.445L43.2943 176.822L43.1956 177.576L42.9982 179.084C42.8367 180.08 42.6033 181.062 42.4104 182.054C41.9707 184.01 41.4412 185.94 40.8041 187.86C40.481 188.816 40.1265 189.771 39.7092 190.709C39.3009 191.652 38.8343 192.58 38.251 193.478C37.9593 193.926 37.6363 194.366 37.2683 194.788C37.0888 194.999 36.8735 195.196 36.676 195.398C36.4427 195.582 36.2408 195.789 35.9761 195.95C35.487 196.3 34.8812 196.574 34.2351 196.704C33.589 196.834 32.898 196.816 32.2833 196.646C31.6686 196.48 31.1212 196.215 30.6276 195.91C30.143 195.596 29.7033 195.246 29.3084 194.873C28.5098 194.128 27.8502 193.312 27.2355 192.473C26.024 190.795 25.0413 189.018 24.1394 187.218C23.2465 185.415 22.4479 183.579 21.7075 181.722C21.5684 181.372 21.4338 181.022 21.2992 180.672C20.9716 180.663 20.6441 180.654 20.3165 180.636C18.2974 180.492 16.2738 180.16 14.3175 179.528C12.3656 178.895 10.4856 177.944 8.85683 176.629C7.21458 175.332 5.90889 173.614 4.99803 171.729C4.11859 169.827 3.63399 167.745 3.60706 165.659C3.58014 165.138 3.62502 164.613 3.64746 164.093C3.71027 163.572 3.75513 163.052 3.86282 162.54C4.05576 161.513 4.34293 160.494 4.78264 159.525C5.21788 158.556 5.75183 157.627 6.49667 156.792C7.29086 155.904 8.23763 155.392 9.17091 154.903C11.0689 153.997 13.0521 153.458 15.0533 153.104C17.059 152.754 19.0871 152.601 21.1152 152.624C23.1433 152.642 25.1759 152.862 27.1726 153.292C29.1648 153.723 31.1302 154.36 32.9878 155.262C34.8364 156.182 36.5639 157.389 38.0401 158.861C38.8028 159.579 39.4355 160.418 40.0592 161.252L40.8893 162.585C41.0374 162.8 41.1361 163.047 41.2528 163.28L41.5893 163.985C41.697 164.223 41.8181 164.452 41.9168 164.694L42.1726 165.43L42.4283 166.166C42.5136 166.412 42.6078 166.655 42.6527 166.91L43.0027 168.423L43.0879 168.799L43.1373 169.181L43.236 169.948L43.3347 170.715C43.3661 170.971 43.4065 171.227 43.402 171.483L43.4289 172.353C44.609 171.451 45.7352 170.482 46.8211 169.468C48.212 168.113 49.5357 166.686 50.7696 165.178C51.9901 163.662 53.1387 162.082 54.2111 160.449C55.2745 158.811 56.2572 157.124 57.1725 155.397C58.0879 153.669 58.9269 151.901 59.6897 150.102C60.448 148.307 61.1569 146.463 61.7178 144.624L61.7223 144.606C61.8076 144.318 62.0858 144.143 62.3729 144.17C62.6332 143.358 62.9473 142.524 63.3331 141.662C66.4516 134.707 65.1683 133.034 65.1638 133.034L64.8497 132.72L65.1818 132.428C65.2132 132.401 68.1835 129.767 67.2951 126.918C66.3259 123.795 70.3777 117.975 71.0059 117.101C71.0283 116.432 71.2212 115.445 71.486 114.103C72.168 110.626 73.3032 104.811 72.4327 98.5604C71.2616 90.1742 80.2355 80.9355 81.5682 79.6164C81.4784 78.885 81.2047 76.4127 81.3752 74.582C79.0644 76.6281 72.9577 81.7701 69.2739 82.3669C68.2912 84.1437 67.2009 85.8129 66.0388 87.4596ZM134.03 35.1954C134.317 34.3384 134.541 31.6596 134.025 29.8245C133.631 28.4111 133.213 27.581 132.984 27.3387C132.863 27.5585 132.612 28.3213 132.536 30.8206C132.782 31.8122 133.464 34.2262 134.03 35.1954ZM26.1451 186.227C26.9977 187.959 27.9309 189.655 29.0213 191.185C29.5687 191.943 30.152 192.67 30.7981 193.276C31.1167 193.581 31.4532 193.846 31.7942 194.074C32.1397 194.29 32.4852 194.456 32.8262 194.55C33.4993 194.725 34.1229 194.604 34.7601 194.173C35.3972 193.76 35.9626 193.06 36.4562 192.316C36.9542 191.562 37.385 190.727 37.7664 189.857C38.1567 188.995 38.4933 188.098 38.8074 187.187C39.4266 185.365 39.956 183.485 40.3868 181.592C40.5752 180.645 40.804 179.707 40.9656 178.756L41.163 177.329L41.2617 176.616L41.3111 176.257L41.3335 175.898L41.3559 175.552C41.1271 175.7 40.8938 175.844 40.6515 175.974L39.3413 176.728L37.9862 177.396L37.3087 177.728L36.6087 178.016L35.2043 178.59L33.764 179.066L33.0461 179.303L32.3102 179.492C29.4924 180.214 26.6342 180.605 23.7491 180.685C24.4715 182.565 25.2702 184.428 26.1451 186.227ZM41.4412 173.035L41.4008 171.608C41.4053 171.37 41.3694 171.137 41.3425 170.899L41.2572 170.195L41.172 169.49L41.1271 169.14L41.0508 168.795L40.7412 167.422C40.7009 167.189 40.6156 166.973 40.5393 166.749L40.315 166.085L40.0906 165.421C40.0054 165.205 39.8977 164.999 39.799 164.788L39.5028 164.155C39.3996 163.949 39.3189 163.725 39.1843 163.536L38.4529 162.352C37.8965 161.611 37.3491 160.857 36.6715 160.22C35.3614 158.906 33.8223 157.806 32.1442 156.958C30.4526 156.128 28.6444 155.522 26.7823 155.11C24.9202 154.697 23.0087 154.477 21.0928 154.45C19.1769 154.419 17.252 154.553 15.3674 154.872C13.4874 155.195 11.6253 155.693 9.95613 156.487C9.14848 156.895 8.32736 157.362 7.8024 157.959C7.22357 158.592 6.75244 159.39 6.37553 160.216C5.99414 161.046 5.7339 161.939 5.55891 162.85C5.4557 163.303 5.41531 163.765 5.35699 164.227C5.33455 164.689 5.2897 165.156 5.31213 165.618C5.32111 167.476 5.74736 169.329 6.51015 171.007C7.30882 172.672 8.43504 174.188 9.88882 175.346C11.3291 176.521 13.0163 177.396 14.811 177.989C16.6103 178.585 18.5038 178.904 20.4198 179.052C20.5095 179.057 20.6037 179.061 20.6979 179.066C20.339 178.074 19.9935 177.078 19.6659 176.055C19.473 175.449 19.8095 174.798 20.4153 174.606C21.021 174.413 21.6716 174.749 21.8645 175.355L21.8735 175.377C22.2729 176.629 22.7036 177.881 23.1568 179.124C26.1047 179.097 29.0796 178.729 31.9154 178.016L32.6153 177.841L33.3018 177.621L34.6748 177.177L36.0165 176.638L36.685 176.369L37.3356 176.055L38.6368 175.422L39.8977 174.709C40.3239 174.48 40.7278 174.215 41.1316 173.95C41.2348 173.883 41.3425 173.816 41.4457 173.749V173.744C41.4592 173.511 41.4457 173.273 41.4412 173.035ZM69.6553 54.772C68.5201 53.1388 67.2817 51.5818 65.9401 50.119C63.2569 47.207 60.1339 44.6718 56.5847 42.9892C53.049 41.2976 49.087 40.5349 45.1923 40.9163C41.2886 41.2528 37.5151 42.6393 34.0557 44.5417C30.5827 46.4442 27.4104 48.8941 24.449 51.5549C22.9818 52.9054 21.5415 54.2874 20.1774 55.7502C19.4775 56.4636 18.8269 57.2264 18.1583 57.9667C17.4987 58.7206 16.8122 59.4474 16.1751 60.2192C13.5995 63.2793 11.2035 66.4875 9.09465 69.8662C6.99922 73.2494 5.26277 76.8569 4.13205 80.6349C3.02377 84.4085 2.66479 88.4108 3.43655 92.2158C3.85384 94.1093 4.57626 95.9175 5.53198 97.6001C6.51912 99.2693 7.7979 100.746 9.22476 102.065C12.1233 104.667 15.7219 106.466 19.491 107.552L20.9178 107.934C21.3979 108.046 21.8825 108.131 22.3626 108.234L23.085 108.378L23.8164 108.477C24.3055 108.539 24.79 108.625 25.2836 108.665C27.2444 108.858 29.2232 108.876 31.1885 108.759C33.1493 108.589 35.1011 108.311 37.0126 107.83C38.9195 107.332 40.7951 106.709 42.6078 105.919C44.4161 105.12 46.1705 104.196 47.8621 103.164C49.5447 102.114 51.1645 100.961 52.7214 99.727C55.8309 97.2457 58.6667 94.4189 61.2601 91.3902C62.5614 89.8781 63.7998 88.3076 64.9709 86.6923C65.9445 85.3507 66.8823 83.9598 67.7349 82.5509C67.2144 82.6496 66.7073 82.7842 66.1869 82.9278C63.1088 83.7848 59.2859 84.8482 47.705 79.1497C47.0409 79.1004 43.4918 78.5889 42.5181 73.5276C41.688 69.2111 40.6111 68.8028 40.5034 68.7714L39.4983 68.9149L40.1579 68.0983C41.0015 67.0573 43.8462 63.6697 45.1609 63.6697C45.466 63.6697 45.8878 63.5261 46.3769 63.3601C47.5614 62.9562 49.1722 62.4133 51.0927 63.2344C52.2728 62.9114 54.6284 63.2255 56.1271 66.5593C56.5354 67.4657 56.8136 68.1163 56.993 68.5874C58.6173 67.4836 62.7857 64.6075 64.2126 63.1761C65.7695 61.6191 70.6514 59.9814 72.4641 59.4115C71.6475 57.8276 70.6828 56.2617 69.6553 54.772ZM130.283 43.0206C130.315 42.6393 130.53 40.1669 130.669 37.0664C129.691 38.4439 127.959 40.49 125.998 41.0015C125.06 41.2438 124.167 41.1137 123.346 40.6156C121.937 39.7541 121 38.6189 120.098 37.5241C118.577 35.6755 117.262 34.0781 113.978 33.957C108.652 33.764 104.393 38.6997 104.218 39.9157C104.066 40.9701 103.11 42.3207 101.921 42.6437C101.333 42.8053 100.754 42.6976 100.238 42.3386C100.037 44.1962 99.8391 49.0063 102.599 52.2459C104.55 54.5387 107.633 55.6425 111.739 55.5303C125.5 55.1444 129.983 43.8238 130.283 43.0206ZM102.06 26.3291C101.881 26.706 101.629 27.4419 101.378 28.5995C101.253 29.1873 101.181 29.8873 101.154 30.5962C101.513 29.8065 101.93 29.0976 102.298 28.5322C102.24 27.2893 102.141 26.6522 102.06 26.3291ZM101.217 32.9833C101.244 33.2615 101.275 33.5083 101.311 33.7147C101.625 32.8621 101.966 31.4218 102.181 30.3988C101.782 31.1795 101.414 32.0724 101.217 32.9833ZM130.485 26.0599C129.592 19.5942 127.178 12.9624 116.024 12.774C115.947 12.774 115.867 12.774 115.79 12.774C111.119 12.774 107.727 15.1925 105.704 19.9621C104.142 23.6414 104.025 27.406 104.021 27.4419L104.016 27.5855L103.927 27.6976C103.913 27.7111 103.577 28.1239 103.142 28.779C103.151 29.0527 103.164 29.3399 103.168 29.6629V29.7078L103.159 29.7527C103.083 30.152 102.388 33.6967 101.773 34.6928C101.625 34.9351 101.432 35.0204 101.261 35.0204C101.212 35.0204 101.167 35.0069 101.122 34.9935C101.167 35.2806 101.235 35.5678 101.342 35.8415C102.527 38.8837 101.19 40.7951 100.521 41.5085C100.889 41.8495 101.288 41.9662 101.706 41.854C102.527 41.6297 103.294 40.5708 103.402 39.808C103.644 38.1119 108.378 32.9294 114.009 33.1403C117.666 33.2749 119.227 35.1729 120.739 37.0081C121.601 38.0536 122.489 39.1304 123.782 39.9201C124.41 40.306 125.069 40.4003 125.792 40.2118C128.197 39.5881 130.377 36.0658 130.736 35.4691C130.84 32.225 130.84 28.622 130.485 26.0599ZM122.103 251.624C123.741 253.374 125.594 254.025 127.631 253.549C131.768 252.818 134.438 251.203 135.56 248.762C137.202 245.186 135.044 240.833 134.568 239.949C131.916 239.487 126.909 238.693 125.711 238.801C125.289 238.837 124.419 239.178 123.494 239.541C121.471 240.335 119.178 241.233 117.904 240.631C117.872 240.618 117.85 240.595 117.818 240.582C117.881 242.929 119.191 248.506 122.103 251.624ZM60.9371 242.09C60.6544 242.552 58.5904 246.114 59.8782 248.457C60.6858 249.928 62.687 250.673 65.8234 250.673C71.3693 250.673 73.9897 249.3 75.2146 248.151C76.5024 246.94 76.5338 245.755 76.5338 245.706V245.374L76.8613 245.302C80.0112 244.625 81.6804 242.888 82.4656 241.758C81.7701 242 80.9938 242.166 80.1189 242.229L79.9529 242.242L79.8272 242.139C76.987 239.81 69.3098 233.919 66.2945 233.21C66.0253 237.571 61.5069 241.596 60.9371 242.09ZM65.9939 132.805C66.3708 133.635 66.7746 136.027 64.0959 141.99C61.8793 146.93 62.0229 151.013 62.1486 154.612C62.2114 156.366 62.2652 158.022 62.0319 159.574C61.6595 162.029 62.2248 166.39 62.7229 170.24C63.1671 173.672 63.5171 176.387 63.2075 177.459C62.6466 179.393 63.1447 184.262 63.212 184.917C63.7639 186.016 66.0074 190.696 65.0471 192.248C64.2799 193.491 64.0914 195.775 64.0645 196.183C64.2754 196.964 66.0163 203.582 65.949 208.747C65.8817 213.965 69.4354 220.929 69.4668 221.001L69.6373 221.333L69.3232 221.535C66.5996 223.294 66.2227 224.218 66.2407 224.617C66.2631 225.057 66.8419 225.358 67.2637 225.578C67.6272 225.766 68.1791 226.053 67.9323 226.547C67.7573 226.901 66.9362 230.145 66.3932 232.384C70.0546 233.205 78.9747 240.38 80.2131 241.39C87.2666 240.757 87.3923 232.851 87.3968 232.514V232.146L88.8774 231.985C89.8197 230.549 90.1742 225.407 90.228 223.482L90.2325 223.437C92.0946 209.653 89.3935 207.567 89.38 207.553L89.1646 207.423L89.1826 207.172C89.1915 207.06 89.9947 196.103 88.3704 192.042C87.4057 189.623 87.1769 188.223 87.6121 187.362C87.9711 186.658 88.6935 186.415 89.3486 186.245C90.8248 185.859 92.7228 184.266 92.1888 174.92C91.9376 170.572 93.0189 166.026 95.5675 165.753C96.9136 165.614 98.5873 166.906 99.2289 170.989C100.409 178.464 99.0763 185.141 98.17 186.137C98.0488 186.846 99.2558 190.83 100.526 194.366C101.185 195.403 105.883 202.909 105.313 205.615C105.013 207.037 105.412 209.949 105.834 213.041C106.175 215.518 106.556 218.322 106.65 220.83C106.848 226.197 113.094 229.894 113.156 229.93L113.587 230.181L113.26 230.558C112.299 231.666 112.901 234.3 113.278 235.431C114.067 235.767 117.159 237.208 117.886 239.46C117.953 239.667 118.07 239.806 118.258 239.891C119.214 240.34 121.516 239.438 123.194 238.778C124.257 238.361 125.096 238.029 125.639 237.984C126.958 237.867 131.925 238.67 133.998 239.02C133.98 238.953 133.972 238.881 133.963 238.805C133.886 238.06 134.29 237.235 135.174 236.355C136.713 234.816 136.282 232.447 136.107 231.738C135.955 231.671 135.798 231.554 135.672 231.37C135.165 230.63 135.353 229.19 136.242 226.964C136.498 226.331 136.498 225.802 136.255 225.349C135.587 224.11 133.177 223.635 131.881 223.374C130.902 223.181 130.539 223.11 130.512 222.692C130.485 222.316 130.875 222.181 131.006 222.136C132.011 221.795 133.469 217.806 134.2 215.038C134.07 214.015 132.773 203.564 132.773 197.848C132.773 192.046 128.367 186.689 128.322 186.635L128.192 186.483L128.233 186.285C130.158 177.141 127.573 175.862 127.56 175.853L127.219 175.723L127.308 175.368C128.82 169.257 128.125 166.56 127.618 164.586C127.272 163.24 126.999 162.177 127.609 160.678C128.331 158.906 128.022 157.981 127.694 156.999C127.407 156.137 127.106 155.244 127.438 153.853C128.035 151.341 127.551 133.855 127.447 130.306C124.836 131.472 122.947 131.374 122.418 131.311C121.148 131.961 110.123 137.404 97.0931 137.404C93.0683 137.404 86.8538 136.022 80.1054 129.449C76.3992 125.837 74.1198 122.171 73.7698 121.601C73.3884 121.323 71.7327 120.026 71.1943 118.308C69.7495 120.475 67.4477 124.562 68.1028 126.671C68.9912 129.52 66.7746 132.033 65.9939 132.805ZM81.7387 73.1507L82.9232 72.0469L82.4117 73.5859C81.8374 75.3044 82.4252 79.6702 82.4297 79.7106L82.4566 79.917L82.304 80.0606C82.2008 80.1593 72.0827 89.9903 73.2628 98.4392C74.1557 104.824 72.9981 110.725 72.3116 114.256C72.0513 115.593 71.8449 116.647 71.8449 117.235C71.8449 119.227 74.2903 120.95 74.3127 120.968L74.389 121.022L74.4339 121.103C74.4563 121.143 76.7537 125.033 80.6932 128.87C84.3052 132.388 90.08 136.578 97.0886 136.578C110.666 136.578 122.032 130.579 122.144 130.517L122.269 130.449L122.409 130.472C122.427 130.476 124.571 130.826 127.649 129.287C130.615 127.802 130.279 123.221 130.274 123.176L130.243 122.786L130.633 122.732C135.362 122.099 137.269 105.304 137.606 98.8879L137.61 98.7802L137.669 98.6905C141.752 92.2427 152.512 70.5392 153.292 66.0523C154.127 61.2647 153.108 57.1187 149.259 49.612C146.225 43.6937 139.993 44.5058 137 44.8917C135.843 45.0443 135.362 45.1071 135.08 44.8244C134.775 44.5193 132.765 43.9629 130.947 43.5815C130.108 45.6051 125.164 55.979 111.761 56.3469C111.559 56.3514 111.362 56.3559 111.164 56.3559C107.086 56.3559 103.99 55.1489 101.966 52.7663C98.7219 48.9524 99.2424 43.3706 99.4622 41.8092C94.8586 41.1092 84.3546 44.3039 82.4072 49.9575C80.6125 55.1579 75.3941 58.752 73.8775 59.7077C73.8461 59.9006 73.7294 60.0711 73.541 60.1654C73.3391 60.2641 73.1102 60.2416 72.9352 60.1295C71.3962 60.6096 66.2766 62.2832 64.7959 63.7594C63.2299 65.3254 58.7071 68.4214 57.2443 69.413C57.3071 69.772 57.1994 69.8707 57.0289 69.9694C56.6431 70.1937 56.329 69.7585 56.2258 69.6149L55.979 69.2694L56.2841 69.0675C56.145 68.6906 55.8803 68.031 55.3732 66.9003C53.731 63.2479 51.3036 64.0331 51.2048 64.0645L51.0478 64.1229L50.8952 64.0511C49.2081 63.2748 47.7858 63.7549 46.6416 64.1453C46.0852 64.3337 45.6051 64.4998 45.1609 64.4998C44.5776 64.4998 42.711 66.3349 41.163 68.1791C41.7957 68.6323 42.6617 69.9111 43.3257 73.375C44.2635 78.2478 47.6646 78.3331 47.8082 78.3331H47.9024L47.9877 78.3735C59.3397 83.9732 63.0101 82.9547 65.958 82.1336C66.7298 81.9182 67.4701 81.7208 68.2868 81.6355C68.4707 81.3842 68.8117 81.299 69.0899 81.456C69.1303 81.4785 69.1707 81.5099 69.2021 81.5413C73.4423 80.8413 81.6534 73.2314 81.7387 73.1507Z" fill="url(#paint6_linear)"/>
<path d="M46.498 87.1589L46.516 87.1455C46.7807 86.9301 47.1666 86.9705 47.382 87.2307C47.6018 87.4955 47.5614 87.8858 47.3012 88.1012C45.991 89.187 44.636 90.1473 43.2226 91.0536C41.8092 91.951 40.3464 92.7766 38.8208 93.4901C37.2953 94.199 35.7024 94.8002 34.0422 95.2041C32.3865 95.6034 30.6456 95.8053 28.8957 95.6258C27.1502 95.4553 25.4138 94.8541 23.951 93.84C22.4838 92.8305 21.3172 91.4619 20.4198 89.9902C18.634 87.0109 17.7635 83.6726 17.2116 80.3701V80.3612C17.1443 79.9125 17.4494 79.4952 17.8936 79.4279C18.3423 79.3606 18.7596 79.6657 18.8269 80.1099V80.1144C19.3205 83.3001 20.1371 86.4814 21.7345 89.1915C22.5331 90.5376 23.5517 91.7356 24.7991 92.6151C26.0464 93.4945 27.5137 94.024 29.0482 94.1945C30.5872 94.3695 32.1712 94.208 33.7192 93.8535C35.2717 93.4945 36.7882 92.9426 38.2555 92.2786C39.7272 91.61 41.1496 90.8293 42.5315 89.9723C43.9046 89.1063 45.2596 88.164 46.498 87.1589Z" fill="url(#paint7_linear)"/>
<path d="M154.437 10.9926L154.396 11.006C152.785 11.6342 151.188 12.3432 149.662 13.2136C148.141 14.0841 146.643 15.0219 145.22 16.0763C143.793 17.1218 142.407 18.2345 141.079 19.4146C139.755 20.5947 138.458 21.8421 137.283 23.1343L137.269 23.1523C137.05 23.3946 136.673 23.4215 136.417 23.2106C136.152 22.9907 136.116 22.6004 136.336 22.3401C137.516 20.9178 138.759 19.6031 140.065 18.3243C141.371 17.05 142.739 15.8385 144.161 14.6898C145.579 13.5322 147.091 12.4778 148.648 11.4906C150.205 10.5035 151.87 9.65995 153.58 8.90614C153.593 8.90165 153.611 8.89268 153.629 8.88819C154.208 8.66384 154.863 8.95101 155.087 9.52983C155.307 10.1131 155.02 10.7682 154.437 10.9926Z" fill="url(#paint8_linear)"/>
<path d="M155.774 29.0123L140.496 28.779C140.164 28.7745 139.89 28.5053 139.885 28.1687C139.881 27.8277 140.155 27.5451 140.496 27.5406L155.774 27.3073C155.783 27.3073 155.792 27.3073 155.801 27.3073C156.272 27.3162 156.649 27.7021 156.64 28.1732C156.635 28.6399 156.245 29.0168 155.774 29.0123Z" fill="url(#paint9_linear)"/>
<path d="M152.601 45.2776L152.225 45.2327L151.848 45.1609C150.847 44.9545 149.837 44.8154 148.859 44.5103C148.37 44.3712 147.872 44.2546 147.388 44.093L145.943 43.5726C144.04 42.8232 142.21 41.872 140.563 40.6515C140.159 40.3374 139.737 40.0413 139.365 39.6913L138.786 39.1843L138.243 38.6369C138.059 38.4574 137.884 38.269 137.718 38.0715C137.548 37.8786 137.373 37.6901 137.22 37.4792C137.063 37.2728 136.897 37.0754 136.753 36.8556C136.601 36.6402 136.466 36.4338 136.314 36.1691C136.157 35.8909 136.237 35.5274 136.511 35.3479C136.798 35.1595 137.18 35.2358 137.368 35.5229L137.395 35.5633C137.619 35.9043 137.929 36.2902 138.234 36.6312C138.382 36.8107 138.553 36.9722 138.719 37.1427C138.88 37.3132 139.046 37.4793 139.226 37.6318L139.751 38.1029L140.307 38.5382C140.671 38.8388 141.074 39.0901 141.46 39.3593C143.044 40.3958 144.785 41.172 146.584 41.7688L147.948 42.1726C148.406 42.2938 148.877 42.3745 149.339 42.4822C150.259 42.7155 151.215 42.7873 152.153 42.9264L152.507 42.9758L152.866 42.9982L153.58 43.0386L155.006 43.1239L157.869 43.088H157.963C157.986 43.088 158.008 43.088 158.035 43.088C158.753 43.1194 159.309 43.7296 159.278 44.443C159.247 45.1609 158.641 45.7173 157.923 45.6859L154.881 45.5513L153.364 45.3763L152.601 45.2776Z" fill="url(#paint10_linear)"/>
<path d="M99.0584 21.7613C98.7264 21.8376 98.3943 21.6267 98.3181 21.2902L98.3136 21.2767C98.0264 20.0024 97.6675 18.7101 97.2726 17.4493C96.8733 16.184 96.438 14.9366 95.94 13.7161C95.4329 12.5002 94.89 11.3066 94.2574 10.1759C93.6157 9.05419 92.9068 7.9818 92.0901 7.04402L92.0722 7.02159C92.0632 7.00813 92.0498 6.99466 92.0408 6.9812C91.6908 6.53699 91.7716 5.89087 92.2158 5.54089C92.66 5.19091 93.3061 5.27167 93.6561 5.71588C95.4374 7.99526 96.5637 10.5528 97.479 13.1284C97.9322 14.4206 98.3181 15.7308 98.6591 17.0455C99.0001 18.3691 99.2962 19.6793 99.5296 21.0434C99.5879 21.3709 99.3815 21.685 99.0584 21.7613Z" fill="url(#paint11_linear)"/>
<path d="M96.1508 26.0105C96.079 26.3471 95.7515 26.5624 95.415 26.4907L87.0782 24.7318C87.0468 24.7273 87.0154 24.7183 86.9884 24.7093C86.4545 24.5433 86.1539 23.9779 86.3199 23.444C86.4859 22.91 87.0513 22.6094 87.5852 22.7754L95.7246 25.2971C96.0297 25.3824 96.2181 25.692 96.1508 26.0105Z" fill="url(#paint12_linear)"/>
<path d="M89.4159 38.0715C90.5376 37.6273 91.5921 36.9767 92.5523 36.2004C93.499 35.4287 94.3964 34.4954 95.074 33.5262L95.1009 33.4903C95.2893 33.2211 95.6618 33.1448 95.94 33.3243C96.2271 33.5083 96.3124 33.8941 96.1284 34.1813C95.3656 35.3659 94.4817 36.353 93.4631 37.2683C92.4446 38.1657 91.2959 38.942 90.0306 39.5118C89.3979 39.79 88.7384 40.0233 88.0608 40.1983C87.3833 40.3599 86.6878 40.472 85.9878 40.5169C84.5879 40.5977 83.1835 40.4227 81.8419 40.0592C81.8329 40.0547 81.815 40.0503 81.806 40.0503C81.3079 39.8932 81.0342 39.3593 81.1913 38.8612C81.3483 38.3632 81.8823 38.0895 82.3803 38.2465H82.3893C83.538 38.6099 84.727 38.8119 85.9205 38.7894C86.5173 38.7804 87.1096 38.7042 87.6974 38.592C88.2807 38.4664 88.855 38.2914 89.4159 38.0715Z" fill="url(#paint13_linear)"/>
</g>
<defs>
<linearGradient id="paint0_linear" x1="-72.0276" y1="51.9424" x2="102.993" y2="42.4534" gradientUnits="userSpaceOnUse">
<stop stop-color="#E50058"/>
<stop offset="0.614583" stop-color="white"/>
</linearGradient>
<linearGradient id="paint1_linear" x1="-52.5895" y1="34.0206" x2="109.32" y2="21.0768" gradientUnits="userSpaceOnUse">
<stop stop-color="#E50058"/>
<stop offset="0.614583" stop-color="white"/>
</linearGradient>
<linearGradient id="paint2_linear" x1="-14.788" y1="33.2202" x2="101.919" y2="25.7069" gradientUnits="userSpaceOnUse">
<stop stop-color="#E50058"/>
<stop offset="0.614583" stop-color="white"/>
</linearGradient>
<linearGradient id="paint3_linear" x1="-6.13311" y1="99.7951" x2="48.7579" y2="99.3628" gradientUnits="userSpaceOnUse">
<stop stop-color="#E50058"/>
<stop offset="0.614583" stop-color="white"/>
</linearGradient>
<linearGradient id="paint4_linear" x1="-9.58358" y1="102.119" x2="45.3074" y2="101.687" gradientUnits="userSpaceOnUse">
<stop stop-color="#E50058"/>
<stop offset="0.614583" stop-color="white"/>
</linearGradient>
<linearGradient id="paint5_linear" x1="-909.912" y1="279.084" x2="60.9235" y2="258.669" gradientUnits="userSpaceOnUse">
<stop stop-color="#E50058"/>
<stop offset="0.614583" stop-color="white"/>
</linearGradient>
<linearGradient id="paint6_linear" x1="-2859.25" y1="1344.74" x2="-58.6995" y2="1316.53" gradientUnits="userSpaceOnUse">
<stop stop-color="#E50058"/>
<stop offset="0.614583" stop-color="white"/>
</linearGradient>
<linearGradient id="paint7_linear" x1="-550.256" y1="168.112" x2="4.8082" y2="151.415" gradientUnits="userSpaceOnUse">
<stop stop-color="#E50058"/>
<stop offset="0.614583" stop-color="white"/>
</linearGradient>
<linearGradient id="paint8_linear" x1="-218.796" y1="88.0641" x2="128.599" y2="80.7482" gradientUnits="userSpaceOnUse">
<stop stop-color="#E50058"/>
<stop offset="0.614583" stop-color="white"/>
</linearGradient>
<linearGradient id="paint9_linear" x1="-173.664" y1="36.6004" x2="125.779" y2="-10.9003" gradientUnits="userSpaceOnUse">
<stop stop-color="#E50058"/>
<stop offset="0.614583" stop-color="white"/>
</linearGradient>
<linearGradient id="paint10_linear" x1="-295.038" y1="92.1588" x2="126.661" y2="77.135" gradientUnits="userSpaceOnUse">
<stop stop-color="#E50058"/>
<stop offset="0.614583" stop-color="white"/>
</linearGradient>
<linearGradient id="paint11_linear" x1="-52.5882" y1="95.0015" x2="88.7884" y2="93.9311" gradientUnits="userSpaceOnUse">
<stop stop-color="#E50058"/>
<stop offset="0.614583" stop-color="white"/>
</linearGradient>
<linearGradient id="paint12_linear" x1="-98.8153" y1="43.303" x2="82.0718" y2="35.6517" gradientUnits="userSpaceOnUse">
<stop stop-color="#E50058"/>
<stop offset="0.614583" stop-color="white"/>
</linearGradient>
<linearGradient id="paint13_linear" x1="-201.037" y1="73.065" x2="74.9274" y2="63.8746" gradientUnits="userSpaceOnUse">
<stop stop-color="#E50058"/>
<stop offset="0.614583" stop-color="white"/>
</linearGradient>
</defs>
</svg>
