<svg width="520" height="718" viewBox="0 0 520 718" fill="none" xmlns="http://www.w3.org/2000/svg">
<g opacity="0.2">
<path opacity="0.07" d="M516.536 610.547C515.115 607.667 513.064 604.801 510.145 602.513C507.265 600.225 503.478 598.634 499.783 598.384L498.402 598.318L497.745 598.305H497.298L495.535 598.331L492.025 598.371C489.684 598.384 487.37 598.384 485.055 598.371C481.123 598.331 477.218 598.2 473.326 597.989C474.115 594.61 474.877 591.217 475.548 587.759C477.376 577.975 478.678 567.811 478.06 556.975C477.731 551.571 476.863 545.969 474.996 540.341C473.142 534.739 470.156 529.098 465.935 524.325L465.883 524.259C465.83 524.193 465.778 524.141 465.712 524.075C461.609 519.67 454.706 519.433 450.301 523.536C445.895 527.638 445.659 534.542 449.761 538.947C451.879 541.222 453.562 544.036 454.785 547.363C456.007 550.69 456.77 554.49 457.125 558.514C457.835 566.601 457.086 575.411 455.679 584.261C455.061 588.048 454.311 591.848 453.509 595.675C450.603 595.083 447.789 594.36 445.172 593.426C443.265 592.716 441.477 591.901 439.991 590.98C438.505 590.06 437.361 589.021 436.704 588.048C435.902 586.865 435.099 585.01 434.481 583.091C433.85 581.144 433.324 579.001 432.838 576.792C431.865 572.347 431.076 567.627 429.866 562.748C428.643 557.883 427.091 552.754 423.975 547.849C422.41 545.417 420.398 543.089 417.952 541.209C415.52 539.315 412.679 537.961 409.852 537.159C406.985 536.357 404.25 535.962 401.331 535.962C398.478 536.002 395.65 536.357 393.007 537.067C387.708 538.474 382.961 540.841 378.687 543.615C374.387 546.377 370.508 549.546 366.866 552.912C366.09 553.635 365.314 554.372 364.564 555.121C365.695 542.8 366.261 532.714 366.379 530.479C366.405 529.953 366.392 529.44 366.353 528.901L365.38 516.198C367.655 511.385 371.626 502.509 374.466 493.607C413.429 460.18 434.205 400.152 438.505 386.647C443.134 381.821 447.145 376.706 449.906 371.433C464.108 344.437 469.262 314.284 465.633 279.254C463.516 258.819 466.422 251.889 467.198 250.443C468.026 249.851 468.763 249.154 469.433 248.378C472.037 245.301 476.1 238.2 474.075 225.182C471.958 211.546 463.555 194.556 449.078 174.661C424.29 140.577 436.441 110.319 436.98 109.018C437.125 108.676 437.203 108.439 437.322 108.084L437.374 107.913C438.624 103.85 448.867 67.2541 423.37 35.0373C396.439 1.019 322.301 0.624512 319.158 0.624512C313.018 0.624512 304.983 5.8581 295.318 16.1806C289.927 21.927 280.262 33.5777 276.067 47.0298C274.081 53.368 271.951 57.1025 270.518 59.1144C266.586 64.6241 266.902 72.08 271.307 77.2347C275.673 82.3499 282.892 83.8621 288.94 80.956C290.453 81.6661 292.07 82.1132 293.753 82.2842C291.413 92.7645 291.597 102.653 291.847 107.032C291.4 109.373 290.716 113.699 290.716 118.709C290.716 124.574 292.951 128.768 295.963 131.517C296.344 135.172 297.08 139.643 298.474 144.088C295.095 145.81 292.635 149.019 291.886 152.872C291.465 155.068 290.808 158.46 290.821 162.037C286.981 163.668 280.459 165.772 270.833 167.284C251.74 170.295 231.989 188.863 220.772 201.144C211.344 176.528 194.697 152.004 167.161 142.326C135.589 131.241 83.2265 149.4 47.8275 173.083C30.6409 184.576 1.58011 207.982 0.081043 235.57C-1.65472 267.682 24.8682 304.422 43.4751 326.027C40.6084 333.01 38.5439 340.216 37.676 347.514C35.5852 365.318 45.7237 381.019 65.5008 390.605C94.4959 404.662 142.571 404.544 165.189 381.927C186.07 361.058 210.568 319.978 223.1 288.169C236.776 286.052 255.093 280.016 266.757 275.835C270.478 285.447 275.541 294.297 278.723 299.452C270.702 324.055 267.02 339.834 267.769 346.396C267.691 347.593 267.02 350.709 266.468 353.234C264.285 363.333 260.629 380.27 263.917 399.968C261.09 399.153 259.643 398.337 259.051 397.943C255.304 390.553 244.455 379.073 225.309 379.073C187.306 379.073 162.835 387.87 158.193 403.216C155.787 411.171 159.153 419.114 167.187 424.466C180.745 433.5 198.129 434.657 216.538 435.88C221.785 436.235 227.216 436.59 232.699 437.142C247.571 438.628 275.712 459.641 290.269 472.778C292.044 474.79 303.602 488.623 295.305 499.682C273.7 528.48 286.14 566.969 297.107 600.922L298.5 605.222C298.842 606.287 299.171 607.339 299.487 608.378C298.724 609.351 297.948 610.324 297.172 611.284C294.674 614.374 292.123 617.425 289.506 620.423C284.286 626.432 278.828 632.218 273.2 637.793C261.905 648.892 249.741 659.109 236.578 667.196C230.004 671.233 223.139 674.639 216.104 677.111L213.461 678.032L210.805 678.781C209.043 679.346 207.241 679.636 205.466 680.043C204.559 680.267 203.717 680.333 202.849 680.451L200.259 680.793L197.668 680.885L196.367 680.938C195.933 680.951 195.499 680.898 195.078 680.872L192.501 680.727C191.646 680.661 190.791 680.477 189.936 680.372C188.214 680.201 186.557 679.688 184.874 679.307C181.56 678.321 178.286 677.111 175.222 675.388C172.092 673.797 169.199 671.693 166.412 669.484C165.07 668.288 163.663 667.183 162.414 665.855L160.494 663.935L158.693 661.884C153.893 656.413 150.027 650.036 146.976 643.316C145.411 639.963 144.215 636.452 143.084 632.928C142.624 631.14 142.085 629.364 141.703 627.55C141.69 627.51 141.69 627.458 141.677 627.418C142.032 628.063 142.4 628.707 142.795 629.338C145.162 633.467 148.173 637.267 151.381 640.831C158.009 647.84 166.188 653.271 174.775 656.887C176.931 657.768 179.114 658.517 181.284 659.32L187.885 661.174C192.487 662.278 197.353 662.949 202.389 662.883C207.412 662.804 212.646 662.028 217.59 660.174C220.075 659.306 222.429 658.097 224.717 656.821C226.94 655.453 229.109 653.981 231.016 652.284C234.948 648.971 238.104 645.091 240.786 641.094C243.429 637.07 245.533 632.862 247.282 628.628C250.741 620.12 252.739 611.441 253.962 602.776C255.172 594.11 255.527 585.445 255.238 576.805C254.922 568.166 253.936 559.54 252.016 550.913C251.043 546.6 249.82 542.287 248.15 537.948C247.322 535.778 246.349 533.595 245.191 531.412C244.034 529.216 242.693 527.02 240.905 524.811C237.617 520.735 233.357 517.211 228.544 514.804C223.744 512.385 218.511 511.083 213.448 510.715C208.359 510.347 203.428 510.833 198.76 511.859C194.092 512.884 189.647 514.41 185.466 516.303C181.284 518.197 177.326 520.406 173.565 522.852C169.844 525.337 166.293 528.007 162.927 530.873C162.624 531.136 162.335 531.399 162.046 531.662L162.072 531.596C162.453 530.807 162.901 530.058 163.321 529.295C164.11 527.73 165.11 526.297 166.017 524.811C167.99 521.945 170.067 519.144 172.474 516.685C173.604 515.383 174.906 514.291 176.116 513.108C177.431 512.069 178.667 510.912 180.035 510.018C181.35 509.005 182.743 508.243 184.111 507.401C185.505 506.717 186.886 505.954 188.28 505.494C191.054 504.442 193.776 503.864 196.222 503.864H196.354H196.432C202.455 503.811 207.281 498.88 207.228 492.857C207.176 486.835 202.244 482.009 196.222 482.061C190.515 482.114 185.203 483.416 180.416 485.296C177.97 486.19 175.774 487.387 173.552 488.544C171.448 489.82 169.318 491.095 167.398 492.568C165.386 493.949 163.637 495.553 161.796 497.092C160.1 498.735 158.324 500.326 156.786 502.102C153.551 505.521 150.79 509.281 148.199 513.134C146.99 515.12 145.714 517.053 144.662 519.13C144.123 520.156 143.544 521.169 143.045 522.208L141.598 525.377C141.098 526.415 140.678 527.507 140.27 528.598L139.034 531.859C138.311 534.003 137.64 536.133 137.048 538.25C134.655 546.705 133.051 555.187 132.025 563.813C131.71 566.654 131.46 569.507 131.289 572.374C127.317 580.526 124.806 589.297 123.662 598.147C122.505 607.089 122.86 616.096 124.28 624.854C124.582 627.063 125.121 629.207 125.582 631.376C126.068 633.546 126.726 635.663 127.304 637.793C128.672 642.001 130.171 646.183 132.078 650.194C135.799 658.228 140.546 665.868 146.529 672.588L148.791 675.099L151.21 677.479C152.775 679.097 154.577 680.517 156.299 681.99C159.889 684.79 163.65 687.434 167.779 689.524C171.829 691.734 176.248 693.351 180.732 694.626C183.02 695.139 185.268 695.757 187.609 696.007C188.766 696.152 189.923 696.362 191.094 696.441L194.605 696.599C195.183 696.612 195.775 696.665 196.354 696.651L198.102 696.573L201.6 696.402L205.045 695.928C206.189 695.757 207.36 695.626 208.438 695.363C210.621 694.863 212.843 694.442 214.947 693.759L218.143 692.825L221.259 691.72C229.543 688.709 237.275 684.738 244.508 680.201C258.986 671.102 271.754 660.082 283.536 648.313C289.401 642.396 295.042 636.281 300.433 629.956C301.669 628.523 302.879 627.063 304.089 625.604C308.428 644.566 308.271 655.427 308.257 655.545L308.218 656.953L308.534 658.32C308.836 659.635 316.042 690.774 321.144 703.516C326.68 717.362 345.747 717.362 352.02 717.375C352.033 717.375 352.046 717.375 352.072 717.375C362.066 717.375 371.968 715.876 375.768 715.219C380.647 714.39 384.591 710.748 385.801 705.948C387.761 698.19 385.223 688.078 378.266 675.901C367.129 656.413 353.177 615.386 357.464 600.83C359.804 592.887 361.606 581.578 362.96 570.335C363.144 570.125 363.328 569.915 363.526 569.704C366.603 566.312 369.851 563.09 373.256 560.118C376.662 557.146 380.226 554.424 383.96 552.176C387.682 549.901 391.6 548.152 395.479 547.245C397.426 546.771 399.345 546.627 401.213 546.64C403.04 546.679 405.013 547.047 406.683 547.573C410.102 548.652 412.587 550.742 414.494 553.911C416.401 557.067 417.624 561.157 418.557 565.47C419.504 569.809 420.148 574.451 421.056 579.29C421.516 581.71 422.042 584.208 422.791 586.786C423.567 589.376 424.474 591.993 426.197 594.82C428.104 597.858 430.602 600.014 433.061 601.658C435.546 603.315 438.058 604.512 440.57 605.524C443.91 606.826 447.21 607.786 450.511 608.562C450.287 609.469 450.064 610.363 449.84 611.27C447.539 620.331 444.962 629.391 442.661 638.911C442.082 641.304 441.543 643.606 441.03 646.577C440.609 649.444 440.32 652.403 440.517 655.545C440.675 658.662 441.188 661.923 442.411 665.158C443.607 668.38 445.475 671.549 447.973 674.192C450.458 676.835 453.522 678.899 456.704 680.254C459.887 681.621 463.187 682.331 466.369 682.568C472.734 682.976 478.704 681.727 484.043 679.57C494.773 675.257 503.162 667.525 509.316 658.794C515.484 649.931 519.639 639.411 519.981 628.076C520.139 622.29 519.35 616.359 516.536 610.547ZM174.341 544.168C177.194 541.787 180.166 539.591 183.23 537.593C186.307 535.647 189.489 533.911 192.724 532.477C199.181 529.611 206.019 528.099 212.094 528.598C218.182 529.111 223.179 531.636 226.756 536.186C228.32 538.145 229.833 541.209 231.042 544.43C232.252 547.692 233.238 551.229 234.027 554.845C235.579 562.104 236.394 569.717 236.592 577.331C236.776 584.945 236.381 592.585 235.263 600.014C234.146 607.431 232.344 614.689 229.609 621.238C226.887 627.76 223.153 633.559 218.524 637.412C213.921 641.318 208.491 643.159 202.284 643.172C199.194 643.185 195.946 642.738 192.645 641.909L187.517 640.423C185.886 639.779 184.229 639.2 182.625 638.543C176.274 635.781 170.698 631.916 166.175 627.076C164.005 624.578 161.914 621.974 160.284 619.003C159.376 617.595 158.693 616.004 157.917 614.492C157.549 613.729 157.259 612.901 156.917 612.112C156.589 611.31 156.247 610.534 155.997 609.679L155.169 607.194C154.906 606.366 154.708 605.485 154.458 604.643C153.946 602.96 153.656 601.172 153.262 599.436C152.657 595.885 152.144 592.282 151.96 588.587C151.539 582.381 151.776 576.016 152.394 569.665C158.469 560.092 165.846 551.347 174.341 544.168ZM392.1 433.828C393.56 431.014 396.571 424.466 397.149 417.339C399.385 416.063 401.988 414.538 404.829 412.776C400.437 422.296 395.006 432.829 388.536 443.086L392.1 433.828ZM365.169 178.579L365.196 178.711C365.196 178.724 365.209 178.777 365.209 178.75L365.182 178.672C365.169 178.619 365.169 178.593 365.169 178.553V178.579ZM364.393 168.244C364.433 170.453 364.499 172.649 364.683 174.937C363.144 174.345 361.54 173.609 359.975 172.872C357.95 171.899 355.925 170.874 353.913 169.822C353.085 169.388 352.269 168.928 351.441 168.494C352.48 168.375 353.532 168.296 354.558 168.02C356.898 167.481 359.291 167.021 361.606 166.061C362.553 165.759 363.473 165.377 364.393 164.969C364.393 166.061 364.38 167.152 364.393 168.244ZM365.853 135.067L365.866 135.028L365.893 134.975L365.906 135.014L365.932 135.12C365.893 135.107 365.866 135.08 365.853 135.067ZM113.747 357.337C113.024 356.377 112.143 355.509 111.091 354.799C110.854 354.641 87.8816 338.506 91.7739 323.673C94.6931 312.562 103.254 305.737 108.869 302.318C114.641 305.04 123.425 306.368 135.72 306.368C144.491 306.368 154.117 304.646 163.755 302.279C161.559 305.698 159.311 309.09 157.01 312.43C151.5 320.373 145.688 328.105 139.415 335.337C133.156 342.517 126.41 349.407 118.915 354.417C117.232 355.535 115.496 356.534 113.747 357.337ZM69.6167 322.398C69.7219 322.214 69.8402 322.03 69.9586 321.845C69.9191 322.122 69.8796 322.398 69.8401 322.687C69.7612 322.582 69.6956 322.49 69.6167 322.398ZM204.059 268.55C205.532 266.577 207.044 264.631 208.609 262.738C208.241 264.368 207.767 266.104 207.215 267.958C206.189 268.129 205.137 268.326 204.059 268.55ZM207.754 234.768C207.149 235.373 206.531 235.965 205.94 236.57C202.205 240.475 198.773 244.538 195.578 248.733C192.435 252.954 189.489 257.294 186.767 261.725C184.098 266.143 181.599 270.654 179.325 275.269C164.597 279.688 148.068 284.566 135.733 284.566C128.277 284.566 123.793 284.014 121.203 283.488V273.783L106.541 279.188C106.462 279.214 106.225 279.306 105.897 279.438C108.343 277.215 110.091 275.729 110.788 275.151C135.01 258.898 165.951 241.001 175.932 239.673C185.466 238.397 197.524 235.347 207.36 232.546C207.491 233.309 207.623 234.032 207.754 234.768ZM21.8832 236.727C22.5933 223.683 36.8344 206.654 59.9778 191.177C88.0262 172.425 121.913 160.709 145.135 160.709C150.79 160.709 155.826 161.406 159.968 162.866C180.732 170.164 193.947 190.769 201.495 211.559C192.435 214.136 181.389 216.963 173.039 218.081C153.512 220.685 107.29 251.245 98.2566 257.32C97.8753 257.57 97.6254 257.754 97.2967 258.03C93.6148 261.028 70.9447 280.056 54.5602 305.29C33.1788 278.964 20.9627 253.73 21.8832 236.727ZM149.817 366.489C135.97 380.335 98.9405 382.545 75.0475 370.973C63.6599 365.45 58.3736 358.415 59.3598 350.038C59.728 346.856 60.438 343.661 61.4243 340.465C64.1068 340.465 66.7894 339.466 68.8934 337.48C69.5246 336.889 70.0505 336.231 70.5108 335.534C70.616 335.968 70.6948 336.389 70.8132 336.823C70.3003 336.968 69.827 337.231 69.4194 337.625C68.1307 338.888 68.1307 340.965 69.3931 342.241C71.497 344.371 73.6273 346.475 75.797 348.553C84.1733 362.886 98.0463 372.314 98.9667 372.932C103.977 376.272 110.736 374.931 114.089 369.921C114.654 369.079 115.075 368.172 115.378 367.251C115.864 367.094 116.351 366.949 116.824 366.778C119.493 365.805 121.966 364.595 124.306 363.267C133.616 357.849 141.217 350.88 148.396 343.687C155.537 336.442 162.112 328.775 168.371 320.886C174.617 312.983 180.548 304.869 186.162 296.453C186.281 296.269 186.412 296.072 186.531 295.888C190.305 294.757 194.013 293.653 197.511 292.653C185.505 318.65 166.517 349.789 149.817 366.489ZM269.808 251.429C262.22 254.401 244.731 260.739 230.464 264.394C230.95 261.83 231.279 259.424 231.384 257.28C231.581 253.441 231.411 248.378 230.793 242.526C234.106 240.501 237.499 238.923 240.707 238.082C240.957 238.016 241.22 237.937 241.457 237.858C247.151 235.899 250.188 229.692 248.229 223.999C246.467 218.87 241.247 215.911 236.066 216.806C246.309 205.523 262.417 190.677 274.279 188.797C286.692 186.837 294.963 183.971 299.723 181.919C308.718 178.027 313.11 173.806 313.978 168.231C313.991 168.152 313.991 168.073 313.991 167.994C314.517 167.862 315.043 167.744 315.582 167.639C316.594 167.481 317.646 167.218 318.685 167.139C320.789 166.837 322.893 166.771 325.05 166.784C327.193 166.85 329.349 167.073 331.493 167.481C332.571 167.678 333.623 167.954 334.675 168.257C335.188 168.415 335.714 168.573 336.201 168.757L336.924 169.02C337.147 169.085 337.437 169.243 337.516 169.217L339.001 168.743C342.986 171.045 346.957 173.241 351.02 175.384C353.085 176.462 355.162 177.527 357.293 178.54C359.436 179.553 361.553 180.539 364.025 181.367C364.656 181.564 365.301 181.762 366.129 181.919C366.55 181.985 366.997 182.064 367.72 182.025L367.983 181.998L368.338 181.946C368.457 181.919 368.562 181.906 368.707 181.867C368.864 181.814 369.035 181.762 369.193 181.696C369.456 181.604 369.956 181.288 370.271 180.986C370.64 180.618 371.008 180.105 371.152 179.658C371.244 179.434 371.31 179.158 371.35 178.948C371.376 178.764 371.389 178.579 371.402 178.395C371.416 177.975 371.363 177.804 371.323 177.527L371.231 177.041C371.192 176.817 371.139 176.646 371.113 176.397C371.06 175.884 370.981 175.41 370.942 174.858C370.758 172.715 370.692 170.453 370.653 168.191C370.626 166.008 370.626 163.812 370.64 161.616C374.308 159.131 377.714 155.988 380.489 152.254C382.172 150.058 383.553 147.638 384.802 145.087C385.367 143.785 385.946 142.484 386.406 141.076C386.656 140.393 386.866 139.669 387.064 138.92C387.169 138.552 387.261 138.17 387.353 137.736L387.484 137.105L387.511 136.947L387.55 136.698L387.616 136.185C387.892 130.175 383.237 125.073 377.228 124.797C371.244 124.521 366.169 129.137 365.853 135.107C361.277 132.03 355.018 132.845 351.402 137.184C351.336 137.263 344.406 145.311 330.296 139.051C326.864 137.526 323.064 137.921 320.105 139.762C317.936 134.62 317.502 127.677 317.423 125.665C317.278 121.891 315.463 118.512 312.636 116.289C312.847 113.173 313.359 110.806 313.438 110.464C313.715 109.254 313.807 108.005 313.715 106.756C312.965 97.025 314.451 80.0882 321.604 73.3029C323.485 71.5146 326.838 69.2528 334.175 70.1996C354.61 72.8427 359.541 79.3518 360.567 81.298C363.039 85.9661 368.194 88.5829 373.427 87.8202C378.661 87.0575 382.882 83.06 383.921 77.8659L384.736 73.8289C385.959 67.6617 382.382 61.4945 376.412 59.5089C355.031 52.3554 332.229 35.7079 327.864 32.4336C323.051 28.8306 316.529 29.1988 312.123 33.1569C307.758 34.9452 304.838 39.0217 304.431 43.6372C304.326 43.6372 304.22 43.6372 304.115 43.6372C303.182 43.6504 302.287 43.7687 301.42 43.9791C307.508 33.9196 316.897 25.0041 321.039 22.4793C339.896 22.7949 390.022 27.9628 406.354 48.6078C424.422 71.4357 417.663 97.8929 416.703 101.22C414.652 106.545 401.147 145.771 431.51 187.521C453.811 218.186 453.22 231.218 452.641 234.19C446.487 239.594 440.991 252.284 444.015 281.529C447.184 312.141 442.818 338.243 430.681 361.308C422.857 376.167 396.281 393.248 381.817 400.98C379.489 402.23 377.688 404.15 376.557 406.411C357.069 418.036 322.078 426.109 301.683 419.706C294.897 417.575 290.716 414.156 288.888 409.238C288.888 409.225 288.875 409.212 288.875 409.186C281.222 388.501 285.206 370.065 287.836 357.862C289.085 352.05 290.006 347.803 289.48 343.871C289.611 338.927 295.542 318.072 301.104 301.398L302.813 296.243L299.736 291.772C296.37 286.88 287.073 271.508 284.457 259.332L281.774 246.787L269.808 251.429ZM359.384 686.592C361.33 689.998 362.566 692.72 363.342 694.824C352.085 695.994 343.827 695.35 340.974 694.127C337.41 684.58 332.203 663.527 330.099 654.507C330.033 648.892 329.021 628.852 319.277 598.528L317.883 594.189C308.086 563.866 297.961 532.491 312.781 512.727C328.639 491.595 315.227 467.373 305.93 457.524L305.338 456.946C300.973 452.974 261.931 418.114 234.908 415.419C229.07 414.84 223.455 414.459 218.024 414.104C203.533 413.144 190.831 412.289 182.073 407.897C187.675 404.978 200.693 400.836 225.349 400.836C234.882 400.836 238.735 406.24 239.59 407.713C241.865 413.262 249.123 421.139 271.675 423.374C276.632 431.304 284.601 437.142 295.121 440.443C302.09 442.626 310.046 443.612 318.448 443.612C334.951 443.612 353.124 439.825 368.68 433.999L365.958 441.074L365.695 441.81C364.933 444.256 358.121 466.058 355.702 479.405C355.439 480.865 355.057 482.417 354.61 484.034C354.597 484.1 354.571 484.152 354.558 484.218C351.612 494.659 345.511 507.256 344.722 508.861C343.735 510.872 343.301 513.108 343.485 515.343L344.603 529.94C343.722 546.14 340.974 579.645 336.595 594.544C328.863 620.817 350.586 671.207 359.384 686.592ZM504.727 627.326C504.306 634.979 501.085 642.777 496.259 649.247C491.367 655.809 484.963 661.108 477.954 663.646C474.483 664.948 470.906 665.447 467.829 665.158C464.726 664.816 462.398 663.633 460.991 661.989C459.584 660.358 458.664 657.926 458.651 654.638C458.585 653.047 458.822 651.272 459.124 649.47C459.466 647.787 460.044 645.486 460.649 643.29C463.056 634.453 465.909 625.38 468.539 616.162C468.986 614.584 469.433 612.993 469.867 611.402C469.959 611.415 470.065 611.428 470.157 611.428C475.022 611.888 479.874 612.178 484.7 612.362C487.12 612.454 489.526 612.52 491.919 612.572L495.509 612.638L497.298 612.664H497.745C497.876 612.664 497.903 612.677 497.981 612.691C498.113 612.704 498.244 612.717 498.376 612.73C499.415 612.835 500.151 613.243 500.953 613.9C501.755 614.558 502.544 615.623 503.162 617.004C504.425 619.805 504.99 623.552 504.727 627.326Z" fill="black"/>
<path d="M281.169 49.055C280.84 48.9892 280.525 49.1996 280.459 49.5284C279.302 55.288 277.014 57.6681 276.987 57.6944C276.751 57.931 276.751 58.3124 276.987 58.5491C277.106 58.6674 277.264 58.72 277.408 58.72C277.566 58.72 277.724 58.6674 277.829 58.5491C277.934 58.4439 280.393 55.9323 281.629 49.7651C281.708 49.4495 281.498 49.1207 281.169 49.055Z" fill="url(#paint0_linear)"/>
<path d="M287.218 50.2647C286.889 50.199 286.574 50.4094 286.508 50.7381C285.351 56.4977 283.063 58.8778 283.036 58.9041C282.8 59.1408 282.8 59.5221 283.036 59.7588C283.155 59.8771 283.313 59.9297 283.457 59.9297C283.615 59.9297 283.773 59.8771 283.878 59.7588C283.983 59.6536 286.442 57.142 287.678 50.9748C287.757 50.6592 287.547 50.3305 287.218 50.2647Z" fill="url(#paint1_linear)"/>
<path d="M315.674 145.219C321.249 147.691 326.22 148.625 330.573 148.625C343.657 148.625 350.915 140.156 351.007 140.038C351.441 139.525 351.362 138.762 350.849 138.328C350.337 137.894 349.574 137.96 349.14 138.473C348.667 139.038 337.305 152.162 316.647 142.983C316.029 142.707 315.319 142.983 315.043 143.601C314.78 144.233 315.056 144.943 315.674 145.219Z" fill="url(#paint2_linear)"/>
<path d="M302.643 155.62H302.853C304.023 155.594 305.194 155.515 306.377 155.515C307.547 155.567 308.731 155.515 309.901 155.646C312.255 155.778 314.582 156.159 316.897 156.633C319.198 157.145 321.473 157.842 323.682 158.723C324.984 159.249 326.286 159.854 327.522 160.525L327.18 160.604L330.099 162.116C334.11 164.43 338.134 166.666 342.223 168.822C344.275 169.901 346.339 170.953 348.43 171.952C350.534 172.938 352.638 173.924 354.939 174.687C355.518 174.871 356.109 175.055 356.78 175.174C357.109 175.226 357.464 175.279 357.924 175.253C358.029 175.253 358.147 175.239 358.292 175.2C358.41 175.187 358.581 175.134 358.752 175.055C358.897 175.003 359.121 174.858 359.278 174.713C359.449 174.542 359.62 174.306 359.686 174.082C359.87 173.596 359.804 173.267 359.765 172.991L359.686 172.544C359.647 172.281 359.581 172.044 359.541 171.781C359.476 171.229 359.397 170.703 359.357 170.137C359.16 167.902 359.094 165.614 359.055 163.339C359.002 159.723 359.042 156.093 359.121 152.464C361.764 150.229 364.131 147.599 366.05 144.64C367.379 142.668 368.417 140.511 369.351 138.289C369.746 137.158 370.193 136.027 370.495 134.843C370.666 134.265 370.811 133.66 370.942 133.042C371.008 132.74 371.074 132.424 371.126 132.095C371.179 131.766 371.231 131.464 371.284 131.004L371.363 130.202C371.389 129.833 371.376 129.452 371.31 129.058C370.876 126.717 368.641 125.165 366.3 125.599C363.96 126.033 362.408 128.269 362.842 130.609C362.855 130.675 362.842 130.912 362.829 131.109C362.829 131.306 362.802 131.53 362.776 131.753C362.737 132.2 362.697 132.647 362.605 133.108C362.487 134.028 362.25 134.936 362.053 135.856C361.527 137.658 360.922 139.485 360.041 141.182C358.358 144.614 355.925 147.717 352.98 150.347C351.402 151.544 349.889 152.845 348.088 153.805C346.405 154.936 344.498 155.686 342.631 156.541C341.71 157.014 340.698 157.251 339.725 157.592L336.753 158.552L331.059 159.788C329.192 158.171 327.233 156.909 325.142 155.738C322.893 154.502 320.526 153.45 318.094 152.582C315.648 151.767 313.149 151.031 310.598 150.571C309.336 150.281 308.047 150.163 306.758 149.952C305.47 149.795 304.181 149.716 302.879 149.584C302.761 149.571 302.63 149.571 302.524 149.571C300.841 149.611 299.526 151.004 299.566 152.688C299.566 154.344 300.959 155.659 302.643 155.62ZM337.371 161.643L340.619 160.998C341.697 160.762 342.815 160.63 343.867 160.236C345.997 159.552 348.18 158.96 350.218 157.934C352.348 157.093 354.268 155.844 356.254 154.647C356.385 154.555 356.517 154.45 356.648 154.358C356.596 157.356 356.57 160.354 356.622 163.365C356.662 165.68 356.727 167.994 356.938 170.348C356.977 170.926 357.069 171.531 357.135 172.136C357.161 172.346 357.214 172.557 357.253 172.78C357.227 172.78 357.214 172.78 357.188 172.767C356.727 172.688 356.201 172.531 355.688 172.373C351.52 170.913 347.404 168.757 343.354 166.666C340.435 165.127 337.542 163.523 334.662 161.906C335.556 161.827 336.464 161.735 337.371 161.643Z" fill="url(#paint3_linear)"/>
<path d="M502.018 608.049C500.887 605.708 499.296 603.486 497.14 601.789C495.01 600.093 492.327 598.923 489.592 598.726C488.159 598.62 487.041 598.66 485.857 598.66H482.32C479.966 598.66 477.613 598.634 475.259 598.581C470.551 598.489 465.857 598.292 461.175 597.937C459.203 597.792 457.244 597.608 455.284 597.397C456.56 592.19 457.743 586.957 458.69 581.644C460.36 572.203 461.465 562.524 460.82 552.688C460.478 547.784 459.65 542.826 458.006 538.04C456.376 533.253 453.864 528.638 450.406 524.772L450.393 524.759C449.275 523.522 447.355 523.43 446.119 524.548C444.883 525.666 444.791 527.586 445.909 528.822L445.922 528.835C448.801 532.017 450.945 535.844 452.405 539.999C453.864 544.154 454.666 548.612 455.008 553.136C455.692 562.209 454.732 571.519 453.167 580.697C452.234 586.062 451.076 591.401 449.801 596.727C448.946 596.595 448.078 596.477 447.223 596.332C442.634 595.543 438.098 594.505 433.824 592.913C431.707 592.098 429.642 591.138 427.801 589.955C425.96 588.771 424.33 587.325 423.225 585.615C422.081 583.84 421.253 581.71 420.569 579.54C419.898 577.357 419.372 575.096 418.899 572.807C417.952 568.218 417.216 563.524 416.098 558.843C414.98 554.174 413.547 549.427 410.865 545.154C409.523 543.037 407.84 541.064 405.815 539.486C403.803 537.895 401.449 536.751 399.03 536.041C396.597 535.344 394.138 534.95 391.613 534.936C389.115 534.963 386.617 535.239 384.223 535.87C379.437 537.093 374.979 539.236 370.916 541.84C366.813 544.417 363.052 547.429 359.502 550.65C353.466 556.173 348.035 562.222 343.104 568.731C345.76 548.52 346.957 526.494 347.023 525.166C347.023 525.048 347.023 524.929 347.023 524.811L345.852 509.623C345.852 509.544 345.866 509.479 345.892 509.413C347.246 506.665 353.151 494.317 356.372 483.192C397.412 449.726 418.754 381.703 420.267 376.732C424.987 372.051 429.024 367.107 431.667 362.097C444.962 336.849 449.748 308.499 446.329 275.427C443.055 243.71 450.682 238.463 451.563 237.964C451.879 237.779 452.142 237.569 452.365 237.306C454.535 234.742 463.713 219.725 431.575 175.542C403.58 137.04 417.755 101.969 418.373 100.483C418.413 100.404 418.426 100.352 418.465 100.247C418.899 98.8265 428.932 65.0581 406.117 36.2471C382.067 5.85812 310.217 5.51624 309.493 5.51624C303.971 5.51624 281.721 25.6484 275.646 45.1231C273.753 51.1983 271.425 56.182 268.743 59.9429C267.375 61.8627 267.48 64.348 269.019 66.1495C270.557 67.951 273.029 68.4507 275.146 67.3987C275.672 67.1357 276.225 66.8464 276.79 66.5308C279.078 65.2553 280.775 64.874 281.208 65.5183C282.287 67.1357 284.141 68.0168 286.034 67.8458C287.889 67.6617 289.427 66.5309 290.15 64.7951C291.689 61.1526 293.043 56.6028 294.187 51.264C294.24 50.9879 294.437 50.9353 294.595 50.9353C294.779 50.9484 294.95 50.9879 295.016 51.2509C295.252 52.2108 295.963 52.9604 296.896 53.276C297.83 53.5784 298.829 53.3812 299.579 52.7631C302.537 50.3041 307.403 45.3861 306.772 40.0605C306.745 39.8633 306.811 39.6266 307.008 39.5477C308.547 38.9691 309.678 38.259 310.401 37.4437C310.493 37.3385 310.716 37.1807 310.887 37.3122C315.227 40.5602 326.877 48.976 340.882 56.4582C336.727 55.1827 331.822 54.1175 326.01 53.368C316.779 52.1714 309.23 54.3016 303.55 59.693C290.019 72.5403 291.689 99.7996 291.926 102.969C291.649 104.178 290.742 108.57 290.742 113.909C290.742 119.077 293.964 120.55 295.344 120.944C295.502 120.984 295.621 121.142 295.621 121.326C295.752 124.6 296.37 132.95 299.316 139.814C300.091 141.616 300.157 143.141 299.539 144.338C298.422 146.507 295.252 147.388 293.937 147.665C292.82 147.901 291.965 148.782 291.741 149.9C290.019 158.868 291.189 161.143 292.096 161.906C290.597 163.694 281.853 169.033 262.681 172.057C240.576 175.542 214.29 207.272 211.357 210.875C211.305 210.941 211.252 210.98 211.173 210.993C210.542 211.204 208.846 211.756 206.4 212.519C204.848 207.127 202.968 201.631 200.719 196.24C193.303 178.461 179.219 155.436 154.288 146.665C125.726 136.632 76.9542 153.99 43.5408 176.344C16.8469 194.201 1.01473 214.228 0.0942543 231.31C-1.60206 262.764 29.2865 301.674 45.2108 319.518C41.3842 327.408 38.6096 335.626 37.6366 343.858C36.0323 357.507 44.0011 369.316 60.07 377.101C86.0801 389.711 129.5 389.461 148.686 370.289C171.08 347.895 195.683 304.291 206.466 274.428C222.995 273.586 256.106 261.186 263.22 258.451C266.915 273.757 277.619 290.207 279.709 293.337C278.026 298.452 266.56 333.496 267.743 340.584C268.033 342.359 267.257 345.962 266.284 350.512C263.588 362.965 259.143 383.596 267.191 406.898C243.811 405.478 241.063 398.232 241.036 398.193L240.97 398.022C240.707 397.443 234.382 383.991 215.644 383.991C179.298 383.991 160.402 392.657 157.799 401.257C156.668 405.004 158.469 408.699 162.901 411.645C174.301 419.245 189.7 420.271 207.518 421.454C212.843 421.81 218.366 422.178 224.007 422.743C247.545 425.097 287.1 460.825 287.428 461.127C287.626 461.337 307.153 482.39 293.398 500.747C274.805 525.534 285.916 559.921 296.659 593.19L298.053 597.503C298.448 598.712 298.816 599.896 299.171 601.079C289.703 613.927 279.131 626.064 267.822 637.359C256.329 648.734 243.916 659.28 230.201 667.801C223.35 672.048 216.117 675.678 208.583 678.387L205.742 679.386L202.863 680.214C200.956 680.819 198.983 681.174 197.037 681.608C196.064 681.858 195.078 681.95 194.092 682.082L191.146 682.476L188.174 682.594L186.688 682.66C186.189 682.673 185.702 682.621 185.202 682.608L182.231 682.463C181.244 682.397 180.271 682.2 179.285 682.082C177.313 681.884 175.406 681.332 173.473 680.885C169.673 679.78 165.925 678.4 162.454 676.48C158.916 674.678 155.655 672.364 152.526 669.892C151.026 668.577 149.462 667.341 148.081 665.894L145.964 663.79L143.978 661.555C138.692 655.572 134.458 648.668 131.131 641.396C129.435 637.767 128.107 633.98 126.884 630.18C126.371 628.247 125.792 626.327 125.358 624.368C124.964 622.408 124.477 620.462 124.227 618.477C122.991 610.574 122.715 602.5 123.793 594.583C124.793 587.193 126.857 579.961 130.013 573.215C129.908 577.042 129.961 580.868 130.237 584.695C130.46 588.824 131.065 592.927 131.788 597.003C132.249 599.028 132.604 601.066 133.209 603.065C133.498 604.064 133.735 605.077 134.063 606.063L135.076 609.022C135.391 610.021 135.812 610.968 136.207 611.928C136.614 612.888 136.983 613.861 137.443 614.808C138.39 616.662 139.244 618.582 140.388 620.344C142.453 623.986 145.07 627.287 147.857 630.416C153.617 636.518 160.705 641.304 168.371 644.565C170.304 645.354 172.263 646.025 174.209 646.761L180.206 648.458C184.269 649.444 188.464 650.023 192.698 649.983C196.919 649.931 201.206 649.299 205.203 647.8C207.228 647.117 209.135 646.13 211.002 645.091C212.817 643.974 214.592 642.777 216.183 641.383C222.679 635.847 227.137 628.47 230.293 620.83C233.449 613.138 235.369 605.051 236.552 596.898C237.722 588.745 238.104 580.5 237.841 572.295C237.578 564.076 236.67 555.884 234.895 547.823C234.001 543.799 232.87 539.802 231.397 535.909C229.885 532.03 228.084 528.204 225.388 524.798C222.719 521.471 219.339 518.67 215.499 516.737C211.673 514.791 207.452 513.726 203.231 513.397C194.749 512.779 186.386 514.896 178.825 518.276C175.038 519.985 171.395 521.984 167.924 524.219C164.479 526.507 161.165 528.98 158.009 531.649C148.896 539.46 141.138 548.717 134.734 558.816C135.72 551.4 137.193 544.036 139.258 536.856C141.388 529.111 144.662 521.866 148.988 515.186C151.211 511.911 153.577 508.703 156.326 505.849C157.628 504.35 159.127 503.062 160.534 501.681C162.059 500.445 163.519 499.09 165.149 497.999C166.714 496.802 168.41 495.829 170.08 494.804C171.816 493.923 173.539 492.989 175.367 492.331C178.97 490.938 182.77 490.057 186.57 490.03H186.596C187.622 490.017 188.451 489.189 188.437 488.163C188.424 487.137 187.596 486.309 186.57 486.322C182.218 486.361 177.97 487.348 174.025 488.886C172.013 489.609 170.159 490.622 168.279 491.582C166.477 492.686 164.65 493.738 162.993 495.014C161.244 496.197 159.705 497.618 158.088 498.932C156.602 500.392 155.011 501.773 153.643 503.351C150.75 506.375 148.278 509.742 145.938 513.187C141.414 520.156 137.956 527.901 135.786 535.857C133.511 543.786 131.946 551.873 130.947 560.039C130.71 562.091 130.513 564.142 130.355 566.193C129.566 567.627 128.79 569.06 128.054 570.519C124.372 577.962 122.018 586.023 120.927 594.228C119.835 602.447 120.125 610.784 121.413 618.937C121.676 620.988 122.189 622.987 122.597 625.012C123.044 627.024 123.649 629.009 124.175 630.995C125.437 634.927 126.818 638.819 128.58 642.554C132.025 650.049 136.404 657.163 141.887 663.356L143.952 665.671L146.161 667.854C147.594 669.353 149.238 670.628 150.79 671.996C154.051 674.56 157.457 676.966 161.165 678.86C164.807 680.872 168.752 682.318 172.75 683.475C174.788 683.936 176.8 684.514 178.878 684.725C179.916 684.856 180.942 685.053 181.981 685.119L185.111 685.277C185.636 685.29 186.149 685.343 186.675 685.33L188.24 685.264L191.37 685.132L194.46 684.712C195.486 684.567 196.538 684.462 197.537 684.212C199.549 683.752 201.6 683.383 203.56 682.752L206.531 681.897L209.451 680.872C217.209 678.084 224.586 674.349 231.542 670.023C245.481 661.344 257.986 650.654 269.571 639.161C280.538 628.168 290.742 616.478 300.026 603.999C308.678 633.388 308.284 650.838 308.271 651.022V651.18L308.31 651.338C308.612 652.626 315.648 683.055 320.473 695.113C322.919 701.228 332.598 702.911 342.499 702.911C351.244 702.911 360.173 701.596 364.472 700.872C365.577 700.688 366.471 699.86 366.747 698.782C367.497 695.823 367.628 688.919 360.199 675.901C349.6 657.36 332.821 612.651 338.515 593.282C340.04 588.087 341.342 581.21 342.42 573.807C342.46 573.767 342.512 573.728 342.552 573.675L342.578 573.636C348.048 566.088 354.334 558.974 361.277 552.728C364.762 549.625 368.444 546.732 372.389 544.299C376.307 541.84 380.528 539.867 384.92 538.789C387.116 538.224 389.365 538.013 391.587 538C393.809 538.027 396.058 538.408 398.162 539.026C402.423 540.262 405.947 543.142 408.248 546.942C410.588 550.729 411.93 555.187 412.969 559.71C414.007 564.247 414.704 568.915 415.638 573.61C416.111 575.963 416.624 578.317 417.334 580.671C418.057 583.025 418.925 585.365 420.319 587.588C421.766 589.876 423.778 591.625 425.882 593.019C427.999 594.412 430.26 595.478 432.549 596.372C437.138 598.121 441.858 599.225 446.592 600.08C447.368 600.211 448.144 600.33 448.92 600.461C448.276 603.065 447.605 605.682 446.908 608.272C444.488 617.385 441.806 626.458 439.465 635.729C438.887 638.043 438.321 640.344 437.874 642.856C437.493 645.341 437.23 647.866 437.374 650.456C437.519 655.559 439.228 661.016 442.976 665.013C444.83 666.999 447.105 668.577 449.551 669.629C451.997 670.694 454.601 671.299 457.191 671.496C462.372 671.864 467.474 670.878 472.129 669.037C481.518 665.368 489.197 658.504 494.891 650.562C500.572 642.567 504.385 633.02 504.753 623.026C504.977 617.898 504.267 612.756 502.018 608.049ZM133.971 565.575C140.809 553.622 149.501 542.695 159.942 533.779C163.006 531.189 166.214 528.809 169.554 526.599C172.921 524.443 176.419 522.523 180.048 520.893C187.28 517.671 195.196 515.725 202.981 516.303C206.86 516.606 210.66 517.592 214.092 519.328C217.525 521.063 220.549 523.562 222.955 526.586C225.322 529.571 227.045 533.174 228.465 536.869C229.872 540.578 230.95 544.43 231.818 548.349C233.528 556.173 234.409 564.208 234.659 572.242C234.895 580.277 234.514 588.35 233.357 596.293C232.186 604.222 230.306 612.073 227.268 619.436C224.231 626.761 219.997 633.677 214.04 638.714C208.162 643.829 200.456 646.498 192.672 646.485C188.766 646.525 184.848 645.986 181.008 645.039L175.275 643.395C173.42 642.685 171.54 642.041 169.712 641.291C162.427 638.175 155.787 633.664 150.382 627.918C147.778 624.972 145.306 621.882 143.373 618.424C142.308 616.767 141.506 614.952 140.599 613.19C140.165 612.296 139.823 611.362 139.442 610.455C139.06 609.535 138.666 608.627 138.376 607.681L137.417 604.867C137.114 603.92 136.877 602.947 136.614 602C136.036 600.093 135.694 598.134 135.26 596.188C134.563 592.269 133.998 588.311 133.774 584.314C133.287 578.094 133.445 571.821 133.971 565.575ZM357.437 479.076C357.622 478.288 357.779 477.498 357.924 476.736C360.278 463.81 367.26 441.547 367.563 440.574L373.572 424.939C374.111 423.953 378.503 415.55 377.793 408.555C377.951 408.186 377.938 407.753 377.688 407.411C377.662 407.371 377.635 407.358 377.609 407.332C377.596 407.279 377.596 407.227 377.583 407.174C377.543 407.016 377.635 406.845 377.793 406.766C382.751 404.11 401.831 393.511 416.611 380.151C411.364 395.839 391.574 449.411 357.437 479.076ZM207.767 229.798C205.269 231.823 202.876 233.966 200.614 236.215C197.024 239.844 193.671 243.671 190.528 247.629C187.438 251.626 184.519 255.742 181.81 259.989C179.127 264.25 176.603 268.602 174.301 273.073C173.039 275.519 171.711 277.939 170.33 280.332C155.497 284.763 139.165 289.418 126.042 289.418C103.201 289.418 101.847 284.579 101.82 284.579L102.175 282.712L100.19 283.448C99.2299 283.803 76.5203 292.416 70.3793 315.757C66.3029 331.248 77.5329 345.12 86.067 353.063C85.8961 352.945 85.7119 352.839 85.5278 352.721C77.8484 347.514 70.6949 341.412 63.8045 335.074L50.589 321.714L50.5758 321.727C49.8131 320.899 48.9847 320.005 48.1037 319.018C63.239 288.958 93.6543 263.868 95.298 262.527C97.4151 261.094 147.45 227.549 164.965 225.221C177.3 223.578 194.762 218.555 204.638 215.53C205.953 220.501 206.992 225.3 207.767 229.798ZM168.555 283.396C168.082 284.185 167.608 284.987 167.135 285.776C162.072 294.139 156.641 302.305 150.908 310.247C145.162 318.177 139.113 325.882 132.564 333.128C126.016 340.308 118.994 347.224 110.933 352.366C108.921 353.628 106.83 354.759 104.674 355.64C102.517 356.521 100.295 357.166 98.0595 357.337C97.0076 357.429 95.9686 357.402 94.9561 357.258C89.7882 353.47 67.5917 335.876 72.72 316.375C77.7958 297.085 95.4032 288.169 99.953 286.17C101.439 288.379 106.843 291.851 126.042 291.851C138.771 291.851 154.235 287.643 168.555 283.396ZM2.51375 231.362C3.39478 215.057 18.8457 195.7 44.8952 178.277C70.787 160.959 107.659 146.152 135.405 146.152C142.045 146.152 148.173 147.007 153.499 148.874C181.481 158.71 196.682 187.587 203.98 213.189C194.184 216.201 176.839 221.198 164.636 222.815C146.569 225.221 96.0871 259.069 93.9437 260.515C93.8648 260.568 93.8121 260.607 93.7332 260.673C92.1027 262.001 61.9372 286.894 46.3811 317.098C30.4963 299.202 0.883191 261.541 2.51375 231.362ZM146.976 368.501C128.79 386.687 85.896 386.844 61.1351 374.852C46.0655 367.554 38.5701 356.613 40.0561 344.069C40.9502 336.415 43.475 328.762 46.9597 321.385C48.4324 323.016 49.7475 324.41 50.8389 325.567C50.9573 325.698 51.115 325.79 51.2596 325.856L60.9116 335.613C60.9642 335.718 61.0299 335.837 61.1219 335.929C68.2227 342.832 75.5998 349.499 83.7395 355.325C84.7652 356.048 85.804 356.758 86.8691 357.429C87.9343 358.112 88.9862 358.77 90.2617 359.388C92.7733 360.532 95.5873 361.005 98.283 360.808C100.992 360.663 103.569 359.966 106.002 359.046C108.435 358.112 110.736 356.942 112.919 355.64C121.65 350.341 128.987 343.411 135.878 336.218C142.742 328.973 149.08 321.293 155.103 313.377C161.112 305.461 166.819 297.321 172.184 288.932C173.881 286.276 175.537 283.58 177.142 280.832C187.32 277.794 196.814 275.098 203.77 274.493C192.856 303.962 168.502 346.975 146.976 368.501ZM204.69 272.008C197.945 272.389 188.806 274.862 178.904 277.781C179.233 277.202 179.561 276.624 179.89 276.032C182.204 271.785 184.742 267.669 187.412 263.632C190.107 259.621 193 255.755 196.025 252.021C199.102 248.326 202.35 244.788 205.782 241.488C206.847 240.475 207.938 239.515 209.043 238.555C209.635 243.881 209.793 248.431 209.622 251.81C209.345 256.82 207.583 263.829 204.69 272.008ZM268.637 350.919C269.716 345.923 270.492 342.32 270.123 340.084C269.177 334.364 278.513 304.475 282.182 293.442L282.366 292.864L282.024 292.364C281.892 292.167 268.795 272.994 265.258 256.465L264.955 255.071L263.627 255.597C263.233 255.755 225.533 270.456 207.32 271.863C210.069 263.868 211.739 256.978 211.988 251.942C212.199 247.734 211.975 242.5 211.292 236.635C213.054 235.215 214.868 233.887 216.722 232.638C220.588 230.074 224.691 227.943 228.938 226.668L228.965 226.655C228.991 226.642 229.017 226.642 229.044 226.628C231.161 225.932 232.318 223.657 231.621 221.526C230.924 219.409 228.649 218.252 226.519 218.949C221.325 220.645 216.657 223.262 212.383 226.234C211.568 226.799 210.792 227.391 210.003 227.996C209.24 223.749 208.254 219.304 207.031 214.767C209.53 213.992 211.265 213.413 211.91 213.203C212.436 213.032 212.87 212.729 213.211 212.308C216.078 208.771 241.825 177.698 263.022 174.358C282.892 171.216 294.161 165.101 294.661 161.879C294.779 161.077 294.398 160.341 293.674 159.986C293.188 159.552 292.872 156.527 294.069 150.268C294.095 150.097 294.227 149.979 294.384 149.939C296.423 149.505 300.091 148.335 301.63 145.363C302.603 143.483 302.551 141.274 301.485 138.775C298.698 132.279 298.106 124.271 297.988 121.142C297.935 119.906 297.12 118.867 295.949 118.525C294.648 118.157 293.109 117.039 293.109 113.817C293.109 108.597 294.043 104.244 294.24 103.416C294.306 103.14 294.319 102.863 294.306 102.587C294.082 99.6418 292.465 73.4344 305.18 61.363C310.309 56.4976 317.199 54.5909 325.655 55.6823C347.97 58.5621 356.307 66.0706 359.37 71.8565C359.936 72.9216 361.08 73.5002 362.276 73.3293C363.486 73.1583 364.42 72.2641 364.657 71.0675L365.459 67.0305C365.735 65.6367 364.919 64.2428 363.565 63.7826C341.342 56.353 318.698 40.0868 312.281 35.274C311.137 34.4193 309.533 34.6165 308.534 35.7342C308.087 36.2339 307.219 36.7468 306.088 37.1807C304.878 37.641 304.142 38.9033 304.299 40.2446C304.799 44.4394 300.539 48.6604 297.961 50.8038C297.817 50.9222 297.659 50.909 297.58 50.8827C297.501 50.8564 297.343 50.7775 297.291 50.5803C296.962 49.2653 295.844 48.3711 294.49 48.4237C293.135 48.45 292.044 49.3442 291.755 50.6723C290.65 55.8533 289.335 60.2584 287.862 63.7694C287.481 64.6768 286.705 65.2553 285.745 65.3474C284.733 65.4526 283.759 64.9792 283.168 64.085C281.879 62.152 279.315 62.2309 275.554 64.3217C275.015 64.6241 274.502 64.8871 274.002 65.137C272.622 65.8208 271.412 65.2159 270.794 64.4795C270.15 63.73 269.781 62.4807 270.649 61.2578C273.49 57.2866 275.922 52.0662 277.895 45.7543C283.865 26.661 305.154 7.85688 309.441 7.85688C310.151 7.85688 380.831 8.19877 404.158 37.6673C426.197 65.5052 416.506 98.077 416.072 99.484C415.428 101.009 400.766 137.303 429.55 176.896C461.281 220.527 451.655 234.255 450.445 235.675C450.419 235.702 450.38 235.741 450.301 235.781C447.96 237.096 440.57 243.868 443.844 275.611C447.21 308.196 442.503 336.087 429.445 360.9C426.868 365.792 422.883 370.644 418.215 375.233C418.202 375.246 418.189 375.26 418.176 375.273C403.396 389.803 381.856 401.783 376.583 404.597C375.492 405.175 374.913 406.411 375.15 407.608C354.216 421.717 313.373 431.672 288.98 424.019C279.276 420.968 272.885 415.471 269.992 407.647C261.418 384.333 265.942 363.425 268.637 350.919ZM354.676 63.0067C357.385 64.1376 360.12 65.1896 362.855 66.0969C363.065 66.1627 363.184 66.3599 363.131 66.5703L362.329 70.6073C362.276 70.8703 362.079 70.936 361.974 70.9492C361.842 70.9754 361.672 70.9492 361.553 70.7388C360.265 68.3061 358.147 65.5841 354.676 63.0067ZM336.201 592.44C329.81 614.15 349.021 661.042 358.108 676.94C365.393 689.682 364.946 695.928 364.42 698.019C364.38 698.177 364.249 698.295 364.078 698.321C346.957 701.241 325.865 701.872 322.749 694.061C318.159 682.594 311.282 653.152 310.73 650.785C310.769 648.786 310.808 630.903 301.735 601.014C301.735 600.987 301.722 600.961 301.709 600.935C301.288 599.528 300.841 598.108 300.368 596.648L298.974 592.322C288.415 559.645 277.5 525.85 295.344 502.075C310.322 482.114 289.414 459.575 289.138 459.273C287.494 457.774 248.597 422.651 224.257 420.218C218.577 419.653 213.041 419.285 207.689 418.93C190.213 417.773 175.117 416.76 164.255 409.515C161.809 407.884 159.114 405.228 160.139 401.848C162.401 394.366 180.745 386.305 215.657 386.305C232.357 386.305 238.249 397.811 238.748 398.863C239.195 400.205 242.917 407.976 268.111 409.278C271.399 417.431 278.197 423.177 288.349 426.359C294.358 428.253 301.341 429.094 308.77 429.094C331.756 429.094 359.068 420.981 375.479 410.396C375.4 416.313 371.928 422.954 371.468 423.795C371.415 423.9 371.363 424.006 371.323 424.124L365.327 439.719L365.261 439.89C364.959 440.837 357.924 463.244 355.557 476.315C353.387 488.255 345.34 505.06 343.749 508.308C343.525 508.755 343.433 509.268 343.472 509.768L344.643 525.008C344.524 526.928 342.052 572.505 336.201 592.44ZM500.559 622.698C500.164 631.679 496.614 640.463 491.301 647.8C485.963 655.138 478.835 661.331 470.472 664.514C466.33 666.118 461.885 666.894 457.625 666.565C453.378 666.197 449.327 664.514 446.619 661.515C443.883 658.544 442.516 654.401 442.424 650.088C442.306 647.932 442.569 645.736 442.91 643.553C443.305 641.409 443.883 639.108 444.475 636.833C447.618 624.972 451.247 613.111 454.364 601.053C456.534 601.316 458.703 601.527 460.873 601.711C465.633 602.105 470.393 602.342 475.153 602.486C477.534 602.552 479.914 602.605 482.294 602.631L485.857 602.657C487.041 602.671 488.29 602.657 489.211 602.736C493.221 603.078 496.548 605.984 498.323 609.863C500.125 613.716 500.769 618.253 500.559 622.698Z" fill="url(#paint4_linear)"/>
</g>
<defs>
<linearGradient id="paint0_linear" x1="-51.8392" y1="378.4" x2="335.252" y2="-1.02806" gradientUnits="userSpaceOnUse">
<stop stop-color="white"/>
<stop offset="1"/>
</linearGradient>
<linearGradient id="paint1_linear" x1="-48.2672" y1="382.045" x2="338.824" y2="2.61605" gradientUnits="userSpaceOnUse">
<stop stop-color="white"/>
<stop offset="1"/>
</linearGradient>
<linearGradient id="paint2_linear" x1="18.4688" y1="450.127" x2="405.559" y2="70.7001" gradientUnits="userSpaceOnUse">
<stop stop-color="white"/>
<stop offset="1"/>
</linearGradient>
<linearGradient id="paint3_linear" x1="27.2949" y1="459.13" x2="414.385" y2="79.7047" gradientUnits="userSpaceOnUse">
<stop stop-color="white"/>
<stop offset="1"/>
</linearGradient>
<linearGradient id="paint4_linear" x1="122.257" y1="556.011" x2="509.348" y2="176.586" gradientUnits="userSpaceOnUse">
<stop stop-color="white"/>
<stop offset="1"/>
</linearGradient>
</defs>
</svg>
