<svg width="142" height="362" viewBox="0 0 142 362" fill="none" xmlns="http://www.w3.org/2000/svg">
<g opacity="0.2">
<path d="M73.2186 33.1963C73.285 33.224 73.3514 33.2407 73.4179 33.2407C73.6173 33.2407 73.8057 33.1243 73.8887 32.9305C73.9995 32.6702 73.8777 32.3711 73.6229 32.2603C71.5957 31.3907 70.4048 30.4214 70.2719 29.5241C70.1667 28.8263 70.7262 28.3333 70.7594 28.3056C70.9754 28.1284 71.003 27.8071 70.8258 27.5911C70.6485 27.3751 70.3273 27.3419 70.1057 27.5246C70.0614 27.5579 69.0755 28.3887 69.2583 29.6626C69.441 30.9587 70.776 32.1495 73.2186 33.1963Z" fill="url(#paint0_linear)"/>
<path d="M52.4814 191.35C50.9749 190.802 51.861 187.639 51.8721 187.606C51.9497 187.335 51.7946 187.052 51.5288 186.975C51.2629 186.897 50.9748 187.047 50.8973 187.318C50.8474 187.484 49.7064 191.428 52.138 192.309C52.1934 192.331 52.2543 192.336 52.3097 192.336C52.5202 192.336 52.714 192.209 52.7915 191.998C52.8857 191.738 52.7473 191.445 52.4814 191.35Z" fill="url(#paint1_linear)"/>
<path d="M56.2643 190.331C54.7577 189.783 55.644 186.62 55.6551 186.587C55.7326 186.316 55.583 186.033 55.3116 185.956C55.0402 185.872 54.7578 186.028 54.6803 186.299C54.6304 186.465 53.4894 190.409 55.921 191.289C55.9763 191.312 56.0373 191.317 56.0927 191.317C56.3032 191.317 56.4969 191.19 56.5745 190.979C56.6686 190.719 56.5301 190.425 56.2643 190.331Z" fill="url(#paint2_linear)"/>
<path d="M130.124 105.234C129.958 105.184 125.981 104.026 123.189 104.43C123.034 103.561 125.039 99.296 128.7 93.6132C128.856 93.3751 128.783 93.0593 128.545 92.9098C128.307 92.7547 127.991 92.8267 127.842 93.0649C125.853 96.15 121.345 103.489 122.347 105.051C122.464 105.234 122.752 105.527 123.333 105.444C125.903 105.073 129.797 106.203 129.836 106.214C129.886 106.231 129.93 106.236 129.98 106.236C130.201 106.236 130.406 106.092 130.467 105.871C130.55 105.599 130.395 105.311 130.124 105.234Z" fill="url(#paint3_linear)"/>
<path d="M128.363 121.246C119.406 120.471 119.816 114.096 119.838 113.813C119.861 113.531 119.656 113.287 119.373 113.259C119.096 113.237 118.847 113.442 118.819 113.724C118.814 113.802 118.664 115.691 119.772 117.696C120.786 119.529 123.084 121.811 128.274 122.26C128.291 122.26 128.302 122.26 128.318 122.26C128.579 122.26 128.806 122.06 128.828 121.794C128.85 121.518 128.645 121.274 128.363 121.246Z" fill="url(#paint4_linear)"/>
<path d="M62.5841 10.72C62.8943 10.9748 63.1933 11.1687 63.4924 11.3514C64.0906 11.7059 64.6943 11.9939 65.298 12.2653C66.5055 12.8026 67.7185 13.2623 68.9537 13.6888C69.1919 13.7719 69.4632 13.6666 69.5795 13.434C69.7069 13.1792 69.6017 12.8746 69.3469 12.7472L69.3358 12.7417C68.2059 12.1767 67.076 11.5674 66.007 10.9139C65.4753 10.5871 64.9547 10.2381 64.4894 9.87812C64.2623 9.69534 64.0407 9.50703 63.8801 9.32979C63.8136 9.26332 63.7693 9.19685 63.7361 9.14701C63.6918 8.62636 63.2598 8.21649 62.7281 8.21649C62.1687 8.21649 61.7145 8.67067 61.7145 9.23009C61.7477 9.76735 61.9582 10.0221 62.1077 10.2437C62.2683 10.4431 62.429 10.5982 62.5841 10.72ZM63.725 9.13039C63.7194 9.11931 63.7085 9.10824 63.7029 9.09716C63.6863 9.06393 63.7084 9.03623 63.725 9.13039Z" fill="url(#paint5_linear)"/>
<path d="M81.0892 14.2593C81.7926 14.1042 82.4683 13.927 83.1551 13.7276C83.8364 13.5226 84.5121 13.2955 85.1822 13.0241C85.8524 12.7472 86.5171 12.437 87.1652 12.0161C87.4864 11.8001 87.8076 11.5564 88.1123 11.2351C88.4058 10.9139 88.705 10.504 88.8323 9.94458L88.8601 9.82273C88.8711 9.7618 88.8822 9.70088 88.8822 9.63995C88.8878 9.147 88.4945 8.74821 88.0015 8.74267C87.5086 8.73713 87.1099 9.13038 87.1043 9.62333C87.1043 9.88366 86.7277 10.3766 86.2458 10.7422C85.7639 11.1243 85.1934 11.4622 84.6008 11.7668C83.4155 12.3706 82.1249 12.8746 80.8399 13.2789L80.8233 13.2845C80.5741 13.362 80.4244 13.6168 80.4798 13.8771C80.5408 14.1485 80.8122 14.3202 81.0892 14.2593Z" fill="url(#paint6_linear)"/>
<path d="M76.4421 8.28849C76.7135 8.37158 77.0015 8.22203 77.0846 7.95617L78.9179 2.16815C78.9401 2.09615 78.9566 2.01307 78.9677 1.93553C79.0286 1.30411 78.569 0.74469 77.9376 0.683764C77.3061 0.622838 76.7467 1.08256 76.6858 1.71398L76.0876 7.75677C76.0654 7.98386 76.2095 8.21649 76.4421 8.28849Z" fill="url(#paint7_linear)"/>
<path d="M198.046 265.498C197.625 264.817 196.733 264.601 196.052 265.016H196.046C194.069 266.223 192.075 267.353 189.992 268.145C187.915 268.949 185.739 269.397 183.506 269.469C181.274 269.547 178.998 269.27 176.738 268.832C174.949 268.494 173.166 268.018 171.393 267.503C171.57 266.268 171.665 264.966 171.642 263.598C171.587 259.638 170.429 257.051 168.192 255.916C163.744 253.656 156.477 257.954 154.179 259.455C153.27 251.402 152.855 243.343 153.603 237.128L153.669 237.084L153.63 236.774C152.212 225.685 158.305 187.169 158.842 183.79C166.503 179.137 164.857 172.181 164.475 170.901C165.256 169.073 171.648 153.714 171.648 140.017C171.648 127.616 159.147 120.975 155.037 119.13C154.993 119.103 154.943 119.081 154.893 119.064C154.456 118.87 154.123 118.737 153.935 118.66C152.999 116.887 151.747 113.857 152.157 112.75C152.229 112.55 152.34 112.489 152.423 112.456L152.539 112.395C156.378 109.62 157.303 106.796 158.477 103.217L158.565 102.952C158.565 102.952 158.565 102.952 158.565 102.946C159.263 100.764 159.557 100.791 159.934 100.825C160.515 100.875 161.152 100.841 161.933 99.8444C162.947 98.5483 162.731 97.0417 162.559 95.8343C162.431 94.9204 162.321 94.1283 162.725 93.6742C163.578 92.727 162.985 91.4365 162.304 89.9466C161.7 88.6339 161.019 87.1384 161.019 85.4713C161.019 83.1173 159.396 82.4305 157.823 81.7658C156.594 81.2452 155.198 80.6525 154.179 79.218C152.894 77.4179 151.941 77.501 150.822 77.789C149.936 78.0216 149.022 78.2598 147.216 76.4597C144.735 73.9949 143.998 73.9562 142.248 74.1943C141.379 74.3106 140.188 74.4713 138.127 74.1943C134.605 73.718 131.448 74.9144 128.656 75.9667C126.801 76.6646 125.205 77.2683 123.826 77.2683C121.384 77.2683 121.013 78.7638 120.658 80.2094C120.392 81.284 120.093 82.4969 118.974 83.5659C118.326 84.1863 118.044 84.9285 118.154 85.7205C118.454 87.8142 121.428 89.7029 122.602 90.3675C121.616 92.4113 120.658 94.7542 119.794 97.0584C118.913 97.7286 114.128 101.584 114.959 105.815C114.964 105.843 114.97 105.876 114.975 105.904C110.976 102.06 104.706 94.7044 103.837 93.6742C102.884 84.7789 98.6027 69.9738 94.227 67.653C91.1198 66.0025 86.6057 57.4783 82.9778 50.6324C82.1636 49.0982 81.3771 47.6138 80.6404 46.2623C78.9012 43.0831 78.3862 41.3107 78.3252 39.2115C78.3252 39.2059 78.3252 39.2004 78.3252 39.2004C78.2976 38.1646 78.3807 37.0458 78.4859 35.639C78.6631 33.2462 78.9124 29.9728 78.7351 24.8937C78.2477 11.1742 78.2532 10.9194 75.794 10.9305H75.6002C75.3676 10.9305 75.0241 11.0025 74.6862 11.3404C73.2295 12.8082 73.0523 18.8842 73.0357 21.0111C69.5352 20.2467 68.2447 21.6979 67.8349 22.4235C65.6027 22.4622 64.1405 24.2402 63.6586 24.9159C61.4265 24.9547 60.4571 27.0262 60.2577 28.1672L60.1525 28.7653H60.7563C61.2105 28.7653 62.501 28.9204 62.9884 29.5851C63.2321 29.9174 63.2598 30.355 63.0825 30.9199C62.1686 33.8555 64.5615 41.9919 64.6667 42.3409L64.6833 42.3741C64.6889 42.3907 64.6943 42.4018 64.7054 42.4184L64.7275 42.4683C64.7552 42.5126 67.6188 47.0544 67.6409 52.4713C67.6409 52.4768 67.6409 52.4768 67.6409 52.4824C67.292 63.7371 71.3298 74.3106 71.3741 74.4159L71.4073 74.4823C76.9738 84.3746 85.2487 99.9496 85.2487 102.287C85.2487 111.814 94.8418 125.893 96.4481 128.181C86.0407 143.002 86.6722 162.842 86.8162 165.584C80.286 169.982 75.4396 173.039 75.3233 173.111L75.1848 173.2L75.1238 173.349C75.1072 173.394 73.2019 177.686 62.1798 178.34C50.7422 179.021 39 179.315 38.8837 179.315L38.7508 179.32L38.6345 179.392C38.2745 179.608 36.4854 180.76 36.6904 182.018C36.8621 183.098 38.3132 183.424 38.7896 183.53C41.7639 184.205 44.7824 183.879 46.1449 183.663C45.7074 186.155 44.9763 191.478 46.4995 192.486C46.8097 192.691 47.131 192.973 47.5021 193.306C48.8812 194.53 50.7644 196.208 54.8077 196.208L54.8741 196.202C56.2698 196.025 59.3992 195.493 60.0085 194.197C60.579 193.981 61.7532 193.45 62.2296 192.652C63.5866 192.885 67.5966 192.962 71.9113 187.169L84.7281 186.587C83.288 187.722 81.715 189.644 80.286 192.076C77.9265 196.092 76.4753 200.611 76.2981 204.477C76.0599 209.656 76.4144 213.417 76.8298 217.77C77.0735 220.362 77.3505 223.298 77.5222 226.859C76.7633 228.732 66.5387 254.376 66.8268 271.674C66.1621 272.909 61.1938 282.402 61.5372 289.132C61.5538 289.436 61.5926 289.73 61.659 290.024L63.5201 303.66C63.7915 305.637 60.928 310.168 59.6264 312.001H59.4934L59.3716 312.334C59.3494 312.389 57.2115 318.255 55.6662 329.786C55.2619 332.794 55.9431 335.32 57.6822 337.297C61.6425 341.8 69.6848 341.889 70.2996 341.889C70.3107 341.889 70.3218 341.889 70.3273 341.889H70.4547L70.5654 341.828C70.7925 341.706 76.0654 338.732 76.0876 329.858C76.1097 321.506 78.3474 314.438 78.4415 314.15C78.5689 313.846 80.1586 309.913 80.4411 306.74L90.2225 293.834C97.3454 290.306 99.7382 290.755 100.525 291.342C101.167 291.824 101.04 292.638 101.034 292.666L102.02 292.909L107.913 274.083C109.486 278.553 114 290.766 116.792 292.522C118.293 293.469 120.547 298.958 122.53 303.804C124.94 309.692 126.485 313.325 127.814 313.862C129.083 314.372 134.643 315.413 141.229 315.474C141.794 316.089 143.938 318.404 146.186 320.647C149.908 324.353 151.448 325.416 152.196 325.66L152.307 328.474C152.107 331.581 151.681 335.198 151.326 335.862C149.432 336.438 142.32 342.415 139.501 345.672C137.734 347.715 137.114 349.095 137.551 350.003C138.338 351.637 140.847 354.799 145.234 356.256C146.84 356.788 148.535 357.059 150.318 357.059C153.996 357.059 158.039 355.924 162.404 353.664C177.984 345.583 179.973 340.376 180.05 340.16L180.117 339.983L180.045 339.806C179.535 338.521 175.049 327.2 173.985 325.948C173.985 325.948 173.98 325.948 173.98 325.942C172.185 323.899 167.599 317.95 167.931 315.02C167.948 314.876 167.898 314.738 167.81 314.632C167.544 312.3 166.813 309.57 165.284 306.612C165.849 305.515 166.131 304.363 166.137 303.156C166.165 297.955 160.986 293.563 160.022 292.787C159.861 292.117 159.263 289.536 158.488 285.759C160.332 284.751 168.663 279.672 171.017 269.491C172.739 270.051 174.484 270.571 176.278 270.976C178.632 271.513 181.058 271.901 183.545 271.901C186.032 271.912 188.558 271.474 190.906 270.654C193.266 269.84 195.437 268.699 197.525 267.52C197.536 267.514 197.553 267.503 197.569 267.497C198.245 267.076 198.461 266.185 198.046 265.498ZM167.732 256.824C169.604 257.777 170.579 260.059 170.623 263.615C170.64 264.878 170.557 266.074 170.402 267.215C170.263 267.176 170.13 267.137 169.992 267.093C168.868 266.739 167.793 266.384 166.58 266.041C166.286 265.947 165.982 265.891 165.677 265.825C165.373 265.764 165.073 265.686 164.763 265.642C164.143 265.564 163.528 265.459 162.902 265.454C160.404 265.293 157.812 265.946 155.691 267.281C155.536 267.375 155.392 267.481 155.248 267.58C154.91 265.293 154.594 262.95 154.317 260.596C155.802 259.588 163.489 254.675 167.732 256.824ZM158.111 183.037L157.906 183.159L157.868 183.397C157.596 185.08 151.243 224.461 152.572 236.563C151.587 237.073 147.593 238.757 137.723 239.2C136.588 226.2 140.094 219.858 145.067 210.852C146.535 208.194 148.197 205.186 149.864 201.752C156.643 187.767 153.292 180.5 152.107 178.606C151.094 176.994 149.748 176.03 148.507 176.03C147.482 176.03 145.079 174.197 141.667 169.04C140.664 167.528 139.711 165.911 138.831 164.271C140.398 163.463 141.955 162.66 143.467 161.879C144.226 162.732 146.552 165.218 149.753 167.506C153.708 170.336 157.535 171.782 160.997 171.782C161.889 171.782 162.747 171.682 163.583 171.488C164.021 173.117 165.018 178.966 158.111 183.037ZM170.623 140.017C170.623 153.388 164.425 168.409 163.561 170.436C155.259 172.535 146.424 163.585 144.408 161.386C152.755 157.093 159.662 153.581 159.801 153.515C160.05 153.388 160.149 153.077 160.022 152.828C159.895 152.579 159.585 152.479 159.335 152.607C159.169 152.69 148.967 157.88 138.343 163.363C136.804 160.389 135.519 157.353 134.682 154.639C134.128 152.845 133.951 151.421 134.134 150.43C134.544 151.56 135.225 152.324 136.172 152.723C137.85 153.421 139.074 153.432 139.806 152.751C141.024 151.615 140.238 149.123 140.144 148.846L140.071 148.641L139.872 148.547C139.728 148.48 136.715 147.096 134.715 148.032C134.45 142.98 137.59 134.849 139.407 133.138C140.503 132.102 142.315 128.159 144.043 123.716C150.518 120.421 154.007 120.105 154.627 120.077C158.604 121.85 170.623 128.219 170.623 140.017ZM134.854 149.134C135.984 148.275 138.233 148.946 139.252 149.372C139.44 150.059 139.689 151.471 139.119 151.997C138.72 152.374 137.812 152.291 136.571 151.776C135.685 151.405 135.109 150.519 134.854 149.145C134.854 149.139 134.854 149.139 134.854 149.134ZM143.267 122.919C139.44 124.896 134.632 127.887 128.8 132.407C127.554 132.069 126.147 131.842 124.585 131.726C126.346 130.596 128.346 129.172 130.667 127.372C134.876 124.104 139.767 122.204 143.949 121.102C143.721 121.711 143.494 122.321 143.267 122.919ZM145.15 120.798C147.305 120.288 149.216 119.989 150.673 119.817C149.111 120.282 147.1 121.036 144.619 122.238C144.802 121.761 144.979 121.279 145.15 120.798ZM142.669 124.436C141.107 128.358 139.601 131.559 138.72 132.39C137.801 133.254 136.582 135.52 135.574 138.25C135.358 137.458 134.976 136.572 134.295 135.713C133.292 134.44 131.852 133.465 129.991 132.789C134.987 128.978 139.207 126.309 142.669 124.436ZM151.985 111.531C151.62 111.692 151.343 111.991 151.199 112.395C150.623 113.963 152.035 117.142 152.755 118.599C151.492 118.682 148.845 118.931 145.566 119.657C145.666 119.369 145.771 119.081 145.871 118.798C147.499 114.118 150.069 106.075 148.972 104.757C148.823 104.58 148.823 104.453 148.839 104.358C148.911 103.943 149.476 103.461 150.108 103.024C150.23 103.251 150.368 103.483 150.518 103.733L150.7 104.037L151.049 103.971C152.578 103.672 152.971 103.007 153.038 102.497C153.087 102.11 152.944 101.716 152.65 101.334C152.766 101.168 152.788 101.002 152.705 100.791C152.633 100.609 152.484 100.476 152.29 100.426C152.201 100.404 152.046 100.359 151.692 100.487C151.448 100.326 151.177 100.171 150.872 100.027C150.252 99.7336 149.786 99.7447 149.487 100.071C149.188 100.398 149.216 101.008 149.559 101.877C149.51 101.977 149.487 102.088 149.504 102.193C148.684 102.758 147.964 103.422 147.831 104.176C147.754 104.608 147.876 105.034 148.175 105.394C148.751 106.386 146.751 113.315 144.37 119.933C139.939 121.036 134.605 123.007 130.041 126.552C127.183 128.768 124.845 130.402 122.851 131.604C120.093 131.293 115.945 129.748 113.796 127.106C112.522 125.539 112.084 123.772 112.488 121.85C113.031 119.258 113.773 116.948 114.427 114.915C114.997 113.132 115.529 111.476 115.839 109.897C116.216 109.404 116.521 109.017 116.726 108.756L116.919 108.9L117.124 108.197C117.169 108.053 120.392 97.1525 123.699 90.4118C123.704 90.4063 123.71 90.4008 123.715 90.3952C123.721 90.3841 123.721 90.3786 123.721 90.3675C124.779 88.2185 125.842 86.4959 126.812 85.6873C130.567 82.5634 135.231 79.3565 143.118 80.7855C147.372 81.5554 153.453 84.3247 156.588 89.5976C158.842 93.3862 159.18 97.7729 157.585 102.63L157.496 102.896C156.35 106.419 155.514 108.967 151.985 111.531ZM150.307 100.897C150.34 100.913 150.385 100.93 150.429 100.952C150.501 100.985 150.556 101.019 150.623 101.052C150.551 101.096 150.473 101.152 150.396 101.201C150.357 101.091 150.324 100.985 150.307 100.897ZM152.019 102.376C152.002 102.525 151.769 102.736 151.193 102.891C151.116 102.752 151.038 102.614 150.966 102.475C151.132 102.376 151.293 102.281 151.431 102.198C151.581 102.11 151.714 102.032 151.836 101.96C151.98 102.137 152.03 102.281 152.019 102.376ZM113.004 127.76C115.081 130.319 118.653 131.836 121.45 132.418C117.291 134.683 114.66 134.938 111.563 134.938C109.204 134.179 107.769 132.85 107.188 130.884C105.615 125.544 110.805 116.97 114.239 112.091C114.006 112.888 113.735 113.725 113.452 114.605C112.793 116.666 112.04 119.003 111.486 121.645C111.021 123.888 111.53 125.943 113.004 127.76ZM119.157 85.582C119.091 85.1223 119.262 84.7069 119.672 84.3137C121.007 83.0397 121.356 81.6107 121.638 80.4642C121.993 79.0241 122.17 78.3041 123.815 78.3041C125.377 78.3041 127.138 77.6394 129.005 76.936C131.68 75.928 134.715 74.7814 137.978 75.2245C140.177 75.5181 141.445 75.3464 142.37 75.2245C143.799 75.0307 144.237 74.9698 146.485 77.2074C148.706 79.4118 150.075 79.0574 151.071 78.797C151.902 78.581 152.356 78.4592 153.337 79.8328C154.528 81.5 156.128 82.1812 157.413 82.724C159.103 83.4385 159.989 83.8872 159.989 85.4934C159.989 87.3821 160.753 89.0493 161.362 90.3897C161.977 91.7356 162.337 92.583 161.95 93.0095C161.23 93.8182 161.385 94.9204 161.534 95.9894C161.695 97.1138 161.855 98.2769 161.113 99.2296C160.609 99.8721 160.354 99.8499 160.005 99.8222C159.756 99.8 159.535 99.8056 159.324 99.8665C160 95.9285 159.38 92.3116 157.463 89.0881C154.151 83.5216 147.759 80.6027 143.295 79.794C134.976 78.2875 130.085 81.644 126.153 84.9174C125.156 85.7482 124.092 87.4098 123.04 89.4703C121.727 88.6948 119.368 87.0443 119.157 85.582ZM115.95 105.627C115.446 103.068 117.54 100.52 119.057 99.0523C117.783 102.608 116.792 105.787 116.365 107.189C116.282 107.117 116.194 107.039 116.105 106.962C116.083 106.508 116.039 106.064 115.95 105.627ZM63.7971 28.9703C63.2044 28.1672 62.1022 27.8847 61.3987 27.785C61.6646 27.0428 62.3292 25.8243 63.8801 25.9295L64.1903 25.9461L64.3509 25.6803C64.3676 25.6581 65.7966 23.2875 68.1062 23.4371L68.5106 23.4647L68.6269 23.077C68.6324 23.0549 69.3026 21.0166 73.3903 22.1465L74.0438 22.3238L74.0382 21.648C74.0106 18.4909 74.3595 13.0962 75.3952 12.0493C75.5005 11.9441 75.5614 11.9441 75.5836 11.9441H75.7884C76.6802 11.9386 76.8131 11.9386 77.0458 13.1959C77.3504 14.8686 77.4778 18.4411 77.7048 24.9214C77.8821 29.9451 77.6384 33.1908 77.4612 35.5559C77.367 36.8076 77.2894 37.86 77.295 38.8459C71.3463 41.1943 66.8322 41.5876 65.5306 41.6541C64.8106 39.1339 63.4038 33.2905 64.0518 31.2079C64.3232 30.3273 64.2402 29.574 63.7971 28.9703ZM66.007 42.6621C67.7296 42.5403 71.8947 42.0418 77.3338 39.937C77.4944 41.8756 78.0982 43.7699 79.7321 46.7608C80.1254 47.4808 80.5297 48.2341 80.9451 49.0151C76.6636 51.5629 70.4103 51.9174 68.6324 51.9672C68.4884 47.7246 66.8212 44.1521 66.007 42.6621ZM86.2513 102.276C86.2513 98.936 73.8168 76.7034 72.2991 74.006C72.0554 73.3635 68.433 63.5488 68.6379 52.9808C70.4824 52.9421 76.8741 52.5987 81.427 49.9124C81.6375 50.3056 81.8479 50.7099 82.0639 51.1143C85.9466 58.4531 90.35 66.7668 93.7341 68.5614C97.3565 70.4834 101.832 84.358 102.823 93.9456L102.84 94.1007L102.94 94.2225C103.283 94.6324 110.472 103.129 114.726 107.1C112.455 109.598 100.043 123.284 97.0519 127.289C95.0524 124.359 86.2513 111.044 86.2513 102.276ZM97.4673 128.469L97.6777 128.17L97.6721 128.164C99.9984 124.891 111.885 111.747 115.047 108.258C115.014 108.651 114.953 109.05 114.881 109.454C111.702 113.653 104.225 124.47 106.207 131.172C106.889 133.476 108.611 135.076 111.325 135.935L111.48 135.957C114.948 135.957 117.955 135.652 123.056 132.656C123.317 132.678 123.566 132.695 123.788 132.695C125.255 132.767 126.585 132.933 127.77 133.199C124.098 136.096 120.043 139.574 115.579 143.778C108.467 150.474 96.7472 158.827 87.78 164.903C87.6415 160.632 87.6193 142.238 97.4673 128.469ZM74.9632 175.199C74.8801 177.78 75.0574 182.682 77.2508 185.895L73.1354 186.083C73.1243 186.083 73.1078 186.083 73.0967 186.083C71.712 186.083 70.5986 181.364 70.233 177.913C72.659 177.071 74.1157 176.036 74.9632 175.199ZM71.1968 186.36C66.4168 192.918 62.2186 191.622 62.0469 191.566L61.4653 191.367L61.371 191.971C61.299 192.43 60.1803 193.045 59.3938 193.311L59.0891 193.416L59.0503 193.738C58.9949 194.203 56.9068 194.901 54.7356 195.178C51.1022 195.167 49.4572 193.71 48.139 192.53C47.7568 192.187 47.3912 191.865 47.0201 191.622C46.2668 191.123 46.5271 186.825 47.2416 183.114L47.3856 182.355L46.6324 182.516C46.5937 182.527 42.6777 183.352 38.9778 182.516C38.0584 182.306 37.6929 182.029 37.6652 181.835C37.6098 181.48 38.3132 180.771 39.0222 180.317C40.3847 180.284 51.4345 179.979 62.2185 179.342C65.1097 179.171 67.4084 178.755 69.2362 178.223C69.4411 180.068 70.0558 184.266 71.5014 186.149L71.3463 186.155L71.1968 186.36ZM78.4804 185.839C75.5282 182.25 75.9491 175.216 76.0654 173.826C77.0624 173.194 81.6042 170.309 87.4975 166.332C87.5806 166.304 87.6525 166.254 87.7079 166.188C96.7859 160.056 108.955 151.421 116.288 144.52C120.974 140.111 125.216 136.494 129.027 133.531C130.999 134.146 132.489 135.076 133.48 136.328C134.976 138.211 134.821 140.261 134.765 140.704C133.962 143.484 133.48 146.442 133.763 148.779C132.832 149.954 132.81 152.025 133.707 154.938C134.555 157.702 135.895 160.821 137.452 163.823C130.86 167.229 124.219 170.696 119.799 173.084C108.395 179.248 88.0568 185.119 86.866 185.463L78.4804 185.839ZM77.284 204.516C77.6607 196.363 83.8197 187.047 87.0488 186.471V186.465C87.0654 186.46 87.0821 186.465 87.0987 186.46C87.3092 186.399 108.506 180.356 120.293 173.981C124.707 171.594 131.348 168.132 137.934 164.726C141.456 171.278 145.926 177.049 148.501 177.049C149.377 177.049 150.429 177.852 151.238 179.148C155.652 186.194 150.595 197.892 148.939 201.309C147.288 204.721 145.704 207.584 144.17 210.359C139.285 219.205 135.579 225.907 136.704 239.239C135.159 239.294 133.48 239.316 131.653 239.299C126.147 239.255 119.617 239.239 113.314 239.239C100.973 239.239 89.5025 239.299 88.356 239.305C87.4477 238.962 78.9179 235.489 78.5136 226.904C78.3419 223.27 78.0594 220.29 77.8102 217.66C77.4003 213.345 77.0459 209.617 77.284 204.516ZM79.6822 306.042C78.2034 306.125 69.7568 306.457 64.4617 303.272L63.0217 292.721C63.6587 293.458 64.4895 294.133 65.5086 294.731C70.3883 297.584 79.5437 298.376 88.2618 294.72L79.6822 306.042ZM64.4783 304.458C68.7155 306.756 74.3762 307.127 77.561 307.127C78.3364 307.127 78.9566 307.105 79.3831 307.083C79.0674 309.586 77.9818 312.516 77.6163 313.464H73.8942L74.4592 310.129H62.4512V311.996H60.8282C61.9304 310.379 64.1571 306.861 64.4783 304.458ZM75.0685 329.847C75.0574 334.156 73.7004 336.942 72.565 338.515C71.5403 339.933 70.5101 340.653 70.1833 340.864C69.1032 340.842 61.9084 340.554 58.4467 336.621C56.9124 334.876 56.3141 332.622 56.6797 329.919C58.0035 320.049 59.7538 314.394 60.219 313.015H63.4813V311.148H73.2629L72.6979 314.483H77.284C76.6969 316.477 75.0851 322.708 75.0685 329.847ZM167.837 318.725C169.222 321.705 171.748 324.868 172.772 326.098C172.401 326.657 172.097 327.859 171.565 330.163C171.15 331.974 170.291 335.696 169.615 336.056C169.538 335.923 169.433 335.619 169.349 335.364C168.613 333.182 166.896 328.103 153.32 327.981L153.226 325.549C153.902 325.383 155.275 325.145 156.721 324.896C163.235 323.777 166.436 323.062 166.995 322.01C167.283 321.462 167.655 320.315 167.837 318.725ZM151.559 335.824C151.598 335.824 151.636 335.829 151.675 335.84C151.609 335.818 151.52 335.824 151.409 335.851C151.448 335.835 151.503 335.824 151.559 335.824ZM161.938 352.772C155.713 356.001 150.207 356.854 145.566 355.309C141.5 353.958 139.202 351.072 138.482 349.576C138.443 349.499 138.382 349.25 138.659 348.657C140.376 344.963 150.263 337.286 151.514 336.843C151.658 336.854 151.802 336.815 151.93 336.726C152.523 336.322 152.982 333.724 153.309 329C166.17 329.105 167.666 333.547 168.386 335.691C168.64 336.449 168.928 337.308 169.842 337.059C171.022 336.743 171.653 334.328 172.562 330.39C172.833 329.216 173.182 327.693 173.459 326.984C174.473 328.762 177.226 335.43 179.026 339.983C178.56 340.897 175.652 345.655 161.938 352.772ZM166.087 321.539C165.589 322.348 159.479 323.395 156.544 323.899C154.356 324.275 153.065 324.502 152.55 324.691C151.548 324.585 146.879 320.077 142.619 315.469C149.327 315.386 156.826 314.222 161.85 310.467C163.03 309.581 163.966 308.639 164.664 307.642C168.142 314.798 166.691 320.398 166.087 321.539ZM159.114 293.38L159.258 293.491C159.319 293.535 165.145 298.044 165.118 303.156C165.107 305.549 163.799 307.731 161.235 309.647C151.249 317.119 130.445 313.818 128.202 312.91C127.205 312.505 125.139 307.465 123.483 303.411C121.24 297.938 119.124 292.771 117.34 291.646C114.859 290.09 110.029 277.135 108.373 272.277L107.869 270.798L101.571 290.926C101.455 290.782 101.317 290.644 101.15 290.516C99.4113 289.204 95.5508 290.024 89.6631 292.954C80.7346 297.396 71.0141 296.764 66.0237 293.845C64.6611 293.048 63.0493 291.729 62.6228 289.808L62.5176 289.043C62.1853 282.28 67.6963 272.128 67.7517 272.023L67.8182 271.901V271.768C67.5247 256.813 75.2955 235.35 77.7492 228.97C79.3776 237.162 88.0125 240.258 88.1067 240.285L88.1898 240.313H88.2784C88.5443 240.313 114.892 240.169 131.658 240.308C133.525 240.324 135.236 240.296 136.815 240.241C136.964 241.72 137.169 243.276 137.435 244.927C136.959 244.866 136.41 244.822 135.768 244.783C133.137 244.639 131.686 244.916 131.193 245.658C131.01 245.929 130.999 246.217 131.054 246.428V247.58C129.935 247.536 128.883 247.464 127.98 247.342C127.698 247.303 127.443 247.502 127.404 247.779C127.366 248.056 127.565 248.317 127.842 248.355C129.503 248.577 131.619 248.649 133.707 248.649C135.895 248.649 138.044 248.566 139.59 248.488C139.612 248.488 139.628 248.499 139.65 248.499C139.656 248.499 139.667 248.499 139.673 248.499C139.7 248.499 139.722 248.488 139.75 248.483C140.952 248.422 141.755 248.366 141.86 248.355C142.143 248.333 142.353 248.09 142.331 247.813C142.309 247.53 142.065 247.32 141.789 247.342C141.766 247.342 141.151 247.386 140.171 247.441C140.171 247.414 140.177 247.381 140.177 247.353C140.21 246.849 140.249 246.284 139.828 245.808C139.562 245.503 139.141 245.281 138.493 245.121C138.205 243.382 137.983 241.748 137.823 240.208C146.629 239.815 150.844 238.452 152.506 237.721C151.841 244.107 152.318 252.26 153.259 260.336C153.259 260.386 153.259 260.441 153.276 260.491C153.581 263.111 153.94 265.725 154.317 268.267C152.833 269.491 151.625 271.014 150.673 272.626C149.443 274.731 148.546 276.969 147.992 279.35C147.931 279.616 148.092 279.888 148.357 279.96C148.629 280.032 148.911 279.871 148.983 279.6L148.989 279.572C149.576 277.379 150.523 275.213 151.742 273.285C152.539 272.039 153.481 270.882 154.572 269.923C155.502 275.894 156.549 281.372 157.397 285.515C157.397 285.526 157.402 285.532 157.402 285.543C158.349 290.151 159.047 293.098 159.075 293.203L159.114 293.38ZM139.152 247.297C139.147 247.364 139.146 247.436 139.141 247.502C137.236 247.591 134.566 247.674 132.068 247.624V246.24L132.051 246.212C132.151 246.107 132.771 245.652 135.701 245.813C137.623 245.918 138.753 246.145 139.058 246.494C139.191 246.644 139.18 246.871 139.152 247.297ZM158.272 284.717C157.419 280.525 156.389 275.08 155.486 269.192C155.802 268.965 156.123 268.744 156.461 268.55C158.372 267.442 160.593 266.955 162.797 267.171C163.351 267.193 163.899 267.309 164.448 267.392C164.719 267.442 164.99 267.525 165.262 267.586C165.533 267.658 165.805 267.713 166.07 267.808C167.117 268.14 168.269 268.561 169.383 268.954C169.604 269.026 169.826 269.098 170.047 269.176C167.904 278.592 160.432 283.482 158.272 284.717Z" fill="url(#paint8_linear)"/>
<path d="M36.3303 180.865L36.3136 180.86C33.8766 180.079 31.4562 179.11 29.1742 177.947C28.0388 177.354 26.9255 176.717 25.9009 175.975C24.8817 175.233 23.9291 174.391 23.2644 173.399C22.9432 172.901 22.7104 172.363 22.6218 171.815C22.5609 171.533 22.5832 171.289 22.5832 170.968C22.6053 170.619 22.6053 170.275 22.5887 169.937C22.5389 168.88 22.4003 167.86 22.2619 166.852C22.4391 166.897 22.6219 166.941 22.7991 166.985C25.3248 167.611 27.8893 168.176 30.3042 168.891L30.3263 168.896H30.3319C30.9412 169.073 31.5836 168.719 31.7553 168.11C31.9325 167.5 31.5781 166.858 30.9688 166.686C28.3822 165.938 25.8565 165.396 23.3253 164.781C22.8655 164.67 22.4058 164.559 21.9461 164.449C21.863 163.69 21.8076 162.931 21.7966 162.183C21.7744 160.926 21.9295 159.685 22.3338 158.55C22.7547 157.425 23.4693 156.44 24.4164 155.692C25.2971 155.005 26.3439 154.512 27.4461 154.146C27.6732 154.534 27.8893 154.922 28.1164 155.31C29.4678 157.558 30.8359 159.79 32.4864 161.923C32.9074 162.455 33.3449 162.981 33.8988 163.485C34.4305 163.967 35.012 164.377 35.6213 164.737C36.8398 165.451 38.1637 165.961 39.5705 166.204C40.2739 166.326 40.9995 166.376 41.7417 166.321C42.4839 166.26 43.2593 166.094 43.9904 165.667C44.3615 165.468 44.6939 165.163 44.9874 164.831C45.2533 164.476 45.4914 164.077 45.6022 163.657C45.857 162.815 45.8016 161.995 45.6465 161.264C45.4859 160.533 45.2422 159.851 44.9375 159.22C44.7991 158.899 44.5886 158.577 44.4169 158.256C44.212 157.963 44.007 157.669 43.7965 157.387C42.9214 156.279 41.9189 155.354 40.872 154.501C40.1742 153.936 39.4431 153.415 38.7064 152.911C38.8726 152.895 39.0388 152.884 39.1995 152.861C39.853 152.789 40.512 152.751 41.1656 152.651L43.1208 152.341C45.7185 151.859 48.3107 151.189 50.7477 150.037C53.1571 148.89 55.4724 147.217 56.918 144.786C57.6048 143.556 58.0035 142.155 58.0478 140.737C58.0367 140.383 58.0534 140.023 58.0146 139.674L57.8374 138.627C57.7654 138.239 57.5494 137.779 57.3001 137.48C57.0453 137.165 56.7629 136.893 56.4693 136.677C55.284 135.802 54.0101 135.337 52.7362 134.905C51.4623 134.495 50.1718 134.174 48.8812 133.902C46.3002 133.359 43.6969 132.983 41.0937 132.684C35.8872 132.097 30.6641 131.786 25.4189 131.731C24.1062 131.726 22.7936 131.731 21.4699 131.786C20.8052 131.82 20.146 131.853 19.4537 131.942C19.282 131.964 19.1047 131.986 18.9164 132.025C18.8278 132.041 18.7281 132.063 18.6173 132.097C18.5675 132.108 18.512 132.124 18.44 132.152L18.3348 132.191C18.3071 132.202 18.2684 132.218 18.1964 132.263C18.08 132.335 17.9749 132.407 17.853 132.578C17.7312 132.761 17.7201 132.844 17.6868 132.961C17.6536 133.088 17.6591 133.132 17.648 133.221C17.6425 133.304 17.6425 133.365 17.648 133.42C17.6591 133.67 17.6924 133.852 17.7312 134.041C17.8918 134.766 18.1133 135.392 18.3459 136.024C18.5785 136.649 18.8278 137.264 19.0826 137.874C19.5977 139.087 20.146 140.283 20.7054 141.463C21.4864 143.091 22.3007 144.708 23.1259 146.309C21.7191 146.004 20.2901 145.777 18.8445 145.65C16.1748 145.406 13.4331 145.462 10.7578 146.071C8.08261 146.63 5.49051 147.832 3.32485 149.583C2.2614 150.463 1.22008 151.471 0.516653 152.884C0.173249 153.587 -0.0427193 154.434 0.00712962 155.299C0.0625173 156.163 0.389283 156.977 0.815768 157.636C1.69089 158.96 2.86514 159.818 4.02828 160.56C5.2025 161.291 6.42092 161.884 7.65607 162.41C10.1208 163.457 12.641 164.271 15.1667 165.002C17.1219 165.567 19.0826 166.077 21.0434 166.564C21.2095 167.722 21.3867 168.869 21.4421 169.987C21.4532 170.298 21.4588 170.608 21.4421 170.907C21.4421 171.234 21.4199 171.649 21.4974 172.003C21.6248 172.74 21.935 173.416 22.3172 174.008C23.1148 175.177 24.1561 176.074 25.2417 176.861C26.3328 177.642 27.4905 178.295 28.6647 178.899C31.0298 180.085 33.4668 181.048 35.9925 181.84C36.2584 181.923 36.5463 181.779 36.6294 181.508C36.7457 181.237 36.5961 180.949 36.3303 180.865ZM26.6873 149.306C28.9361 150.009 31.1295 150.89 33.2397 151.942C32.5862 151.975 31.927 152.025 31.279 152.097C30.3651 152.213 29.4512 152.363 28.5429 152.573C27.9115 151.488 27.2966 150.397 26.6873 149.306ZM39.6757 155.969C40.6561 156.75 41.5755 157.603 42.3233 158.539C42.5005 158.777 42.6722 159.015 42.8383 159.253C42.9713 159.508 43.1319 159.724 43.2482 160.006C43.5141 160.549 43.7079 161.098 43.8298 161.635C43.9516 162.172 43.9627 162.693 43.8353 163.103C43.7855 163.319 43.6692 163.485 43.5584 163.651C43.4144 163.801 43.2704 163.956 43.0655 164.061C42.6723 164.299 42.146 164.432 41.5977 164.476C41.0438 164.521 40.4623 164.487 39.8807 164.388C38.7176 164.194 37.571 163.762 36.5408 163.164C36.0257 162.864 35.5383 162.521 35.1007 162.128C34.6853 161.757 34.281 161.286 33.8933 160.799C32.3424 158.816 30.9633 156.606 29.6229 154.401C29.4789 154.158 29.3404 153.914 29.1964 153.67C29.9275 153.521 30.6753 153.404 31.4175 153.31C32.6969 153.172 33.9487 153.144 35.2669 153.083C35.3112 153.083 35.35 153.077 35.3943 153.077C36.8953 153.953 38.3409 154.905 39.6757 155.969ZM22.2341 140.737C21.6747 139.574 21.132 138.4 20.6224 137.22C20.3676 136.627 20.1239 136.035 19.9023 135.442C19.6808 134.855 19.4703 134.246 19.3485 133.697C19.3429 133.659 19.3318 133.62 19.3263 133.581C19.4371 133.559 19.5644 133.542 19.6863 133.526C20.29 133.448 20.927 133.404 21.564 133.371C22.8434 133.31 24.134 133.293 25.43 133.293C30.6032 133.315 35.7986 133.603 40.9441 134.157C43.5141 134.44 46.0786 134.8 48.5987 135.315C49.856 135.575 51.1022 135.88 52.3097 136.262C53.5005 136.655 54.7024 137.115 55.6219 137.79C55.8545 137.957 56.0428 138.145 56.1979 138.333C56.2699 138.427 56.3363 138.522 56.3806 138.621C56.4138 138.666 56.4194 138.715 56.436 138.765C56.4527 138.81 56.4693 138.854 56.4804 138.937L56.63 139.818C56.6632 140.111 56.6465 140.41 56.6631 140.704C56.6298 141.884 56.3086 143.052 55.7326 144.105C54.5085 146.187 52.4481 147.744 50.1827 148.824C47.9063 149.915 45.4195 150.574 42.9049 151.056L41.0051 151.366C40.3681 151.46 39.7255 151.504 39.0886 151.576C38.3741 151.665 37.6486 151.715 36.9285 151.754C36.0091 151.2 35.0785 150.679 34.1203 150.197C31.7442 148.995 29.274 147.998 26.7261 147.223C26.272 147.085 25.8123 146.952 25.3525 146.83C24.2669 144.819 23.2256 142.792 22.2341 140.737ZM8.53678 160.394C7.37364 159.901 6.23818 159.358 5.20243 158.716C4.17222 158.079 3.20854 157.326 2.64359 156.462C2.36665 156.03 2.20043 155.592 2.1672 155.155C2.14504 154.717 2.24476 154.257 2.46631 153.786C2.91495 152.85 3.75685 151.964 4.69291 151.194C6.57055 149.666 8.82473 148.591 11.2396 148.07C13.649 147.511 16.1803 147.433 18.6949 147.655C20.6058 147.816 22.5001 148.159 24.3722 148.635C25.1698 150.125 25.995 151.604 26.8369 153.072C25.7236 153.471 24.638 153.997 23.6798 154.75C22.5776 155.62 21.719 156.822 21.2371 158.14C20.7719 159.464 20.6169 160.854 20.6446 162.194C20.6557 162.853 20.7 163.507 20.7609 164.155C19.0992 163.745 17.4432 163.319 15.8037 162.853C13.3279 162.15 10.8741 161.375 8.53678 160.394Z" fill="url(#paint9_linear)"/>
<path opacity="0.07" d="M203.025 266.052C202.466 265.138 201.585 264.501 200.549 264.252C199.508 264.002 198.434 264.174 197.52 264.733C195.864 265.747 193.903 266.888 191.881 267.658C190.053 268.361 188.154 268.749 186.226 268.81C184.432 268.876 182.41 268.677 180.017 268.212C178.965 268.012 177.918 267.763 176.954 267.508C176.999 266.822 177.015 266.135 177.004 265.448C176.921 259.239 174.323 256.625 172.158 255.522C168.17 253.495 163.074 255.135 159.125 257.145C158.516 250.432 158.41 244.827 158.826 240.44L159.208 240.18L158.97 238.33C157.89 229.878 161.54 202.738 163.993 187.185C169.804 183.12 170.889 177.271 169.964 172.978C171.521 169.179 177.004 154.861 177.004 141.895C177.004 128.026 163.368 120.714 158.997 118.732C158.876 118.665 158.754 118.61 158.621 118.565C158.61 118.56 158.604 118.56 158.593 118.554C158.084 117.474 157.718 116.466 157.541 115.807C161.468 112.7 162.553 109.388 163.7 105.893L163.783 105.688L163.827 105.499C163.866 105.378 163.905 105.272 163.938 105.178C164.763 105.001 165.788 104.519 166.741 103.295C168.419 101.146 168.087 98.7809 167.882 97.3574C167.854 97.1746 167.821 96.9475 167.804 96.7703C169.211 94.6933 168.142 92.3559 167.417 90.7718C166.901 89.6419 166.364 88.4732 166.364 87.3599C166.364 83.3222 163.274 82.0095 161.612 81.306C160.56 80.8629 159.651 80.4752 159.047 79.6278C156.915 76.6424 154.683 76.7698 152.971 77.2129C152.888 77.235 152.789 77.2627 152.717 77.2738C152.606 77.2184 152.312 77.0412 151.808 76.5372C149.028 73.7789 147.566 73.1641 144.702 73.5518C143.899 73.6625 142.985 73.7844 141.262 73.5518C137.103 72.9923 133.469 74.3604 130.55 75.4626C129 76.0498 127.532 76.6036 126.623 76.6036C122.181 76.6036 121.339 80.021 120.979 81.4833C120.73 82.4858 120.564 83.0785 120.01 83.6102C118.764 84.8065 118.199 86.3519 118.432 87.9636C118.736 90.1016 120.376 91.8685 122.17 93.1922C121.616 94.4606 121.04 95.8619 120.459 97.3851C119.274 98.3654 117.374 100.177 116.188 102.503C113.314 99.4123 110.301 95.9229 109.077 94.4939C108.046 86.2632 103.914 70.3061 98.215 67.2819C95.8001 66.0024 90.7433 56.4481 88.0238 51.3192C87.204 49.7738 86.4175 48.2784 85.6698 46.9214C84.0414 43.9415 83.7145 42.6011 83.6647 41.0503V40.9783C83.6425 40.0533 83.7256 38.9677 83.8198 37.7049C84.0026 35.2567 84.2573 31.9002 84.0746 26.6772L84.0636 26.3393C83.9473 23.0437 83.8586 20.5901 83.7589 18.7013C83.7645 18.7013 83.7756 18.7013 83.7811 18.7013C83.9971 18.7013 84.2187 18.6792 84.4347 18.6293C85.1713 18.4687 85.908 18.2804 86.689 18.0478C87.5032 17.8041 88.2397 17.5493 88.9542 17.2613C89.918 16.868 90.6603 16.4858 91.3803 16.015C91.9286 15.6495 92.3718 15.2839 92.7872 14.8408C93.4795 14.0931 93.917 13.29 94.122 12.3872L94.1497 12.2542C94.2051 12.0161 94.2327 11.7723 94.2327 11.5342C94.2438 10.6147 93.8948 9.7507 93.2523 9.09158C92.6098 8.43801 91.7514 8.06691 90.832 8.06137C90.8209 8.06137 90.8098 8.06137 90.7987 8.06137C89.8959 8.06137 89.0429 8.41032 88.3948 9.04174C87.9462 9.4793 87.6361 10.0166 87.481 10.6037C87.481 10.6037 87.4754 10.6037 87.4754 10.6092C87.1763 10.8474 86.761 11.1022 86.2569 11.3625C85.2821 11.861 84.1466 12.3151 82.9115 12.7084L82.8671 12.725C82.6124 12.149 82.3022 11.7059 81.9588 11.368C82.1139 11.1354 82.2468 10.8861 82.3354 10.6037L84.1744 4.79904C84.2464 4.56087 84.2962 4.31716 84.3239 4.06238C84.4236 3.08202 84.1301 2.11827 83.5042 1.35392C82.8783 0.589574 81.9921 0.118781 81.0117 0.0190827C80.0258 -0.0806151 79.0676 0.212937 78.3032 0.838818C77.5389 1.4647 77.0681 2.3509 76.9684 3.33126L76.3702 9.36852C76.3203 9.84486 76.3979 10.3101 76.5585 10.7421C76.2428 10.9194 75.9437 11.1465 75.6778 11.4123C75.4009 11.6893 74.9301 12.1711 74.476 13.3675C74.188 12.941 73.7891 12.581 73.2961 12.3318C72.1385 11.7557 71.0862 11.1797 70.1723 10.6203C69.624 10.2824 69.2141 9.99994 68.8928 9.7507C68.8707 9.72854 68.8431 9.71193 68.8264 9.69531C68.2836 8.41032 67.0207 7.53519 65.5474 7.53519C63.5811 7.53519 61.9805 9.13589 61.9805 11.1022L61.986 11.2572C62.058 12.4758 62.5787 13.2124 62.8279 13.5669L62.9387 13.7165C63.1934 14.0322 63.4704 14.3146 63.7861 14.5694C64.2292 14.935 64.6501 15.2008 65.0212 15.4279C65.6914 15.8212 66.3395 16.1369 66.8712 16.3806L69.9453 21.3489C69.7071 21.5261 69.491 21.7089 69.3083 21.8861C67.3808 22.2849 65.9794 23.4481 65.1098 24.4007C62.5011 25.0377 60.9336 27.3972 60.5459 29.5961L59.9201 33.1741L63.2211 33.1852C62.7836 36.7467 64.2957 42.4571 65.0323 44.9385L65.0989 45.149L65.3758 45.7028C65.398 45.7416 67.8681 49.7461 67.8958 54.3267C67.5414 66.0634 71.7564 77.1021 71.8007 77.2129L71.9891 77.6061C79.0732 90.2013 85.0993 102.093 85.5036 104.259C85.559 113.248 93.0585 125.406 96.1713 130.064C87.3812 143.7 86.8938 160.333 87.0212 166.132C81.1003 170.098 76.8132 172.795 76.7357 172.845L75.9381 173.366L75.6279 174.119C75.3898 174.457 73.2573 177.165 64.8329 177.664C53.6335 178.329 42.1074 178.628 41.6199 178.639L40.8113 178.661L40.119 179.082C39.7977 179.276 39.3491 179.575 38.8949 179.968C36.8733 179.276 34.9457 178.473 33.1789 177.57C31.9659 176.938 31.0298 176.373 30.2267 175.792C29.3017 175.122 28.6482 174.496 28.2272 173.881C28.0334 173.571 27.978 173.377 27.9669 173.283L27.9559 173.227C27.9559 173.183 27.9559 173.144 27.9559 173.1V172.939C27.9725 172.657 27.978 172.369 27.9725 172.059C29.5123 172.43 30.991 172.801 32.4533 173.233C33.4059 173.51 34.403 173.394 35.267 172.917C36.131 172.441 36.7624 171.654 37.0338 170.707C37.2222 170.059 37.2277 169.395 37.0671 168.758C37.1003 168.774 37.128 168.796 37.1612 168.813C38.6844 169.705 40.3018 170.303 41.9745 170.591C42.9549 170.757 43.8742 170.807 44.7826 170.735C46.0399 170.635 47.1199 170.314 48.0781 169.76C48.6652 169.433 49.208 168.985 49.7397 168.387L49.8617 168.237C50.3657 167.567 50.7035 166.908 50.8918 166.232C51.2297 165.102 51.2575 163.917 50.975 162.587C50.7812 161.707 50.482 160.848 50.0943 160.034C49.9447 159.696 49.773 159.403 49.6345 159.165C49.5847 159.081 49.5348 158.998 49.4905 158.915L49.3576 158.694C49.136 158.367 48.9034 158.046 48.6708 157.73L48.632 157.68C48.3107 157.276 47.9729 156.888 47.6074 156.5C50.3712 155.919 52.6421 155.188 54.6804 154.229C57.9649 152.673 60.413 150.568 61.9527 147.976L61.986 147.921C62.8833 146.32 63.3873 144.514 63.4426 142.703V142.626V142.548C63.4371 142.449 63.4372 142.354 63.4372 142.255C63.4372 141.972 63.4317 141.656 63.3984 141.296L63.1934 140.034C63.0383 139.225 62.6341 138.366 62.1411 137.768C61.7534 137.286 61.3158 136.86 60.8395 136.511C59.3828 135.431 57.8542 134.866 56.3753 134.362C55.1402 133.963 53.8329 133.62 52.2654 133.287C49.8727 132.783 47.3249 132.385 44.2398 132.03C39.0056 131.443 33.6441 131.116 28.2936 131.061C26.6597 131.05 25.4025 131.072 24.2172 131.122C23.5747 131.149 22.8159 131.194 21.9961 131.293C21.7635 131.321 21.5309 131.36 21.3204 131.399C21.1598 131.426 20.988 131.465 20.7941 131.521C20.6667 131.554 20.5339 131.593 20.3511 131.67L20.2846 131.698C20.0852 131.775 19.9079 131.864 19.703 131.991C19.4981 132.119 19.0273 132.418 18.6119 133.033C18.3128 133.47 18.191 133.825 18.1134 134.107L18.0913 134.185C18.0137 134.467 17.9916 134.689 17.9805 134.855V134.883C17.9584 135.143 17.9694 135.342 17.9694 135.403C17.9861 135.83 18.047 136.162 18.0968 136.411L18.1079 136.478C18.3073 137.397 18.5898 138.167 18.8224 138.798C19.044 139.391 19.2876 140.011 19.6033 140.759C20.0908 141.906 20.6391 143.113 21.2761 144.454C21.3591 144.625 21.4367 144.791 21.5253 144.969C18.4457 144.719 15.6764 144.886 13.1119 145.467C9.98806 146.121 7.04148 147.516 4.57673 149.51C3.46344 150.435 2.06212 151.737 1.10391 153.665C0.538957 154.839 0.273031 156.107 0.345035 157.353C0.422578 158.577 0.843503 159.807 1.56908 160.937C2.72115 162.671 4.22226 163.762 5.5571 164.615C6.69255 165.324 7.95535 165.966 9.5339 166.647C12.3698 167.855 15.1889 168.719 17.3324 169.345C18.634 169.721 20.0242 170.098 21.6249 170.508C21.6914 171.023 21.7413 171.516 21.7634 171.987C21.7745 172.242 21.7745 172.463 21.7634 172.657L21.758 172.934C21.7525 173.288 21.7469 173.82 21.8632 174.38C22.0404 175.371 22.4392 176.346 23.0484 177.287L23.0817 177.337C24.2005 178.977 25.6406 180.112 26.632 180.827C27.6955 181.585 28.8808 182.294 30.3929 183.075C32.7191 184.244 35.134 185.213 37.7373 186.05C38.3299 186.82 39.3435 187.523 41.0439 187.911C42.7775 188.304 44.4946 188.398 45.9901 188.37C45.4252 193.998 46.6769 195.687 47.9121 196.507C48.0727 196.612 48.355 196.861 48.6264 197.105C50.1164 198.434 52.6144 200.655 57.6269 200.655L58.0092 200.633C61.9971 200.129 63.7141 199.021 64.5006 198.152C65.0213 197.903 65.5697 197.581 66.0626 197.183C68.3723 197.166 72.1441 196.252 76.0102 191.566L81.7594 191.306C81.4658 191.749 81.1833 192.209 80.9009 192.691C78.3419 197.05 76.7579 201.996 76.5641 206.266C76.3148 211.622 76.6804 215.466 77.1013 219.914C77.3284 222.334 77.5887 225.059 77.7604 228.333C75.9548 232.874 67.0484 256.17 67.0816 272.958C65.636 275.75 61.4598 284.451 61.7976 291.164C61.8198 291.558 61.8697 291.962 61.9527 292.361L63.7972 305.87C63.7695 306.618 62.6949 308.911 61.0887 311.359H60.5681L59.8315 313.358C59.8204 313.38 59.4492 314.405 58.9064 316.394L58.8622 316.46H58.8898C58.0922 319.39 56.9291 324.38 55.993 331.359C55.4945 335.076 56.4029 338.371 58.6184 340.892C63.282 346.198 72.1552 346.347 73.1854 346.347L73.9609 346.342L74.6366 345.971C75.3345 345.588 81.4658 341.966 81.4935 331.764C81.5157 324.176 83.4321 317.762 83.698 316.92C83.9915 316.183 85.3208 312.782 85.7528 309.625L94.7478 297.761C98.1984 296.094 100.143 295.584 101.151 295.44L100.968 296.471L104.779 297.418L105.415 298.232L105.604 297.628L106.595 297.877L110.982 283.853C115.208 294.427 117.374 296.011 118.221 296.554C119.307 297.6 121.722 303.505 123.029 306.69C126.086 314.15 127.416 317.213 129.714 318.144C131.381 318.82 136.793 319.767 142.952 319.922C143.921 320.963 145.549 322.686 147.244 324.375C149.847 326.967 151.459 328.346 152.562 329.111L152.611 330.368C152.445 332.849 152.196 334.926 152.008 336.034C148.59 338.028 142.631 343.395 140.426 345.943C139.324 347.217 136.743 350.202 138.116 353.044C139.313 355.525 142.431 358.992 147.289 360.609C149.144 361.23 151.127 361.54 153.176 361.54C157.258 361.54 161.723 360.299 166.436 357.857C182.299 349.632 184.947 343.982 185.312 342.941L185.694 341.861L185.274 340.797C182.272 333.187 180.217 328.474 179.153 326.751L179.07 326.496L178.704 326.131C175.858 322.868 173.199 318.476 173.326 317.235C173.382 316.754 173.315 316.266 173.149 315.818C172.817 313.358 172.08 310.894 170.956 308.473C171.349 307.387 171.548 306.258 171.554 305.1C171.582 299.606 167.306 295.18 165.179 293.313C164.974 292.422 164.636 290.91 164.215 288.927C167.228 286.927 172.939 282.308 175.608 274.626C176.672 274.936 177.636 275.185 178.572 275.39C181.518 276.066 184.011 276.376 186.392 276.376H186.398C189.123 276.404 191.975 275.905 194.601 274.986C197.243 274.077 199.641 272.792 201.679 271.635L201.762 271.585C202.676 271.025 203.313 270.145 203.563 269.109C203.756 268.04 203.585 266.966 203.025 266.052ZM61.8808 192.048C61.7257 191.345 61.3324 190.702 60.7453 190.254C60.762 189.932 60.8229 189.506 60.906 189.196C61.3823 187.578 60.4574 185.872 58.84 185.396C58.0591 185.163 57.2283 185.252 56.5138 185.64C56.0928 185.867 55.7438 186.194 55.478 186.576C55.345 186.515 55.2066 186.46 55.0626 186.415C54.276 186.183 53.4508 186.266 52.7308 186.653C52.5812 186.736 52.4427 186.836 52.3098 186.936C52.3818 186.465 52.4649 185.983 52.559 185.485L52.7696 184.388C56.5248 184.239 60.8672 184.034 65.1763 183.779C66.8657 183.679 68.4498 183.491 69.9231 183.225C70.2111 184.765 70.6209 186.349 71.2025 187.695C68.1506 191.378 65.8853 191.068 65.6084 191.012L62.2075 189.838L61.8808 192.048ZM166.187 314.4C166.298 314.316 166.414 314.228 166.519 314.145C167.555 317.828 167.112 320.52 166.818 321.65C165.627 322.032 162.98 322.575 158.92 323.273C157.391 323.533 156.405 323.71 155.702 323.854C154.86 323.206 153.248 321.75 151.077 319.573C156.239 319.002 161.922 317.59 166.187 314.4ZM154.317 338.726C154.323 338.726 154.328 338.726 154.328 338.726L154.445 339.097L154.317 338.726L154.212 340.255C154.051 340.243 153.896 340.216 153.741 340.166L154.162 338.798C154.223 338.765 154.279 338.742 154.317 338.726ZM155.104 341.191C155.486 341.102 155.852 340.941 156.178 340.714C157.308 339.939 157.984 338.565 158.46 333.514C167.3 334.023 168.281 336.937 168.774 338.394C169.959 341.911 172.346 341.672 173.315 341.412C175.232 340.897 176.179 339.136 176.932 336.571C177.597 338.161 178.3 339.883 178.97 341.562C177.658 343.207 173.786 347.095 163.584 352.39C157.995 355.287 153.149 356.09 149.188 354.766C146.585 353.897 144.896 352.274 144.065 351.116C145.92 348.225 153.221 342.326 155.104 341.191ZM172.656 328.424C172.429 329.177 172.196 330.146 171.886 331.481C171.859 331.603 171.831 331.73 171.803 331.847C170.413 330.512 168.308 329.221 165.057 328.363C168.225 327.709 170.003 327.122 171.061 326.28C171.626 327.089 172.18 327.82 172.656 328.424ZM162.52 309.498C154.051 315.829 135.846 313.475 132.362 312.561C131.47 311.226 129.659 306.8 128.651 304.341C125.687 297.108 123.893 292.926 121.555 291.419C120.176 290.212 116.471 281.798 113.596 273.357L110.578 264.484L102.807 289.32C100.137 288.966 96.4427 290.029 91.3359 292.571C83.3047 296.565 74.4094 296.055 70.1169 293.546C69.419 293.136 68.2227 292.3 67.9346 291.236L67.8627 290.71C67.6744 285.714 71.3465 277.794 72.7922 275.141L73.1798 274.426L73.1632 273.612C72.9417 262.219 77.6275 246.721 80.7956 237.61C84.4291 242.601 89.99 244.572 90.0565 244.594L90.555 244.772L91.0867 244.766C91.3415 244.766 116.775 244.628 133.519 244.755C132.849 245.071 132.278 245.519 131.858 246.156C131.73 246.35 131.619 246.561 131.531 246.771C131.387 246.755 131.243 246.738 131.11 246.721C129.437 246.494 127.897 247.674 127.67 249.347C127.449 251.019 128.623 252.559 130.296 252.786C131.874 252.997 133.962 253.102 136.494 253.102C138.665 253.102 140.803 253.024 142.282 252.952C142.331 252.958 142.387 252.958 142.437 252.958L142.597 252.952C142.703 252.947 142.797 252.936 142.885 252.925C144.004 252.864 144.741 252.814 144.835 252.808C145.649 252.753 146.397 252.376 146.929 251.762C147.466 251.141 147.726 250.355 147.665 249.541C147.61 248.721 147.233 247.973 146.607 247.441C146.153 247.048 145.605 246.804 145.023 246.727C144.89 246.489 144.73 246.256 144.525 246.023C144.253 245.719 143.938 245.453 143.578 245.231C143.539 244.988 143.506 244.744 143.472 244.5C147.433 244.207 150.368 243.708 152.495 243.193C152.296 248.444 152.628 254.891 153.503 262.418C153.509 262.551 153.525 262.679 153.547 262.806C153.791 264.855 154.068 266.999 154.389 269.192C153.226 270.339 152.179 271.69 151.265 273.241C149.903 275.567 148.906 278.071 148.297 280.68C147.92 282.297 148.884 283.898 150.484 284.33C152.113 284.767 153.797 283.792 154.24 282.136C154.611 280.746 155.148 279.372 155.813 278.082C156.367 281.256 156.987 284.49 157.652 287.764L157.713 288.052C158.676 292.732 159.38 295.679 159.385 295.706L159.64 296.764L160.493 297.418C161.85 298.47 165.378 301.899 165.362 305.05C165.373 306.601 164.437 308.063 162.52 309.498ZM72.1884 340.16C69.4522 339.972 65.1929 339.119 63.1712 336.82C62.13 335.635 61.7534 334.107 62.0193 332.146C62.9941 324.884 64.1849 320.01 64.916 317.451H68.8375V315.585H73.0469L72.482 318.919H76.8133C76.1154 322.06 75.3456 326.651 75.3345 331.73C75.3234 335.364 74.2322 337.64 73.3128 338.909C72.8974 339.474 72.4986 339.883 72.1884 340.16ZM78.2257 45.1988C78.6522 46.5669 79.3002 48.018 80.2362 49.7351C78.2201 50.4773 75.8772 50.9204 73.7393 51.1419C73.4734 49.4581 73.0304 47.9294 72.554 46.6278C74.1326 46.3453 76.049 45.8967 78.2257 45.1988ZM69.5575 31.9833C69.9119 34.221 71.701 35.9989 75.0243 37.4224C75.4065 37.5885 75.8163 37.6716 76.2373 37.6716C76.769 37.6716 77.2785 37.5276 77.7216 37.2784C77.6773 37.8489 77.6385 38.4083 77.6053 38.9511C74.5202 40.0367 71.9613 40.5518 70.2498 40.7955C69.4245 37.4168 69.0867 34.6198 69.2972 33.861C69.491 33.224 69.5741 32.5926 69.5575 31.9833ZM77.9654 27.1701C78.0263 29.0699 78.0262 30.6983 77.993 32.1162C77.8213 31.9944 77.633 31.8836 77.4336 31.8005C76.7745 31.5181 76.3204 31.2688 76.0158 31.0694C76.4866 30.0392 76.3592 28.7819 75.5893 27.8459C75.0575 27.2034 74.3208 26.8378 73.5509 26.7547L73.7005 26.2618C73.9663 26.223 74.5313 26.2175 75.5172 26.4889L77.9654 27.1701ZM69.3249 28.9204C69.5132 28.6268 70.2056 27.8459 70.7539 27.8735L70.8259 27.8791C70.0726 28.6933 69.4523 29.9173 69.4966 31.3685C69.4025 30.7592 69.1975 30.1888 68.8762 29.6626L69.3249 28.9204ZM83.1441 55.1852C88.0957 64.5125 91.6849 70.7602 95.3515 72.7043C97.4784 73.8675 102.02 85.6318 103.1 96.1001L103.2 97.0361L103.809 97.7562C104.081 98.0774 109.675 104.696 114.012 109.094C110.639 112.822 103.948 120.26 100.087 124.857C95.8445 118.144 91.6184 109.609 91.6184 104.165C91.6184 100.786 83.9306 86.3851 77.4391 74.8202C76.9739 73.5462 74.3208 65.8917 74.0217 57.2789C76.5197 57.0573 79.9593 56.509 83.1441 55.1852ZM126.928 82.9566C126.945 82.8846 126.967 82.807 126.984 82.724C128.706 82.652 130.451 82.0482 132.151 81.4113C130.406 82.4027 128.828 83.588 127.338 84.8287C126.574 85.4657 125.82 86.374 125.028 87.6147C124.956 87.5482 124.89 87.4818 124.829 87.4208C126.225 85.8091 126.64 84.1197 126.928 82.9566ZM106.573 133.786C107.216 135.968 108.916 138.859 113.375 140.261L113.563 140.322L114.1 140.405H114.294C116.554 140.405 118.753 140.299 121.467 139.408C119.877 140.815 118.265 142.288 116.648 143.811C110.639 149.472 101.195 156.384 93.1915 161.928C93.5127 154.789 95.1576 141.9 102.352 131.842L102.807 131.21C103.543 130.236 104.928 128.579 106.706 126.519C106.069 129.078 105.925 131.57 106.573 133.786ZM152.7 236.774C151.061 237.3 148.014 238.014 142.907 238.391C142.464 227.806 145.566 222.185 150.108 213.971C151.592 211.29 153.271 208.249 154.965 204.749C155.104 204.461 155.237 204.178 155.37 203.896C153.852 215.394 152.357 229.158 152.7 236.774ZM117.124 134.14C116.344 134.24 115.585 134.268 114.793 134.273C113.126 133.653 112.666 132.806 112.444 132.052C112.201 131.227 112.195 130.191 112.411 128.978C112.771 129.77 113.242 130.535 113.829 131.255C114.793 132.44 115.945 133.387 117.124 134.14ZM138.969 133.343C138.631 133.791 138.305 134.301 138.006 134.827C137.839 134.672 137.668 134.523 137.491 134.379C137.989 134.03 138.482 133.681 138.969 133.343ZM119.395 118.427C119.589 119.164 119.883 119.983 120.348 120.82C121.661 123.196 124.552 126.148 130.827 126.691L130.949 126.696C128.734 128.402 126.812 129.77 125.117 130.839C122.829 130.391 119.993 129.139 118.581 127.4C117.795 126.436 117.545 125.439 117.789 124.276C118.238 122.149 118.836 120.199 119.395 118.427ZM132.284 138.311C133.154 138.715 133.829 139.214 134.295 139.801C135.037 140.737 135.076 141.74 135.059 142.127C134.444 144.304 133.818 147.284 133.968 150.053C133.059 151.887 133.098 154.368 134.084 157.575C134.749 159.729 135.696 162.122 136.87 164.598C130.08 168.115 124.884 170.846 121.406 172.729C110.76 178.478 91.9231 184.045 89.27 184.815L82.6235 185.114C81.5102 182.926 81.2775 179.569 81.3495 177.165C83.2826 175.93 87.0046 173.521 91.5907 170.436C91.7679 170.342 91.9397 170.225 92.0948 170.092C101.134 163.983 113.408 155.271 120.847 148.264C124.768 144.575 128.612 141.23 132.284 138.311ZM90.2836 190.874L92.6542 190.442L92.6265 190.204C98.2816 188.509 114.444 183.446 124.314 178.113C127.781 176.241 132.954 173.521 139.723 170.015C142.597 174.961 147.034 181.264 151.099 181.48C151.249 181.58 151.559 181.857 151.891 182.389C154.849 187.108 152.573 195.654 149.46 202.084C147.837 205.435 146.269 208.271 144.752 211.013C140.077 219.476 136.316 226.278 136.809 238.635C136.05 238.64 135.275 238.646 134.488 238.64C129.609 238.602 123.444 238.579 116.166 238.579C105.139 238.579 94.6703 238.629 91.6572 238.64C89.9291 237.893 84.1632 234.94 83.8697 228.671C83.6925 224.971 83.41 221.958 83.1552 219.304C82.7564 215.084 82.413 211.445 82.6401 206.515C82.9835 199.116 88.5666 191.439 90.2836 190.874ZM170.125 265.487C169.793 265.381 169.482 265.315 169.233 265.265L168.984 265.21C168.895 265.193 168.807 265.171 168.718 265.154C168.463 265.099 168.209 265.044 167.948 265.005L167.538 264.949C167.023 264.877 166.442 264.8 165.81 264.789C163.866 264.672 161.905 264.955 160.083 265.592C160 264.977 159.923 264.373 159.845 263.77C163.44 261.604 167.566 260.064 169.383 260.989C170.64 261.626 170.862 264.113 170.878 265.537C170.878 265.592 170.878 265.653 170.878 265.708C170.635 265.631 170.385 265.559 170.125 265.487ZM159.629 182.726L158.737 183.253C158.233 181.214 157.519 179.852 157.076 179.137C155.641 176.85 153.669 175.498 151.62 175.371C151.027 175.039 149.255 173.532 146.602 169.516C146.12 168.785 145.638 168.015 145.156 167.207C145.35 167.107 145.544 167.007 145.738 166.908C146.973 168.154 148.817 169.849 151.077 171.466C155.608 174.706 159.989 176.307 164.137 176.213C164.027 178.135 163.102 180.677 159.629 182.726ZM164.547 170.054C160.305 170.419 155.348 167.423 151.504 163.944C158.455 160.378 163.711 157.708 163.766 157.68C165.267 156.916 165.871 155.071 165.107 153.565C164.342 152.064 162.492 151.46 160.964 152.241C159.961 152.751 151.526 157.043 142.298 161.801C141.634 160.378 141.052 158.987 140.57 157.658C142.414 157.846 143.616 157.204 144.364 156.506C146.641 154.385 145.721 150.934 145.383 149.926L144.968 148.68L143.777 148.126C143.367 147.932 141.944 147.317 140.243 147.112C140.864 142.847 143.013 137.807 143.982 136.882C144.447 136.444 145.826 135.143 148.884 127.45C153.221 125.334 155.929 124.741 157.026 124.575C160.969 126.453 170.884 132.146 170.884 141.911C170.884 153.177 166.22 165.866 164.547 170.054ZM149.377 98.4153C148.103 99.5175 147.964 101.451 149.072 102.736C149.199 102.88 149.338 103.007 149.487 103.123C148.862 103.766 148.308 104.585 148.125 105.627C147.97 106.507 148.108 107.388 148.518 108.169C148.385 109.532 147.344 113.669 145.228 119.706C141.041 120.864 137.308 122.476 134.067 124.508C134.123 124.315 134.162 124.115 134.178 123.91C134.25 123.096 134.001 122.304 133.469 121.678C132.943 121.052 132.207 120.67 131.387 120.598C125.255 120.066 125.145 116.588 125.183 115.929C125.255 115.115 125.006 114.323 124.474 113.697C123.948 113.071 123.212 112.689 122.414 112.617C122.22 112.6 122.032 112.6 121.844 112.617L122.165 111.52L122.386 110.767C122.458 110.534 122.713 109.681 123.101 108.446C123.86 109.509 125.139 110.052 126.502 109.853C127.969 109.642 130.606 110.163 131.924 110.551C132.201 110.634 132.495 110.673 132.783 110.673C134.134 110.673 135.336 109.77 135.718 108.479C135.951 107.693 135.862 106.867 135.469 106.147C135.076 105.427 134.433 104.907 133.647 104.674C133.353 104.585 131.642 104.098 129.603 103.843C130.418 102.204 131.73 99.8554 133.641 96.8811C134.084 96.1943 134.234 95.3745 134.057 94.5769C133.885 93.7794 133.408 93.0925 132.727 92.655C132.04 92.2119 131.221 92.0623 130.418 92.234C129.886 92.3503 129.409 92.6107 129.016 92.9707C130.296 90.4505 131.038 89.7084 131.243 89.5367C134.705 86.6565 138.654 83.948 145.461 85.1832C149.482 85.9143 154.672 88.5452 157.197 92.7879C158.023 94.1671 158.527 95.657 158.721 97.2466C155.63 95.3745 151.853 96.2663 149.377 98.4153ZM69.6185 303.527L69.1199 299.86C73.7503 301.793 79.3667 301.954 84.4679 301.107L81.1944 305.427C78.8072 305.466 73.4624 305.322 69.6185 303.527ZM162.83 282.297C162.182 278.918 161.595 275.595 161.08 272.366C162.398 271.729 163.899 271.457 165.362 271.596L165.5 271.607C165.76 271.618 166.093 271.674 166.442 271.734L166.807 271.795C166.918 271.818 167.029 271.845 167.14 271.873C167.25 271.901 167.367 271.928 167.477 271.956L167.671 272.006C167.793 272.034 167.937 272.072 167.998 272.094L168.109 272.133C168.624 272.294 169.178 272.488 169.743 272.687C168.148 277.207 165.195 280.358 162.83 282.297ZM70.8314 17.9536C70.8646 17.9647 70.8978 17.9758 70.9311 17.9868C71.8284 18.297 72.7867 18.1585 73.5455 17.6878C73.4624 18.4189 73.3959 19.2331 73.3516 20.1525C72.6315 20.2079 72.0057 20.3519 71.4574 20.5513L70.8314 17.9536ZM75.5948 174.158L75.5615 174.241C75.5615 174.241 75.5727 174.208 75.5948 174.158ZM20.9326 162.737C20.3676 162.587 19.8304 162.438 19.3098 162.288C16.4241 161.469 14.2751 160.743 12.3366 159.929C11.1125 159.414 10.1653 158.937 9.35108 158.433C8.19348 157.719 7.74488 157.198 7.59533 156.971C7.56764 156.932 7.55097 156.899 7.53989 156.871C7.54543 156.849 7.55654 156.822 7.57316 156.783C7.70609 156.5 8.08828 155.908 9.11295 155.066C10.6749 153.792 12.5691 152.895 14.6295 152.452C16.5792 151.997 18.8169 151.875 21.2927 152.092C22.6275 152.202 24.0344 152.418 25.48 152.745C25.6739 153.1 25.8732 153.46 26.0781 153.831C25.6627 154.08 25.2751 154.351 24.904 154.645C23.4473 155.797 22.2951 157.398 21.636 159.187C21.2539 160.283 21.0157 161.48 20.9326 162.737ZM27.5404 161.336C27.8008 160.638 28.2439 160.029 28.8033 159.591C28.9362 159.491 29.0747 159.392 29.2243 159.297C30.4816 161.369 31.7609 163.402 33.3063 165.396C33.4336 165.556 33.5721 165.733 33.7217 165.905C32.0379 165.44 30.3874 165.052 28.7811 164.676C28.2439 164.548 27.7121 164.426 27.1748 164.293C27.1748 164.205 27.1693 164.116 27.1693 164.028C27.1471 162.992 27.2801 162.072 27.5404 161.336ZM37.3385 157.575L37.5655 157.564C38.8062 158.306 39.9029 159.059 40.8943 159.851C41.8304 160.599 42.5615 161.302 43.1154 161.995C43.2428 162.161 43.3592 162.333 43.481 162.499C43.5253 162.576 43.5696 162.654 43.614 162.731C43.6472 162.787 43.6859 162.842 43.7136 162.903L43.7691 163.025C43.902 163.291 44.0071 163.562 44.0847 163.839C43.7911 163.85 43.4532 163.828 43.0988 163.773C42.2735 163.634 41.415 163.324 40.634 162.864C40.2242 162.626 39.8808 162.377 39.5984 162.122C39.2882 161.845 38.9281 161.408 38.701 161.125C37.8314 160.017 37.0173 158.821 36.2418 157.619C36.6074 157.603 36.9674 157.586 37.3385 157.575ZM45.259 150.43L43.4256 150.729C43.06 150.784 42.6945 150.818 42.3289 150.856C42.0852 150.879 41.8415 150.906 41.5701 150.934C41.1657 150.984 40.7503 151.023 40.3571 151.05C39.5706 150.59 38.8174 150.186 38.0752 149.815C35.5551 148.541 32.9241 147.483 30.271 146.68C30.1436 146.641 30.0218 146.603 29.8944 146.569C28.9639 144.808 28.1275 143.146 27.3354 141.524C26.7317 140.272 26.2222 139.153 25.7681 138.106C25.7182 137.99 25.6739 137.879 25.6241 137.774C26.3884 137.752 27.2358 137.746 28.2217 137.746C33.334 137.768 38.4629 138.056 43.4644 138.594C46.339 138.909 48.6929 139.269 50.8808 139.712C52.2045 139.984 53.3344 140.272 54.3148 140.582C55.1345 140.853 56.1537 141.219 56.8405 141.695L56.9015 142.044C56.907 142.122 56.907 142.205 56.907 142.282C56.907 142.388 56.907 142.493 56.9125 142.598C56.8793 143.335 56.6743 144.071 56.3143 144.736C55.2398 146.536 53.3178 147.732 51.8833 148.414C50.0998 149.267 47.9896 149.909 45.259 150.43Z" fill="black"/>
</g>
<defs>
<linearGradient id="paint0_linear" x1="-0.114431" y1="22.6997" x2="178.76" y2="41.6194" gradientUnits="userSpaceOnUse">
<stop stop-color="white"/>
<stop offset="1"/>
</linearGradient>
<linearGradient id="paint1_linear" x1="-17.0002" y1="182.363" x2="161.87" y2="201.282" gradientUnits="userSpaceOnUse">
<stop stop-color="white"/>
<stop offset="1"/>
</linearGradient>
<linearGradient id="paint2_linear" x1="-16.851" y1="180.959" x2="162.018" y2="199.877" gradientUnits="userSpaceOnUse">
<stop stop-color="white"/>
<stop offset="1"/>
</linearGradient>
<linearGradient id="paint3_linear" x1="-6.71943" y1="85.1619" x2="172.152" y2="104.081" gradientUnits="userSpaceOnUse">
<stop stop-color="white"/>
<stop offset="1"/>
</linearGradient>
<linearGradient id="paint4_linear" x1="-8.68479" y1="103.751" x2="170.186" y2="122.669" gradientUnits="userSpaceOnUse">
<stop stop-color="white"/>
<stop offset="1"/>
</linearGradient>
<linearGradient id="paint5_linear" x1="1.8448" y1="4.18587" x2="180.717" y2="23.105" gradientUnits="userSpaceOnUse">
<stop stop-color="white"/>
<stop offset="1"/>
</linearGradient>
<linearGradient id="paint6_linear" x1="1.99262" y1="2.77886" x2="180.867" y2="21.6985" gradientUnits="userSpaceOnUse">
<stop stop-color="white"/>
<stop offset="1"/>
</linearGradient>
<linearGradient id="paint7_linear" x1="2.64696" y1="-3.39349" x2="181.518" y2="15.5254" gradientUnits="userSpaceOnUse">
<stop stop-color="white"/>
<stop offset="1"/>
</linearGradient>
<linearGradient id="paint8_linear" x1="-15.7356" y1="170.4" x2="163.137" y2="189.319" gradientUnits="userSpaceOnUse">
<stop stop-color="white"/>
<stop offset="1"/>
</linearGradient>
<linearGradient id="paint9_linear" x1="-13.7601" y1="151.723" x2="165.112" y2="170.642" gradientUnits="userSpaceOnUse">
<stop stop-color="white"/>
<stop offset="1"/>
</linearGradient>
</defs>
</svg>
