<svg width="580" height="498" viewBox="0 0 580 498" fill="none" xmlns="http://www.w3.org/2000/svg">
<g opacity="0.2">
<path d="M572.398 461.269C570.709 455.798 565.227 450.763 555.626 445.88C528.805 432.236 516.817 441.717 514.365 444.137C492.645 437.511 451.668 424.062 445.107 418.406C445.903 414.908 449.979 395.792 450.066 372.263C450.131 354.652 447.908 331.853 438.699 311.484C439.876 309.424 445.62 299.638 453.782 289.971C456.975 297.109 460.866 303.932 465.389 310.285C467.056 312.77 468.953 315.081 470.762 317.456C472.691 319.734 474.565 322.055 476.614 324.235C480.636 328.638 484.886 332.834 489.376 336.746C490.564 337.781 491.774 338.806 492.983 339.819C473.988 347.96 451.047 349.225 450.698 349.246C450.142 349.279 449.717 349.748 449.75 350.303C449.783 350.837 450.219 351.263 450.753 351.263C450.775 351.263 450.785 351.263 450.807 351.263C452.235 351.186 475.601 349.9 494.814 341.312C497.615 343.568 500.47 345.748 503.402 347.83C505.832 349.551 508.306 351.208 510.823 352.799C513.352 354.39 515.891 355.905 518.572 357.311C519.063 357.562 519.662 357.387 519.923 356.897C520.185 356.406 520.011 355.796 519.52 355.535L519.498 355.524C516.959 354.151 514.431 352.603 511.979 351.012C509.516 349.421 507.096 347.753 504.721 346.02C502.16 344.157 499.653 342.206 497.201 340.212C505.298 336.256 512.425 330.894 516.49 323.647C522.038 313.784 521.068 301.785 513.602 287.999C506.039 274.038 496.983 266.932 486.684 266.9C486.651 266.9 486.63 266.9 486.608 266.9C475.154 266.9 464.07 275.542 455.265 285.187C454.24 282.604 453.314 279.978 452.475 277.329C449.096 266.18 447.647 254.498 448.072 242.891C448.05 241.442 448.257 239.992 448.355 238.543L448.737 234.194C449.129 231.317 449.63 228.44 450.077 225.574L452.039 217.062L454.142 208.387C454.818 205.489 455.592 202.622 456.18 199.702L457.858 190.918L458.697 186.526C458.959 185.054 459.112 183.572 459.33 182.09L460.539 173.208C461.695 161.318 462.174 149.254 460.572 137.212C460.354 135.708 460.191 134.204 459.929 132.7L458.937 128.231C458.763 127.49 458.621 126.738 458.425 125.997L457.728 123.796L457.03 121.594C456.812 120.853 456.572 120.123 456.245 119.415C455.635 117.987 455.079 116.538 454.404 115.132L453.292 113.05C452.91 112.364 452.584 111.655 452.115 111.001L450.785 109.018C450.36 108.342 449.794 107.743 449.292 107.111C448.802 106.468 448.224 105.868 447.625 105.28C447.342 104.986 447.037 104.68 446.688 104.397C446.339 104.114 446.056 103.83 445.522 103.482C445.511 103.471 445.489 103.46 445.489 103.46C444.203 102.621 442.481 102.991 441.653 104.266C440.814 105.552 441.184 107.274 442.459 108.102L442.536 108.157C442.623 108.211 442.884 108.429 443.102 108.615C443.331 108.789 443.56 109.007 443.778 109.247C444.236 109.694 444.693 110.14 445.107 110.674C445.521 111.198 445.99 111.666 446.361 112.244L447.516 113.933C447.93 114.478 448.224 115.11 448.573 115.709L449.576 117.529C450.197 118.772 450.709 120.09 451.287 121.376C451.592 122.009 451.81 122.684 452.028 123.36L452.692 125.376L453.357 127.392C453.543 128.079 453.684 128.787 453.859 129.474L454.84 133.648C455.101 135.054 455.275 136.492 455.504 137.92C457.161 149.341 456.867 161.079 455.886 172.718L454.807 181.436C454.611 182.886 454.48 184.346 454.24 185.796L453.466 190.133L451.919 198.797C451.374 201.685 450.633 204.53 450.012 207.407L448.05 216.005L446.132 224.811C445.696 227.786 445.227 230.761 444.857 233.737L444.519 238.238C444.432 239.742 444.236 241.235 444.279 242.738C443.985 254.759 445.641 266.845 449.271 278.299C450.328 281.536 451.537 284.707 452.867 287.835C445.347 296.597 439.811 305.588 437.675 309.261C434.558 302.798 430.722 296.619 425.981 290.963C426.199 287.072 427.441 258.813 419.246 248.689C417.001 245.91 415.846 242.88 414.614 239.676C413.317 236.276 411.988 232.821 409.394 229.552C408.511 226.653 400.795 202.034 391.728 199.516C391.434 199.44 362.598 191.506 355.132 194.056C354.696 194.209 354.315 194.154 353.912 193.893C350.762 191.877 348.953 180.63 348.517 176.467L348.43 175.606L347.558 175.573C347.187 175.551 310.134 174.614 282.888 223.351C281.722 224.789 261.92 249.256 251.501 256.176C248.461 258.192 246.87 260.372 246.772 262.671C246.663 265.309 248.493 267.357 249.997 268.687C247.295 269.515 243.578 272.011 241.05 274.518C239.295 276.261 237.388 278.681 236.92 281.274C218.818 267.249 160.48 268.338 156.262 268.436C146.781 265.854 119.906 278.452 116.342 280.163C110.021 278.397 101.793 281.274 99.2977 282.255L66.6574 238.99L61.2302 231.797C65.851 222.337 67.0064 214.207 64.6633 207.646C62.1894 200.726 56.7292 198.209 56.5439 198.132C56.3695 198.045 39.4013 189.337 33.8541 182.319C33.9958 182.297 34.1483 182.297 34.2899 182.275C39.9134 181.502 45.1991 178.352 48.2396 173.328C48.2396 173.328 48.2505 173.317 48.2505 173.306C48.523 172.827 48.3594 172.216 47.8799 171.933C47.4004 171.65 46.7901 171.824 46.5067 172.304L46.4631 172.38C45.8855 173.383 45.0247 174.418 44.1419 175.301C43.2374 176.205 42.2347 177.001 41.1558 177.676C38.998 179.017 36.5458 179.911 34.0066 180.248C28.8953 180.968 23.6097 179.747 18.7709 177.709C16.3406 176.674 13.9648 175.508 11.6871 174.135C10.5319 173.492 9.43135 172.729 8.29793 172.031C7.24081 171.301 6.22705 170.527 5.33339 169.601C1.66071 165.983 -0.453384 160.991 -1.59769 155.891C-1.80476 154.976 -1.9682 154.038 -2.10988 153.112C5.03932 148.905 12.1341 144.611 19.1743 140.23C24.9176 144.644 30.7807 148.905 36.7747 152.959C45.7439 159.019 54.9856 164.697 64.5542 169.797C69.3385 172.347 74.2099 174.745 79.1903 176.914C84.1817 179.071 89.2603 181.044 94.546 182.526C97.1833 183.278 99.8751 183.867 102.611 184.292C105.346 184.706 108.169 184.858 111.024 184.531C112.452 184.368 113.879 184.019 115.274 183.507C115.95 183.191 116.648 182.886 117.28 182.472C117.901 182.014 118.555 181.622 119.067 181.033C119.328 180.75 119.623 180.488 119.862 180.194L120.516 179.246L120.843 178.766L121.083 178.254L121.552 177.219C121.813 176.532 121.966 175.867 122.184 175.192C122.369 174.516 122.609 173.851 122.75 173.165C123.96 167.694 123.96 162.092 123.361 156.643C122.761 151.183 121.508 145.832 119.895 140.623C118.282 135.413 116.331 130.313 114.086 125.365C111.819 120.417 109.302 115.6 106.567 110.903C103.788 106.239 100.791 101.694 97.5866 97.3024C95.5595 94.567 93.4234 91.9078 91.222 89.325C92.8894 87.9191 94.546 86.5132 96.1807 85.0856C100.246 81.5001 104.234 77.7947 108.038 73.904C111.841 70.0025 115.492 65.9266 118.751 61.4801C120.375 59.246 121.89 56.9247 123.208 54.4617C124.505 51.9769 125.628 49.3505 126.238 46.4842C126.826 43.6398 126.848 40.4685 125.682 37.5695C125.126 36.1528 124.222 34.7796 123.306 33.7225C122.423 32.6218 121.454 31.5973 120.451 30.5947C116.408 26.6496 111.547 23.7071 106.469 21.4947C101.357 19.3151 96.0062 17.8547 90.6007 16.8957C79.7679 14.9885 68.7608 14.9885 57.928 15.9694C47.0843 17.0047 36.3606 19.0862 25.9093 22.0941C15.4579 25.102 5.25717 29.0363 -4.40951 34.1039C-9.2265 36.665 -13.9127 39.4985 -18.3265 42.768C-22.7294 46.0374 -26.8923 49.6992 -30.4124 54.0149C-32.167 56.1727 -33.7582 58.4831 -35.0769 60.9788C-35.7198 62.1885 -36.341 63.5944 -36.7225 65.0111C-37.1148 66.4388 -37.3001 67.91 -37.3328 69.3595C-37.3982 72.2693 -36.8752 75.1137 -36.036 77.7838C-35.186 80.4538 -34.1395 83.0476 -32.8427 85.4888C-30.3252 90.4148 -27.1865 94.9157 -23.8626 99.2423C-20.5168 103.558 -16.9207 107.645 -13.1826 111.579C-9.62978 115.295 -5.9461 118.881 -2.17532 122.346C-2.29521 122.837 -2.42607 123.338 -2.53505 123.829C-3.71206 129.147 -4.55106 134.552 -4.82351 140.012C-4.99788 143.456 -4.96525 146.933 -4.61651 150.387C-7.28656 151.946 -9.95672 153.504 -12.6268 155.041C-25.4103 162.386 -38.3463 169.481 -51.4241 176.281C-52.5575 175.529 -53.702 174.767 -54.8354 174.015C-64.1097 167.846 -72.8609 162.016 -79.9012 157.101C-89.8839 150.126 -97.1421 147.805 -101.469 150.191C-105.512 152.414 -105.316 157.744 -105.305 157.973L-105.294 158.245L-105.141 158.474C-104.978 158.724 -91.3987 179.649 -88.3473 194.285C-91.8456 195.855 -95.3547 197.402 -98.8857 198.884C-103.833 200.955 -108.825 202.917 -113.86 204.649C-116.377 205.51 -118.917 206.317 -121.456 206.982C-123.984 207.635 -126.578 208.213 -128.954 208.289H-129.008H-129.019C-130.098 208.333 -130.937 209.238 -130.894 210.306C-130.85 211.384 -129.946 212.224 -128.877 212.18C-125.848 212.071 -123.156 211.417 -120.475 210.731C-117.805 210.022 -115.189 209.194 -112.618 208.3C-107.463 206.513 -102.417 204.508 -97.4143 202.415C-94.1885 201.053 -90.9846 199.647 -87.7914 198.209C-87.726 199.244 -87.7261 200.236 -87.8351 201.151C-89.3281 214.556 -78.2118 223.307 -75.8904 224.985C-75.8796 225.934 -75.9886 229.29 -77.34 240.232C-78.0266 240.581 -78.6261 240.94 -79.1274 241.3C-79.5743 241.627 -79.6832 242.248 -79.3563 242.706C-79.1601 242.978 -78.8549 243.12 -78.5389 243.12C-78.3318 243.12 -78.1356 243.055 -77.9504 242.935C-77.8523 242.869 -77.7432 242.804 -77.6343 242.738C-79.4325 256.917 -83.0289 282.081 -90.1999 326.676C-104.869 417.807 -71.9018 430.547 -54.1923 437.402C-52.6339 438.001 -51.1736 438.568 -49.9203 439.124C-42.4877 442.437 -17.7488 444.78 10.9025 447.504C40.9923 450.36 75.1036 453.596 94.7639 458.609C132.188 468.145 227.972 473.442 230.675 473.584C232.778 473.987 280.414 482.956 309.251 473.693C312.204 475.698 329.434 486.923 347.1 487.762C347.776 488.372 349.509 489.68 352.048 489.767C352.124 489.767 352.211 489.767 352.288 489.767C352.517 489.767 352.756 489.746 352.985 489.724C354.129 490.127 382.574 499.728 433.076 489.746C471.873 482.073 479.796 483.087 481.344 483.61L480.93 484.623L482.63 484.406C482.837 484.384 503.718 481.844 510.845 487.871C516.196 492.405 521.678 497.047 530.211 497.047C533.808 497.047 537.949 496.219 542.853 494.214C548.88 491.74 553.512 490.748 556.89 490.018C562.546 488.797 565.663 488.133 566.491 482.4C566.742 480.711 567.853 478.662 569.041 476.504C571.33 472.298 574.196 467.077 572.398 461.269ZM486.564 268.883C486.586 268.883 486.619 268.883 486.64 268.883C496.155 268.916 504.612 275.662 511.804 288.936C518.921 302.079 519.902 313.413 514.714 322.644C510.747 329.695 503.565 334.893 495.414 338.73C493.92 337.476 492.449 336.212 491 334.915C486.619 331.003 482.488 326.829 478.597 322.448C476.614 320.29 474.805 317.99 472.941 315.724C471.198 313.37 469.367 311.081 467.776 308.629C463.133 301.948 459.242 294.766 456.115 287.29C464.735 277.667 475.611 268.883 486.564 268.883ZM417.677 249.953C425.807 259.99 423.965 290.93 423.943 291.246L423.921 291.65L424.183 291.955C460.212 334.523 445.151 408.936 443.222 417.665C440.759 417.469 433.937 417.284 430.09 420.88C429.686 421.261 429.665 421.894 430.035 422.297C430.232 422.515 430.504 422.613 430.766 422.613C431.005 422.613 431.256 422.526 431.452 422.34C434.994 419.038 442.023 419.55 443.56 419.703C451.625 427.103 511.804 445.455 514.387 446.24L515.019 446.425L515.444 445.924C515.51 445.848 519.924 440.824 530.299 440.78C525.776 446.077 517.973 450.076 488.896 449.139C474.838 448.681 451.036 447.69 429.447 446.763C420.227 427.539 427.867 363.185 429.512 350.38C431.866 332.016 419.388 318.274 416.162 315.07C421.535 308.814 422.091 293.873 422.102 293.219C422.123 292.663 421.687 292.205 421.131 292.184C421.121 292.184 421.11 292.184 421.099 292.184C420.565 292.184 420.118 292.609 420.096 293.153C420.085 293.317 419.518 309.239 414.059 314.383C410.44 317.794 399.455 318.993 384.666 317.609C379.653 317.14 360.745 305.141 348.342 287.138C340.463 275.695 343.678 248.253 354.838 231.72C360.069 223.972 369.169 215.384 382.77 218.425C406.364 223.71 409.601 232.2 412.74 240.406C413.961 243.61 415.236 246.934 417.677 249.953ZM363.273 323.69C363.633 322.393 364.003 321.129 364.396 319.941C371.185 323.875 384.666 352.592 389.483 363.828L390.497 366.182L391.358 363.763C395.652 351.644 388.055 326.11 386.018 319.712C394.954 320.453 408.893 320.78 414.723 316.432C417.622 319.298 429.796 332.485 427.54 350.107C425.262 367.937 418.658 426.427 427.224 446.654C406.212 445.739 387.729 444.911 383.108 444.693C387.031 414.439 364.984 330.175 363.273 323.69ZM368.984 311.223C375.25 315.92 380.776 318.862 383.816 319.483C385.091 323.439 392.557 347.394 390.17 360.384C385.974 350.87 372.831 322.241 365.049 318.045C365.801 315.996 366.586 314.241 367.404 312.955C368.079 311.898 368.613 311.43 368.984 311.223ZM242.478 275.923C246.161 272.273 250.728 270.158 251.785 270.409C252.079 270.474 252.951 270.671 253.332 269.886C253.714 269.09 253.104 268.6 252.384 268.044C251.185 267.085 248.679 265.102 248.777 262.748C248.842 261.135 250.139 259.489 252.602 257.843C263.555 250.574 283.651 225.596 284.501 224.539L284.599 224.397C308.924 180.837 340.997 177.774 346.621 177.578C346.762 178.712 347.013 180.63 347.438 182.82C344.539 184.008 334.513 188.575 325.119 197.969C315.049 208.039 303.976 225.759 308.412 252.95C316.073 299.845 334.894 302.678 339.33 302.678C339.831 302.678 340.147 302.646 340.245 302.635C340.79 302.559 341.182 302.057 341.106 301.501C341.03 300.957 340.539 300.564 339.973 300.641C339.766 300.673 318.612 302.929 310.395 252.623C306.941 231.492 312.357 213.597 326.481 199.429C335.189 190.7 344.703 186.177 347.852 184.815C348.833 189.218 350.413 194.024 352.822 195.571C353.748 196.16 354.762 196.29 355.775 195.942C360.832 194.209 380.176 198.394 391.183 201.445C397.068 203.069 403.149 217.411 406.201 226.239C401.798 222.457 394.889 219.057 383.206 216.43C371.73 213.858 361.061 218.872 353.171 230.565C341.411 247.981 338.262 276.011 346.686 288.249C352.735 297.022 360.385 304.509 367.349 309.958C365.682 311.408 364.156 314.481 362.815 318.306C360.636 324.508 358.936 332.692 357.868 339.144C356.211 333.793 353.596 327.842 351.601 323.614C347.253 314.416 330.818 306.896 322.764 310.427C315.681 313.533 317.915 332.823 318.776 338.697C316.945 338.076 315.495 336.583 314.384 334.152C310.035 324.682 312.913 305.109 314.166 302.504C314.406 302.395 314.591 302.221 314.711 301.992C314.863 301.698 314.951 301.218 314.504 300.608C313.207 298.831 306.047 294.243 300.761 295.082C297.35 295.638 297.034 302.58 296.925 313.958C296.87 319.167 296.794 327.886 295.497 328.474C295.497 328.474 295.345 328.474 295.018 328.224C290.125 324.486 293.612 307.953 295.367 301.894L295.944 299.889L294.015 300.684C293.95 300.717 286.844 303.638 283.564 304.106C281.057 304.466 277.352 314.154 274.246 323.832C274.791 316.748 274.736 308.694 272.055 306.046C271.205 305.207 270.116 304.88 268.906 305.109C261.757 306.449 258.454 324.965 257.397 332.496C256.613 329.237 257.735 323.625 258.836 318.143C260.394 310.362 262.007 302.308 258.803 298.472C256.057 295.181 251.97 292.968 248.014 290.843C246.968 290.276 245.943 289.721 244.963 289.165C243.687 287.781 241.737 285.808 238.859 282.953C238.5 280.337 240.941 277.438 242.478 275.923ZM234.577 349.432C235.645 354.216 237.486 358.771 239.568 363.163L241.246 366.411C241.824 367.49 242.489 368.503 243.11 369.55C244.32 371.675 245.78 373.615 247.164 375.609C252.864 383.488 259.762 390.376 267.075 396.675L267.086 396.686C267.467 397.013 267.969 397.122 268.426 397.035C273.57 415.845 280.545 436.116 289.503 451.558C275.663 445.39 262.4 437.827 250.815 428.116C238.434 417.894 228.125 405.067 221.597 390.398C214.993 375.751 212.366 359.458 212.976 343.372C213.281 335.318 214.448 327.297 216.235 319.429C218.077 311.702 220.474 304.019 223.766 296.859C232.441 292.085 239.84 290.745 241.617 290.483C243.371 291.911 244.472 292.707 245.213 293.11C245.191 293.459 245.333 293.807 245.649 294.014L249.104 296.292C246.031 299.605 243.47 303.234 241.214 307.081C238.762 311.277 236.822 315.789 235.416 320.453C234.021 325.129 233.214 329.989 233.084 334.883C232.931 339.776 233.476 344.669 234.577 349.432ZM22.1495 253.495L65.5024 240.755L97.2596 282.844C81.5989 286.931 74.8966 296.575 69.4911 304.379C66.4832 308.705 63.8893 312.454 60.4128 314.198C51.7161 318.579 34.061 317.903 29.6146 317.653C31.9032 303.3 24.7759 266.279 22.1495 253.495ZM95.6031 98.741C98.7526 103.068 101.684 107.547 104.42 112.146C107.112 116.767 109.575 121.529 111.798 126.39C113.999 131.261 115.896 136.263 117.465 141.353C119.034 146.442 120.233 151.652 120.8 156.915C121.366 162.168 121.345 167.498 120.211 172.576C119.895 173.818 119.503 175.083 119.11 176.271L118.74 177.077L118.555 177.48L118.304 177.84L117.814 178.559C117.628 178.777 117.41 178.973 117.214 179.18C115.601 180.837 113.182 181.643 110.686 181.927C108.18 182.21 105.564 182.068 102.97 181.676C100.376 181.273 97.7935 180.706 95.2433 179.965C90.1321 178.516 85.1516 176.576 80.2474 174.44C75.3433 172.293 70.5372 169.917 65.8074 167.389C56.3477 162.321 47.2042 156.676 38.3113 150.649C32.6551 146.813 27.1189 142.791 21.7025 138.628C29.2876 133.877 36.8076 129.027 44.251 124.047C53.2311 118.031 62.1021 111.841 70.7879 105.389C77.0761 100.714 83.2772 95.8965 89.3148 90.8834C91.5162 93.4227 93.6087 96.0491 95.6031 98.741ZM18.6837 136.274C16.6239 134.65 14.5752 133.005 12.5481 131.337C8.42862 127.937 4.37437 124.439 0.440125 120.821C2.82683 111.623 6.29245 102.686 10.7934 94.3272C13.3218 89.6301 16.2207 85.1292 19.501 80.9552C22.7923 76.7921 26.5305 72.9668 30.7917 69.8935C35.031 66.8311 39.9244 64.6079 45.0575 64.1938C50.1796 63.8777 55.3997 65.1201 60.1949 67.2344C65.0119 69.3486 69.5021 72.2584 73.6761 75.5279C77.8501 78.8191 81.7734 82.4482 85.3916 86.3824C85.9692 87.0036 86.5248 87.6357 87.0806 88.2678C81.1084 93.2047 74.9729 97.9563 68.7283 102.577C60.086 108.974 51.2476 115.11 42.3002 121.082C34.5189 126.281 26.6284 131.326 18.6837 136.274ZM-11.09 109.541C-14.7735 105.661 -18.3047 101.629 -21.5632 97.4114C-24.8 93.1829 -27.8514 88.7909 -30.2272 84.1047C-31.4587 81.7725 -32.4286 79.3422 -33.2133 76.8792C-33.9871 74.4162 -34.434 71.877 -34.3686 69.3922C-34.3359 68.1498 -34.1833 66.9292 -33.8564 65.7522C-33.5403 64.5752 -33.0608 63.4854 -32.4505 62.3302C-31.2517 60.0525 -29.7696 57.9055 -28.113 55.8785C-24.8 51.8352 -20.8111 48.3151 -16.55 45.1656C-12.2779 42.0269 -7.72251 39.2588 -3.0036 36.774C6.44511 31.8371 16.4824 27.99 26.7485 25.0475C37.0255 22.105 47.5747 20.078 58.2005 19.0862C68.8153 18.1381 79.572 18.1708 90.0124 20.0344C95.2217 20.9716 100.333 22.3884 105.15 24.4481C109.934 26.5406 114.435 29.2978 118.129 32.9051C119.034 33.8206 119.917 34.7469 120.723 35.7604C121.563 36.7413 122.14 37.6567 122.587 38.7465C123.448 40.8826 123.459 43.3347 122.958 45.7432C121.89 50.6037 119.089 55.2028 116.015 59.4422C112.898 63.6924 109.324 67.6703 105.597 71.4846C101.859 75.299 97.9243 78.939 93.9029 82.47C92.2682 83.8977 90.6118 85.3035 88.9444 86.6985C88.3559 86.0337 87.7673 85.3689 87.157 84.715C83.4625 80.7154 79.441 77.01 75.1363 73.6316C70.8315 70.2749 66.189 67.2671 61.1214 65.0547C56.0646 62.8533 50.5172 61.491 44.8502 61.8616C39.1722 62.3411 33.9085 64.7823 29.4403 68.019C24.9502 71.2667 21.0923 75.2445 17.7029 79.5384C14.3245 83.8432 11.3712 88.4531 8.79921 93.2592C4.40726 101.444 1.0069 110.14 -1.4016 119.099C-4.70374 116.004 -7.96218 112.832 -11.09 109.541ZM-2.68752 140.078C-2.41505 134.759 -1.58672 129.474 -0.420609 124.264C-0.398804 124.166 -0.366302 124.068 -0.344513 123.97C3.27368 127.24 6.96835 130.433 10.7391 133.528C12.5264 134.988 14.3246 136.427 16.1337 137.855C9.9326 141.68 3.68802 145.44 -2.58932 149.134C-2.82909 146.137 -2.84009 143.097 -2.68752 140.078ZM-10.8175 158.18C-8.57248 156.883 -6.32755 155.575 -4.09341 154.267C-3.97353 154.965 -3.83173 155.662 -3.67915 156.349C-2.46945 161.7 -0.224518 167.072 3.85139 171.083C4.84312 172.097 5.97656 172.958 7.14267 173.764C8.30876 174.483 9.43123 175.257 10.63 175.922C12.9731 177.328 15.447 178.537 17.9754 179.616C22.193 181.371 26.8028 182.57 31.489 182.472C36.4586 190.068 54.844 199.505 55.6723 199.93C55.7159 199.952 60.6201 202.241 62.7888 208.355C64.9684 214.512 63.7478 222.283 59.1596 231.448L58.8763 232.004L64.2054 239.066L21.7352 251.544C21.5717 250.738 21.4302 250.117 21.343 249.702C21.1796 248.525 17.2562 220.888 11.5128 215.471C6.30353 210.567 5.4752 202.001 5.4752 201.914L5.40976 201.227L4.74512 201.042C4.38548 200.944 -30.3797 190.732 -32.5702 170.429C-25.2684 166.408 -18.0212 162.332 -10.8175 158.18ZM-34.4665 171.432C-31.5676 191.201 -1.42336 201.227 3.54622 202.753C3.85136 205.02 5.20279 212.278 10.1288 216.91C14.4771 220.997 18.2588 242.15 19.3704 250.029C19.5775 251.01 19.7955 252.013 20.0026 253.026C20.0026 253.037 20.0026 253.059 20.0026 253.07C20.0026 253.081 20.0135 253.081 20.0135 253.092C24.7651 275.923 29.7564 307.495 27.6204 318.078C27.5441 318.208 27.4895 318.35 27.4786 318.503C27.4786 318.546 27.4895 318.579 27.4895 318.612C27.1734 319.887 26.7484 320.824 26.1708 321.303C25.9093 321.521 25.506 321.728 24.6995 321.391C14.0629 317.01 2.0531 320.159 -2.24078 321.565C-1.28174 309.098 -15.5802 278.321 -25.1924 257.625C-28.6798 250.127 -31.9928 242.989 -32.7666 240.439C-28.0695 240.047 -19.3945 230.838 -16.3975 227.514C-14.6647 226.893 -4.96539 223.165 -2.85114 217.542C-2.15366 215.667 -2.32803 213.782 -3.39605 211.951C-6.56742 206.48 -26.6853 192.759 -47.8931 178.614C-43.3922 176.249 -38.9238 173.851 -34.4665 171.432ZM-103.31 157.58C-103.289 156.632 -103.038 153.286 -100.51 151.902C-98.0247 150.54 -92.6409 150.616 -81.0671 158.703C-74.016 163.629 -65.2432 169.459 -55.9688 175.638C-55.1406 176.183 -54.3123 176.739 -53.484 177.295C-58.835 180.052 -64.2078 182.766 -69.6024 185.425C-75.2041 188.16 -80.8276 190.831 -86.4946 193.402C-89.6224 179.115 -101.665 160.141 -103.31 157.58ZM95.2433 456.637C75.4413 451.591 41.2429 448.343 11.0768 445.477C-16.2123 442.883 -41.9973 440.442 -49.1247 437.26C-50.4216 436.682 -51.9147 436.105 -53.4949 435.495C-70.6813 428.847 -102.656 416.488 -88.2491 326.97C-80.8601 281.089 -77.2311 255.642 -75.4764 241.529C-63.9353 236.189 -31.7421 231.666 -31.3934 231.611C-30.8485 231.535 -30.4561 231.023 -30.5324 230.478C-30.6087 229.933 -31.1209 229.541 -31.6658 229.617C-33.0717 229.813 -62.5185 233.955 -75.1931 239.218C-73.6564 226.413 -73.8743 224.331 -74.016 224.015L-74.136 223.743L-74.3866 223.58C-74.5174 223.492 -87.3555 214.796 -85.8515 201.358C-85.7099 200.105 -85.7317 198.753 -85.8624 197.315C-79.8357 194.579 -73.8636 191.746 -67.935 188.825C-61.8974 185.85 -55.8925 182.788 -49.9203 179.671C-29.3227 193.402 -8.12569 207.799 -5.12869 212.954C-4.37672 214.262 -4.24608 215.526 -4.72559 216.834C-6.65457 222.01 -17.1822 225.672 -17.2912 225.705L-17.5419 225.792L-17.7161 225.988C-23.612 232.571 -31.2626 239.186 -33.2897 238.423C-33.7692 238.238 -34.2705 238.347 -34.6083 238.695C-35.5564 239.72 -34.7827 241.758 -27.0123 258.475C-17.6399 278.659 -1.93567 312.443 -4.45314 322.84L-4.91078 324.725L-3.11269 324.017C-2.96011 323.963 11.7416 318.241 23.9258 323.265C25.615 323.963 26.7702 323.429 27.4458 322.862C28.1869 322.241 28.7537 321.14 29.1678 319.658C30.4865 319.745 33.3092 319.887 36.8511 319.887C44.2837 319.887 54.8766 319.244 61.2956 316.007C65.2299 314.023 67.9544 310.089 71.1149 305.534C76.4223 297.883 83.0374 288.391 98.5564 284.609L98.6328 284.707L99.3629 284.391C99.461 284.348 109.422 280.076 116.135 282.19L116.517 282.31L116.876 282.135C117.171 281.994 146.792 267.739 155.859 270.409L156.012 270.453H156.175C156.829 270.431 221.346 268.992 237.05 284.021C237.552 285.841 238.805 287.323 240.505 288.663C237.726 289.165 230.773 290.745 222.774 295.148C222.599 295.191 222.436 295.279 222.305 295.409C215.973 298.973 209.031 304.291 203.026 312.247C187.823 332.376 183.475 361.986 190.09 400.261C198.569 449.313 217.009 466.009 225.76 471.295C205.206 470.031 127.851 464.952 95.2433 456.637ZM231.024 471.589C229.858 471.219 202.776 461.781 192.074 399.89C185.557 362.215 189.774 333.139 204.607 313.468C209.642 306.798 215.341 302.035 220.769 298.635C217.913 305.207 215.799 312.007 214.088 318.928C212.203 326.916 210.938 335.057 210.568 343.274C209.805 359.665 212.333 376.394 219.003 391.542C225.596 406.712 236.124 420.019 248.722 430.612C261.288 441.314 275.739 449.52 290.746 456.136L290.757 456.146C291.28 456.364 291.836 456.332 292.304 456.092C296.762 462.947 301.677 468.549 307.06 472.232C278.409 480.58 232.637 471.894 231.024 471.589ZM567.276 475.523C566.001 477.856 564.802 480.046 564.497 482.095C563.865 486.443 562.001 486.847 556.454 488.045C552.999 488.787 548.269 489.811 542.079 492.35C526.691 498.66 519.629 492.677 512.142 486.334C505.047 480.319 486.913 481.91 483.077 482.324C480.45 479.839 463.504 481.67 432.684 487.762C391.085 495.99 364.712 490.814 356.429 488.634C357.53 488.045 358.631 487.239 359.72 486.182C360.113 485.8 360.124 485.157 359.742 484.765C359.361 484.362 358.718 484.362 358.325 484.743C356.211 486.792 354.162 487.784 352.135 487.751C351.296 487.729 350.566 487.511 349.977 487.25C353.127 486.334 358.423 483.98 359.034 478.292C359.088 477.736 358.696 477.245 358.14 477.18C357.573 477.115 357.094 477.518 357.029 478.074C356.364 484.155 348.332 485.626 347.449 485.768C328.944 485.005 310.155 471.883 309.97 471.753L309.556 471.458L309.523 471.469C275.129 450.479 259.185 344.44 259.032 343.361C258.956 342.816 258.454 342.424 257.888 342.511C257.343 342.588 256.962 343.1 257.038 343.656C257.321 345.617 260.58 367.272 267.206 392.567C260.699 386.921 254.596 380.786 249.485 373.887C248.134 371.969 246.684 370.095 245.507 368.068C244.897 367.065 244.232 366.084 243.677 365.06L242.031 361.954C239.982 357.747 238.162 353.399 237.105 348.832C236.004 344.288 235.438 339.623 235.525 334.948C235.601 330.273 236.32 325.619 237.617 321.118C238.914 316.617 240.734 312.247 243.066 308.171C245.377 304.106 248.145 300.172 251.327 296.848L252.21 295.965L251.185 295.289L247.807 293.066C251.36 294.984 254.924 297.011 257.267 299.823C259.86 302.929 258.269 310.841 256.874 317.816C255.261 325.859 253.736 333.466 257.419 336.343L258.836 337.455L259.032 335.667C259.86 328.115 263.337 308.258 269.287 307.147C269.843 307.038 270.268 307.169 270.65 307.55C274.104 310.961 271.936 328.801 270.802 335.395L272.753 335.842C276.611 322.241 281.962 307.027 283.847 306.166C286.299 305.817 290.473 304.291 292.893 303.354C291.367 309.239 287.869 325.358 293.776 329.88C294.909 330.752 295.802 330.611 296.347 330.349C298.658 329.216 298.821 323.701 298.919 314.045C298.974 307.844 299.083 297.447 301.066 297.131C305.197 296.467 310.864 299.976 312.477 301.436C312.106 302.101 311.736 303.343 311.3 305.632C310.973 307.332 310.395 310.885 310.145 315.582C309.654 324.638 310.264 339.994 319.855 341.04L321.173 341.182L320.956 339.874C319.811 333.03 318.046 314.732 323.539 312.323C330.666 309.196 345.858 316.268 349.759 324.529C353.628 332.725 356.167 339.623 357.094 344.244C356.799 346.511 356.625 348.244 356.614 349.116C356.603 349.911 356.582 351.001 357.53 351.252C357.595 351.273 357.693 351.284 357.791 351.284C358.107 351.284 358.565 351.143 358.903 350.478C359.622 349.083 359.6 346.871 359.11 344.222C359.709 339.863 360.788 333.651 362.205 327.755C366.663 345.192 384.655 418.079 381.026 444.703C380.983 444.703 380.939 444.682 380.895 444.682H380.885C380.329 444.693 379.882 445.139 379.893 445.695C379.904 446.164 380.22 446.545 380.656 446.654C380.83 447.014 381.571 449.575 375.784 461.182C375.534 461.683 375.741 462.282 376.231 462.522C376.373 462.598 376.525 462.631 376.678 462.631C377.048 462.631 377.397 462.424 377.571 462.075C381.408 454.392 383.097 449.346 382.715 446.72C391.194 447.101 460.191 450.24 488.798 451.166C491.752 451.264 494.498 451.308 497.059 451.308C519.858 451.308 527.65 447.548 532.772 440.878C538.461 441.271 545.698 443.112 554.678 447.69C563.756 452.31 568.911 456.953 570.436 461.879C572.027 466.859 569.499 471.458 567.276 475.523Z" fill="url(#paint0_linear)"/>
<path opacity="0.07" d="M579.111 448.932C576.834 441.554 570.197 435.146 558.819 429.359C548.858 424.291 540.532 422.123 533.688 421.61C533.078 421.512 532.467 421.48 531.857 421.512C522.986 421.218 516.829 423.757 513.058 426.122C489.136 418.733 462.763 409.568 453.009 404.751C454.97 394.67 458.403 372.46 456.714 347.568C465.792 346.674 483.48 344.103 498.857 336.91C499.947 337.705 501.048 338.49 502.16 339.264C504.633 340.986 507.162 342.631 509.734 344.212C512.317 345.803 514.878 347.285 517.689 348.723C519.074 349.432 520.785 348.919 521.547 347.557C522.332 346.162 521.831 344.386 520.425 343.612L520.338 343.568C517.929 342.228 515.423 340.648 513.025 339.057C510.616 337.455 508.241 335.776 505.919 334.043C505.701 333.88 505.494 333.717 505.276 333.553C512.425 329.325 518.627 323.865 522.594 316.835C529.405 304.727 528.446 290.451 519.749 274.398C510.867 257.996 499.74 249.659 486.673 249.615C486.641 249.615 486.608 249.615 486.575 249.615C475.012 249.615 464.168 256.459 455.156 264.982C452.257 254.476 451.091 243.567 451.625 232.745C451.614 231.339 451.832 229.944 451.952 228.538L452.366 224.343C452.791 221.563 453.303 218.784 453.772 216.016L455.777 207.777L458 199.037C458.719 196.116 459.537 193.217 460.169 190.275L461.967 181.393L462.872 176.946C463.155 175.464 463.329 173.949 463.569 172.445L464.899 163.422C466.207 151.281 466.86 138.923 465.335 126.303C465.128 124.722 464.964 123.153 464.702 121.573L463.711 116.821C463.536 116.026 463.384 115.241 463.188 114.445L462.469 112.07L461.749 109.694C461.52 108.898 461.27 108.114 460.921 107.329C460.267 105.76 459.679 104.19 458.948 102.632L457.739 100.31C457.314 99.5367 456.965 98.7629 456.431 98.0109L454.938 95.7441C454.458 94.9921 453.794 94.251 453.227 93.51C452.922 93.1394 452.649 92.7689 452.3 92.3984L451.232 91.2976L450.698 90.7527C450.513 90.5675 450.262 90.3604 450.055 90.1751L449.38 89.5975L449.205 89.4559L448.922 89.2488L448.323 88.8237C444.585 86.437 439.626 87.5269 437.228 91.254C434.831 94.9812 435.931 99.9508 439.658 102.348C439.604 102.316 439.56 102.283 439.506 102.25L439.451 102.207L439.495 102.239L439.669 102.381C439.735 102.436 439.778 102.457 439.866 102.534L440.105 102.773L440.607 103.242C440.781 103.395 440.945 103.634 441.119 103.82C441.457 104.245 441.838 104.572 442.154 105.062L443.146 106.468C443.506 106.904 443.767 107.481 444.072 107.994L444.977 109.574C445.544 110.675 446.023 111.863 446.557 112.996C446.84 113.552 447.058 114.173 447.254 114.794L447.887 116.647L448.53 118.499C448.715 119.132 448.857 119.796 449.02 120.439L450.001 124.341C450.262 125.67 450.448 127.033 450.677 128.384C452.398 139.228 452.268 150.66 451.45 162.049L450.502 170.615C450.328 172.042 450.219 173.481 450.001 174.898L449.292 179.18L447.876 187.746C447.374 190.602 446.677 193.435 446.089 196.28L444.247 204.813L442.383 213.891C441.969 216.964 441.511 220.027 441.173 223.111L440.879 227.754C440.803 229.301 440.629 230.849 440.683 232.396C440.52 244.809 442.372 257.277 446.241 269.014C446.677 270.311 447.156 271.597 447.636 272.883C443.92 277.177 440.683 281.503 438.056 285.318C436.52 282.953 434.885 280.632 433.12 278.387C433.479 268.709 433.403 244.787 424.706 234.042C423.159 232.135 422.243 229.726 421.186 226.947C419.748 223.187 418.167 219.58 415.792 216.234C415.018 213.793 413.209 208.398 410.713 202.753C405.384 190.711 399.956 184.281 393.614 182.526C385.669 180.325 368.134 175.889 357.693 176.391C356.821 173.731 355.928 169.383 355.525 165.514L354.805 158.605L347.863 158.321C346.174 158.256 306.374 157.232 277.069 209.172C271.173 216.474 255.567 234.827 247.633 240.09C241.388 244.243 239.917 248.929 239.775 252.133C239.721 253.473 239.873 254.705 240.178 255.849C238.031 257.429 236.516 258.901 236.135 259.271C235.438 259.958 234.827 260.633 234.271 261.309C224.823 256.874 210.775 253.909 191.769 252.318C175.454 250.956 160.84 251.087 156.949 251.141C146.073 249.212 125.987 257.626 115.46 262.562C110.632 261.887 105.673 262.726 101.902 263.75L69.3603 220.615C73.2836 211.014 73.9485 202.415 71.3002 195.016C68.1397 186.166 61.3503 182.385 59.6828 181.567C54.3427 178.832 48.1744 175.072 43.9023 171.824C43.9132 171.813 43.9242 171.813 43.946 171.802C45.3409 170.92 46.6378 169.873 47.8039 168.707C48.3924 168.119 48.9371 167.498 49.4711 166.844C49.7327 166.506 49.9836 166.168 50.2342 165.808L50.6046 165.253C50.7354 165.035 50.8227 164.904 51.0298 164.533C52.0324 162.681 51.4875 160.327 49.7002 159.128C47.8039 157.864 45.2538 158.376 43.9896 160.261L43.728 160.643L43.4447 161.079C43.303 161.275 43.1503 161.471 42.9977 161.667C42.6707 162.059 42.3329 162.452 41.9515 162.811C41.2104 163.542 40.3822 164.196 39.4994 164.751C38.9327 165.1 38.3334 165.394 37.734 165.667C35.1185 163.247 31.1186 162.79 27.98 164.784C27.2607 165.242 26.6395 165.798 26.1164 166.43C24.0785 165.994 22.0295 165.318 20.0352 164.468C17.7792 163.498 15.5344 162.397 13.3656 161.068C12.2649 160.457 11.2078 159.716 10.1289 159.041C9.24614 158.419 8.41787 157.787 7.66589 157.014C5.06123 154.442 3.2848 150.856 2.18408 146.922C8.15628 143.369 14.1068 139.762 20.0136 136.078C24.7216 139.587 29.5058 142.988 34.3882 146.268C43.4882 152.371 52.8605 158.103 62.5926 163.258C67.4641 165.83 72.4336 168.271 77.5557 170.484C82.6779 172.685 87.9091 174.701 93.4563 176.249C96.2135 177.034 99.0796 177.655 102.055 178.102C105.03 178.538 108.169 178.734 111.558 178.33C112.376 178.276 113.291 178.025 114.152 177.873C115.024 177.698 115.939 177.328 116.822 177.034C117.726 176.63 118.631 176.216 119.503 175.66C120.364 175.05 121.247 174.483 121.977 173.666C122.347 173.274 122.74 172.903 123.077 172.489C123.393 172.053 123.699 171.617 123.993 171.17L124.429 170.495L124.767 169.797C124.985 169.329 125.192 168.86 125.399 168.391C125.519 168.141 125.562 167.955 125.617 167.77L125.791 167.203L126.129 166.07C126.336 165.307 126.598 164.555 126.75 163.792C128.08 157.7 128.036 151.684 127.393 145.919C126.75 140.143 125.421 134.574 123.742 129.18C122.053 123.785 120.037 118.543 117.705 113.465C115.362 108.397 112.768 103.46 109.945 98.6539C107.079 93.8805 104.006 89.2379 100.714 84.7478C99.6899 83.3747 98.6329 82.0233 97.5649 80.6828C98.2951 80.0507 99.0362 79.4404 99.7554 78.7974C103.897 75.1248 107.951 71.3322 111.874 67.2999C115.787 63.2675 119.579 59.0173 123.034 54.2656C124.756 51.8789 126.402 49.3615 127.873 46.5933C129.322 43.8034 130.63 40.7846 131.382 37.2318C131.742 35.4445 131.949 33.5373 131.861 31.5103C131.774 29.4941 131.36 27.3472 130.543 25.3419C130.325 24.8515 130.096 24.3502 129.867 23.8706C129.616 23.3911 129.344 22.9334 129.071 22.4757C128.799 22.018 128.483 21.6038 128.178 21.1788L127.949 20.8628L127.753 20.623L127.361 20.1544C126.347 18.8902 125.235 17.735 124.102 16.6016C119.492 12.1333 114.076 8.89657 108.539 6.49898C102.97 4.14497 97.2597 2.60832 91.5382 1.60569C80.0951 -0.377777 68.6956 -0.334192 57.5141 0.712033C46.3326 1.80185 35.3364 3.98149 24.6017 7.09836C13.8779 10.2261 3.39371 14.2803 -6.59991 19.5659C-11.5913 22.2359 -16.4628 25.2002 -21.1054 28.6441C-25.7372 32.0988 -30.1617 36.0003 -34.0087 40.741C-35.9268 43.1059 -37.6923 45.667 -39.1744 48.5005L-39.7193 49.5685L-39.9918 50.1134L-40.2642 50.7782C-40.5912 51.6719 -41.0163 52.5655 -41.1907 53.481C-41.692 55.3119 -41.9099 57.1537 -41.9535 58.941C-42.0298 62.5156 -41.3869 65.8286 -40.4388 68.8256C-39.4797 71.8335 -38.3025 74.667 -36.9184 77.2826C-34.1939 82.5791 -30.9027 87.2544 -27.448 91.7336C-23.9715 96.1909 -20.2662 100.376 -16.4301 104.386C-13.1061 107.852 -9.67303 111.187 -6.16382 114.434C-7.17735 119.382 -7.90761 124.417 -8.15826 129.539C-8.25635 131.555 -8.27822 133.593 -8.22372 135.631C-10.6322 137.026 -13.0406 138.421 -15.46 139.805C-26.805 146.279 -38.2699 152.556 -49.8329 158.605C-50.2034 158.365 -50.5631 158.125 -50.9336 157.875C-60.1752 151.728 -68.8939 145.919 -75.8688 141.059C-83.868 135.479 -95.5725 128.646 -104.847 133.757C-110.688 136.972 -112.519 143.445 -112.301 148.012L-112.203 150.202L-111.004 152.033C-105.828 159.956 -99.3541 171.966 -96.3789 181.033C-97.981 181.72 -99.5832 182.417 -101.185 183.082C-106.057 185.098 -110.95 187.016 -115.8 188.662C-118.219 189.49 -120.638 190.242 -122.982 190.842C-124.148 191.136 -125.292 191.408 -126.36 191.604C-127.406 191.801 -128.43 191.92 -129.063 191.931H-129.15C-129.172 191.931 -129.193 191.931 -129.215 191.931C-133.651 192.073 -137.127 195.768 -136.996 200.203C-136.855 204.639 -133.15 208.115 -128.725 207.984C-126.665 207.919 -125.008 207.657 -123.406 207.363C-121.826 207.058 -120.344 206.698 -118.906 206.317C-116.029 205.543 -113.304 204.671 -110.623 203.734C-105.283 201.87 -100.15 199.811 -95.0712 197.664C-94.9295 197.609 -94.7989 197.544 -94.6572 197.489C-93.2295 207.156 -87.1155 214.175 -83.0396 217.88C-83.1812 219.558 -83.421 222.087 -83.8678 225.879C-86.8103 228.517 -87.3988 232.952 -85.1756 236.298C-87.1045 250.858 -90.6358 275.095 -97.1093 315.288C-112.683 412.031 -74.866 426.656 -56.6988 433.675C-55.1621 434.263 -53.8433 434.775 -52.7535 435.266C-44.6671 438.873 -24.5601 440.922 10.2704 444.224C40.1096 447.058 73.9266 450.272 93.0529 455.144C130.423 464.669 221.139 469.824 229.847 470.303C234.696 471.219 266.181 476.842 293.71 473.725L300.87 474.107L297.721 473.202C301.328 472.668 304.837 471.971 308.172 471.066C314.58 475.011 329.195 482.989 344.659 484.362C346.403 485.419 348.833 486.422 351.863 486.52C351.917 486.52 351.972 486.52 352.037 486.52C358.663 488.547 387.195 495.729 434.482 486.367C453.292 482.651 464.419 481.06 470.915 480.417L469.934 482.825L483.556 481.114C492.024 480.046 503.576 480.624 506.355 482.978C512.012 487.773 519.15 493.822 530.244 493.822C534.669 493.822 539.726 492.863 545.567 490.465C551.016 488.231 555.125 487.348 558.416 486.629C564.126 485.397 571.951 483.708 573.477 473.224C573.63 472.581 574.6 470.794 575.254 469.617C577.826 464.811 581.781 457.585 579.111 448.932ZM477.617 431.451C465.193 430.983 449.489 430.329 434.406 429.686C433.632 426.852 433.054 423.289 432.662 419.147C433.948 418.831 435.179 418.199 436.226 417.229C436.847 416.706 438.896 416.357 440.934 416.336C444.672 418.853 453.456 423.136 477.617 431.451ZM378.4 346.064C380.024 349.508 381.582 352.985 383.032 356.341L391.129 375.195L397.973 355.851C401.689 345.367 398.496 328.398 395.499 316.922C402.615 316.955 408.446 316.236 412.936 314.754C416.674 319.56 421.916 328.376 420.554 338.948C417.96 359.196 413.263 403.508 417.917 428.945C406.8 428.454 397.014 428.018 390.53 427.724C390.824 406.505 384.198 372.024 378.4 346.064ZM486.564 265.657C486.586 265.657 486.597 265.657 486.619 265.657C493.365 265.679 499.762 271.194 505.636 282.027C511.608 293.056 512.578 301.85 508.611 308.934C505.407 314.634 499.239 319.026 491.97 322.372C487.916 318.623 484.09 314.645 480.494 310.493C478.565 308.346 476.821 306.057 475.012 303.823C473.334 301.491 471.568 299.224 470.032 296.804C466.751 291.955 463.874 286.876 461.411 281.623C469.127 273.014 478.26 265.657 486.564 265.657ZM455.188 289.132C457.586 293.448 460.234 297.611 463.133 301.589C464.866 304.106 466.817 306.449 468.691 308.847C470.675 311.146 472.615 313.49 474.729 315.68C477.868 319.037 481.137 322.273 484.537 325.347C474.031 328.976 462.643 330.861 454.905 331.635C453.281 321.565 450.644 311.375 446.601 301.654C448.726 298.156 451.69 293.709 455.188 289.132ZM437.435 400.468C435.713 400.653 433.85 401.013 432.008 401.623C432.062 383.717 433.861 361.496 436.487 341.007C438.656 324.083 430.45 310.82 424.859 303.954C425.731 302.057 426.439 300.041 426.995 298.014C447.113 333.575 440.552 383.303 437.435 400.468ZM417.11 275.956C414.778 277.297 413.176 279.771 413.078 282.648C412.838 289.405 410.985 297.317 409.307 298.94C409.296 298.951 409.296 298.951 409.285 298.962C407.651 300.216 399.76 301.687 385.516 300.357C381.865 299.42 365.464 289.339 354.13 272.883C348.441 264.633 350.381 240.614 360.658 225.389C366.488 216.757 373.409 213.259 381.233 215.014C401.144 219.471 403.368 225.291 406.168 232.647C407.531 236.2 409.067 240.232 412.217 244.123C416.086 248.896 417.339 264.459 417.11 275.956ZM357.922 192.389C361.431 191.703 375.893 194.264 389.08 197.893C389.854 198.383 390.802 199.549 391.837 201.162C389.658 200.508 387.304 199.898 384.754 199.331C370.259 196.084 356.985 202.143 347.362 216.387C333.979 236.2 330.917 267.467 340.921 281.983C345.967 289.307 352.004 295.791 358.031 301.12C357.268 302.755 356.538 304.629 355.83 306.776C352.277 301.807 346.664 297.698 340.616 295.137L339.047 283.432C339.047 283.432 339.188 283.4 339.45 283.389C339.156 283.389 324.16 282.986 317.337 241.246C311.986 208.486 332.093 191.485 343.722 184.553C345.073 187.43 346.817 189.817 349.051 191.245C351.71 192.945 354.936 193.359 357.922 192.389ZM321.827 291.802C322.198 292.151 322.569 292.478 322.939 292.794C322.503 292.892 322.067 293.001 321.642 293.132C321.74 292.696 321.795 292.249 321.827 291.802ZM252.156 267.238C252.21 267.238 252.275 267.238 252.33 267.238C255.861 267.238 258.498 265.102 259.664 262.66C260.296 261.342 261.909 256.884 257.397 252.819C269.135 244.493 287.847 221.356 289.994 218.675L290.419 218.152L290.746 217.564C299.127 202.546 308.314 192.738 316.803 186.341C306.646 197.991 297.056 216.681 301.491 243.828C304.27 260.819 308.575 272.643 313.338 280.882C311.3 279.781 308.989 278.833 306.592 278.278L306.788 277.613L305.655 278.081C303.66 277.7 301.633 277.613 299.661 277.929C295.988 278.517 293.721 280.555 292.315 283.574L291.367 283.966C288.305 285.231 284.044 286.724 282.594 286.931C280.207 287.279 278.322 288.337 276.6 290.429C274.148 288.26 270.933 287.367 267.653 287.988C267.326 288.042 267.01 288.119 266.704 288.206C266.16 286.604 265.353 285.111 264.231 283.759C260.612 279.422 255.708 276.774 251.382 274.441C250.771 274.114 250.063 273.733 249.355 273.341C248.701 272.654 247.949 271.869 247.088 270.998C248.483 269.515 250.695 267.881 252.156 267.238ZM198.994 388.436C192.848 352.908 196.564 325.739 210.034 307.67C210.263 307.365 210.503 307.081 210.742 306.776C210.655 307.125 210.557 307.463 210.459 307.812C208.41 315.985 206.993 324.355 206.481 332.845C205.991 341.334 206.285 349.879 207.615 358.368C208.933 366.847 211.233 375.239 214.611 383.216C221.314 399.225 232.201 413.349 245.17 424.553C257.899 435.691 272.448 444.257 287.487 451.21C289.078 453.575 290.713 455.743 292.359 457.727C267.467 460.68 236.942 455.286 232.8 454.523C230.534 453.607 208.497 443.396 198.994 388.436ZM254.346 413.666C242.336 404.053 232.397 392.044 225.967 378.214C219.483 364.406 216.693 348.865 217.052 333.292C217.227 325.51 218.24 317.718 219.864 310.035C220.714 306.21 221.706 302.395 222.872 298.646C223.33 297.208 223.809 295.791 224.311 294.374C230.643 290.342 236.484 288.5 239.841 287.704C240.309 288.042 240.723 288.326 241.105 288.565C241.235 288.653 241.366 288.707 241.497 288.783C240.069 290.68 238.707 292.63 237.497 294.679C234.795 299.104 232.626 303.888 231.013 308.891C229.411 313.904 228.441 319.167 228.19 324.497C227.94 329.826 228.43 335.188 229.531 340.386C230.599 345.617 232.484 350.576 234.653 355.349L236.386 358.87C236.985 360.036 237.672 361.125 238.315 362.259C239.568 364.558 241.072 366.64 242.5 368.787C248.232 377.026 255.098 384.197 262.334 390.747C262.454 391.194 262.585 391.64 262.705 392.087C266.497 405.459 270.562 417.218 274.889 427.343C267.631 423.354 260.71 418.842 254.346 413.666ZM246.804 300.03C247.818 298.09 248.995 296.227 250.227 294.407C250.499 294.004 250.804 293.622 251.098 293.219C251.262 293.372 251.436 293.524 251.589 293.688C252.057 295.933 250.793 302.286 250.019 306.155C248.286 314.786 246.521 323.679 251 329.455C250.216 330.916 249.867 332.638 250.128 334.414C250.237 335.122 251.839 345.955 255.12 361.311C254.815 360.929 254.499 360.559 254.204 360.177C252.897 358.412 251.491 356.69 250.357 354.826C249.769 353.911 249.126 353.006 248.592 352.069L247 349.236C245.028 345.41 243.252 341.454 242.194 337.346C239.96 329.161 239.841 320.475 242.053 312.138C243.132 307.975 244.712 303.888 246.804 300.03ZM-18.3915 229.225C-15.9504 226.98 -13.7274 224.691 -12.3651 223.242C-7.77695 221.411 0.789199 217.139 3.63362 210.001C4.12404 210.567 4.63618 211.112 5.19199 211.646C7.26264 214.425 10.6191 227.906 12.4064 240.679L12.5046 241.246C12.6899 242.128 12.8752 243.011 13.0604 243.894C13.0822 244.003 13.1041 244.112 13.1259 244.221C17.7576 266.486 21.4631 291.911 21.1143 302.733C18.2154 302.134 15.3382 301.905 12.581 301.905C9.51859 301.905 6.61959 302.199 4.04762 302.613C1.63913 290.08 -6.24023 271.499 -18.8276 244.395C-20.5386 240.722 -22.3696 236.777 -23.7645 233.639C-21.9336 232.364 -20.1461 230.827 -18.3915 229.225ZM37.1455 300.575C37.1346 293.927 36.2954 284.827 34.3991 272.098C33.0696 263.162 31.5002 254.53 30.2796 248.166L62.8214 238.608L85.9366 269.243C74.3192 274.823 68.3468 283.432 63.7151 290.113C61.3611 293.513 59.138 296.717 57.2526 297.665C52.9587 299.823 44.4691 300.543 37.1455 300.575ZM15.3492 117.671C11.6874 114.642 8.10175 111.525 4.60344 108.331C6.89206 100.496 9.98715 92.8779 13.8669 85.7396C16.3299 81.2059 19.1307 76.8794 22.2802 72.9015C25.4298 68.9455 28.9717 65.3491 32.8841 62.5701C36.7748 59.7801 41.0907 57.8947 45.3628 57.5678C46.4308 57.4588 47.4879 57.5024 48.6213 57.6332C49.1771 57.6877 49.7436 57.7095 50.2994 57.7858L51.9887 58.1454C53.1221 58.3198 54.2447 58.723 55.3672 59.0717C56.5006 59.366 57.6014 59.9218 58.713 60.3686C63.1486 62.3303 67.3878 65.0766 71.3657 68.2153C74.5479 70.7437 77.5886 73.5009 80.4766 76.4434C75.5834 80.3777 70.5811 84.2138 65.4917 87.9519C56.9148 94.251 48.1308 100.321 39.227 106.228C32.2303 110.86 25.1466 115.393 18.0083 119.829C17.1364 119.11 16.2319 118.401 15.3492 117.671ZM92.5298 90.7527C95.5813 94.9812 98.4367 99.3514 101.085 103.852C103.69 108.375 106.076 113.018 108.234 117.747C110.37 122.488 112.179 127.349 113.683 132.253C115.176 137.157 116.31 142.148 116.822 147.096C117.345 152.033 117.28 156.948 116.266 161.406C116.157 161.972 115.95 162.484 115.798 163.019L115.558 163.825L115.438 164.228C115.394 164.359 115.362 164.512 115.318 164.555C115.242 164.697 115.166 164.838 115.111 164.991L115.024 165.22L114.893 165.383C114.806 165.492 114.729 165.612 114.664 165.732C114.577 165.841 114.457 165.907 114.37 166.016C114.228 166.244 113.923 166.353 113.705 166.55C113.607 166.658 113.4 166.691 113.258 166.778C113.095 166.844 112.964 166.942 112.79 167.007C112.386 167.105 112.059 167.28 111.602 167.356C111.133 167.41 110.741 167.574 110.218 167.585C108.245 167.803 105.946 167.705 103.592 167.323C101.227 166.942 98.8181 166.408 96.3987 165.699C91.5599 164.315 86.7211 162.419 81.9477 160.327C77.1743 158.223 72.4664 155.88 67.8347 153.374C58.5494 148.371 49.5365 142.759 40.7744 136.787C37.287 134.411 33.8541 131.948 30.4648 129.441C36.1318 125.812 41.7662 122.129 47.3679 118.358C56.3915 112.277 65.3171 106.01 74.0684 99.4713C79.3867 95.4825 84.6505 91.3957 89.8271 87.1563C90.7316 88.3551 91.6362 89.543 92.5298 90.7527ZM-17.9557 84.3664C-21.0617 80.2905 -23.9497 76.0838 -26.1293 71.7463C-27.2628 69.5885 -28.1128 67.4088 -28.7884 65.2728C-29.4532 63.1368 -29.7803 61.0661 -29.7258 59.2461C-29.6931 58.3416 -29.584 57.4915 -29.3552 56.7177C-29.3007 56.3036 -29.072 55.9876 -28.963 55.6061L-28.8648 55.3337L-28.6796 54.974L-28.2981 54.2439C-27.2627 52.2931 -25.9549 50.4077 -24.4619 48.5986C-21.4758 44.9695 -17.7488 41.6892 -13.7164 38.7358C-9.67322 35.7823 -5.30291 33.145 -0.758377 30.7692C8.35249 26.0394 18.1172 22.3231 28.1109 19.5005C38.1154 16.6779 48.3815 14.7271 58.6803 13.8007C68.9573 12.918 79.3214 12.9943 89.1406 14.7925C94.0448 15.6861 98.7854 17.0266 103.145 18.912C107.471 20.8301 111.417 23.2822 114.544 26.3663C115.307 27.151 116.059 27.9357 116.724 28.7857L116.986 29.1018L117.116 29.2543L117.171 29.3524C117.247 29.4832 117.356 29.5922 117.421 29.7121C117.476 29.8428 117.563 29.9518 117.628 30.0717C117.672 30.2025 117.727 30.3224 117.792 30.4422C118.163 31.4013 118.25 32.72 117.879 34.4637C117.508 36.1965 116.691 38.18 115.634 40.1634C114.555 42.1578 113.237 44.163 111.787 46.1247C108.877 50.0699 105.444 53.8842 101.826 57.5569C98.1969 61.2405 94.3499 64.7824 90.3938 68.2371C89.6636 68.8692 88.9225 69.4795 88.1815 70.1116C84.8466 66.6896 81.2722 63.4637 77.4578 60.4776C72.9569 56.9902 68.0744 53.8297 62.6144 51.4648C57.1653 49.1217 51.095 47.5851 44.567 48.021C41.3302 48.3044 38.2025 49.1435 35.3253 50.3532C32.4373 51.5629 29.8111 53.1322 27.3808 54.8869C22.5311 58.407 18.4877 62.6354 14.9567 67.1255C11.4366 71.6373 8.39607 76.4216 5.75871 81.3803C2.33669 87.7993 -0.485968 94.5017 -2.72009 101.389C-4.442 99.6784 -6.14203 97.9564 -7.80945 96.1909C-11.4167 92.3657 -14.8388 88.4314 -17.9557 84.3664ZM0.669357 129.997C0.821932 127.131 1.17054 124.265 1.62827 121.409C3.55724 123.066 5.50813 124.69 7.4698 126.303C5.20298 127.676 2.93617 129.027 0.658447 130.389C0.658447 130.259 0.658459 130.128 0.669357 129.997ZM-7.96217 152.872C-7.15571 152.404 -6.3602 151.935 -5.56464 151.466C-5.09601 152.796 -4.57291 154.104 -3.94081 155.401C-2.60034 158.191 -0.758506 160.861 1.56281 163.149C2.69622 164.304 4.02578 165.318 5.35536 166.223C6.56506 166.964 7.73125 167.77 8.99544 168.457C11.4475 169.917 14.0523 171.192 16.7551 172.326C19.3379 173.404 22.0731 174.265 24.9393 174.821C25.1028 175.181 25.2772 175.53 25.4951 175.867C31.1513 184.739 48.9374 194.111 52.4466 195.898L52.4029 195.92L52.719 196.04C54.4192 196.977 60.9579 201.87 52.8715 218.043L50.6482 222.49L52.479 224.92L27.359 232.298C25.4082 220.626 21.8988 205.325 16.319 200.083C13.6707 197.588 12.6136 192.542 12.461 191.016L11.9706 185.523L6.67426 184.008C-0.671112 181.905 -20.5932 173.797 -24.8543 162.474C-19.1982 159.313 -13.5638 156.12 -7.96217 152.872ZM-93.9814 149.025C-91.987 149.864 -89.0882 151.401 -85.0886 154.202C-79.6286 158.016 -73.1877 162.343 -66.2783 166.953C-68.2509 167.934 -70.2234 168.904 -72.1959 169.873C-75.3673 171.41 -78.5387 172.925 -81.7318 174.407C-85.0122 164.893 -90.2869 155.226 -93.9814 149.025ZM-65.3409 183.845C-60.6983 181.534 -56.0775 179.191 -51.4894 176.805C-35.8941 187.234 -17.6179 199.669 -12.3105 204.987C-13.9453 206.262 -16.964 207.875 -19.5795 208.791L-21.5631 209.467L-22.9581 211.025C-23.9716 212.147 -25.0504 213.292 -26.1403 214.392C-27.8404 212.856 -30.1834 212.049 -32.6355 212.387C-38.8039 213.248 -54.3557 215.591 -67.0739 218.981C-66.6161 213.216 -66.9975 212.311 -67.5533 210.992L-68.4907 208.78L-70.4958 207.45C-70.5938 207.385 -79.8902 200.944 -78.8658 191.855C-78.8113 191.354 -78.7785 190.831 -78.7567 190.308C-74.2557 188.215 -69.7765 186.046 -65.3409 183.845ZM96.9873 439.57C76.6513 434.383 42.1695 431.113 11.7527 428.225C-12.5829 425.915 -40.177 423.3 -46.2473 420.586C-47.7077 419.932 -49.2771 419.333 -50.9445 418.679C-59.129 415.518 -69.3187 411.573 -76.4243 398.822C-85.6442 382.268 -87.2791 355.012 -81.296 317.816C-75.4873 281.743 -71.3678 254.367 -69.0138 236.243C-62.8672 234.205 -52.4702 231.928 -41.9208 230.108C-41.681 232.614 -40.5584 235.241 -39.3923 237.954C-37.932 241.344 -35.818 245.899 -33.3659 251.174C-28.4072 261.843 -22.2386 275.117 -17.5851 287.138C-10.3596 305.795 -11.1445 310.46 -11.2644 310.928L-14.9042 325.979L-0.507736 320.268C-0.387856 320.225 11.829 315.593 21.2668 319.484C24.994 321.02 28.9937 320.453 31.9689 317.98C32.4702 317.565 32.9388 317.108 33.3748 316.596C34.4101 316.617 35.5434 316.639 36.764 316.639C44.9376 316.639 56.7947 315.876 64.4779 312.007C70.0033 309.228 73.5127 304.161 76.9129 299.267C81.4139 292.783 86.0564 286.113 95.9411 282.452L96.3769 283.029L102.153 280.555C105.248 279.237 111.166 277.7 114.043 278.605L117.083 279.564L119.95 278.179C134.117 271.325 149.996 266.028 153.876 266.867L155.085 267.227L156.35 267.194C178.56 266.649 211.538 268.905 226.425 275.291C217.717 278.888 206.634 285.536 197.425 297.731C181.012 319.473 176.217 350.914 183.181 391.172C188.554 422.221 197.904 441.194 206.754 452.725C175.443 450.512 122.271 446.022 96.9873 439.57ZM561.119 461.89C559.68 464.516 558.198 467.23 557.642 470.314C556.879 470.51 555.866 470.728 554.994 470.914C551.278 471.709 546.199 472.81 539.431 475.589C527.999 480.286 523.749 476.679 516.698 470.707C508.426 463.699 492.318 464.135 484.439 464.854C481.551 463.852 477.791 463.797 472.996 464.113C464.136 464.702 450.121 466.892 431.343 470.598C400.807 476.635 378.923 475.207 366.848 473.322C366.63 472.407 366.248 471.524 365.704 470.717C365.845 470.096 365.954 469.442 366.031 468.767C366.51 464.364 363.328 460.408 358.914 459.928C354.522 459.449 350.577 462.609 350.065 466.99C349.672 467.481 348.223 468.135 346.991 468.429C330.873 467.415 314.199 455.841 314.035 455.733L310.733 453.4L310.657 453.422C285.929 434.143 270.127 360.025 266.007 332.06C265.92 331.472 265.767 330.916 265.571 330.393L266.04 326.142C266.105 325.576 266.171 325.009 266.247 324.431L279.553 327.45C280.807 323.004 282.311 318.143 283.771 313.773C284.436 318.95 286.354 322.72 289.547 325.161C292.566 327.472 296.271 327.919 299.464 326.36C301.731 325.26 303.192 323.614 304.14 321.391C306.897 334.142 314.199 337.193 319.136 337.727L329.652 338.861L327.919 328.42C326.623 320.628 326.459 311.691 327.451 308.269C327.516 308.269 327.592 308.269 327.669 308.269C331.756 308.269 341.063 312.182 343.438 317.228C347.133 325.053 349.138 330.818 349.988 334.207C349.77 336.071 349.64 337.607 349.618 338.675C349.487 345.606 354.348 347.372 355.841 347.753C356.473 347.917 357.138 347.993 357.824 347.993C359.263 347.993 360.756 347.612 362.107 346.773C368.657 375.751 375.675 412.739 374.389 430.754C373.441 432.083 372.896 433.718 372.918 435.473C372.929 436.388 373.103 437.26 373.387 438.077L373.169 439.418C372.613 441.064 371.556 443.701 369.529 447.744C367.545 451.711 369.158 456.539 373.125 458.512C374.28 459.089 375.501 459.362 376.7 459.362C379.642 459.362 382.487 457.727 383.893 454.915C386.105 450.469 387.674 446.818 388.644 443.723C408.294 444.605 463.7 447.079 488.602 447.886C491.665 447.984 494.553 448.038 497.266 448.038C517.439 448.038 528.337 445.183 535.661 437.947C539.878 438.699 545.109 440.388 551.528 443.657C561.326 448.638 563.342 452.31 563.767 453.662C564.388 455.678 563.124 458.228 561.119 461.89Z" fill="black"/>
</g>
<defs>
<linearGradient id="paint0_linear" x1="221.023" y1="531.45" x2="221.023" y2="250.343" gradientUnits="userSpaceOnUse">
<stop stop-color="white"/>
<stop offset="1"/>
</linearGradient>
</defs>
</svg>
