<svg width="3715" height="830" viewBox="0 0 3715 830" fill="none" xmlns="http://www.w3.org/2000/svg">
<path d="M1015.94 459.623V656.548H949.607V153.525H1135.13C1190.18 153.525 1233.25 167.574 1264.34 195.674C1295.67 223.773 1311.33 260.97 1311.33 307.265C1311.33 356.093 1296.01 393.751 1265.38 420.238C1234.98 446.494 1191.33 459.623 1134.44 459.623H1015.94ZM1015.94 405.382H1135.13C1170.6 405.382 1197.78 397.09 1216.67 380.507C1235.55 363.694 1245 339.51 1245 307.956C1245 278.014 1235.55 254.06 1216.67 236.095C1197.78 218.13 1171.87 208.802 1138.93 208.111H1015.94V405.382ZM1455.39 656.548H1391.48V125.886H1455.39V656.548ZM1788.79 619.581C1763.91 648.832 1727.4 663.458 1679.27 663.458C1639.42 663.458 1609.02 651.941 1588.06 628.909C1567.33 605.647 1556.85 571.329 1556.62 525.955V282.735H1620.53V524.228C1620.53 580.887 1643.57 609.217 1689.63 609.217C1738.46 609.217 1770.94 591.021 1787.06 554.63V282.735H1850.97V656.548H1790.17L1788.79 619.581ZM2166.05 557.394C2166.05 540.12 2159.49 526.761 2146.36 517.318C2133.46 507.645 2110.78 499.353 2078.3 492.444C2046.05 485.534 2020.37 477.242 2001.26 467.569C1982.37 457.895 1968.32 446.379 1959.11 433.02C1950.13 419.662 1945.63 403.77 1945.63 385.344C1945.63 354.711 1958.53 328.8 1984.33 307.61C2010.35 286.421 2043.52 275.826 2083.83 275.826C2126.21 275.826 2160.52 286.766 2186.78 308.647C2213.27 330.527 2226.51 358.511 2226.51 392.599H2162.25C2162.25 375.095 2154.77 360.008 2139.8 347.341C2125.05 334.673 2106.4 328.339 2083.83 328.339C2060.56 328.339 2042.37 333.406 2029.24 343.54C2016.11 353.675 2009.55 366.918 2009.55 383.271C2009.55 398.703 2015.65 410.334 2027.86 418.165C2040.07 425.996 2062.06 433.481 2093.85 440.621C2125.86 447.761 2151.77 456.283 2171.58 466.187C2191.39 476.091 2206.01 488.067 2215.46 502.117C2225.13 515.936 2229.97 532.865 2229.97 552.903C2229.97 586.3 2216.61 613.132 2189.89 633.401C2163.17 653.439 2128.51 663.458 2085.9 663.458C2055.96 663.458 2029.47 658.16 2006.44 647.565C1983.41 636.97 1965.33 622.23 1952.2 603.343C1939.3 584.227 1932.85 563.613 1932.85 541.502H1996.77C1997.92 562.922 2006.44 579.966 2022.33 592.634C2038.45 605.071 2059.64 611.29 2085.9 611.29C2110.08 611.29 2129.43 606.453 2143.94 596.779C2158.68 586.875 2166.05 573.747 2166.05 557.394ZM2565.09 459.623V656.548H2498.75V153.525H2684.28C2739.32 153.525 2782.39 167.574 2813.49 195.674C2844.81 223.773 2860.47 260.97 2860.47 307.265C2860.47 356.093 2845.16 393.751 2814.52 420.238C2784.12 446.494 2740.48 459.623 2683.59 459.623H2565.09ZM2565.09 405.382H2684.28C2719.75 405.382 2746.92 397.09 2765.81 380.507C2784.7 363.694 2794.14 339.51 2794.14 307.956C2794.14 278.014 2784.7 254.06 2765.81 236.095C2746.92 218.13 2721.01 208.802 2688.08 208.111H2565.09V405.382ZM3011.45 459.623V656.548H2945.12V153.525H3130.64C3185.69 153.525 3228.76 167.574 3259.85 195.674C3291.17 223.773 3306.84 260.97 3306.84 307.265C3306.84 356.093 3291.52 393.751 3260.89 420.238C3230.48 446.494 3186.84 459.623 3129.95 459.623H3011.45ZM3011.45 405.382H3130.64C3166.11 405.382 3193.29 397.09 3212.17 380.507C3231.06 363.694 3240.5 339.51 3240.5 307.956C3240.5 278.014 3231.06 254.06 3212.17 236.095C3193.29 218.13 3167.38 208.802 3134.44 208.111H3011.45V405.382ZM3458.16 602.307H3696.54V656.548H3391.48V153.525H3458.16V602.307Z" fill="#212121"/>
<path d="M619.48 637.2H685.46C652.67 695.62 604.33 744.14 546.01 777.06V710.68C546.01 670.08 578.92 637.2 619.48 637.2Z" fill="#E50058"/>
<path d="M732.02 458.58C732.02 465.58 731.83 472.55 731.4 479.45C731.24 483.06 731 486.67 730.68 490.24H619.47C578.91 490.24 546 457.36 546 416.8V341.52C546 280.61 496.63 231.25 435.76 231.25C425.62 231.25 416.47 235.36 409.82 241.98C403.19 248.64 399.09 257.78 399.09 267.92V416.8C399.09 457.36 366.18 490.24 325.62 490.24H176.74C156.49 490.24 140.07 506.66 140.07 526.91C140.07 557.36 152.42 584.92 172.36 604.89C192.33 624.83 219.89 637.18 250.34 637.18H325.62C366.18 637.18 399.09 670.06 399.09 710.65V822.7C391.9 823.35 384.66 823.79 377.35 824.01C376.39 824.04 375.39 824.07 374.43 824.1C371.75 824.13 369.08 824.16 366.44 824.16C164.5 824.16 0.810059 660.48 0.810059 458.56C0.810059 256.64 164.49 92.9299 366.44 92.9299C568.34 92.9599 732.02 256.67 732.02 458.58Z" fill="#E50058"/>
<path d="M255.1 432.76C307.296 432.76 349.61 390.446 349.61 338.25C349.61 286.054 307.296 243.74 255.1 243.74C202.903 243.74 160.59 286.054 160.59 338.25C160.59 390.446 202.903 432.76 255.1 432.76Z" fill="#F2F2F2"/>
<path d="M730.4 490.36C730.4 490.67 730.37 491.01 730.34 491.32C730.34 491.48 730.31 491.66 730.28 491.82C726.24 537.11 713.89 580.07 694.79 619.08C694.42 619.86 694.04 620.64 693.64 621.38C693.61 621.5 693.55 621.6 693.48 621.69C690.84 626.95 688.1 632.14 685.21 637.27H619.23C578.67 637.27 545.76 670.18 545.76 710.74V777.12C537.7 781.72 529.43 785.99 521 789.94C520.56 790.16 520.1 790.38 519.63 790.56C518.51 791.09 517.39 791.62 516.27 792.12C492.16 802.98 466.69 811.31 440.15 816.76C426.65 819.53 412.87 821.58 398.84 822.79V710.74C398.84 670.18 365.93 637.27 325.37 637.27H250.09C219.64 637.27 192.08 624.92 172.11 604.98C152.17 585.04 139.82 557.48 139.82 527.03C139.82 506.78 156.24 490.36 176.49 490.36H325.37C365.93 490.36 398.84 457.48 398.84 416.89V268.01C398.84 257.87 402.95 248.72 409.57 242.1C416.23 235.47 425.4 231.37 435.51 231.37C496.39 231.37 545.75 280.74 545.75 341.61V416.89C545.75 457.48 578.66 490.36 619.22 490.36H730.4Z" fill="#F2F2F2"/>
</svg>
