<svg width="185" height="260" viewBox="0 0 185 260" fill="none" xmlns="http://www.w3.org/2000/svg">
<g opacity="0.4">
<path d="M5.71837 225.362C5.8694 224.38 6.19969 223.46 6.61024 222.592C8.33272 219.236 10.3101 216.075 12.6083 213.111C14.8971 210.152 17.4973 207.429 20.3571 205.013C23.231 202.611 26.374 200.539 29.701 198.817C31.3716 197.977 33.0798 197.208 34.8306 196.537C36.5814 195.882 38.3653 195.311 40.1774 194.839C41.9896 194.367 43.8253 193.994 45.6799 193.734C47.2702 193.517 48.8559 193.362 50.4746 193.338C51.1541 186.859 52.584 181.564 52.8389 180.648C52.1169 178.473 51.5033 169.138 52.5226 163.362C53.5655 157.449 53.9715 133.627 51.5458 131.008C51.3996 130.847 51.3051 130.857 51.2768 130.861C50.3566 130.951 49.592 130.706 48.9927 130.13C47.5204 128.705 47.695 125.741 47.7044 125.59L47.7422 123.957L48.3839 125.199C48.4547 125.203 48.5444 125.208 48.6482 125.217C49.0777 124.779 50.2008 122.825 51.4939 114.208C52.8011 105.491 55.9016 101.65 57.7562 99.3566C58.884 97.9598 59.3701 97.3085 59.0823 96.544C58.9124 96.0863 58.3838 95.5672 57.6335 95.0197C57.624 95.015 57.6145 95.0103 57.6051 95.0056C57.5862 94.9961 57.5721 94.9773 57.5533 94.9631C54.8398 93.0236 49.3655 90.7961 46.9635 89.9231L46.8549 89.8853L46.7795 89.8004C40.1208 82.0044 32.5277 73.8828 31.3762 73.7837C30.1398 74.0291 28.6817 73.3731 26.9875 72.6086C26.072 72.1981 25.0338 71.7309 23.9342 71.3628C19.9702 70.0414 19.8569 60.051 19.8569 58.9137C19.8569 57.6726 19.9796 56.7288 20.5883 56.1578C21.4283 55.3697 22.9431 55.4641 25.9587 55.6528C26.3456 55.6764 26.7562 55.7047 27.1951 55.7283C30.5174 55.9218 31.9095 57.8519 33.3818 59.8953C34.656 61.6555 36.0953 63.6565 39.0448 65.0533C44.4198 67.5969 52.4236 72.7455 55.0663 74.4727C52.82 61.7924 66.4015 52.2315 74.1031 48.8856C77.3169 47.4887 79.4594 46.342 81.1818 45.4218C83.683 44.0863 85.061 43.3501 87.0005 43.3501C87.765 43.3501 88.572 42.5856 89.1525 41.3067C89.9217 39.6125 90.0632 37.5078 89.4497 36.8046C89.3176 36.6489 89.0723 36.4649 88.5013 36.6348C85.8114 37.4417 85.2214 36.2289 84.7495 35.2568C84.5419 34.8273 84.3437 34.4262 83.9898 34.1572C82.6826 33.1756 79.7284 26.3471 79.8133 23.2325C79.8369 22.3453 80.0917 21.7318 80.573 21.4156C82.4607 20.1603 85.5376 14.7805 85.5376 12.1472C85.5376 10.0803 87.1468 6.89957 88.9826 5.34698C89.7801 4.67214 90.5305 4.38428 91.2053 4.49754C92.8287 4.76653 101.498 2.60989 104.707 1.75573L104.858 1.71326L104.999 1.77932C105.457 1.99168 116.207 7.03171 119.331 11.1987C122.455 15.3657 122.233 16.2482 121.436 17.8432C120.846 19.023 121.106 24.9927 121.474 27.206C121.757 28.9143 121.592 33.6806 121.511 35.5163C123.187 35.0916 126.603 35.9835 131.875 38.2251C141.516 42.3213 148.335 54.9261 151.997 61.698C153.03 63.6093 154.097 65.5866 154.574 66.0302C155.867 64.756 156.537 64.4021 156.612 64.3643L156.73 64.3077L156.858 64.3219C181.204 67.2147 184.908 64.185 187.357 62.1746C188.315 61.3913 189.16 60.7023 190.878 60.5607C192.015 59.0128 193.167 57.4744 194.342 55.9548C194.62 55.5915 194.908 55.2375 195.191 54.8742C195.144 51.9719 195.276 49.0649 195.536 46.1863C196.008 40.9905 196.739 35.7287 198.655 30.7736C199.141 29.5372 199.721 28.3385 200.41 27.1871C201.099 26.0403 201.921 24.9502 202.912 24.0158C203.903 23.0814 205.078 22.3122 206.38 21.8309C207.027 21.576 207.706 21.4392 208.39 21.3307C209.079 21.2599 209.768 21.2268 210.453 21.2929C213.209 21.5147 215.724 22.7228 217.909 24.2282C219.197 25.1154 220.382 26.1206 221.491 27.2012C222.614 26.3046 223.775 25.4504 225.044 24.7284C225.365 24.5397 225.71 24.3792 226.045 24.2046C226.389 24.0489 226.743 23.9026 227.102 23.7752C227.829 23.5345 228.626 23.3693 229.461 23.4967C229.669 23.5439 229.881 23.5581 230.075 23.6619C230.273 23.7516 230.476 23.8223 230.646 23.9639C230.821 24.0913 231 24.214 231.127 24.3792C231.269 24.5349 231.415 24.6907 231.509 24.87C231.948 25.5637 232.175 26.3329 232.293 27.0833C232.552 28.5934 232.486 30.0846 232.378 31.5617C232.298 32.4867 232.18 33.4069 232.043 34.3224C232.892 33.9921 233.746 33.6806 234.619 33.3974C235.884 32.9869 237.182 32.666 238.503 32.4206C239.164 32.2979 239.839 32.2129 240.514 32.1469L242.51 32.0478C245.171 31.9959 247.814 32.2177 250.424 32.5763C253.033 32.9444 255.619 33.4588 258.168 34.0864C260.726 34.7188 263.236 35.4361 265.747 36.3091C266.171 36.4554 266.393 36.9226 266.242 37.3426C266.096 37.7673 265.629 37.9892 265.209 37.8381L265.19 37.8334C262.783 36.9887 260.282 36.2619 257.781 35.639C255.275 35.0161 252.746 34.5017 250.197 34.1336C247.654 33.7703 245.086 33.5532 242.538 33.5956L240.632 33.6853C240.009 33.7467 239.39 33.8174 238.767 33.9307C237.526 34.1572 236.29 34.4592 235.072 34.8509C233.949 35.2096 232.84 35.6154 231.745 36.0638C231.425 37.7768 231.042 39.4757 230.627 41.1651C230.915 41.8919 231.189 42.6233 231.439 43.3689C232.26 45.8842 232.845 48.4892 233.038 51.1508C233.138 52.4769 233.142 53.8171 233.024 55.1526C232.906 56.4928 232.675 57.7906 232.373 59.0931C231.165 64.2699 228.612 69.1495 224.917 73.0003C223.072 74.9257 220.948 76.601 218.551 77.8327C217.352 78.4509 216.083 78.9417 214.757 79.2626C213.431 79.5693 212.034 79.7156 210.637 79.5174C209.542 79.3711 208.447 78.9983 207.489 78.399C205.672 77.9365 203.94 77.1201 202.459 75.9639C200.359 74.2603 198.778 71.9904 197.758 69.5412C196.711 67.092 196.083 64.5012 195.696 61.8962C195.441 60.018 195.29 58.1304 195.219 56.238C195.153 56.3229 195.087 56.4032 195.026 56.4834C193.95 57.8708 192.898 59.2724 191.855 60.6881C191.921 60.7636 191.963 60.858 191.963 60.9666C191.963 61.2072 191.77 61.4007 191.529 61.4007C191.458 61.4007 191.397 61.4054 191.331 61.4054C189.103 64.454 186.942 67.5497 184.889 70.721C181.713 75.6006 178.698 80.6123 176.05 85.7703L176.041 85.7844C175.932 85.9968 175.668 86.0817 175.456 85.9732C175.243 85.8646 175.158 85.6004 175.267 85.388C176.569 82.8491 177.957 80.3574 179.401 77.9082C165.196 85.5013 152.011 83.0237 150.628 82.7359C146.655 83.9015 142.044 82.2828 140.789 81.7873C133.541 91.9617 145.381 117.341 145.503 117.601L145.546 117.69L145.121 141.966C151.091 137.799 157.164 133.82 163.38 130.04C166.56 128.11 169.779 126.241 173.063 124.477C176.348 122.716 179.689 121.046 183.157 119.63C184.894 118.927 186.668 118.29 188.514 117.818C189.434 117.587 190.373 117.393 191.345 117.299C192.312 117.209 193.322 117.195 194.342 117.469C194.851 117.61 195.361 117.832 195.809 118.176C196.262 118.516 196.63 118.979 196.866 119.479C197.338 120.494 197.371 121.56 197.286 122.542C197.201 123.533 196.98 124.477 196.706 125.392C196.437 126.308 196.107 127.199 195.743 128.072C194.295 131.56 192.44 134.811 190.505 137.997C188.556 141.177 186.489 144.273 184.361 147.326C182.232 150.37 180.057 153.4 177.716 156.312C175.376 159.214 172.922 162.027 170.354 164.726C165.229 170.139 159.699 175.15 153.918 179.837C152.62 180.884 151.313 181.908 149.991 182.923C150.043 184.381 150.024 185.533 150.01 185.967C153.427 189.884 154.059 202.866 154.616 214.333C154.956 221.322 155.277 227.924 156.183 231.407C157.905 238.056 158.056 246.683 154.498 250.958C153.012 252.742 151.02 253.644 148.571 253.644C148.326 253.644 148.075 253.634 147.821 253.615C145.607 253.46 143.932 252.742 142.847 251.487C140.86 249.189 141.124 245.588 141.36 242.407C141.492 240.59 141.62 238.873 141.252 237.853C139.845 233.984 130.223 218.977 128.972 217.726C127.925 216.679 123.427 207.264 120.907 201.889C119.482 202.682 118.052 203.465 116.613 204.234C114.858 205.173 113.088 206.089 111.313 206.99C111.729 207.453 112.135 207.925 112.522 208.406C113.772 209.968 114.891 211.643 115.863 213.408C116.339 214.296 116.788 215.202 117.189 216.136C117.387 216.603 117.58 217.075 117.755 217.561C117.845 217.802 117.93 218.047 118.01 218.297C118.095 218.557 118.166 218.783 118.246 219.104C118.255 219.137 118.26 219.17 118.269 219.203C118.453 220.138 117.845 221.044 116.91 221.228C115.976 221.412 115.07 220.803 114.886 219.869L114.881 219.85C114.853 219.704 114.796 219.468 114.74 219.265C114.683 219.052 114.622 218.84 114.56 218.628C114.433 218.203 114.286 217.774 114.135 217.349C113.824 216.499 113.47 215.659 113.078 214.834C112.29 213.187 111.351 211.596 110.285 210.1C109.827 209.454 109.336 208.831 108.826 208.222C98.1141 213.531 87.0808 218.198 75.8115 222.181C75.4246 222.318 75.0376 222.45 74.6459 222.587C72.947 226.504 71.5596 229.387 71.3 229.93C71.0121 231.539 66.8215 253.615 55.9345 253.615C55.8496 253.615 55.7646 253.615 55.6797 253.611C53.3767 253.54 51.777 252.799 50.9229 251.407C48.8087 247.971 51.8855 241.369 53.7213 237.424C54.33 236.117 54.8586 234.989 54.92 234.55C55.104 233.252 54.651 230.746 54.2168 228.807C47.1051 230.638 39.9084 232.157 32.6079 233.082C28.9129 233.54 25.1895 233.856 21.4473 233.847C19.5785 233.847 17.7002 233.752 15.8362 233.526C13.9721 233.281 12.0986 232.922 10.3148 232.195C9.4276 231.832 8.55925 231.369 7.79002 230.742C7.39833 230.44 7.05385 230.062 6.73766 229.675C6.44508 229.265 6.17146 228.826 5.99684 228.344C5.61931 227.391 5.5768 226.339 5.71837 225.362ZM217.267 25.1484C215.191 23.7091 212.831 22.5907 210.363 22.3877C207.895 22.1282 205.446 23.0862 203.648 24.7992C201.831 26.5122 200.59 28.801 199.632 31.1606C198.688 33.539 198.051 36.0496 197.56 38.579C197.319 39.8485 197.121 41.1274 196.956 42.4062C196.796 43.6899 196.673 44.9829 196.531 46.2712C196.3 48.7157 196.163 51.1744 196.154 53.6283C202.808 45.2283 210.141 37.3662 218.079 30.1601C218.895 29.4003 219.731 28.6406 220.594 27.9185C219.561 26.9086 218.452 25.9695 217.267 25.1484ZM231.514 31.4815C231.623 30.0516 231.679 28.5981 231.439 27.2248C231.335 26.5358 231.123 25.8752 230.783 25.3372C230.443 24.7992 229.938 24.4358 229.325 24.3509C228.711 24.2612 228.036 24.3792 227.385 24.5963C227.059 24.7143 226.738 24.8464 226.418 24.988C226.106 25.1531 225.785 25.2947 225.478 25.4788C224.299 26.1442 223.19 26.9606 222.114 27.8147C222.68 28.3952 223.223 28.9945 223.747 29.608C225.427 31.5947 226.908 33.7419 228.183 36.0024C229.145 35.5305 230.122 35.0869 231.118 34.6763C231.283 33.6192 231.425 32.5527 231.514 31.4815ZM230.783 36.4696C230.146 36.7433 229.513 37.0359 228.886 37.3379C229.306 38.1449 229.702 38.966 230.065 39.8013C230.33 38.697 230.566 37.5833 230.783 36.4696ZM207.607 76.8228C208.145 77.2711 208.763 77.6062 209.429 77.8421C209.608 77.8657 209.792 77.8893 209.971 77.9035C212.288 78.1017 214.648 77.7997 216.89 77.1437C217.045 77.0776 217.196 77.0116 217.347 76.9408C219.537 71.6459 221.599 66.285 223.544 60.891C225.511 55.4027 227.361 49.8719 228.919 44.2609C229.15 43.4256 229.367 42.5903 229.584 41.755C229.07 40.4289 228.475 39.1265 227.824 37.8617C225.592 39.0085 223.435 40.3204 221.387 41.7645C217.196 44.7281 213.402 48.2957 210.448 52.4721C207.508 56.6438 205.484 61.4809 204.96 66.5446C204.804 67.8093 204.757 69.074 204.842 70.3246C204.936 71.5657 205.144 72.8068 205.592 73.93C206.026 75.0673 206.71 76.0725 207.607 76.8228ZM223.992 72.099C227.527 68.4369 229.995 63.765 231.165 58.8005C231.458 57.5641 231.684 56.2899 231.797 55.0346C231.911 53.7746 231.911 52.5005 231.821 51.231C231.646 48.6874 231.09 46.1721 230.301 43.737C230.24 43.553 230.169 43.3737 230.108 43.1943C229.995 43.6285 229.877 44.0627 229.759 44.4921C228.192 50.1362 226.337 55.6859 224.365 61.1884C222.529 66.2803 220.585 71.3345 218.532 76.3462C220.547 75.2277 222.383 73.7695 223.992 72.099ZM196.645 61.7547C197.017 64.2983 197.621 66.8135 198.617 69.1637C199.589 71.5185 201.081 73.6468 203.025 75.2419C203.855 75.8884 204.766 76.4217 205.729 76.8464C205.125 76.1197 204.653 75.2938 204.327 74.4302C203.808 73.1324 203.582 71.7686 203.473 70.419C203.379 69.0693 203.426 67.7196 203.582 66.3983C204.115 61.0704 206.234 55.9879 209.278 51.6463C212.336 47.2953 216.238 43.6143 220.533 40.5516C222.633 39.0651 224.832 37.7154 227.121 36.5309C225.894 34.346 224.469 32.2696 222.859 30.3536C222.331 29.7307 221.783 29.1219 221.212 28.5367C220.339 29.2635 219.499 30.028 218.664 30.8019C210.5 38.2157 202.973 46.3326 196.168 55.0205C196.206 57.2762 196.347 59.5272 196.645 61.7547ZM56.1234 75.308L56.3875 76.3886L55.4626 75.7704C55.3588 75.6996 45.0995 68.8758 38.6673 65.832C35.515 64.3407 34.0049 62.2454 32.6694 60.3955C31.2017 58.3616 30.0454 56.7571 27.1337 56.5872C26.6948 56.5636 26.2796 56.5353 25.8974 56.5117C23.2216 56.3418 21.7445 56.2522 21.1782 56.7854C20.8526 57.0922 20.7205 57.7056 20.7205 58.9043C20.7205 63.109 21.6501 69.6733 24.2079 70.5275C25.3499 70.9097 26.4118 71.3864 27.3414 71.8064C28.8988 72.5095 30.2437 73.1136 31.2064 72.9201C31.6641 72.8257 32.523 72.6558 40.168 81.0039C43.5705 84.7226 46.8361 88.5215 47.3694 89.1397C48.6011 89.5928 54.769 91.9146 58.0016 94.2269C58.0063 94.2269 58.011 94.2269 58.011 94.2317C63.6079 97.1905 66.4677 96.7564 66.8783 96.6714C79.148 88.3847 76.0805 61.2969 76.0475 61.0232C76.0192 60.7872 76.1891 60.5701 76.4298 60.5418C76.6704 60.5135 76.8828 60.6834 76.9111 60.9241C76.9677 61.4054 77.5482 66.5257 77.2225 72.9059C82.7203 66.0302 85.1035 59.867 84.287 54.5769C83.5933 50.0843 80.7052 47.6539 79.9266 47.0687C78.4967 47.8144 76.7223 48.6921 74.4524 49.6784C65.5191 53.5528 53.273 63.581 56.1234 75.308ZM140.223 81.0794C142.582 69.3477 120.233 41.2312 120.006 40.948C119.855 40.7593 119.888 40.4856 120.072 40.3393C120.261 40.1883 120.535 40.2213 120.686 40.4053C121.615 41.5662 143.191 68.7154 141.124 80.9804C142.332 81.4475 146.806 82.9954 150.477 81.8675L150.591 81.8345L150.704 81.8628C150.846 81.8959 165.14 85.1568 180.279 76.4217C181.534 74.3405 182.827 72.283 184.148 70.2443C186.064 67.2902 188.07 64.3974 190.142 61.547C189.203 61.7735 188.617 62.2502 187.891 62.8448C185.333 64.9401 181.463 68.1066 156.881 65.1996C156.65 65.3459 156.027 65.7801 155.031 66.7758C154.909 66.8985 154.758 66.9598 154.593 66.9598C154.559 66.9598 154.531 66.9598 154.498 66.9551C153.814 66.856 153.12 65.629 151.214 62.1039C147.603 55.4263 140.879 42.9961 131.516 39.0132C123.517 35.6107 121.719 36.177 121.323 36.5215C121.318 36.5262 121.309 36.5309 121.304 36.5357C121.294 36.5451 121.285 36.5545 121.276 36.564C121.007 36.8707 121.28 37.5031 121.398 37.7013C121.521 37.9089 121.455 38.1732 121.247 38.2959C121.04 38.4186 120.775 38.3525 120.653 38.1449C120.369 37.6682 120.044 36.7008 120.601 36.026C120.648 35.0019 120.903 29.1597 120.601 27.3334C120.303 25.559 119.836 19.0466 120.638 17.4374C121.266 16.1868 121.549 15.6158 118.619 11.7036C115.811 7.96137 106.052 3.23753 104.759 2.61933C103.003 3.0818 93.0646 5.67732 91.0448 5.33755C90.6437 5.27148 90.1057 5.50272 89.53 5.9935C87.916 7.35733 86.3965 10.3398 86.3965 12.1331C86.3965 15.1108 83.1591 20.7124 81.045 22.1235C80.8184 22.2745 80.6911 22.6614 80.6722 23.2419C80.5873 26.3471 83.598 32.7698 84.5041 33.4494C85.0279 33.841 85.2922 34.3837 85.5235 34.8651C85.9671 35.7806 86.2644 36.3847 88.2464 35.79C89.0015 35.5635 89.6621 35.7145 90.101 36.2195C91.0495 37.3049 90.7664 39.8343 89.9406 41.6512C89.2044 43.2746 88.1284 44.2042 86.9958 44.2042C86.6324 44.2042 86.288 44.2373 85.9482 44.2986C88.1756 47.7436 89.7896 50.6836 91.2148 53.2838C95.9905 61.9953 97.7743 65.2562 110.676 63.9679C119.058 63.1279 121.738 60.9099 122.507 59.1969C123.385 57.2526 122.068 55.3885 122.059 55.3744L122.026 55.3319L116.169 40.8395C116.08 40.6177 116.188 40.3629 116.41 40.2732C116.632 40.1835 116.887 40.2921 116.976 40.5139L122.795 54.9119C123.026 55.2564 124.31 57.3045 123.305 59.5461C122.049 62.3493 117.831 64.1284 110.761 64.8362C108.949 65.0156 107.345 65.1099 105.915 65.1099C96.6983 65.1099 94.6361 61.3441 90.4503 53.7085C88.9968 51.0564 87.3498 48.055 85.0563 44.5299C84.07 44.8508 83.0223 45.4123 81.583 46.1815C81.3282 46.3184 81.0497 46.4694 80.7572 46.6204C81.9086 47.5595 84.4428 50.0607 85.1271 54.4164C86.0284 60.1879 83.3574 66.8796 77.1848 74.3122C77.1659 74.3358 77.1423 74.3453 77.1187 74.3641C76.8686 77.8138 76.3353 81.5372 75.316 85.053C76.005 85.4918 76.8026 85.8646 77.5859 86.1808C78.4873 86.5395 79.4216 86.8037 80.3654 87.0303C82.2625 87.4597 84.2162 87.6296 86.1605 87.5777C88.1095 87.5211 90.0491 87.2521 91.9603 86.8509C93.8622 86.4026 95.7262 85.8316 97.5242 85.0718C99.3222 84.3121 101.049 83.3777 102.81 82.4433C104.57 81.5089 106.391 80.5887 108.322 79.8997C109.28 79.5316 110.271 79.272 111.262 79.0078L112.767 78.6963C113.267 78.583 113.777 78.5453 114.282 78.4698C115.292 78.3046 116.311 78.2763 117.326 78.1961C118.34 78.1442 119.355 78.1678 120.369 78.1536C120.374 78.1536 120.384 78.1536 120.388 78.1536C120.898 78.1536 121.309 78.5689 121.304 79.0738C121.304 79.5835 120.889 79.994 120.384 79.9893H120.313C119.341 79.9846 118.364 79.9422 117.392 79.9705C116.424 80.0271 115.447 80.0318 114.489 80.1734C114.013 80.2395 113.522 80.263 113.05 80.3574L111.63 80.6217C110.695 80.8529 109.756 81.0747 108.845 81.4004C105.179 82.6085 101.819 84.817 98.0386 86.3177C96.1509 87.068 94.1925 87.6296 92.2152 88.0496C90.2237 88.4224 88.2086 88.6631 86.1794 88.6772C84.1502 88.6914 82.1162 88.4696 80.1389 87.9835C78.3645 87.521 76.642 86.9123 75.0517 85.9118C73.5605 90.6121 71.1443 94.8499 67.2888 97.4265L67.1755 97.4784C67.133 97.4926 66.7413 97.6058 65.9768 97.6058C64.8112 97.6058 62.7772 97.3416 59.8136 96.058C59.8419 96.1146 59.8703 96.1712 59.8892 96.2231C60.3611 97.4878 59.5494 98.493 58.4262 99.8852C56.6283 102.113 53.6222 105.836 52.3481 114.316C51.3099 121.234 50.3519 124.075 49.6535 125.269C54.8917 125.666 72.1306 127.27 76.6326 131.47C81.583 136.09 104.518 133.108 104.749 133.075C104.985 133.046 105.207 133.212 105.235 133.448C105.268 133.684 105.098 133.905 104.862 133.934C104.334 134.004 97.2599 134.925 90.1246 134.925C84.2823 134.925 78.3976 134.306 76.0333 132.103C71.5785 127.945 52.9851 126.378 48.9031 126.086C48.804 126.133 48.7237 126.157 48.6577 126.171C48.6246 126.18 48.5916 126.185 48.5633 126.19C48.5822 127.044 48.7426 128.667 49.5968 129.493C50.0073 129.889 50.5265 130.05 51.1872 129.984C51.4373 129.96 51.8148 130.012 52.1781 130.404C55.137 133.594 54.1932 158.86 53.3768 163.499C52.3386 169.379 53.0511 178.845 53.6977 180.455L53.7543 180.596L53.7118 180.743C53.6835 180.842 52.079 186.391 51.3381 193.324C51.5599 193.347 51.7298 193.531 51.7298 193.753C51.7251 193.994 51.5317 194.187 51.291 194.183H51.2674C51.2626 194.183 51.2579 194.183 51.2532 194.183C50.7671 199.36 50.8002 205.188 52.3339 210.058C55.7505 220.935 54.7265 225.183 54.4386 226.027C54.5047 226.277 54.6557 226.844 54.8351 227.575C61.3333 225.862 67.7559 223.866 74.1031 221.657C77.9445 212.729 83.1781 198.991 80.7855 195.296L80.6061 195.018L80.8279 194.768C80.927 194.659 90.6626 183.834 90.0019 177.567L89.9877 177.43L90.0538 177.312C92.4134 172.984 95.9858 165.514 95.5186 163.886L95.4666 163.702L97.1136 161.069C95.948 159.742 95.679 157.959 95.8819 156.345C96.099 154.589 96.8399 153.004 97.6846 151.527C98.5954 150.092 99.6195 148.738 100.757 147.496L101.616 146.571L102.045 146.109C102.191 145.958 102.347 145.821 102.498 145.675L104.324 143.948L104.471 143.811L104.721 143.773C107.491 143.386 110.313 142.692 113.055 141.899C115.806 141.097 118.52 140.149 121.195 139.101C122.517 138.544 123.862 138.025 125.164 137.412L127.127 136.52L129.062 135.566L130.03 135.09L130.983 134.585L132.885 133.566C134.145 132.872 135.381 132.131 136.627 131.414L136.646 131.404C136.849 131.286 137.113 131.357 137.236 131.56C137.358 131.768 137.292 132.032 137.085 132.155C135.839 132.895 134.607 133.669 133.347 134.391L131.445 135.453L130.492 135.982L129.525 136.482L127.585 137.478L125.617 138.417C124.315 139.059 122.965 139.606 121.634 140.196C118.949 141.305 116.212 142.315 113.432 143.178C110.714 144.009 108.001 144.74 105.136 145.208L103.461 146.694C103.31 146.831 103.154 146.963 103.008 147.1L102.578 147.534L101.724 148.398C100.587 149.559 99.5817 150.819 98.6756 152.145C97.8451 153.499 97.123 154.948 96.8871 156.482L96.8022 157.053V157.624V157.911L96.8446 158.195C96.8777 158.379 96.8871 158.572 96.939 158.756L97.0948 159.299L97.3213 159.813C97.4156 159.969 97.5006 160.134 97.6044 160.28L97.8451 159.894L98.0621 160.856C98.0905 160.913 98.1046 160.979 98.1046 161.04C98.4916 162.711 103.107 182.172 108.166 184.702L108.284 184.759L108.35 184.872C108.411 184.976 114.532 195.438 119.841 197.76L119.992 197.826L120.063 197.977C120.421 198.755 120.808 199.581 121.205 200.435C130.903 194.966 140.27 188.907 149.095 182.13C148.944 179.166 148.486 175.349 147.179 173.669L147.07 173.527L147.089 173.352C147.103 173.23 148.392 161.144 144.13 157.213L143.989 157.081L144.678 117.865C143.743 115.892 132.535 91.3341 140.223 81.0794ZM153.177 178.916C158.915 174.249 164.404 169.266 169.477 163.891C172.02 161.21 174.446 158.421 176.763 155.542C179.071 152.664 181.227 149.658 183.341 146.619C185.456 143.579 187.508 140.498 189.429 137.346C191.34 134.193 193.167 130.965 194.559 127.591C195.238 125.911 195.842 124.165 195.998 122.438C196.078 121.584 196.017 120.725 195.696 120.045C195.38 119.37 194.766 118.932 193.988 118.724C193.214 118.516 192.331 118.512 191.458 118.596C190.581 118.681 189.698 118.861 188.82 119.083C187.065 119.531 185.338 120.154 183.639 120.843C180.236 122.235 176.933 123.891 173.681 125.642C170.43 127.398 167.23 129.262 164.069 131.182C157.75 135.038 151.549 139.111 145.494 143.362L145.485 143.367C145.362 143.452 145.22 143.49 145.083 143.49L144.852 156.713C149.029 160.828 148.113 171.715 147.957 173.277C149.236 175.07 149.732 178.577 149.921 181.479C151.015 180.639 152.101 179.785 153.177 178.916ZM129.595 217.113C131.096 218.614 140.751 233.913 142.077 237.561C142.512 238.755 142.384 240.482 142.238 242.478C142.016 245.489 141.766 248.901 143.512 250.925C144.451 252.015 145.886 252.61 147.887 252.756C150.388 252.931 152.389 252.143 153.833 250.406C157.193 246.367 157.013 238.066 155.343 231.629C154.418 228.061 154.092 221.417 153.752 214.38C153.196 202.927 152.563 189.94 149.26 186.429L149.137 186.297L149.142 186.118C149.142 186.085 149.175 185.056 149.142 183.579C140.43 190.195 131.209 196.117 121.677 201.469C124.862 208.26 128.774 216.292 129.595 217.113ZM120.436 200.865C119.921 199.765 119.529 198.921 119.331 198.491C114.041 196.047 108.355 186.613 107.656 185.424C102.729 182.739 98.5105 166.458 97.4676 162.14L96.3916 163.862C96.7738 166.599 91.7338 176.042 90.8749 177.623C91.3563 183.39 84.2588 192.125 82.0833 194.659C85.6462 194.773 89.2185 195.211 92.7154 196.08C96.5143 197.005 100.205 198.496 103.593 200.553C106.122 202.101 108.463 203.98 110.535 206.136C112.394 205.192 114.249 204.23 116.089 203.243C117.547 202.469 118.996 201.672 120.436 200.865ZM75.4718 221.19C86.6089 217.236 97.5053 212.616 108.09 207.363C106.41 205.494 104.509 203.81 102.423 202.366C99.3505 200.261 95.9244 198.637 92.3143 197.543C88.9401 196.5 85.4197 195.867 81.8662 195.565C83.5179 200.223 78.8837 212.686 75.2264 221.275C75.3066 221.247 75.3868 221.218 75.4718 221.19ZM54.5188 237.797C52.7538 241.582 49.7997 247.919 51.6731 250.958C52.3669 252.086 53.726 252.686 55.7175 252.747C55.793 252.752 55.8637 252.752 55.9393 252.752C66.2789 252.752 70.427 229.958 70.4695 229.727L70.5072 229.614C70.5497 229.529 71.8474 226.839 73.5322 222.988C67.4492 225.074 61.2955 226.962 55.071 228.59C55.5193 230.605 55.996 233.243 55.793 234.677C55.7081 235.244 55.2078 236.315 54.5188 237.797ZM6.88872 228.005C7.03029 228.396 7.25682 228.755 7.49751 229.095C7.76649 229.42 8.05431 229.737 8.39882 230.001C9.06892 230.548 9.85707 230.968 10.6829 231.303C12.344 231.978 14.1514 232.327 15.9588 232.559C17.7757 232.78 19.6115 232.865 21.452 232.865C25.1329 232.87 28.8232 232.554 32.4852 232.091C39.7338 231.162 46.9069 229.637 53.9856 227.802C53.7496 226.825 53.5655 226.15 53.5561 226.126L53.5184 225.975L53.5797 225.834C53.5938 225.796 55.1559 221.959 51.4986 210.322C49.9413 205.362 49.894 199.444 50.3801 194.197C48.8605 194.23 47.3127 194.381 45.7931 194.593C43.9716 194.853 42.1689 195.221 40.3898 195.683C38.6107 196.151 36.8599 196.717 35.1374 197.363C33.4197 198.024 31.7443 198.779 30.1021 199.61C26.8411 201.309 23.7549 203.347 20.9375 205.707C18.1297 208.08 15.5813 210.761 13.335 213.673C11.0887 216.58 9.12556 219.737 7.4597 222.988C7.08217 223.8 6.7849 224.64 6.65276 225.499C6.53951 226.358 6.58199 227.226 6.88872 228.005Z" fill="url(#paint0_linear)"/>
<g opacity="0.07">
<path opacity="0.07" d="M147.231 260C150.85 260 153.946 258.585 156.173 255.904C160.921 250.199 160.468 239.93 158.637 232.87C157.835 229.779 157.523 223.38 157.193 216.598C156.49 202.21 155.782 192.286 152.61 187.175C152.61 187.024 152.61 186.873 152.61 186.717C164.861 177.048 174.984 166.732 182.709 156.038C189.755 146.288 194.587 138.45 197.065 132.735C198.136 130.257 201.401 122.73 197.032 118.328C195.455 116.737 193.412 115.968 190.793 115.968C185.253 115.968 176.423 119.54 163.799 126.893C157.901 130.328 152.195 133.995 147.821 136.911L148.132 119.281L147.698 118.365C144.05 110.621 139.43 96.3553 141.511 88.9415C142.842 89.2436 144.465 89.4984 146.178 89.4984C147.301 89.4984 148.382 89.3898 149.392 89.1775C150.732 89.4087 153.172 89.7296 156.376 89.7296C160.982 89.7296 165.541 89.0878 169.972 87.8184C169.897 89.4889 170.803 91.1312 172.398 91.9146C172.992 92.2072 173.653 92.3629 174.314 92.3629C175.984 92.3629 177.48 91.4332 178.216 89.9325C178.264 89.8382 182.718 80.8813 191.288 68.7437C192.647 74.2698 195.068 78.4792 198.509 81.2871C200.599 82.9954 203.034 84.1563 205.748 84.7415C206.861 85.2229 208.051 85.5343 209.287 85.657C209.726 85.6995 210.174 85.7231 210.627 85.7231C215.54 85.7231 220.976 83.17 225.544 78.7199C230.816 73.5808 234.275 66.5823 235.289 59.0129C235.927 54.2513 235.252 48.9234 233.345 43.5766C233.558 42.6894 233.751 41.8258 233.926 41.0047C236.035 40.278 238.008 39.8155 239.546 39.6881C240.311 39.6267 241.127 39.5937 241.972 39.5937C251.452 39.5937 262.542 43.5577 262.656 43.5955C263.132 43.7701 263.633 43.855 264.137 43.855C265.959 43.855 267.597 42.7036 268.22 40.9953C269.041 38.7442 267.875 36.2478 265.624 35.4267C265.114 35.2426 253.062 30.9011 241.967 30.9011C240.886 30.9011 239.829 30.9435 238.834 31.0237C237.658 31.1181 236.403 31.3211 235.077 31.6231C235.049 27.5269 233.954 24.8983 231.656 23.2419C230.452 22.3783 229.079 21.9442 227.574 21.9442C225.422 21.9442 223.02 22.8408 220.259 24.686C220.113 24.5727 219.971 24.4595 219.825 24.3462C216.017 21.4345 212.019 19.8961 208.272 19.8961C206.489 19.8961 204.771 20.2406 203.162 20.9201C196.503 23.7233 192.327 31.7127 190.755 44.6667C190.269 48.6638 190.009 52.4155 189.986 55.8322C189.061 57.0261 188.136 58.2484 187.225 59.4706C185.493 59.9897 184.38 60.9005 183.544 61.5848C182.35 62.5664 180.543 64.0434 172.2 64.0434C167.971 64.0434 162.516 63.6518 155.985 62.8731L154.692 62.7174L154.418 62.8542C154.328 62.6843 154.102 62.2691 154.102 62.2691C150.213 55.0771 142.969 41.689 132.068 37.0548C128.812 35.6721 126.264 34.7849 124.197 34.3224C124.234 31.8166 124.164 30.028 123.994 28.9945C123.673 27.0644 123.564 22.7889 123.739 21.7271C125.433 18.0839 124.234 15.4365 121.12 11.2837C117.552 6.52678 107.326 1.60474 105.311 0.665635L103.881 0.000244141L102.357 0.406089C96.7691 1.89261 91.4365 3.01104 90.2897 3.03935C90.0538 3.01104 89.8131 2.99217 89.5771 2.99217C88.5106 2.99217 86.8684 3.30363 85.1129 4.79015C82.7391 6.8005 80.2852 11.01 80.2852 14.5776C80.2852 15.8376 77.9728 19.9574 77.062 20.5898C76.1654 21.1891 74.6458 22.6284 74.5656 25.5543C74.457 29.4617 77.3593 36.8991 79.8651 39.3388C79.8746 39.3577 79.884 39.3766 79.8887 39.3908C80.1908 40.0137 80.8892 41.4436 82.3852 42.378C80.9459 42.8263 79.5726 43.5625 77.9964 44.4025C76.34 45.2897 74.273 46.3939 71.2009 47.7294C64.1883 50.778 52.4612 58.6872 50.0167 69.914C46.6472 67.8423 42.6172 65.4781 39.3752 63.9491C37.3365 62.9816 36.3974 61.6839 35.2081 60.0369C33.632 57.852 31.2535 54.558 26.0766 54.2513L24.8592 54.1758C23.6794 54.1003 22.6647 54.0389 21.7539 54.0389C19.9984 54.0389 18.1532 54.2465 16.5676 55.7331C14.8357 57.3612 14.5998 59.4801 14.5998 61.3394C14.5998 66.5351 15.4775 75.5392 21.3528 77.4977C22.2683 77.8044 23.1697 78.2055 24.038 78.5972C25.5906 79.2957 27.1856 80.0129 28.9034 80.1498C31.0789 81.9903 36.9165 88.2714 42.4615 94.7649L43.207 95.6332L44.283 96.0249C47.459 97.1811 50.8568 98.7196 52.9048 99.9088C50.7812 102.575 47.6477 106.983 46.2886 116.053C46.114 117.219 45.9348 118.294 45.7601 119.281L43.2637 115.878L42.4708 127.719L42.4615 127.785V127.841C42.3907 129.054 42.3954 132.91 44.939 135.373C45.6375 136.053 46.4633 136.553 47.3646 136.864C48.417 142.249 48.3131 159.587 47.3363 165.113C46.3264 170.828 46.7322 179.256 47.4684 183.008C47.0484 184.617 46.2509 187.93 45.6469 192.021C42.1925 192.342 37.327 193.187 31.7962 195.278C22.8252 198.666 10.3195 206.169 1.69293 222.653C-1.39337 228.552 -0.213593 233.946 4.85474 237.079C8.13925 239.109 13.1699 240.137 19.8097 240.137C24.6279 240.137 30.2766 239.609 36.6003 238.561C40.7059 237.882 45.1089 236.98 49.7147 235.867C49.7289 236.046 49.7336 236.173 49.7336 236.263C49.559 236.693 49.1201 237.641 48.8652 238.184C46.5434 243.167 43.0513 250.661 46.2697 255.89C47.3598 257.664 49.6298 259.807 54.2357 259.953C54.3631 259.958 54.4904 259.958 54.6178 259.958C67.9022 259.958 72.7865 238.505 73.7303 233.587C74.188 232.629 75.1602 230.553 76.3541 227.844C79.4546 226.735 82.5551 225.57 85.5706 224.38C92.7861 221.525 100.002 218.345 107.033 214.904C110.101 219.142 110.993 222.823 111.002 222.865C111.436 224.824 113.22 226.259 115.24 226.259C115.561 226.259 115.877 226.226 116.184 226.155C118.52 225.636 120.001 223.309 119.482 220.973C119.364 220.449 118.326 216.108 114.876 210.931C115.797 210.445 116.731 209.949 117.665 209.444C123.206 221.115 124.357 222.398 124.848 222.894C126.103 224.314 135.022 238.368 136.23 241.577C136.315 242.077 136.188 243.809 136.131 244.555C135.872 248.103 135.513 252.959 138.562 256.485C140.35 258.552 142.927 259.722 146.216 259.953C146.556 259.991 146.9 260 147.231 260ZM145.475 192.116C147.481 195.754 148.151 209.449 148.519 217.014C148.887 224.569 149.203 231.096 150.232 235.055C151.832 241.218 151.511 247.933 149.501 250.345C148.93 251.029 148.283 251.308 147.259 251.308C147.122 251.308 146.985 251.303 146.839 251.293C145.99 251.232 145.352 251.053 145.14 250.807C144.451 250.015 144.682 246.886 144.805 245.211C144.98 242.865 145.14 240.652 144.423 238.67C142.932 234.564 133.465 219.524 131.228 217.004C130.69 216.235 128.647 212.29 125.277 205.197C130.086 202.399 134.725 199.501 139.076 196.575C141.233 195.126 143.375 193.631 145.475 192.116ZM65.2689 231.568C64.0231 238.49 59.6485 251.279 54.6038 251.279H54.5188C54.0657 251.265 53.7873 251.213 53.6269 251.176C53.5231 250.548 53.6835 248.438 56.7321 241.893C57.7042 239.812 58.1761 238.76 58.3318 237.669C58.4781 236.655 58.4357 235.338 58.2044 233.663C60.5215 233.012 62.8858 232.313 65.2689 231.568ZM48.3179 227.297C37.1194 230.029 27.2564 231.473 19.7389 231.473C14.9395 231.473 11.2776 230.841 9.42764 229.699C8.72449 229.265 8.21481 228.948 9.39459 226.693C15.2652 215.475 23.769 207.67 34.6655 203.493C38.6107 201.983 42.1736 201.238 44.8729 200.874C44.7596 205.877 45.2882 210.265 46.4444 213.946C49.0635 222.276 48.7425 225.952 48.601 226.811L48.3179 227.297ZM69.8748 220.931C65.6606 222.379 61.47 223.701 57.3786 224.881C57.3125 221.941 56.699 217.575 54.7405 211.337C51.4136 200.747 56.0903 184.457 56.1422 184.291L56.5669 182.852L56.029 181.507C55.6656 180.299 54.9813 171.88 55.9063 166.632C56.4631 163.471 56.8595 155.524 56.8076 148.535C56.7462 140.021 56.1044 135.637 55.3729 133.23C63.8296 134.306 70.4695 135.949 72.0456 137.421C74.8488 140.035 80.4221 141.31 89.0864 141.31C95.5374 141.31 101.705 140.583 104.055 140.271C106.429 139.955 108.104 137.766 107.793 135.392C107.51 133.24 105.655 131.617 103.484 131.617C103.296 131.617 103.102 131.631 102.913 131.654C98.3453 132.258 93.4185 132.593 89.0439 132.593C81.5971 132.593 78.5863 131.635 77.9775 131.064C73.7822 127.152 62.8245 125.213 53.6269 124.259C54.0611 122.41 54.481 120.125 54.8963 117.351C56.01 109.918 58.5018 106.836 60.1487 104.793C60.4697 104.397 60.8094 103.977 61.135 103.514C62.395 103.811 63.5748 103.963 64.6649 103.963C65.8541 103.963 66.6328 103.778 66.9962 103.67L67.6096 103.481L68.1429 103.127C71.3519 100.985 73.9474 97.7804 75.8681 93.5899C78.5249 94.4771 81.4225 94.9254 84.5088 94.9254C86.84 94.9254 89.2704 94.6611 91.7338 94.1373C96.8069 93.0613 100.266 91.2586 103.314 89.6683C107.425 87.5258 110.667 85.8364 117.528 85.8364C117.967 85.8364 118.425 85.8458 118.892 85.8599H119.02C121.389 85.8599 123.3 84.0101 123.375 81.6505C123.413 80.4896 122.993 79.3853 122.2 78.5406C121.408 77.6959 120.327 77.2098 119.166 77.172C118.614 77.1532 118.071 77.1485 117.547 77.1485C108.543 77.1485 103.635 79.7062 99.3032 81.962C96.4953 83.4249 93.8432 84.8076 89.9311 85.6381C88.0717 86.0346 86.2502 86.2328 84.523 86.2328C81.9699 86.2328 79.9738 85.808 78.5297 85.322C78.9922 83.1606 79.3367 80.8388 79.5679 78.4037C84.32 72.4812 87.0477 66.8655 87.7273 61.6414C89.4969 64.6428 91.2902 67.0731 93.9235 68.8098C96.7125 70.6502 99.9922 71.4713 104.556 71.4713C106.127 71.4713 107.85 71.377 109.836 71.1788C118.52 70.3104 123.663 67.8282 125.56 63.5951C125.962 62.6938 126.179 61.783 126.245 60.8958C131.535 69.4091 135.48 77.7289 135.15 82.1083C131.681 87.5636 131.426 95.9211 134.39 106.959C136.131 113.448 138.519 119.087 139.425 121.131L139.236 131.966C138.439 130.673 137.056 129.899 135.537 129.899C134.734 129.899 133.946 130.121 133.262 130.545C116.528 140.842 103.097 142.64 102.965 142.655L101.658 142.815L100.653 143.683C94.0037 149.427 90.6342 154.868 90.6342 159.856C90.6342 161.106 90.8466 162.296 91.2619 163.4L89.9075 165.561L90.2897 166.892C89.9971 168.237 88.0812 172.8 85.3016 177.897L84.6551 179.086L84.7966 180.431C85.1081 183.385 80.1625 190.672 76.6279 194.579L74.3721 197.071L76.0946 199.732C76.2031 200.247 76.6091 203.63 72.0693 215.523C71.3944 217.231 70.6629 219.048 69.8748 220.931ZM100.521 208.42C94.5841 211.242 88.4917 213.89 82.3757 216.311C81.8519 216.518 81.3282 216.721 80.8044 216.929C83.079 210.752 84.3719 205.938 84.7211 202.333C90.8749 203.229 96.1698 205.273 100.521 208.42ZM112.842 202.196C111.606 202.861 110.351 203.522 109.091 204.178C103.475 199.01 96.4057 195.622 88.0293 194.074C90.7098 190.157 93.3052 185.306 93.4704 181.026C93.9848 180.049 94.7823 178.506 95.6082 176.779C98.8691 186.255 101.587 189.303 103.442 190.667C105.094 193.357 108.685 198.755 112.842 202.196ZM143.682 182.569C136.882 187.703 129.454 192.644 121.568 197.283L120.072 196.627C117.477 195.495 113.031 189.893 110.398 185.358L109.747 184.235L108.586 183.654C107.113 182.838 103.159 173.985 100.568 162.513L99.6336 158.374C100.205 156.845 101.686 154.438 105.41 151.059C109.657 150.314 122.389 147.43 137.807 137.94C138.359 137.6 138.807 137.157 139.147 136.647L138.713 161.21L140.143 162.532C141.629 163.905 142.45 170.021 141.865 175.368L141.672 177.118L142.752 178.51C142.96 178.789 143.399 179.969 143.682 182.569ZM190.566 124.679C190.373 126.595 188.58 133.089 175.668 150.956C169.373 159.667 161.176 168.265 151.284 176.533C151.086 175.924 150.864 175.368 150.628 174.863C150.897 170.998 150.973 162.753 147.462 157.789L147.641 147.548C151.388 144.958 159.562 139.427 168.207 134.396C183.025 125.77 188.735 124.712 190.566 124.679ZM69.1716 86.917C67.9919 90.6735 66.3165 93.4719 64.1835 95.2463C63.2963 95.1519 61.4512 94.7602 58.6056 93.269C56.2696 91.6362 52.8152 89.9514 48.3368 88.262C47.0862 86.8132 44.4529 83.7882 41.7158 80.801C34.4106 72.8257 32.3389 71.4053 30.1587 71.4053C29.9086 71.4053 29.6774 71.4289 29.4697 71.4572C29.0167 71.3062 28.0586 70.872 27.615 70.6738C26.7231 70.2727 25.7227 69.8196 24.5854 69.4185C24.1796 68.621 23.4906 66.2001 23.3302 62.7929C23.6605 62.8117 25.5717 62.9297 25.5717 62.9297C26.4778 62.9816 26.6713 63.0524 28.1625 65.1241C29.6113 67.1297 31.5933 69.881 35.6564 71.8064C41.7771 74.7039 51.8525 81.4004 51.9563 81.4664L61.2246 87.6438L58.5914 76.8228C56.0431 66.3417 69.3322 58.0218 74.6695 55.7048C75.736 55.2423 76.76 54.7704 77.7793 54.2843C78.3456 55.1149 78.8789 56.238 79.0912 57.6915C79.2564 58.8194 79.2092 60.0322 78.9544 61.33C78.2135 59.9709 76.7695 59.0695 75.1414 59.0695C74.9715 59.0695 74.8016 59.0789 74.627 59.0978C72.2485 59.381 70.5402 61.547 70.8233 63.9255C70.8375 64.0434 72.2014 76.1669 69.4596 85.9496C69.3274 86.2564 69.233 86.582 69.1716 86.917ZM176.102 75.9734C168.467 80.1357 161.133 81.0134 156.296 81.0134C152.61 81.0134 150.284 80.5037 150.26 80.4943L149.132 80.23L148.009 80.5698C147.49 80.7303 146.886 80.8105 146.211 80.8105C145.376 80.8105 144.531 80.6878 143.79 80.5368C142.969 68.7343 130.733 51.3018 124.871 43.5719C125.877 43.9211 127.122 44.4025 128.666 45.0584C136.768 48.5034 143.068 60.1502 146.452 66.4077C148.93 70.99 149.954 72.8824 152.61 73.2693C152.828 73.3024 153.054 73.3165 153.271 73.3165C154.475 73.3165 155.612 72.8446 156.471 71.9857C156.565 71.8913 156.655 71.8017 156.744 71.7167C162.771 72.3868 167.957 72.7266 172.171 72.7266C174.46 72.7266 176.489 72.6323 178.292 72.4341C177.546 73.6233 176.81 74.803 176.102 75.9734ZM213.11 76.181C212.26 76.3556 211.194 76.5066 210.042 76.5066C209.547 76.5066 209.065 76.4783 208.598 76.4217C207.097 75.1853 207.055 72.0896 207.168 70.2963C207.961 58.1729 217.569 50.0465 223.713 46.0542C222.996 48.6214 222.137 51.4292 221.146 54.4306C218.168 63.5055 214.742 72.1651 213.11 76.181ZM220.561 37.7579C214.016 41.7456 202.463 50.5515 199.264 64.4776C198.976 62.774 198.792 60.9005 198.712 58.8619C205.304 50.5845 212.321 43.0528 219.598 36.446C219.929 36.866 220.25 37.3049 220.561 37.7579ZM117.543 60.1171C117.193 60.4758 115.452 61.8727 108.959 62.5239C107.062 62.7127 105.518 62.807 104.244 62.807C98.2226 62.807 97.1797 60.91 93.3147 53.8549C92.4888 52.3495 91.4931 50.5373 90.2992 48.5081C91.0354 47.753 91.6724 46.8092 92.1679 45.7144C93.4232 42.9537 94.0556 38.7725 91.7149 36.0921C90.6625 34.8887 89.1902 34.2233 87.5715 34.2233C87.3639 34.2233 87.1562 34.2328 86.9486 34.2563C86.6749 33.8647 86.3209 33.4399 85.8632 33.0435C85.1789 32.0808 83.6829 28.4707 83.3196 26.6114C86.0755 23.8129 88.9778 18.3435 88.9778 14.5823C88.9778 13.9783 89.8225 12.4304 90.4313 11.7131C92.7248 11.6329 96.9578 10.7929 103.031 9.22141C107.614 11.496 112.772 14.6437 114.168 16.503C114.952 17.5459 115.386 18.2113 115.622 18.6077C114.286 22.2179 115.41 30.3442 115.424 30.4291C115.551 31.1936 115.546 34.2327 115.414 37.437C115.249 37.8665 115.145 38.3195 115.093 38.782C114.589 38.8009 114.093 38.9047 113.616 39.0982C112.54 39.5323 111.696 40.3629 111.243 41.4294C110.79 42.5007 110.78 43.6804 111.214 44.7564L117.283 59.7774L117.514 60.0699C117.524 60.0794 117.533 60.0983 117.543 60.1171ZM213.327 30.4008C208.608 34.7094 204.002 39.3766 199.566 44.3317C200.774 35.8844 203.284 30.3064 206.536 28.9379C207.074 28.7114 207.645 28.5981 208.277 28.5981C210.08 28.5934 211.949 29.5184 213.327 30.4008Z" fill="white"/>
</g>
</g>
<defs>
<linearGradient id="paint0_linear" x1="15.5354" y1="219.494" x2="173.365" y2="75.075" gradientUnits="userSpaceOnUse">
<stop offset="0.0001" stop-color="#E50058"/>
<stop offset="1" stop-color="white"/>
</linearGradient>
</defs>
</svg>
