<svg width="502" height="793" viewBox="0 0 502 793" fill="none" xmlns="http://www.w3.org/2000/svg">
<path d="M364.91 102.737C364.81 102.694 354.755 98.0871 338.31 107.857C338.096 107.986 337.868 108.043 337.639 108.043C337.197 108.043 336.755 107.814 336.513 107.401C336.142 106.773 336.341 105.975 336.969 105.604C354.612 95.1204 365.581 100.155 366.037 100.369C366.693 100.683 366.964 101.467 366.65 102.124C366.351 102.765 365.566 103.051 364.91 102.737Z" fill="url(#paint0_linear)"/>
<path d="M383.866 64.7685C383.78 64.7542 375.793 62.6861 372.085 62.9713C371.058 63.0569 370.73 63.2851 370.116 63.7273C368.69 64.7542 366.907 66.0236 358.549 66.0236C357.822 66.0236 357.237 65.4388 357.237 64.7114C357.237 63.984 357.822 63.3992 358.549 63.3992C366.066 63.3992 367.52 62.358 368.59 61.5878C369.318 61.0743 370.131 60.4896 371.885 60.3469C376.035 60.0331 384.18 62.1298 384.522 62.2154C385.221 62.4008 385.649 63.114 385.463 63.8128C385.278 64.526 384.565 64.9539 383.866 64.7685Z" fill="url(#paint1_linear)"/>
<path d="M348.051 66.0235C347.937 66.0378 346.825 66.1947 345.227 66.1947C342.917 66.1947 339.636 65.8666 336.983 64.3119C333.903 62.5005 331.292 65.5814 331.178 65.7097C330.722 66.266 329.895 66.3658 329.324 65.8951C328.768 65.4387 328.682 64.6115 329.139 64.041C330.551 62.3151 334.273 59.6622 338.31 62.0441C341.975 64.1978 347.609 63.4276 347.681 63.4134C348.394 63.3135 349.064 63.8127 349.164 64.5259C349.264 65.2533 348.765 65.9094 348.051 66.0235Z" fill="url(#paint2_linear)"/>
<path d="M162.29 213.632C161.563 213.632 160.978 213.047 160.978 212.319C160.978 212.205 160.892 201.037 154.631 196.487C154.046 196.06 153.918 195.232 154.346 194.648C154.774 194.063 155.587 193.934 156.186 194.362C163.531 199.697 163.617 211.806 163.617 212.319C163.602 213.033 163.018 213.632 162.29 213.632Z" fill="url(#paint3_linear)"/>
<path d="M151.322 221.019C150.595 221.019 150.01 220.435 150.01 219.707C150.01 219.593 149.924 208.425 143.663 203.875C143.078 203.447 142.95 202.62 143.377 202.035C143.805 201.451 144.618 201.322 145.217 201.75C152.563 207.085 152.648 219.194 152.648 219.707C152.634 220.435 152.049 221.019 151.322 221.019Z" fill="url(#paint4_linear)"/>
<path d="M271.046 250.701L283.783 245.424C283.897 245.196 284.068 244.967 284.324 244.796C285.337 244.083 287.006 242.899 305.263 257.077L305.562 257.362L305.69 257.704C305.705 257.733 306.033 258.531 307.53 258.959C310.996 259.943 322.863 259.401 358.15 233.015C359.505 231.161 371.928 214.502 389.086 201.95C390.498 199.069 401.88 175.507 401.88 166.664C401.88 165.936 402.465 165.351 403.192 165.351C403.92 165.351 404.504 165.936 404.504 166.664C404.504 176.662 391.839 202.321 391.297 203.405L391.154 203.69L390.898 203.876C372.998 216.884 360.289 234.527 360.161 234.712L359.876 234.998C326.115 260.272 312.194 263.295 306.475 261.384C304.549 260.742 303.708 259.601 303.366 258.959C291.941 250.088 287.691 247.834 286.179 247.264L272.044 253.126C259.878 258.175 262.573 270.213 262.688 270.726L263.001 272.024L261.689 272.31C260.819 272.495 260.191 272.923 259.778 273.607C258.965 274.934 259.036 277.002 259.222 278.343C262.26 278.4 270.546 279.17 276.979 285.546C291.67 296.828 303.266 290.153 303.751 289.867L304.107 289.653L304.521 289.682C393.337 295.587 422.262 248.49 422.533 248.02C422.904 247.392 423.702 247.192 424.33 247.549C424.958 247.92 425.157 248.719 424.801 249.346C424.501 249.845 417.313 261.84 398.785 273.222C368.134 292.035 330.793 294.018 304.735 292.321C303.537 292.948 299.729 294.717 294.28 294.717C289.131 294.717 282.542 293.148 275.31 287.571L275.182 287.457C268.193 280.468 258.323 280.967 258.223 280.981L257.139 281.038L256.868 279.997C256.811 279.812 255.67 275.276 257.524 272.238C258.109 271.283 258.922 270.569 259.921 270.127C259.478 266.504 259.193 255.608 271.046 250.701Z" fill="url(#paint5_linear)"/>
<path d="M205.279 261.298C201.542 266.576 197.605 271.71 193.455 276.66C185.097 286.515 175.94 295.743 165.813 303.888C160.75 307.953 155.473 311.747 149.967 315.212C144.433 318.621 138.671 321.688 132.709 324.355C126.733 326.994 120.528 329.09 114.195 330.773C107.848 332.399 101.344 333.384 94.8262 333.911C88.2938 334.296 81.7328 334.225 75.2146 333.569C73.5886 333.426 71.977 333.141 70.351 332.927L67.9262 332.585L65.5158 332.114C63.9184 331.772 62.3066 331.486 60.7092 331.116L55.9596 329.846C43.3939 326.209 31.3274 320.19 21.4574 311.304C16.5937 306.812 12.215 301.734 8.83469 295.986C5.53993 290.195 3.05817 283.948 1.63187 277.444C-1.00679 264.379 0.291114 250.844 3.98523 238.321C5.05495 235.24 5.982 232.088 7.16583 229.05C8.4495 226.054 9.6191 223.002 11.0169 220.064L15.4099 211.364L20.3164 202.963C27.1911 191.98 34.9502 181.611 43.2656 171.755C45.3194 169.273 47.5445 166.934 49.6696 164.51C51.8376 162.113 53.92 159.674 56.1878 157.364C60.5951 152.657 65.2733 148.179 70.0371 143.814C79.6647 135.185 90.0054 127.212 101.459 120.965C112.855 114.732 125.435 110.068 138.628 108.97C151.778 107.729 165.243 110.382 177.067 116.115C188.948 121.82 199.231 130.264 207.989 139.849C212.368 144.656 216.404 149.776 220.084 155.11C223.464 160.06 226.574 165.123 229.312 170.529C234.447 167.177 249.651 156.266 254.828 141.247C261.546 121.763 296.248 111.195 311.995 113.619L312.294 112.093L313.178 113.206C314.933 111.309 318.242 106.345 315.047 98.1296C313.777 94.8777 313.763 91.3832 314.434 87.9887C313.991 83.0679 314.391 76.6638 315.047 73.6258C316.701 65.9808 318.17 64.0839 319.197 63.656L319.297 62.7432C321.08 47.0967 324.803 14.5342 371.329 13.6214C384.493 13.3789 395.219 17.3155 403.192 25.3598C417.241 39.523 418.411 61.7447 418.468 67.3929C419.623 67.6496 421.634 69.2186 423.916 77.3627C425.614 83.4388 425.371 96.6035 422.333 98.1724C422.091 98.3008 421.791 98.3721 421.492 98.3721C420.95 98.3721 420.336 98.1296 419.809 97.4593C417.256 94.2786 414.389 82.9681 414.061 81.6987L414.018 81.5275V81.3421C414.232 74.0394 414.888 70.4594 415.872 68.7479C415.872 68.7051 415.843 68.6765 415.858 68.6338C415.872 68.377 416.414 42.4041 401.352 27.214C393.907 19.6974 383.823 15.9891 371.414 16.2601C327.185 17.1158 323.776 46.9968 321.936 63.0427L321.751 64.6829C322.264 65.6243 322.678 67.3644 322.977 70.545C323.163 70.3025 323.319 70.1171 323.434 69.9602C323.705 64.9682 327.17 21.2236 363.455 21.2236C363.712 21.2236 363.969 21.2236 364.226 21.2236C401.68 21.8654 409.767 44.0729 412.763 65.7241C415.116 82.7399 412.763 112.821 412.221 119.225C416.086 120.038 424.273 121.906 426.441 123.717C427.04 123.789 428.894 123.561 430.534 123.347C439.862 122.134 461.685 119.282 472.182 139.749C484.719 164.182 488.014 177.788 485.261 193.649C482.609 208.91 447.336 279.084 435.412 298.054C435.07 304.13 430.934 370.553 412.178 375.73C412.263 379.496 411.764 391.149 403.092 396.126C403.335 404.085 405.103 464.132 403.035 472.89C402.165 476.584 402.95 478.952 403.791 481.448C404.889 484.728 406.13 488.437 403.463 494.969C401.851 498.934 402.55 501.644 403.606 505.752C405.26 512.184 407.514 520.956 402.85 540.368C405.417 542.279 411.023 549.553 405.717 575.312C408.141 578.365 420.08 594.311 420.08 612.139C420.08 630.995 424.587 666.339 424.629 666.695L424.658 666.952L424.601 667.195C423.731 670.547 419.523 685.851 414.574 690.586C414.759 690.629 414.945 690.657 415.13 690.7C419.98 691.67 428.11 693.282 430.834 698.288C431.989 700.427 432.032 702.909 430.934 705.662C427.71 713.735 428.366 716.359 428.794 717.115C428.965 717.415 429.137 717.472 429.122 717.486L430.035 717.329L430.377 718.399C430.52 718.841 433.886 729.467 426.94 736.399C424.216 739.123 423.745 740.963 423.845 742.004C423.945 743.131 424.715 743.687 424.729 743.701L430.135 747.21L426.427 746.554C428.923 751.717 433.729 764.154 428.723 775.08C424.772 783.68 415.644 789.314 401.652 791.782C400.069 792.153 398.528 792.338 397.016 792.338C391.425 792.338 386.262 789.842 381.627 784.879C370.658 773.14 366.18 751.189 367.52 744.885C365.067 738.196 354.085 733.831 353.971 733.789L353.414 733.575L353.215 733.018C353.029 732.519 349.15 721.651 352.573 715.617C348.009 712.665 332.391 701.426 331.792 685.266C331.506 677.421 330.294 668.578 329.224 660.762C327.798 650.279 326.557 641.222 327.598 636.272C328.968 629.783 317.286 609.586 312.665 602.355L312.537 602.098C302.881 575.198 304.877 573.644 305.591 573.087C307.217 571.39 312.137 551.85 308.243 527.175C306.589 516.734 302.652 512.413 299.472 512.741C292.668 513.468 290.457 528.615 291.071 539.127C292.469 563.531 289.088 575.469 280.088 577.823C277.792 578.422 276.765 579.021 276.252 580.019C275.267 581.973 276.066 586.01 278.748 592.742C283.782 605.336 281.914 636.23 281.557 641.336C283.882 643.618 290.258 653.745 284.838 693.809C284.752 696.534 283.996 717.514 279.646 722.763L279.304 723.177L275.781 723.562C275.481 727.884 273.556 742.974 261.632 749.863C260.662 752.002 255.485 761.944 241.179 765.381C240.566 769.346 236.158 782.725 204.609 782.725C193.598 782.725 186.466 779.887 183.399 774.31C178.293 764.996 186.609 751.788 186.965 751.232L187.222 750.933C187.379 750.79 202.769 737.682 203.482 724.275L203.182 724.261L203.553 722.735C204.238 719.896 207.433 706.689 208.688 703.009C208.474 702.895 208.217 702.752 208.003 702.652C206.306 701.768 203.482 700.299 203.339 697.389C203.196 694.209 206.377 690.543 213.352 685.908C211.041 681.187 202.198 662.103 202.398 646.784C202.612 630.054 196.507 607.59 196.45 607.361L196.393 607.162L196.407 606.948C196.422 606.577 196.906 597.891 199.93 592.984C201.656 590.203 197.434 579.064 193.868 572.046L193.769 571.832L193.74 571.604C193.655 570.877 191.729 553.704 193.783 546.644C194.624 543.763 193.426 534.535 192.157 524.779C190.545 512.37 188.734 498.307 189.96 490.134C190.674 485.441 190.488 480.292 190.303 474.844C190.117 469.638 189.932 464.118 190.417 458.185C189.918 459.454 189.404 460.709 188.876 461.964C186.437 467.798 183.742 473.546 180.818 479.151C177.88 484.771 174.728 490.262 171.304 495.597C167.853 500.917 164.144 506.08 160.194 511.058C156.2 516.007 151.892 520.699 147.343 525.178C142.978 529.3 138.4 533.208 133.536 536.745L133.465 538.1L133.208 542.95L133.137 544.162L132.98 545.36L132.666 547.756L132.038 552.549C131.525 555.715 130.783 558.839 130.17 561.991C128.772 568.21 127.089 574.343 125.064 580.447C124.037 583.485 122.91 586.523 121.584 589.504C120.286 592.499 118.802 595.452 116.948 598.304C116.021 599.731 114.994 601.128 113.825 602.469C113.254 603.14 112.569 603.767 111.942 604.409C111.2 604.994 110.558 605.65 109.717 606.163C108.162 607.276 106.237 608.146 104.183 608.559C102.129 608.973 99.9324 608.916 97.9784 608.374C96.0244 607.846 94.2843 607.005 92.7153 606.035C91.1749 605.037 89.7771 603.924 88.522 602.74C85.9832 600.373 83.8866 597.777 81.9325 595.109C78.0815 589.775 74.9579 584.127 72.091 578.408C69.2527 572.674 66.7139 566.84 64.3605 560.935C63.9184 559.823 63.4904 558.71 63.0625 557.598C62.0213 557.569 60.9801 557.541 59.9389 557.484C53.5206 557.027 47.088 555.972 40.8693 553.961C34.6649 551.95 28.6887 548.926 23.5113 544.747C18.291 540.625 14.1405 535.162 11.2451 529.172C8.44957 523.124 6.90913 516.506 6.82355 509.874C6.73797 508.219 6.88062 506.551 6.95193 504.896C7.15162 503.241 7.29422 501.587 7.63654 499.961C8.24984 496.695 9.16265 493.457 10.5604 490.376C11.9439 487.295 13.6413 484.343 16.0089 481.69C18.5335 478.866 21.543 477.24 24.5097 475.685C30.543 472.804 36.8472 471.093 43.2085 469.966C49.584 468.853 56.0309 468.368 62.4778 468.44C68.9247 468.497 75.3858 469.196 81.7328 470.565C88.0656 471.934 94.3128 473.96 100.218 476.826C106.094 479.75 111.585 483.587 116.278 488.265C118.702 490.547 120.714 493.215 122.696 495.868L125.335 500.104C125.805 500.788 126.119 501.573 126.49 502.314L127.56 504.554C127.902 505.31 128.287 506.037 128.601 506.807L129.414 509.146L130.227 511.486C130.498 512.27 130.798 513.04 130.94 513.853L132.053 518.66L132.324 519.858L132.481 521.07L132.794 523.509L133.108 525.948C133.208 526.761 133.336 527.574 133.322 528.387L133.408 531.154C137.159 528.287 140.739 525.207 144.19 521.983C148.612 517.676 152.82 513.14 156.742 508.348C160.621 503.527 164.273 498.506 167.682 493.314C171.062 488.108 174.186 482.746 177.095 477.254C180.005 471.763 182.672 466.143 185.097 460.424C187.507 454.719 189.761 448.857 191.544 443.009L191.558 442.952C191.829 442.039 192.713 441.483 193.626 441.568C194.453 438.987 195.452 436.334 196.678 433.595C206.591 411.488 202.512 406.168 202.498 406.168L201.499 405.169L202.555 404.242C202.655 404.156 212.097 395.784 209.272 386.727C206.192 376.8 219.071 358.301 221.068 355.52C221.139 353.394 221.753 350.257 222.594 345.992C224.762 334.938 228.371 316.453 225.604 296.585C221.881 269.927 250.407 240.56 254.643 236.367C254.358 234.042 253.488 226.183 254.03 220.364C246.684 226.867 227.272 243.213 215.562 245.11C212.439 250.758 208.973 256.064 205.279 261.298ZM421.406 95.1629C422.319 92.4387 423.032 83.9237 421.392 78.0901C420.137 73.5973 418.81 70.9586 418.083 70.1884C417.698 70.8873 416.899 73.312 416.656 81.2565C417.441 84.4086 419.609 92.0821 421.406 95.1629ZM78.4666 575.255C81.1766 580.761 84.1433 586.152 87.6092 591.016C89.3492 593.426 91.2035 595.737 93.2574 597.663C94.27 598.632 95.3397 599.474 96.4237 600.201C97.5219 600.886 98.6202 601.414 99.7042 601.713C101.844 602.269 103.826 601.884 105.852 600.515C107.877 599.203 109.674 596.978 111.243 594.61C112.826 592.214 114.195 589.561 115.408 586.794C116.649 584.056 117.718 581.203 118.717 578.308C120.685 572.517 122.368 566.541 123.737 560.522C124.336 557.512 125.064 554.531 125.577 551.507L126.205 546.972L126.519 544.704L126.676 543.563L126.747 542.422L126.818 541.324C126.091 541.794 125.349 542.251 124.579 542.664L120.414 545.061L116.107 547.186L113.953 548.241L111.728 549.154L107.264 550.98L102.685 552.492L100.403 553.248L98.064 553.847C89.1068 556.143 80.0213 557.384 70.8502 557.641C73.1465 563.617 75.6853 569.536 78.4666 575.255ZM127.089 533.322L126.961 528.786C126.975 528.031 126.861 527.289 126.775 526.533L126.504 524.294L126.233 522.054L126.091 520.942L125.848 519.844L124.864 515.479C124.736 514.737 124.465 514.053 124.222 513.34L123.509 511.229L122.796 509.118C122.525 508.433 122.183 507.777 121.869 507.107L120.927 505.096C120.599 504.44 120.343 503.726 119.915 503.127L117.59 499.362C115.821 497.009 114.081 494.612 111.928 492.587C107.763 488.408 102.871 484.914 97.5363 482.218C92.1591 479.579 86.4111 477.654 80.4919 476.341C74.5728 475.029 68.4968 474.33 62.4065 474.245C56.3162 474.145 50.1973 474.573 44.2069 475.586C38.2307 476.613 32.3115 478.196 27.0057 480.72C24.4384 482.018 21.8283 483.502 20.1595 485.398C18.3196 487.41 16.822 489.948 15.6239 492.573C14.4115 495.211 13.5842 498.05 13.028 500.945C12.6999 502.386 12.5716 503.855 12.3861 505.324C12.3148 506.793 12.1722 508.276 12.2436 509.745C12.2721 515.65 13.627 521.541 16.0518 526.875C18.5906 532.167 22.1705 536.988 26.7917 540.668C31.3702 544.405 36.7331 547.186 42.4383 549.069C48.1578 550.966 54.1767 551.978 60.267 552.449C60.5523 552.463 60.8518 552.477 61.1513 552.492C60.0103 549.34 58.912 546.173 57.8708 542.921C57.2575 540.996 58.3272 538.928 60.2527 538.314C62.1783 537.701 64.2464 538.771 64.8597 540.696L64.8882 540.767C66.1576 544.747 67.5268 548.726 68.9674 552.677C78.3382 552.591 87.7946 551.422 96.8088 549.154L99.0338 548.598L101.216 547.899L105.581 546.487L109.845 544.775L111.97 543.92L114.039 542.921L118.175 540.91L122.183 538.642C123.538 537.915 124.821 537.073 126.105 536.232C126.433 536.018 126.775 535.804 127.103 535.59V535.576C127.146 534.834 127.103 534.078 127.089 533.322ZM216.775 157.392C213.166 152.201 209.23 147.251 204.965 142.602C196.436 133.345 186.509 125.286 175.227 119.938C163.987 114.561 151.393 112.136 139.013 113.348C126.604 114.418 114.609 118.825 103.612 124.873C92.5727 130.92 82.4887 138.708 73.0752 147.166C68.4112 151.459 63.8327 155.852 59.4968 160.502C57.2717 162.77 55.2036 165.194 53.0784 167.548C50.9818 169.944 48.7995 172.254 46.7742 174.708C38.5872 184.435 30.9708 194.633 24.2672 205.373C17.6064 216.127 12.0866 227.595 8.49237 239.604C4.96941 251.599 3.82832 264.322 6.28156 276.417C7.60801 282.436 9.9044 288.184 12.9424 293.533C16.0803 298.838 20.1452 303.531 24.6808 307.724C33.8947 315.997 45.3337 321.716 57.3146 325.168L61.8502 326.38C63.3763 326.737 64.9168 327.008 66.4429 327.336L68.7393 327.792L71.0641 328.106C72.6188 328.306 74.1591 328.577 75.7281 328.705C81.961 329.319 88.251 329.376 94.4982 329.005C100.731 328.463 106.936 327.578 113.012 326.052C119.073 324.469 125.035 322.487 130.798 319.976C136.546 317.437 142.122 314.499 147.499 311.219C152.848 307.881 157.997 304.216 162.946 300.293C172.831 292.406 181.845 283.42 190.089 273.793C194.225 268.986 198.162 263.994 201.884 258.859C204.979 254.595 207.96 250.173 210.67 245.695C209.016 246.008 207.404 246.436 205.75 246.893C195.965 249.617 183.813 252.997 147 234.883C144.889 234.726 133.607 233.1 130.512 217.012C127.874 203.291 124.451 201.993 124.108 201.893L120.913 202.349L123.01 199.753C125.691 196.444 134.734 185.676 138.913 185.676C139.883 185.676 141.224 185.219 142.778 184.692C146.544 183.408 151.664 181.682 157.769 184.292C161.52 183.265 169.008 184.264 173.772 194.861C175.07 197.742 175.954 199.811 176.525 201.308C181.688 197.799 194.938 188.657 199.474 184.107C204.423 179.158 219.941 173.952 225.703 172.14C223.108 167.105 220.041 162.128 216.775 157.392ZM409.496 120.038C409.596 118.825 410.281 110.966 410.723 101.111C407.614 105.489 402.108 111.993 395.875 113.619C392.894 114.389 390.056 113.976 387.446 112.393C382.967 109.654 379.986 106.046 377.119 102.565C372.284 96.6891 368.105 91.6115 357.665 91.2264C340.735 90.613 327.199 106.302 326.643 110.168C326.158 113.519 323.12 117.813 319.34 118.84C317.472 119.353 315.632 119.011 313.991 117.87C313.35 123.775 312.722 139.064 321.494 149.362C327.698 156.651 337.497 160.159 350.547 159.803C394.292 158.576 408.541 122.591 409.496 120.038ZM319.782 66.9793C319.212 68.1774 318.413 70.5165 317.614 74.1963C317.215 76.0648 316.987 78.2898 316.901 80.5434C318.042 78.0331 319.369 75.7795 320.538 73.9824C320.353 70.0315 320.039 68.0062 319.782 66.9793ZM317.101 88.1313C317.186 89.0156 317.286 89.8 317.4 90.4561C318.399 87.7462 319.483 83.1678 320.167 79.9158C318.898 82.3976 317.728 85.2359 317.101 88.1313ZM410.138 66.1235C407.3 45.5705 399.626 24.4898 364.169 23.8907C363.926 23.8907 363.669 23.8907 363.427 23.8907C348.579 23.8907 337.796 31.5785 331.364 46.7401C326.4 58.4357 326.029 70.4024 326.015 70.5165L326.001 70.9729L325.716 71.3295C325.673 71.3723 324.603 72.6845 323.22 74.7668C323.248 75.6369 323.291 76.5497 323.305 77.5767V77.7193L323.277 77.8619C323.034 79.1313 320.823 90.3991 318.869 93.5655C318.399 94.3357 317.785 94.6067 317.243 94.6067C317.087 94.6067 316.944 94.5639 316.801 94.5211C316.944 95.4339 317.158 96.3468 317.5 97.2168C321.266 106.887 317.015 112.963 314.89 115.231C316.06 116.315 317.329 116.686 318.655 116.329C321.266 115.616 323.705 112.25 324.047 109.825C324.817 104.434 339.864 87.9601 357.765 88.6305C369.389 89.0584 374.352 95.0916 379.159 100.925C381.898 104.248 384.722 107.672 388.829 110.182C390.826 111.408 392.923 111.708 395.219 111.109C402.864 109.126 409.796 97.93 410.937 96.033C411.265 85.7208 411.265 74.2676 410.138 66.1235ZM383.495 783.139C388.701 788.701 394.592 790.769 401.067 789.257C414.218 786.932 422.704 781.798 426.27 774.039C431.49 762.671 424.629 748.836 423.118 746.026C414.688 744.557 398.771 742.033 394.962 742.375C393.622 742.489 390.855 743.573 387.917 744.728C381.484 747.253 374.196 750.105 370.145 748.194C370.045 748.151 369.974 748.08 369.874 748.037C370.074 755.497 374.238 773.226 383.495 783.139ZM189.062 752.83C188.163 754.299 181.602 765.624 185.696 773.069C188.263 777.747 194.624 780.115 204.594 780.115C222.223 780.115 230.553 775.75 234.447 772.099C238.54 768.248 238.64 764.483 238.64 764.326V763.27L239.681 763.042C249.694 760.888 255 755.369 257.496 751.774C255.285 752.544 252.817 753.072 250.036 753.272L249.508 753.315L249.109 752.987C240.081 745.584 215.677 726.857 206.092 724.603C205.236 738.467 190.873 751.261 189.062 752.83ZM205.136 405.44C206.334 408.079 207.618 415.681 199.103 434.637C192.057 450.34 192.514 463.319 192.913 474.758C193.113 480.335 193.284 485.598 192.542 490.533C191.358 498.335 193.155 512.199 194.738 524.436C196.151 535.348 197.263 543.977 196.279 547.385C194.496 553.533 196.079 569.008 196.293 571.091C198.048 574.585 205.179 589.461 202.127 594.396C199.688 598.347 199.089 605.607 199.003 606.905C199.673 609.387 205.208 630.425 204.994 646.841C204.78 663.429 216.076 685.565 216.176 685.794L216.718 686.849L215.719 687.491C207.062 693.082 205.864 696.02 205.921 697.29C205.992 698.687 207.832 699.643 209.173 700.342C210.328 700.941 212.082 701.854 211.298 703.423C210.742 704.549 208.131 714.862 206.406 721.979C218.044 724.589 246.399 747.396 250.336 750.605C272.757 748.594 273.156 723.462 273.171 722.392V721.223L277.878 720.709C280.873 716.145 282 699.8 282.171 693.681L282.185 693.538C288.104 649.722 279.518 643.09 279.475 643.047L278.79 642.634L278.847 641.835C278.876 641.478 281.429 606.648 276.266 593.74C273.199 586.052 272.472 581.602 273.855 578.864C274.996 576.625 277.293 575.854 279.375 575.312C284.068 574.086 290.101 569.022 288.404 539.313C287.605 525.492 291.042 511.043 299.144 510.173C303.423 509.731 308.743 513.839 310.782 526.818C314.533 550.58 310.297 571.804 307.416 574.97C307.031 577.224 310.868 589.889 314.904 601.128C317.001 604.423 331.934 628.285 330.123 636.886C329.167 641.407 330.437 650.664 331.777 660.491C332.861 668.364 334.074 677.279 334.373 685.252C335.001 702.31 354.855 714.063 355.055 714.177L356.424 714.976L355.383 716.174C352.33 719.697 354.242 728.069 355.44 731.663C357.95 732.733 367.777 737.312 370.088 744.472C370.302 745.128 370.673 745.57 371.272 745.841C374.31 747.267 381.627 744.4 386.961 742.304C390.341 740.977 393.008 739.922 394.734 739.779C398.928 739.408 414.717 741.961 421.306 743.074C421.249 742.86 421.221 742.632 421.192 742.389C420.95 740.022 422.233 737.397 425.043 734.602C429.935 729.709 428.566 722.178 428.01 719.925C427.525 719.711 427.026 719.34 426.626 718.755C425.015 716.402 425.614 711.824 428.438 704.749C429.251 702.738 429.251 701.055 428.48 699.614C426.355 695.678 418.696 694.166 414.574 693.339C411.465 692.725 410.309 692.497 410.224 691.171C410.138 689.973 411.379 689.545 411.793 689.402C414.988 688.318 419.623 675.638 421.948 666.838C421.534 663.586 417.412 630.368 417.412 612.197C417.412 593.755 403.406 576.724 403.264 576.553L402.85 576.068L402.978 575.441C409.097 546.373 400.882 542.308 400.839 542.279L399.755 541.866L400.04 540.739C404.847 521.313 402.636 512.741 401.024 506.465C399.926 502.186 399.056 498.806 400.996 494.042C403.292 488.408 402.308 485.47 401.267 482.346C400.354 479.608 399.398 476.769 400.454 472.348C402.351 464.361 400.81 408.778 400.482 397.496C392.181 401.204 386.176 400.89 384.493 400.691C380.457 402.759 345.413 420.06 303.993 420.06C291.199 420.06 271.445 415.667 249.993 394.771C238.212 383.29 230.967 371.637 229.854 369.825C228.642 368.941 223.379 364.819 221.667 359.356C217.074 366.245 209.757 379.239 211.84 385.943C214.664 395 207.618 402.987 205.136 405.44ZM255.185 215.814L258.951 212.305L257.325 217.197C255.499 222.66 257.367 236.538 257.382 236.666L257.467 237.322L256.982 237.779C256.654 238.092 224.491 269.343 228.242 296.2C231.081 316.496 227.401 335.252 225.219 346.477C224.391 350.727 223.735 354.079 223.735 355.948C223.735 362.28 231.509 367.757 231.58 367.814L231.822 367.986L231.965 368.242C232.036 368.371 239.339 380.737 251.862 392.931C263.344 404.114 281.7 417.435 303.979 417.435C347.139 417.435 383.267 398.366 383.623 398.166L384.023 397.952L384.465 398.023C384.522 398.038 391.34 399.15 401.124 394.258C410.552 389.537 409.482 374.974 409.468 374.832L409.368 373.591L410.609 373.42C425.642 371.409 431.704 318.022 432.774 297.626L432.788 297.284L432.973 296.999C445.953 276.503 480.155 207.513 482.637 193.25C485.29 178.031 482.052 164.852 469.815 140.99C460.173 122.177 440.362 124.759 430.848 125.985C427.168 126.47 425.642 126.67 424.744 125.771C423.774 124.801 417.384 123.033 411.607 121.82C408.94 128.253 393.222 161.229 350.619 162.399C349.977 162.413 349.349 162.427 348.722 162.427C335.757 162.427 325.915 158.59 319.483 151.017C309.171 138.893 310.825 121.15 311.524 116.187C296.89 113.962 263.5 124.117 257.31 142.088C251.605 158.619 235.017 170.044 230.196 173.082C230.096 173.695 229.726 174.237 229.127 174.536C228.485 174.85 227.757 174.779 227.201 174.422C222.309 175.949 206.035 181.269 201.328 185.961C196.35 190.939 181.973 200.78 177.323 203.933C177.523 205.074 177.181 205.387 176.639 205.701C175.412 206.414 174.414 205.031 174.086 204.574L173.301 203.476L174.271 202.834C173.829 201.636 172.987 199.54 171.376 195.945C166.155 184.335 158.439 186.831 158.125 186.931L157.626 187.116L157.141 186.888C151.778 184.421 147.257 185.947 143.62 187.188C141.851 187.787 140.325 188.315 138.913 188.315C137.059 188.315 131.126 194.148 126.205 200.01C128.216 201.451 130.969 205.516 133.08 216.527C136.061 232.016 146.872 232.287 147.328 232.287H147.628L147.899 232.416C183.984 250.216 195.651 246.978 205.022 244.368C207.475 243.684 209.829 243.056 212.425 242.785C213.009 241.986 214.093 241.715 214.978 242.214C215.106 242.286 215.234 242.386 215.334 242.485C228.813 240.26 254.914 216.07 255.185 215.814Z" fill="url(#paint6_linear)"/>
<path d="M143.163 260.343L143.221 260.3C144.062 259.616 145.289 259.744 145.973 260.571C146.672 261.413 146.544 262.654 145.717 263.338C141.552 266.79 137.244 269.842 132.752 272.723C128.259 275.576 123.609 278.2 118.76 280.468C113.91 282.722 108.847 284.633 103.569 285.917C98.3064 287.186 92.7724 287.828 87.2098 287.257C81.6615 286.715 76.1417 284.804 71.4919 281.581C66.8279 278.371 63.1196 274.021 60.267 269.343C54.5903 259.872 51.8232 249.261 50.0689 238.763V238.735C49.8549 237.308 50.8249 235.982 52.2369 235.768C53.6632 235.554 54.9897 236.524 55.2036 237.936V237.95C56.7725 248.077 59.3684 258.189 64.446 266.804C66.9848 271.083 70.2225 274.891 74.1877 277.687C78.1528 280.482 82.8167 282.165 87.6947 282.707C92.5869 283.264 97.6218 282.75 102.543 281.623C107.478 280.482 112.298 278.728 116.962 276.617C121.641 274.492 126.162 272.01 130.555 269.286C134.919 266.533 139.227 263.538 143.163 260.343Z" fill="url(#paint7_linear)"/>
<path d="M486.274 18.2283L486.146 18.2711C481.025 20.2679 475.948 22.5214 471.098 25.2884C466.263 28.0555 461.499 31.0364 456.978 34.3882C452.442 37.7115 448.035 41.2487 443.813 44.9999C439.606 48.7511 435.484 52.7162 431.747 56.8239L431.704 56.881C431.005 57.6512 429.807 57.7368 428.994 57.0664C428.152 56.3675 428.038 55.1266 428.737 54.2994C432.488 49.778 436.439 45.5989 440.59 41.534C444.74 37.4833 449.09 33.6323 453.612 29.981C458.119 26.3011 462.926 22.9493 467.875 19.8115C472.824 16.6736 478.116 13.9922 483.55 11.596C483.593 11.5817 483.65 11.5532 483.707 11.5389C485.547 10.8258 487.629 11.7386 488.342 13.5785C489.041 15.4327 488.128 17.5151 486.274 18.2283Z" fill="url(#paint8_linear)"/>
<path d="M490.524 75.5088L441.959 74.7671C440.903 74.7529 440.033 73.8971 440.019 72.8274C440.005 71.7434 440.875 70.8448 441.959 70.8305L490.524 70.0889C490.553 70.0889 490.582 70.0889 490.61 70.0889C492.108 70.1174 493.306 71.344 493.277 72.8416C493.263 74.325 492.022 75.5231 490.524 75.5088Z" fill="url(#paint9_linear)"/>
<path d="M480.441 127.212L479.243 127.07L478.044 126.841C474.864 126.185 471.655 125.743 468.545 124.773C466.991 124.331 465.407 123.96 463.867 123.447L459.274 121.792C453.227 119.41 447.407 116.387 442.173 112.507C440.889 111.509 439.549 110.567 438.365 109.455L436.525 107.843L434.799 106.103C434.214 105.533 433.658 104.934 433.13 104.306C432.588 103.693 432.032 103.094 431.547 102.423C431.048 101.767 430.52 101.14 430.064 100.441C429.579 99.7561 429.151 99.1 428.666 98.2584C428.167 97.3741 428.423 96.2188 429.293 95.6483C430.206 95.0493 431.419 95.2917 432.018 96.2046L432.103 96.333C432.816 97.4169 433.801 98.6435 434.77 99.7275C435.241 100.298 435.783 100.812 436.311 101.354C436.824 101.896 437.352 102.423 437.923 102.908L439.591 104.406L441.36 105.789C442.515 106.745 443.799 107.544 445.026 108.399C450.06 111.694 455.594 114.162 461.314 116.059L465.65 117.342C467.105 117.727 468.602 117.984 470.071 118.326C472.995 119.068 476.033 119.296 479.014 119.739L480.141 119.895L481.282 119.967L483.55 120.095L488.086 120.366L497.185 120.252H497.485C497.556 120.252 497.627 120.252 497.713 120.252C499.995 120.352 501.764 122.292 501.664 124.559C501.564 126.841 499.639 128.61 497.356 128.51L487.686 128.082L482.865 127.526L480.441 127.212Z" fill="url(#paint10_linear)"/>
<path d="M310.24 52.4595C309.185 52.702 308.129 52.0316 307.887 50.9619L307.873 50.9191C306.96 46.8684 305.819 42.7607 304.564 38.7528C303.294 34.7306 301.911 30.7655 300.328 26.886C298.716 23.0207 296.99 19.2268 294.979 15.6325C292.939 12.0668 290.686 8.65788 288.09 5.67691L288.033 5.60562C288.004 5.56283 287.962 5.52002 287.933 5.47723C286.82 4.0652 287.077 2.01134 288.489 0.898823C289.901 -0.213691 291.955 0.0430424 293.068 1.45508C298.73 8.70068 302.31 16.8306 305.22 25.0176C306.66 29.1253 307.887 33.2901 308.971 37.4691C310.055 41.6767 310.996 45.8415 311.738 50.1775C311.923 51.2187 311.267 52.2171 310.24 52.4595Z" fill="url(#paint11_linear)"/>
<path d="M300.998 65.9665C300.77 67.0362 299.728 67.7209 298.659 67.4927L272.158 61.9016C272.058 61.8873 271.958 61.8588 271.873 61.8302C270.175 61.3025 269.22 59.5054 269.748 57.8081C270.275 56.1108 272.072 55.1552 273.77 55.6829L299.643 63.6987C300.613 63.9697 301.212 64.9538 300.998 65.9665Z" fill="url(#paint12_linear)"/>
<path d="M279.589 104.306C283.155 102.894 286.507 100.826 289.559 98.3581C292.568 95.9049 295.421 92.9382 297.575 89.8573L297.66 89.7432C298.259 88.8875 299.443 88.645 300.327 89.2155C301.24 89.8003 301.511 91.0269 300.926 91.9398C298.502 95.7052 295.692 98.843 292.454 101.753C289.217 104.605 285.565 107.073 281.543 108.884C279.532 109.768 277.435 110.51 275.282 111.066C273.128 111.58 270.917 111.936 268.692 112.079C264.242 112.336 259.778 111.78 255.513 110.624C255.485 110.61 255.428 110.596 255.399 110.596C253.816 110.097 252.946 108.399 253.445 106.816C253.944 105.233 255.641 104.363 257.225 104.862H257.253C260.904 106.017 264.684 106.659 268.478 106.588C270.375 106.559 272.258 106.317 274.126 105.96C275.981 105.561 277.806 105.005 279.589 104.306Z" fill="url(#paint13_linear)"/>
<defs>
<linearGradient id="paint0_linear" x1="-233.601" y1="148.398" x2="322.748" y2="118.235" gradientUnits="userSpaceOnUse">
<stop stop-color="#E50058"/>
<stop offset="0.614583" stop-color="white"/>
</linearGradient>
<linearGradient id="paint1_linear" x1="-171.812" y1="91.4287" x2="342.861" y2="50.2836" gradientUnits="userSpaceOnUse">
<stop stop-color="#E50058"/>
<stop offset="0.614583" stop-color="white"/>
</linearGradient>
<linearGradient id="paint2_linear" x1="-51.6499" y1="88.8845" x2="319.334" y2="65.0015" gradientUnits="userSpaceOnUse">
<stop stop-color="#E50058"/>
<stop offset="0.614583" stop-color="white"/>
</linearGradient>
<linearGradient id="paint3_linear" x1="-24.1381" y1="300.51" x2="150.347" y2="299.136" gradientUnits="userSpaceOnUse">
<stop stop-color="#E50058"/>
<stop offset="0.614583" stop-color="white"/>
</linearGradient>
<linearGradient id="paint4_linear" x1="-35.1064" y1="307.898" x2="139.379" y2="306.524" gradientUnits="userSpaceOnUse">
<stop stop-color="#E50058"/>
<stop offset="0.614583" stop-color="white"/>
</linearGradient>
<linearGradient id="paint5_linear" x1="-2897.03" y1="870.426" x2="189.019" y2="805.532" gradientUnits="userSpaceOnUse">
<stop stop-color="#E50058"/>
<stop offset="0.614583" stop-color="white"/>
</linearGradient>
<linearGradient id="paint6_linear" x1="-9093.51" y1="4257.88" x2="-191.234" y2="4168.2" gradientUnits="userSpaceOnUse">
<stop stop-color="#E50058"/>
<stop offset="0.614583" stop-color="white"/>
</linearGradient>
<linearGradient id="paint7_linear" x1="-1753.77" y1="517.673" x2="10.6416" y2="464.599" gradientUnits="userSpaceOnUse">
<stop stop-color="#E50058"/>
<stop offset="0.614583" stop-color="white"/>
</linearGradient>
<linearGradient id="paint8_linear" x1="-700.141" y1="263.22" x2="404.142" y2="239.964" gradientUnits="userSpaceOnUse">
<stop stop-color="#E50058"/>
<stop offset="0.614583" stop-color="white"/>
</linearGradient>
<linearGradient id="paint9_linear" x1="-556.679" y1="99.6297" x2="395.18" y2="-51.3636" gradientUnits="userSpaceOnUse">
<stop stop-color="#E50058"/>
<stop offset="0.614583" stop-color="white"/>
</linearGradient>
<linearGradient id="paint10_linear" x1="-942.496" y1="276.236" x2="397.983" y2="228.479" gradientUnits="userSpaceOnUse">
<stop stop-color="#E50058"/>
<stop offset="0.614583" stop-color="white"/>
</linearGradient>
<linearGradient id="paint11_linear" x1="-171.808" y1="285.273" x2="277.594" y2="281.87" gradientUnits="userSpaceOnUse">
<stop stop-color="#E50058"/>
<stop offset="0.614583" stop-color="white"/>
</linearGradient>
<linearGradient id="paint12_linear" x1="-318.752" y1="120.935" x2="256.244" y2="96.6136" gradientUnits="userSpaceOnUse">
<stop stop-color="#E50058"/>
<stop offset="0.614583" stop-color="white"/>
</linearGradient>
<linearGradient id="paint13_linear" x1="-643.692" y1="215.542" x2="233.534" y2="186.328" gradientUnits="userSpaceOnUse">
<stop stop-color="#E50058"/>
<stop offset="0.614583" stop-color="white"/>
</linearGradient>
</defs>
</svg>
