<svg width="691" height="450" viewBox="0 0 691 450" fill="none" xmlns="http://www.w3.org/2000/svg">
<path d="M0.197876 593.01C0.598225 590.408 1.47387 587.968 2.56232 585.665C7.12879 576.769 12.3711 568.385 18.4639 560.527C24.5317 552.681 31.4251 545.461 39.0067 539.055C46.6258 532.686 54.9582 527.193 63.7784 522.625C68.2072 520.398 72.736 518.358 77.3776 516.582C82.0191 514.842 86.7483 513.328 91.5525 512.077C96.3567 510.826 101.223 509.837 106.14 509.149C110.356 508.573 114.56 508.161 118.851 508.098C120.653 490.918 124.444 476.878 125.119 474.451C123.205 468.682 121.579 443.932 124.281 428.616C127.046 412.938 128.122 349.772 121.691 342.828C121.304 342.402 121.053 342.427 120.978 342.44C118.539 342.678 116.512 342.027 114.923 340.5C111.019 336.722 111.482 328.863 111.507 328.463L111.607 324.134L113.309 327.424C113.497 327.437 113.734 327.449 114.01 327.475C115.148 326.311 118.126 321.13 121.554 298.282C125.019 275.171 133.239 264.985 138.156 258.904C141.146 255.2 142.434 253.473 141.671 251.446C141.221 250.233 139.82 248.856 137.83 247.405C137.805 247.392 137.78 247.38 137.755 247.367C137.705 247.342 137.668 247.292 137.618 247.254C130.424 242.112 115.911 236.206 109.543 233.891L109.255 233.791L109.055 233.565C91.4024 212.894 71.2721 191.359 68.2195 191.097C64.9416 191.747 61.076 190.008 56.5846 187.981C54.1575 186.892 51.4051 185.654 48.4901 184.678C37.9809 181.174 37.6805 154.684 37.6805 151.669C37.6805 148.378 38.0058 145.875 39.6198 144.361C41.8467 142.271 45.8625 142.522 53.857 143.022C54.8829 143.085 55.9715 143.16 57.135 143.222C65.9427 143.735 69.6332 148.853 73.5366 154.271C76.9146 158.939 80.7304 164.244 88.5497 167.948C102.8 174.692 124.018 188.344 131.024 192.924C125.069 159.301 161.075 133.95 181.493 125.079C190.013 121.375 195.693 118.334 200.26 115.894C206.89 112.353 210.544 110.401 215.686 110.401C217.712 110.401 219.852 108.374 221.391 104.983C223.43 100.491 223.805 94.9102 222.179 93.0458C221.828 92.6328 221.178 92.1448 219.664 92.5953C212.533 94.735 210.969 91.5192 209.718 88.9415C209.167 87.8029 208.642 86.7393 207.704 86.026C204.238 83.4234 196.406 65.3172 196.632 57.0587C196.694 54.7063 197.369 53.0796 198.646 52.2413C203.65 48.9128 211.807 34.6482 211.807 27.666C211.807 22.1853 216.073 13.7516 220.94 9.63491C223.054 7.84557 225.044 7.0823 226.833 7.38261C231.137 8.09584 254.119 2.37744 262.626 0.112611L263.027 0L263.402 0.17518C264.616 0.738259 293.116 14.102 301.398 25.1509C309.68 36.1998 309.092 38.5397 306.978 42.769C305.414 45.8972 306.102 61.726 307.078 67.5946C307.828 72.1242 307.39 84.7622 307.178 89.6298C311.619 88.5036 320.677 90.8685 334.652 96.8121C360.211 107.673 378.29 141.095 387.998 159.051C390.738 164.119 393.565 169.362 394.829 170.538C398.257 167.16 400.034 166.221 400.234 166.121L400.547 165.971L400.884 166.008C465.428 173.679 475.249 165.645 481.742 160.315C484.282 158.238 486.521 156.411 491.075 156.036C494.091 151.931 497.143 147.852 500.258 143.823C500.996 142.86 501.76 141.921 502.51 140.958C502.385 133.262 502.736 125.554 503.424 117.921C504.675 104.145 506.614 90.1928 511.693 77.0543C512.982 73.7759 514.521 70.5977 516.347 67.5445C518.174 64.5039 520.351 61.6134 522.978 59.1359C525.605 56.6583 528.721 54.6187 532.174 53.3424C533.888 52.6667 535.689 52.3038 537.503 52.016C539.33 51.8284 541.156 51.7408 542.971 51.9159C550.277 52.504 556.945 55.7073 562.738 59.699C566.153 62.0514 569.294 64.7166 572.234 67.5821C575.211 65.2046 578.289 62.9398 581.654 61.0253C582.505 60.5248 583.418 60.0994 584.307 59.6364C585.22 59.2235 586.158 58.8356 587.109 58.4977C589.036 57.8596 591.15 57.4216 593.364 57.7594C593.915 57.8846 594.478 57.9221 594.991 58.1974C595.516 58.4352 596.054 58.6228 596.505 58.9982C596.968 59.3361 597.443 59.6614 597.781 60.0994C598.156 60.5123 598.544 60.9252 598.794 61.4007C599.958 63.2401 600.558 65.2797 600.871 67.2692C601.559 71.2734 601.384 75.2274 601.096 79.144C600.884 81.5965 600.571 84.0365 600.208 86.464C602.46 85.5881 604.724 84.7622 607.039 84.0115C610.392 82.9228 613.832 82.072 617.335 81.4213C619.087 81.096 620.876 80.8707 622.665 80.6956L627.957 80.4328C635.013 80.2951 642.019 80.8833 648.938 81.8342C655.856 82.8102 662.712 84.1741 669.468 85.8383C676.249 87.5151 682.905 89.417 689.561 91.7319C690.687 92.1198 691.275 93.3586 690.874 94.4722C690.486 95.5984 689.248 96.1865 688.135 95.7861L688.084 95.7736C681.704 93.5338 675.073 91.6068 668.442 89.9551C661.799 88.3034 655.093 86.9395 648.337 85.9635C641.594 85 634.788 84.4244 628.032 84.537L622.978 84.7747C621.326 84.9374 619.687 85.1251 618.036 85.4254C614.746 86.026 611.468 86.8269 608.24 87.8654C605.262 88.8164 602.322 89.8925 599.42 91.0813C598.569 95.6234 597.556 100.128 596.455 104.608C597.218 106.535 597.943 108.474 598.606 110.451C600.783 117.121 602.335 124.028 602.848 131.085C603.11 134.601 603.123 138.155 602.81 141.696C602.498 145.25 601.884 148.691 601.084 152.144C597.881 165.871 591.113 178.809 581.316 189.02C576.425 194.125 570.795 198.567 564.439 201.833C561.262 203.472 557.896 204.773 554.38 205.624C550.865 206.437 547.162 206.825 543.459 206.3C540.556 205.912 537.653 204.923 535.114 203.334C530.297 202.108 525.706 199.943 521.777 196.878C516.21 192.36 512.019 186.342 509.316 179.848C506.539 173.353 504.875 166.484 503.849 159.577C503.173 154.597 502.773 149.591 502.585 144.574C502.41 144.799 502.235 145.012 502.073 145.224C499.22 148.903 496.43 152.62 493.665 156.373C493.84 156.574 493.953 156.824 493.953 157.112C493.953 157.75 493.44 158.263 492.802 158.263C492.614 158.263 492.452 158.275 492.276 158.275C486.371 166.359 480.641 174.567 475.199 182.976C466.779 195.914 458.785 209.203 451.766 222.879L451.741 222.917C451.453 223.48 450.753 223.705 450.19 223.417C449.627 223.13 449.402 222.429 449.689 221.866C453.142 215.134 456.821 208.527 460.649 202.033C422.991 222.166 388.036 215.597 384.37 214.834C373.836 217.924 361.613 213.632 358.285 212.319C339.068 239.296 370.458 306.591 370.783 307.279L370.896 307.517L369.77 371.883C385.596 360.834 401.698 350.286 418.174 340.263C426.607 335.145 435.139 330.19 443.847 325.51C452.554 320.843 461.412 316.413 470.608 312.659C475.212 310.795 479.916 309.106 484.807 307.854C487.247 307.241 489.737 306.728 492.314 306.478C494.879 306.24 497.556 306.203 500.258 306.928C501.61 307.304 502.961 307.892 504.149 308.805C505.35 309.706 506.326 310.933 506.952 312.259C508.203 314.949 508.29 317.777 508.065 320.38C507.84 323.007 507.252 325.51 506.526 327.938C505.813 330.365 504.938 332.73 503.974 335.045C500.133 344.292 495.216 352.913 490.087 361.359C484.92 369.793 479.44 378.002 473.798 386.097C468.155 394.168 462.388 402.201 456.182 409.922C449.977 417.617 443.471 425.075 436.666 432.232C423.079 446.585 408.416 459.873 393.09 472.299C389.65 475.076 386.184 477.792 382.681 480.482C382.819 484.349 382.769 487.402 382.731 488.553C391.789 498.939 393.465 533.361 394.942 563.768C395.842 582.299 396.693 599.805 399.095 609.039C403.662 626.67 404.062 649.544 394.629 660.88C390.688 665.61 385.408 668 378.915 668C378.265 668 377.602 667.975 376.926 667.925C371.058 667.512 366.617 665.61 363.739 662.282C358.472 656.188 359.173 646.641 359.799 638.207C360.149 633.389 360.487 628.835 359.511 626.132C355.783 615.871 330.273 576.08 326.957 572.765C324.18 569.987 312.257 545.023 305.576 530.771C301.798 532.873 298.007 534.951 294.191 536.99C289.537 539.48 284.846 541.908 280.142 544.298C281.243 545.524 282.319 546.775 283.344 548.052C286.66 552.193 289.625 556.635 292.202 561.315C293.466 563.668 294.654 566.07 295.718 568.548C296.243 569.786 296.756 571.038 297.219 572.327C297.457 572.965 297.682 573.615 297.895 574.279C298.12 574.967 298.307 575.567 298.52 576.418C298.545 576.506 298.558 576.593 298.583 576.681C299.071 579.159 297.457 581.561 294.98 582.049C292.502 582.537 290.1 580.923 289.612 578.445L289.6 578.395C289.525 578.007 289.375 577.382 289.225 576.844C289.075 576.281 288.912 575.717 288.749 575.154C288.411 574.028 288.024 572.89 287.623 571.763C286.798 569.511 285.859 567.284 284.821 565.094C282.731 560.727 280.242 556.51 277.414 552.544C276.201 550.829 274.9 549.178 273.548 547.564C245.149 561.641 215.898 574.016 186.022 584.577C184.996 584.94 183.971 585.29 182.932 585.653C178.428 596.038 174.75 603.684 174.062 605.123C173.299 609.39 162.189 667.925 133.326 667.925C133.101 667.925 132.876 667.925 132.651 667.912C126.545 667.725 122.304 665.76 120.04 662.069C114.435 652.96 122.592 635.454 127.459 624.993C129.073 621.527 130.474 618.537 130.637 617.373C131.124 613.932 129.923 607.288 128.772 602.145C109.918 607 90.8393 611.029 71.485 613.481C61.689 614.695 51.8179 615.534 41.8968 615.508C36.9425 615.508 31.963 615.258 27.0212 614.658C22.0794 614.007 17.1126 613.056 12.3835 611.129C10.0314 610.165 7.72928 608.939 5.69 607.275C4.6516 606.474 3.73838 605.473 2.90015 604.447C2.12447 603.359 1.39906 602.195 0.936157 600.919C-0.0647144 598.391 -0.177451 595.6 0.197876 593.01ZM561.036 62.139C555.532 58.3225 549.276 55.357 542.733 54.8189C536.19 54.1307 529.697 56.6708 524.93 61.213C520.113 65.7552 516.823 71.8239 514.283 78.0804C511.781 84.3869 510.092 91.0437 508.791 97.7506C508.153 101.117 507.627 104.508 507.189 107.899C506.764 111.302 506.439 114.731 506.063 118.147C505.45 124.628 505.088 131.147 505.063 137.654C522.703 115.381 542.145 94.5348 563.188 75.4276C565.353 73.4131 567.567 71.3985 569.856 69.484C567.117 66.8063 564.177 64.3162 561.036 62.139ZM598.807 78.9312C599.094 75.1398 599.245 71.2859 598.606 67.6446C598.331 65.8177 597.768 64.0659 596.868 62.6395C595.967 61.213 594.628 60.2495 593.002 60.0243C591.375 59.7865 589.586 60.0994 587.86 60.675C586.996 60.9878 586.146 61.3381 585.295 61.7135C584.469 62.1515 583.618 62.5269 582.805 63.0149C579.677 64.7792 576.738 66.9439 573.885 69.2087C575.386 70.7478 576.825 72.3369 578.214 73.9636C582.668 79.2315 586.596 84.9249 589.974 90.9186C592.526 89.6673 595.116 88.4911 597.756 87.4025C598.194 84.5996 598.569 81.7717 598.807 78.9312ZM596.868 92.1574C595.179 92.8831 593.502 93.6589 591.838 94.4597C592.952 96.5994 594.003 98.7767 594.966 100.991C595.667 98.0634 596.292 95.1104 596.868 92.1574ZM535.426 199.155C536.853 200.344 538.492 201.232 540.256 201.858C540.731 201.92 541.219 201.983 541.694 202.02C547.837 202.546 554.093 201.745 560.035 200.006C560.448 199.831 560.849 199.655 561.249 199.468C567.054 185.428 572.521 171.214 577.676 156.911C582.893 142.359 587.797 127.694 591.926 112.816C592.539 110.601 593.114 108.387 593.69 106.172C592.326 102.656 590.75 99.2021 589.023 95.8487C583.106 98.8893 577.388 102.368 571.958 106.197C560.849 114.055 550.79 123.515 542.958 134.589C535.164 145.65 529.797 158.476 528.408 171.902C527.995 175.255 527.87 178.609 528.095 181.925C528.345 185.216 528.896 188.507 530.084 191.485C531.235 194.5 533.049 197.165 535.426 199.155ZM578.864 186.63C588.235 176.92 594.778 164.532 597.881 151.368C598.657 148.09 599.257 144.711 599.557 141.383C599.858 138.042 599.858 134.664 599.62 131.298C599.157 124.553 597.681 117.884 595.591 111.427C595.429 110.939 595.241 110.464 595.078 109.988C594.778 111.139 594.465 112.291 594.153 113.429C589.999 128.395 585.082 143.11 579.853 157.7C574.986 171.201 569.831 184.602 564.389 197.891C569.731 194.926 574.598 191.059 578.864 186.63ZM506.364 159.201C507.352 165.946 508.953 172.615 511.593 178.847C514.171 185.09 518.124 190.734 523.278 194.963C525.48 196.677 527.895 198.091 530.447 199.218C528.846 197.291 527.595 195.101 526.731 192.811C525.355 189.37 524.755 185.754 524.467 182.175C524.217 178.596 524.342 175.018 524.755 171.514C526.169 157.387 531.786 143.911 539.855 132.399C547.962 120.862 558.309 111.102 569.694 102.981C575.261 99.0394 581.091 95.4607 587.159 92.32C583.906 86.5266 580.128 81.0209 575.862 75.9407C574.461 74.289 573.009 72.6748 571.495 71.1232C569.181 73.0502 566.954 75.0773 564.74 77.1294C543.096 96.7871 523.141 118.309 505.1 141.345C505.2 147.327 505.575 153.295 506.364 159.201ZM133.827 195.138L134.527 198.004L132.075 196.365C131.8 196.177 104.601 178.083 87.5491 170.012C79.1918 166.058 75.1883 160.503 71.6478 155.598C67.7569 150.205 64.6915 145.95 56.9722 145.5C55.8087 145.437 54.7079 145.362 53.6945 145.3C46.6008 144.849 42.6849 144.611 41.1836 146.025C40.3203 146.839 39.9701 148.465 39.9701 151.644C39.9701 162.793 42.4345 180.198 49.2155 182.463C52.2431 183.476 55.0583 184.74 57.5229 185.854C61.6515 187.718 65.2171 189.32 67.7693 188.807C68.9828 188.557 71.2598 188.106 91.5275 210.241C100.548 220.102 109.205 230.174 110.619 231.814C113.884 233.015 130.236 239.171 138.806 245.302C138.819 245.302 138.831 245.302 138.831 245.315C153.669 253.161 161.251 252.009 162.339 251.784C194.868 229.812 186.735 157.988 186.648 157.262C186.573 156.636 187.023 156.061 187.661 155.986C188.299 155.91 188.862 156.361 188.937 156.999C189.088 158.275 190.626 171.852 189.763 188.769C204.338 170.538 210.656 154.196 208.492 140.169C206.653 128.257 198.996 121.813 196.932 120.261C193.141 122.238 188.437 124.566 182.419 127.181C158.736 137.454 126.27 164.044 133.827 195.138ZM356.784 210.442C363.039 179.335 303.787 104.783 303.187 104.032C302.786 103.532 302.874 102.806 303.362 102.418C303.862 102.018 304.588 102.105 304.988 102.593C307.453 105.671 364.653 177.658 359.173 210.179C362.376 211.418 374.236 215.522 383.97 212.531L384.27 212.444L384.57 212.519C384.945 212.606 422.841 221.253 462.976 198.091C466.304 192.573 469.732 187.118 473.235 181.712C478.314 173.879 483.631 166.209 489.124 158.651C486.634 159.251 485.083 160.515 483.156 162.092C476.375 167.648 466.116 176.044 400.947 168.336C400.334 168.724 398.682 169.875 396.043 172.515C395.717 172.84 395.317 173.003 394.879 173.003C394.792 173.003 394.717 173.003 394.629 172.991C392.815 172.728 390.976 169.474 385.921 160.127C376.35 142.422 358.522 109.463 333.701 98.9018C312.495 89.88 307.728 91.3816 306.677 92.295C306.665 92.3075 306.64 92.32 306.627 92.3325C306.602 92.3576 306.577 92.3826 306.552 92.4076C305.839 93.221 306.565 94.8977 306.878 95.4232C307.203 95.9738 307.028 96.6745 306.477 96.9998C305.927 97.3252 305.226 97.15 304.901 96.5994C304.15 95.3356 303.287 92.7705 304.763 90.9811C304.888 88.2659 305.564 72.7749 304.763 67.9324C303.975 63.2276 302.736 45.9598 304.863 41.6929C306.527 38.377 307.278 36.8629 299.509 26.4898C292.065 16.567 266.192 4.04166 262.764 2.40247C258.11 3.62873 231.762 10.5108 226.407 9.6099C225.344 9.43472 223.918 10.0479 222.391 11.3492C218.113 14.9654 214.084 22.8735 214.084 27.6284C214.084 35.5241 205.502 50.3768 199.897 54.1182C199.296 54.5186 198.959 55.5447 198.909 57.0838C198.683 65.3172 206.665 82.3473 209.067 84.1491C210.456 85.1877 211.157 86.6267 211.77 87.903C212.946 90.3305 213.734 91.9321 218.988 90.3555C220.99 89.7549 222.742 90.1553 223.905 91.4942C226.42 94.3721 225.669 101.079 223.48 105.896C221.528 110.201 218.676 112.666 215.673 112.666C214.71 112.666 213.796 112.754 212.896 112.916C218.801 122.051 223.08 129.846 226.858 136.741C239.519 159.84 244.248 168.486 278.453 165.07C300.672 162.843 307.778 156.962 309.818 152.419C312.145 147.264 308.654 142.321 308.629 142.284L308.541 142.171L293.016 103.744C292.778 103.156 293.065 102.48 293.653 102.243C294.241 102.005 294.917 102.293 295.155 102.881L310.581 141.058C311.194 141.971 314.597 147.402 311.932 153.345C308.604 160.778 297.419 165.495 278.678 167.372C273.874 167.848 269.62 168.098 265.829 168.098C241.395 168.098 235.928 158.113 224.831 137.867C220.978 130.835 216.611 122.876 210.531 113.529C207.916 114.38 205.139 115.869 201.323 117.909C200.648 118.272 199.909 118.672 199.134 119.073C202.186 121.563 208.905 128.194 210.719 139.744C213.108 155.047 206.027 172.79 189.663 192.498C189.613 192.561 189.55 192.586 189.488 192.636C188.825 201.783 187.411 211.655 184.709 220.977C186.535 222.141 188.65 223.13 190.726 223.968C193.116 224.919 195.593 225.62 198.095 226.22C203.125 227.359 208.304 227.809 213.459 227.672C218.626 227.522 223.768 226.808 228.835 225.745C233.876 224.556 238.818 223.042 243.585 221.027C248.352 219.013 252.931 216.535 257.597 214.058C262.264 211.58 267.093 209.14 272.21 207.313C274.75 206.337 277.377 205.649 280.004 204.948L283.995 204.123C285.321 203.822 286.672 203.722 288.011 203.522C290.688 203.084 293.391 203.009 296.081 202.796C298.77 202.659 301.46 202.721 304.15 202.684C304.163 202.684 304.188 202.684 304.2 202.684C305.551 202.684 306.64 203.785 306.627 205.124C306.627 206.475 305.526 207.564 304.188 207.551H304C301.423 207.539 298.833 207.426 296.256 207.501C293.691 207.651 291.101 207.664 288.562 208.039C287.298 208.214 285.997 208.277 284.746 208.527L280.98 209.228C278.503 209.841 276.013 210.429 273.599 211.292C263.878 214.496 254.97 220.352 244.949 224.331C239.944 226.32 234.752 227.809 229.51 228.923C224.231 229.912 218.888 230.55 213.509 230.587C208.129 230.625 202.737 230.037 197.495 228.748C192.791 227.522 188.224 225.908 184.008 223.255C180.054 235.718 173.649 246.954 163.428 253.786L163.127 253.924C163.015 253.961 161.976 254.262 159.949 254.262C156.859 254.262 151.467 253.561 143.61 250.157C143.685 250.308 143.761 250.458 143.811 250.595C145.062 253.949 142.91 256.614 139.932 260.305C135.165 266.211 127.196 276.084 123.818 298.57C121.066 316.914 118.526 324.446 116.674 327.612C130.562 328.663 176.264 332.918 188.199 344.054C201.323 356.304 262.126 348.396 262.739 348.309C263.365 348.233 263.953 348.671 264.028 349.297C264.115 349.923 263.665 350.511 263.039 350.586C261.638 350.774 242.884 353.214 223.968 353.214C208.479 353.214 192.878 351.574 186.61 345.731C174.8 334.707 125.507 330.553 114.685 329.777C114.422 329.902 114.21 329.965 114.035 330.002C113.947 330.027 113.859 330.04 113.784 330.052C113.834 332.317 114.26 336.621 116.524 338.811C117.613 339.862 118.989 340.288 120.741 340.113C121.404 340.05 122.404 340.188 123.368 341.226C131.212 349.685 128.71 416.679 126.545 428.979C123.793 444.57 125.682 469.671 127.396 473.938L127.546 474.313L127.434 474.701C127.359 474.964 123.105 489.679 121.141 508.06C121.729 508.123 122.179 508.611 122.179 509.199C122.167 509.837 121.654 510.35 121.016 510.338H120.953C120.941 510.338 120.928 510.338 120.916 510.338C119.627 524.064 119.715 539.518 123.781 552.431C132.838 581.273 130.124 592.535 129.36 594.775C129.536 595.438 129.936 596.939 130.411 598.879C147.639 594.337 164.666 589.044 181.493 583.188C191.677 559.513 205.552 523.088 199.209 513.291L198.733 512.553L199.321 511.889C199.584 511.602 225.394 482.897 223.642 466.28L223.605 465.917L223.78 465.604C230.036 454.13 239.506 434.322 238.268 430.005L238.13 429.517L242.496 422.535C239.406 419.019 238.693 414.289 239.231 410.009C239.807 405.355 241.771 401.15 244.01 397.234C246.425 393.43 249.14 389.839 252.155 386.548L254.432 384.095L255.57 382.869C255.958 382.469 256.371 382.106 256.771 381.718L261.613 377.138L262.001 376.775L262.664 376.675C270.008 375.649 277.489 373.81 284.758 371.708C292.052 369.58 299.246 367.065 306.339 364.287C309.843 362.811 313.408 361.435 316.861 359.808L322.066 357.443L327.195 354.915L329.76 353.651L332.287 352.313L337.329 349.61C340.669 347.77 343.947 345.806 347.25 343.904L347.3 343.879C347.838 343.566 348.539 343.754 348.864 344.292C349.189 344.842 349.014 345.543 348.464 345.868C345.161 347.833 341.895 349.885 338.555 351.8L333.513 354.615L330.986 356.016L328.421 357.343L323.279 359.983L318.062 362.473C314.609 364.175 311.031 365.626 307.503 367.19C300.384 370.131 293.128 372.809 285.759 375.099C278.553 377.301 271.359 379.24 263.765 380.479L259.324 384.421C258.923 384.784 258.51 385.134 258.123 385.497L256.984 386.648L254.72 388.938C251.704 392.016 249.04 395.357 246.638 398.873C244.436 402.464 242.521 406.306 241.896 410.372L241.671 411.886V413.4V414.164L241.783 414.915C241.871 415.403 241.896 415.916 242.034 416.404L242.446 417.843L243.047 419.206C243.297 419.619 243.522 420.057 243.798 420.445L244.436 419.419L245.011 421.972C245.086 422.122 245.124 422.297 245.124 422.46C246.15 426.889 258.385 478.492 271.797 485.199L272.11 485.349L272.285 485.65C272.447 485.925 288.674 513.666 302.749 519.823L303.149 519.998L303.337 520.398C304.288 522.463 305.314 524.652 306.365 526.917C332.074 512.415 356.908 496.348 380.304 478.38C379.904 470.522 378.69 460.399 375.225 455.944L374.937 455.569L374.987 455.106C375.024 454.781 378.44 422.735 367.143 412.312L366.767 411.961L368.594 307.979C366.117 302.749 336.403 237.632 356.784 210.442ZM391.126 469.859C406.339 457.483 420.889 444.27 434.339 430.018C441.082 422.91 447.512 415.515 453.655 407.882C459.773 400.249 465.491 392.279 471.096 384.22C476.7 376.162 482.143 367.991 487.235 359.633C492.302 351.274 497.143 342.715 500.834 333.768C502.636 329.314 504.237 324.684 504.65 320.104C504.862 317.84 504.7 315.562 503.849 313.76C503.011 311.971 501.384 310.807 499.32 310.257C497.268 309.706 494.929 309.694 492.614 309.919C490.287 310.144 487.948 310.62 485.621 311.208C480.967 312.397 476.388 314.048 471.884 315.875C462.863 319.566 454.106 323.958 445.486 328.601C436.866 333.255 428.383 338.198 420.001 343.291C403.249 353.514 386.81 364.312 370.758 375.587L370.733 375.599C370.408 375.824 370.032 375.924 369.67 375.924L369.057 410.986C380.129 421.897 377.702 450.764 377.289 454.906C380.679 459.661 381.993 468.958 382.493 476.653C385.396 474.426 388.273 472.161 391.126 469.859ZM328.609 571.138C332.587 575.117 358.185 615.684 361.7 625.356C362.851 628.522 362.514 633.102 362.126 638.395C361.538 646.378 360.875 655.425 365.504 660.793C367.993 663.683 371.797 665.26 377.101 665.648C383.732 666.11 389.037 664.021 392.865 659.416C401.773 648.705 401.297 626.695 396.868 609.627C394.416 600.168 393.553 582.55 392.652 563.893C391.176 533.524 389.5 499.089 380.742 489.779L380.417 489.429L380.429 488.953C380.429 488.866 380.517 486.138 380.429 482.221C357.334 499.764 332.888 515.468 307.616 529.658C316.06 547.664 326.432 568.961 328.609 571.138ZM304.325 528.056C302.962 525.14 301.923 522.901 301.398 521.762C287.373 515.28 272.297 490.267 270.446 487.114C257.384 479.994 246.2 436.825 243.435 425.375L240.582 429.943C241.596 437.2 228.234 462.238 225.957 466.43C227.233 481.721 208.417 504.882 202.649 511.602C212.095 511.902 221.566 513.066 230.836 515.368C240.908 517.82 250.691 521.774 259.674 527.23C266.38 531.334 272.585 536.315 278.077 542.033C283.007 539.53 287.924 536.978 292.803 534.362C296.669 532.31 300.509 530.196 304.325 528.056ZM185.122 581.949C214.647 571.463 243.535 559.213 271.597 545.286C267.143 540.331 262.101 535.864 256.571 532.035C248.427 526.454 239.344 522.15 229.773 519.247C220.828 516.482 211.495 514.805 202.074 514.004C206.453 526.354 194.167 559.401 184.471 582.174C184.684 582.099 184.896 582.024 185.122 581.949ZM129.573 625.982C124.894 636.017 117.062 652.822 122.029 660.88C123.868 663.871 127.471 665.46 132.751 665.622C132.951 665.635 133.139 665.635 133.339 665.635C160.75 665.635 171.747 605.198 171.86 604.585L171.96 604.284C172.073 604.059 175.513 596.927 179.979 586.716C163.853 592.247 147.539 597.252 131.037 601.569C132.226 606.912 133.489 613.907 132.951 617.711C132.726 619.212 131.4 622.053 129.573 625.982ZM3.30054 600.018C3.67586 601.056 4.27643 602.007 4.91449 602.908C5.62761 603.771 6.39066 604.61 7.30396 605.311C9.0805 606.762 11.17 607.876 13.3594 608.764C17.7632 610.553 22.5548 611.479 27.3464 612.092C32.1631 612.681 37.0301 612.906 41.9093 612.906C51.6678 612.918 61.4512 612.08 71.1597 610.854C90.3764 608.389 109.393 604.347 128.159 599.479C127.534 596.889 127.046 595.1 127.021 595.037L126.921 594.637L127.083 594.262C127.121 594.162 131.262 583.989 121.566 553.132C117.438 539.981 117.312 524.29 118.601 510.375C114.572 510.463 110.469 510.863 106.44 511.426C101.611 512.115 96.832 513.091 92.1154 514.317C87.3988 515.556 82.7575 517.057 78.191 518.771C73.637 520.523 69.1954 522.525 64.8416 524.728C56.1966 529.232 48.0145 534.638 40.5455 540.894C33.1015 547.188 26.3455 554.295 20.3903 562.016C14.4351 569.724 9.23068 578.095 4.81433 586.716C3.81346 588.869 3.02529 591.096 2.67499 593.373C2.37473 595.651 2.48733 597.953 3.30054 600.018Z" fill="url(#paint0_linear)"/>
<defs>
<linearGradient id="paint0_linear" x1="26.2237" y1="577.453" x2="444.708" y2="194.587" gradientUnits="userSpaceOnUse">
<stop offset="0.0001" stop-color="#E50058"/>
<stop offset="1" stop-color="white"/>
</linearGradient>
</defs>
</svg>
